<svg version="1.1" xmlns="http://www.w3.org/2000/svg" xmlns:xlink="http://www.w3.org/1999/xlink" width="545.00002" height="374.66326" viewBox="0,0,545.00002,374.66326"><defs><linearGradient x1="143.2238" y1="308.54247" x2="143.2238" y2="372.17884" gradientUnits="userSpaceOnUse" id="color-1"><stop offset="0" stop-color="#8f1313" stop-opacity="0"/><stop offset="1" stop-color="#8f1313" stop-opacity="0.64706"/></linearGradient><linearGradient x1="253.90561" y1="305.36066" x2="253.90561" y2="368.99702" gradientUnits="userSpaceOnUse" id="color-2"><stop offset="0" stop-color="#8f1313" stop-opacity="0"/><stop offset="1" stop-color="#8f1313" stop-opacity="0.64706"/></linearGradient></defs><g transform="translate(3.45625,2.48442)"><g data-paper-data="{&quot;isPaintingLayer&quot;:true}" fill-rule="nonzero" stroke="none" stroke-linecap="butt" stroke-linejoin="miter" stroke-miterlimit="10" stroke-dasharray="" stroke-dashoffset="0" style="mix-blend-mode: normal"><path d="M268.2238,267.2178v-53.18182h14.09091v53.18182z" fill="#733d00" stroke-width="0"/><path d="M151.90639,277.99053v90.14286h-155.36264v-90.14286z" fill="#965400" stroke-width="0"/><path d="M473.20174,269.33396v-271.81838h14.77485v271.81838z" fill="#f3ff00" stroke-width="0"/><path d="M-3.45624,282.27624v-16h163v16z" fill="#16ff00" stroke-width="0"/><path d="M541.54377,273.99053v90.14286h-293.36264v-90.14286z" data-paper-data="{&quot;index&quot;:null}" fill="#965400" stroke-width="0"/><path d="M240.54376,278.27624v-16h252v16z" data-paper-data="{&quot;index&quot;:null}" fill="#16ff00" stroke-width="0"/><path d="M296.28513,199.21831l-33.06055,33.06055l12.72792,12.72792h-42.42641v-42.42641l12.72792,12.72792l33.06055,-33.06055z" fill="#ff0000" stroke-width="0"/><text transform="translate(240.63606,244.05573) rotate(-45) scale(0.34838,0.34838)" font-size="40" xml:space="preserve" fill="#000000" fill-rule="nonzero" stroke="none" stroke-width="1" stroke-linecap="butt" stroke-linejoin="miter" stroke-miterlimit="10" stroke-dasharray="" stroke-dashoffset="0" font-family="Archivo Black" font-weight="normal" text-anchor="start" style="mix-blend-mode: normal"><tspan x="0" dy="0">to: mines</tspan></text><path d="M131.86017,372.17884v-83.18182h23.63636v83.18182z" fill="#808080" stroke-width="0"/><path d="M241.40563,369.90611v-87.72727h25.90909v87.72727z" fill="#808080" stroke-width="0"/><path d="M131.40562,372.17884v-63.63636h23.63636v63.63636z" fill="url(#color-1)" stroke-width="0"/><path d="M241.40562,368.99702v-63.63636h25v63.63636z" fill="url(#color-2)" stroke-width="0"/></g></g></svg>