<svg version="1.1" xmlns="http://www.w3.org/2000/svg" xmlns:xlink="http://www.w3.org/1999/xlink" width="581" height="454.4498" viewBox="0,0,581,454.4498"><g transform="translate(56.39999,21.10001)"><g data-paper-data="{&quot;isPaintingLayer&quot;:true}" fill-rule="nonzero" stroke="none" stroke-linecap="butt" stroke-linejoin="miter" stroke-miterlimit="10" stroke-dasharray="" stroke-dashoffset="0" style="mix-blend-mode: normal"><path d="M-34,376v-392h548v392z" fill="#00bdff" stroke-width="0"/><path d="M-27.95037,122.6683c5.49758,-1.58509 12.17025,-1.56966 15.02911,-1.68561c1.16263,-1.5465 18.64217,-18.29316 41.19308,-18.10292c22.62555,0.23197 31.27692,8.49313 42.13947,13.06917c13.48561,-5.10336 23.03277,-7.06738 37.29499,-5.17297c13.39942,1.83412 20.18924,12.3609 20.72908,12.78616c0.26101,0.2079 7.61994,-2.72439 13.83584,-2.14257c7.98884,0.74776 10.56404,9.38318 8.81833,9.38318c-2.21815,0 -184.07879,-0.15156 -188.38077,0.11908c-4.18936,-2.02432 4.38261,-6.82304 9.34087,-8.25352z" fill="#ffffff" stroke-width="0"/><path d="M198.55351,126.58251c5.07468,-2.66069 11.23407,-2.63479 13.87303,-2.82941c1.07319,-2.59591 17.20815,-30.70637 38.02438,-30.38704c20.88513,0.38938 28.871,14.25633 38.89797,21.93754c12.44825,-8.56635 21.26101,-11.86311 34.42615,-8.6832c12.3687,3.0787 18.63622,20.74865 19.13454,21.46247c0.24093,0.34897 7.0338,-4.57308 12.77154,-3.59646c7.37432,1.25517 9.75142,15.75034 8.13999,15.75034c-2.04753,0 -169.91889,-0.25441 -173.88995,0.19988c-3.8671,-3.39796 4.04549,-11.45296 8.62235,-13.85412z" fill="#ffffff" stroke-width="0"/><path d="M76.20178,244.63825c9.35645,-1.30204 20.71282,-1.28937 25.57839,-1.3846c1.9787,-1.27034 31.72753,-15.02652 70.10745,-14.87025c38.50695,0.19055 53.23091,6.9765 71.71813,10.73539c22.95147,-4.19204 39.2,-5.80535 63.47321,-4.24923c22.80479,1.5066 34.36053,10.15359 35.2793,10.50291c0.44422,0.17077 12.96856,-2.23789 23.54753,-1.75997c13.5964,0.61423 17.97918,7.70761 15.00811,7.70761c-3.77513,0 -313.28795,-0.1245 -320.60959,0.09781c-7.12997,-1.66283 7.45887,-5.60464 15.89745,-6.77968z" fill="#ffffff" stroke-width="0"/><path d="M333.38588,48.87431c2.90737,-1.6417 6.43619,-1.62572 7.94809,-1.74581c0.61485,-1.60173 9.85884,-18.94648 21.7848,-18.74945c11.96544,0.24025 16.54068,8.79646 22.2853,13.53593c7.13181,-5.28562 12.18079,-7.31979 19.72331,-5.35772c7.08623,1.89962 10.677,12.80236 10.9625,13.2428c0.13803,0.21532 4.02978,-2.82169 7.31703,-2.21909c4.22487,0.77447 5.58675,9.71829 4.66354,9.71829c-1.17306,0 -97.34936,-0.15698 -99.62445,0.12333c-2.21553,-2.09661 2.31773,-7.06672 4.93989,-8.54829z" fill="#ffffff" stroke-width="0"/><path d="M267.35486,216.19617c6.29049,-0.90577 13.92557,-0.89695 17.19677,-0.9632c1.33031,-0.88372 21.33094,-10.45323 47.13439,-10.34452c25.88885,0.13255 35.78801,4.85322 48.21728,7.4681c15.43065,-2.9162 26.3548,-4.03851 42.67408,-2.95598c15.33203,1.04807 23.10115,7.06337 23.71885,7.30637c0.29865,0.1188 8.71898,-1.55679 15.83139,-1.22433c9.14108,0.42729 12.0877,5.36182 10.0902,5.36182c-2.53808,0 -210.62862,-0.08661 -215.55108,0.06804c-4.79359,-1.15675 5.01472,-3.89888 10.68812,-4.7163z" fill="#ffffff" stroke-width="0"/><path d="M-6.05792,313.41721c10.41368,-1.1039 23.05326,-1.09316 28.46861,-1.1739c2.20228,-1.07703 35.31257,-12.73988 78.0292,-12.60739c42.85802,0.16155 59.2457,5.91486 79.82188,9.10175c25.54485,-3.55412 43.62937,-4.92193 70.64532,-3.60261c25.3816,1.27733 38.24308,8.60848 39.26567,8.90464c0.49441,0.14479 14.43393,-1.89734 26.20827,-1.49215c15.13271,0.52076 20.01073,6.53472 16.70395,6.53472c-4.20169,0 -348.68771,-0.10555 -356.83666,0.08293c-7.93561,-1.40979 8.30168,-4.75176 17.69377,-5.74799z" fill="#ffffff" stroke-width="0"/><path d="M139.64506,318.4644c2.25979,9.20239 2.99202,18.50246 4.47997,27.85334c0.39644,2.49137 1.43938,4.81839 1.66746,7.34022c0.31018,3.42946 -1.35584,6.73019 -1.60586,10.16679c-0.24701,3.39519 -0.14375,10.08725 0.3814,13.57403c0.69751,4.63119 3.54799,9.84157 0.89791,14.78512c-1.1656,2.17435 -3.75807,2.50869 -5.6371,3.76305c-3.10058,0.00652 -6.23172,0.54288 -9.30175,0.01957c-4.53044,-0.77226 -9.427,-3.99177 -14.03247,-5.2298c-1.95687,-0.52605 -4.73864,0.4384 -5.87544,-1.55185c-2.74885,-4.8125 -1.11293,-15.59397 -0.91099,-21.37702c0.33871,-9.69994 -1.12154,-20.13353 0.02902,-29.74232c0.23492,-1.96192 0.94738,-3.80985 1.19684,-5.76916c1.21236,-9.52199 0.33793,-19.9405 0.38717,-29.57507c-0.29966,-1.78031 -0.69376,-3.53788 -1.1477,-5.27323c-11.98721,-0.78569 -23.44962,-2.2879 -35.23894,-4.33974c-2.32184,-0.4041 -5.08585,-0.95317 -7.83413,-1.67906c-1.22032,4.93422 0.44213,10.504 -0.34162,15.47155c-0.31419,1.9914 -1.24722,3.78608 -1.59579,5.76916c-0.41324,2.35099 0.22338,4.81556 0.04666,7.20926c-0.55468,7.51298 -1.60932,14.86188 -1.61812,22.39255c-1.59817,7.7037 -1.52265,14.31036 -2.40267,22.19777c-0.44293,3.96998 -1.78799,7.72602 -2.40903,11.66118c-0.75406,4.77802 2.35613,8.57465 -1.2566,13.53488c-1.52361,2.0919 -4.50016,1.43039 -6.80744,1.55782c-1.35474,0.07483 -2.63915,-0.81 -3.98948,-0.96153c-3.23627,-0.36314 -8.98597,-0.78288 -12.15774,0.25159c-2.12708,0.69374 -3.94885,3.6275 -6.10229,3.06409c-2.39525,-0.62668 -4.09348,-3.53619 -5.36206,-6.06352c-0.89035,-1.77379 -0.77647,-4.07681 -0.76838,-6.14984c0.00743,-1.90299 0.66543,-3.72952 0.8143,-5.62405c0.36268,-4.61566 -0.71217,-6.26457 0.58782,-11.23397c0.51426,-1.96581 1.43801,-3.79879 2.54701,-5.368c0.51258,-0.72528 1.88054,-0.34911 2.13182,-1.25237c0.45545,-1.63717 -0.23139,-3.44217 -0.34707,-5.16327c0.53193,-1.12178 1.28171,-2.13002 1.59579,-3.36534c0.59147,-2.32633 -0.74758,-4.78983 -0.92641,-7.21334c-0.39788,-5.39254 -0.20182,-11.08403 0.92125,-16.32047c0.90096,-4.20081 2.49135,-9.50276 3.81946,-13.29714c1.41056,-4.02993 3.84519,-8.36524 4.48525,-12.74526c1.38034,-9.44598 3.15915,-18.54733 3.73141,-28.09754c-0.57311,-1.03933 -1.07254,-2.055 -1.48508,-3.00706c-2.43789,-5.62611 -1.52617,-11.9053 -1.48074,-17.77451c1.55535,-4.72494 4.41011,-8.43692 6.70633,-12.89142l1.30778,-2.18494c0,0 2.00716,-3.33136 6.02149,-1.66567c0.52442,0.2176 0.94607,0.46362 1.28286,0.72693c6.14013,-0.83128 12.41539,-0.458 18.65206,-0.458c9.84225,0 19.46121,-0.16707 29.14935,1.38761c2.46231,0.39513 5.06317,-0.06813 7.50889,0.39252c1.04555,0.19693 1.7567,1.09504 2.79263,1.3243c1.02793,0.22748 2.16499,-0.23166 3.19157,0c3.81049,0.85988 4.1362,1.89945 8.17457,1.86736c2.85291,-0.26306 11.54954,-1.28358 13.59109,0.2645c2.36234,1.79132 1.51788,8.46008 1.51788,11.06904c0,8.71824 0,17.4365 0,26.15474c0,1.37492 0.03099,6.70365 -0.16285,7.28459c-0.49359,1.47923 -1.85908,2.65492 -2.7229,4.01213c-0.62538,0.98259 -0.78551,2.22645 -1.74246,3.00374c-0.09764,0.07931 -0.19582,0.15737 -0.29452,0.23418c0.88232,9.18553 3.79135,18.28874 5.94058,27.04088z" fill="#004eff" stroke-width="0.5"/><path d="M158.53918,267.11232c-0.02649,-0.18619 -0.06972,-0.3678 -0.14207,-0.54151c-0.30343,-0.72854 -1.16472,-1.12271 -1.48507,-1.84398c-0.36888,-0.83053 -0.29527,-1.79587 -0.52241,-2.67578c-1.04878,-4.0627 -2.90244,-8.10827 -0.65538,-12.22357c1.16083,-2.12594 4.2401,-3.47843 6.0844,-4.90979c2.38451,-0.73351 5.42895,-2.2269 7.96147,-2.51498c1.15863,-0.13178 2.33474,0.06336 3.49827,-0.01403c5.09942,-0.33918 10.45986,-1.49981 15.33289,1.07472c0.90546,0.47838 1.50515,1.38942 2.23755,2.10515c2.52323,2.46578 7.48489,2.29601 8.7862,5.68496c0.50261,1.30892 3.36264,5.18845 3.80322,6.51951c0.36447,1.1011 -3.49122,3.35289 -3.26904,4.49125c0.21135,1.08273 -0.1499,2.20326 -0.1432,3.30641c0.00195,0.32289 0.40227,5.66999 0.06988,6.54638c-0.86522,2.28128 -2.56232,3.71584 -4.19415,5.35956c-3.41379,3.32731 -8.29415,5.23198 -12.73854,6.77824c-0.89695,0.31205 -1.70086,0.92868 -2.63967,1.0721c-0.67176,0.10262 -1.32906,-0.41948 -2.00621,-0.36235c-0.64375,0.0543 -1.18333,0.54096 -1.8132,0.68453c-2.49699,0.56916 -6.23315,0.73454 -8.73379,-0.01552c-3.95658,-1.18679 -5.34369,-3.5415 -7.72061,-6.49557c-2.1658,-2.69167 -4.24636,-3.38132 -5.04062,-7.29535c-0.18004,-0.88722 0.27063,-1.79029 0.40595,-2.68543c0,0 0.49104,-2.45514 2.92411,-2.04498z" fill="#ffca89" stroke-width="0.5"/><path d="M-17.90103,233.45888c-0.02648,-0.18619 -0.06971,-0.3678 -0.14205,-0.54151c-0.30343,-0.72856 -1.16472,-1.12271 -1.48508,-1.84398c-0.36888,-0.83053 -0.29527,-1.79585 -0.52241,-2.67578c-1.04878,-4.06269 -2.90245,-8.10825 -0.65538,-12.22357c1.16083,-2.12594 4.2401,-3.47844 6.0844,-4.90979c2.38451,-0.73351 5.42894,-2.22691 7.96147,-2.51498c1.15863,-0.1318 2.33474,0.06335 3.49827,-0.01403c5.09942,-0.33918 10.45986,-1.49981 15.33289,1.07472c0.90546,0.47838 1.50516,1.38942 2.23757,2.10515c2.52324,2.4658 7.48489,2.29601 8.7862,5.68496c0.50259,1.30891 3.36264,5.18844 3.80322,6.51951c0.36445,1.1011 -3.49124,3.35289 -3.26904,4.49125c0.21134,1.08273 -0.1499,2.20326 -0.14322,3.30639c0.00196,0.32289 0.40227,5.66997 0.06988,6.54638c-0.86522,2.28128 -2.56232,3.71584 -4.19415,5.35956c-3.41379,3.32731 -8.29415,5.23198 -12.73854,6.77824c-0.89696,0.31207 -1.70086,0.92868 -2.63967,1.0721c-0.67176,0.10262 -1.32906,-0.41946 -2.00621,-0.36235c-0.64375,0.0543 -1.18331,0.54096 -1.8132,0.68454c-2.49698,0.56916 -6.23315,0.73454 -8.73377,-0.01552c-3.95658,-1.18679 -5.34369,-3.5415 -7.72061,-6.49556c-2.1658,-2.69167 -4.24636,-3.38132 -5.04062,-7.29535c-0.18004,-0.88724 0.27063,-1.79029 0.40596,-2.68543c0,0 0.49103,-2.45514 2.9241,-2.04498z" fill="#ffca89" stroke-width="0.5"/><path d="M128.52279,113.31996c0.31518,0.23668 0.64841,0.4418 1.01309,0.59203c1.52949,0.63006 3.39018,-0.06226 4.93394,0.53192c1.77764,0.68419 3.09922,2.22403 4.73999,3.19149c7.57563,4.46689 16.31879,7.71546 19.08769,17.14504c1.43039,4.87126 -1.12885,11.43954 -1.74089,16.29432c-2.44692,4.62116 -4.7457,11.34661 -8.07217,15.52698c-1.52186,1.91251 -3.55418,3.36639 -5.16392,5.20554c-7.05506,8.06048 -13.27957,17.72526 -24.31747,21.1318c-2.05097,0.63298 -4.28999,0.17153 -6.43628,0.19625c-7.39417,0.08515 -14.49614,7.69038 -21.4475,4.59629c-2.68481,-1.19502 -12.67343,-2.706 -15.29917,-4.02578c-2.17207,-1.09177 0.20504,-10.14358 -1.81143,-11.50141c-1.91793,-1.29147 -3.04325,-3.48756 -4.68811,-5.11262c-0.48144,-0.47564 -8.9996,-7.80717 -9.80587,-9.59872c-2.09872,-4.66339 -1.70965,-9.30478 -1.72723,-14.15942c0.12816,-9.99089 4.5384,-20.04685 8.83367,-28.92553c0.86686,-1.79187 1.14444,-3.89721 2.32327,-5.50115c0.84351,-1.14772 2.59146,-1.34809 3.5104,-2.43636c0.87361,-1.03458 0.95204,-2.55554 1.67278,-3.70187c2.85721,-4.54428 8.14939,-10.32671 12.96721,-12.9212c7.62289,-4.10508 13.16859,-2.67099 21.06958,-1.81563c7.19919,0.7794 11.30489,-1.28207 18.28293,3.3417c1.58179,1.04813 2.25225,3.05448 3.37838,4.58171c0,0 2.91097,4.36646 -1.30292,7.36461z" fill="#ffca89" stroke-width="0.5"/><path d="M161.86404,136.14044c-0.7625,1.11356 -2.08176,2.07691 -4.36438,2.07691c-3.36704,0 -4.63797,-2.09609 -5.11771,-3.6785c-0.88888,-0.68316 -1.76288,-1.38047 -2.45052,-2.25514c-0.76544,-0.97362 -0.87716,-2.36324 -1.46176,-3.44179c-0.2164,-0.27029 -0.42863,-0.54361 -0.63501,-0.82118c-0.94065,-0.82082 -2.45707,-0.8849 -3.39168,-1.73897c-1.16638,-1.06588 -1.55737,-2.82419 -2.74939,-3.86131c-3.75483,-3.26689 -9.77121,-6.05084 -14.60705,-6.62425c-5.53312,-2.72689 -7.97611,-3.67289 -13.96503,-3.65101c-4.05383,0.01481 -9.72052,-1.14723 -13.58942,-0.18119c-1.04756,0.26156 -1.77468,1.23701 -2.71922,1.76013c-2.58577,1.43211 -5.52427,2.18523 -8.04684,3.72595c-6.37364,3.89287 -11.05288,12.01465 -14.85648,18.18484c-2.35274,3.8166 -3.72598,9.25748 -6.4834,12.74819c-1.20115,1.52059 -3.28571,2.12578 -4.61319,3.53743c-2.05013,2.18014 -3.07765,5.1399 -4.80198,7.58586c-2.06181,1.16416 -3.90409,2.85853 -6.18542,3.49248c-2.09207,0.58136 -4.42692,0.63576 -6.51395,0.0365c-12.52929,-3.59761 -8.63453,-22.48004 -4.89748,-31.65814c2.63923,-6.48191 5.87573,-13.54492 10.22839,-19.13214c1.7553,-2.25316 4.38802,-3.68385 6.31164,-5.79515c1.03578,-1.13684 1.47587,-2.78974 2.6625,-3.76807c1.5952,-1.31518 3.65445,-1.93496 5.46515,-2.93283c7.17301,-3.95299 13.9392,-7.16129 21.56194,-10.21336c10.51587,-4.24801 22.98275,-2.11158 33.70775,0.26195c1.54654,0.34227 3.22203,0.18584 4.68544,0.79199c5.31488,2.20148 7.29969,6.9878 11.53104,10.33929c1.14241,0.90486 8.03067,5.44912 9.45004,6.67332c4.74216,4.09009 6.78238,8.73709 10.2191,13.57861c0.27344,0.33277 0.52775,0.68297 0.77092,1.04311c1.85334,2.40803 4.00768,4.59729 5.63284,7.16349c0,0 2.43629,3.89806 -0.77682,6.75295z" fill="#000000" stroke-width="0.5"/><path d="M95.50892,130.03514c0,-2.98708 2.4215,-5.40859 5.40859,-5.40859c2.98708,0 5.40859,2.4215 5.40859,5.40859c0,2.98708 -2.4215,5.40859 -5.40859,5.40859c-2.98708,0 -5.40859,-2.4215 -5.40859,-5.40859z" fill="#000000" stroke-width="0.5"/><path d="M145.43434,143.34859c0,-2.98708 2.4215,-5.40859 5.40859,-5.40859c2.98708,0 5.40859,2.4215 5.40859,5.40859c0,2.98708 -2.4215,5.40859 -5.40859,5.40859c-2.98708,0 -5.40859,-2.4215 -5.40859,-5.40859z" fill="#000000" stroke-width="0.5"/><path d="M141.0844,163.81108c4.50022,3.00015 1.50007,7.50036 1.50007,7.50036l-1.78522,2.48848c-0.95778,0.95778 -5.94102,6.00157 -6.62888,6.38433c-4.87722,2.714 -10.76009,1.86432 -16.0563,1.85653c-3.91965,-0.00575 -10.63738,0.27226 -14.24977,-0.76431c-1.91308,-0.54896 -3.34359,-2.18341 -5.1445,-3.0307c-1.55529,-0.73173 -3.48975,-0.66413 -4.87418,-1.68285c-1.43421,-1.05537 -2.03706,-2.93058 -3.21277,-4.26792c-4.29909,-4.89011 -9.35343,-8.31884 -10.58779,-15.32987c-0.4024,-2.28558 0.34207,-4.62884 0.51311,-6.94327c0,0 0.53818,-5.38175 5.91992,-4.84357c5.38175,0.53818 4.84357,5.91992 4.84357,5.91992c-0.19878,1.38376 -0.76627,2.76367 -0.59634,4.15127c0.47205,3.85465 6.26428,7.76939 8.27292,10.18757c0.57178,0.68836 0.49553,1.87054 1.22505,2.38881c0.79926,0.56782 2.00161,0.12568 2.89201,0.53607c1.36242,0.62794 2.2961,2.07932 3.73112,2.51657c2.75942,0.8408 8.25982,0.34996 11.26766,0.34514c2.15617,-0.00346 8.43818,1.03718 10.5706,-0.36238c1.80878,-1.18713 2.93581,-3.18037 4.46566,-4.71022l0.43368,-0.83987c0,0 3.00015,-4.50022 7.50036,-1.50007z" fill="#000000" stroke-width="0.5"/><path d="M144.88957,214.81545c0.64514,1.13507 0.99806,2.4964 1.93542,3.40522c0.99009,0.95995 2.62223,1.04501 3.62784,1.98869c2.04651,1.92047 3.45633,4.43361 5.38675,6.47073c3.64035,3.84158 8.16056,7.31172 12.02724,10.92004c2.71436,2.53299 7.84072,3.86297 8.17911,7.56017c0.34276,3.74485 -2.43086,7.18654 -4.41126,10.38332c-0.79352,1.28091 -2.88735,1.35738 -3.66252,2.64947c-0.49913,0.83196 0.58827,1.95328 0.33866,2.89081c-0.51294,1.9266 -1.50627,3.71147 -2.54889,5.41084c-1.83869,2.99692 -2.66241,7.74527 -6.06535,8.62974c-3.09683,0.8049 -5.7954,-2.85527 -8.24879,-4.90931c-0.99664,-0.83441 -1.01148,-2.41843 -1.76699,-3.47612c-3.43486,-4.80875 -6.10527,-7.97139 -8.23341,-13.6115c-0.20609,-0.44036 -0.43688,-0.8692 -0.68882,-1.28661c-0.54637,2.69919 -1.13934,5.38212 -1.7359,8.03578c-0.43012,2.83361 0.51871,6.27784 -1.29036,8.50082c-1.67437,2.05747 -4.98655,1.8754 -7.58562,2.40599c-4.78014,0.97585 -10.08328,-0.60094 -14.73731,-1.1177c-11.79717,-1.30987 -23.56235,-2.84144 -35.21226,-4.46824c-7.67988,-1.07241 -16.41882,0.05228 -24.21253,0.05228c-1.5422,0 -9.18719,0.04574 -9.81196,-0.20959c-2.88752,-1.18001 -5.8804,-2.80097 -7.67734,-5.35072c-1.25587,-1.78201 -0.452,-4.33666 -0.67801,-6.505c0,-8.77244 -0.39748,-17.45946 -0.71662,-26.18342c-0.39578,0.0945 -0.79042,0.19211 -1.18311,0.29522c-8.32431,2.18572 -8.21875,9.36017 -19.56288,3.19487c-2.49421,-1.35555 -3.27652,-4.69106 -4.36355,-7.31346c-2.45851,-5.93106 -1.58926,-16.35182 1.73852,-21.75881c1.14136,-1.85448 7.4492,-6.67731 9.81461,-7.65005c1.20924,-0.49729 2.66075,-0.09058 3.88309,-0.55473c1.06692,-0.40514 1.77367,-1.46691 2.79291,-1.98032c4.16154,-2.0963 8.32066,-3.80049 12.76809,-4.99719c0.33548,-0.58481 0.69932,-1.14169 1.21656,-1.55855c1.36912,-1.1034 3.22477,-1.41476 4.76573,-2.26176c6.15089,-3.38089 10.68449,-7.48259 17.5076,-9.80573c0,0 5.13103,-1.71034 6.84139,3.42069c0.28859,0.86578 0.38241,1.63417 0.33895,2.31339c1.08544,1.05756 2.28998,2.02451 3.0746,3.31083c0.701,1.14923 0.46401,2.70176 1.10945,3.88309c1.20779,2.21061 4.09923,4.16549 6.45158,4.66464c6.76896,0.96925 12.6926,0.71776 19.36146,-0.08664c2.54671,-0.30718 5.15234,0.34345 7.69551,0.00824c5.70876,-0.7525 5.98126,-2.91043 12.09973,0.94868c1.57459,0.99315 2.09073,3.11144 3.41794,4.41687c0.95664,0.94094 2.4331,1.25419 3.34682,2.23686c1.58118,1.70052 2.43006,3.99725 4.02178,5.68789c2.88214,3.06123 6.5179,5.82273 8.57909,9.42541c1.33175,0.78888 2.07302,1.9749 2.07302,1.9749z" fill="#fff000" stroke-width="0.5"/><text transform="translate(34.62118,209.50879) scale(0.28606,0.252)" font-size="40" xml:space="preserve" fill="#000000" fill-rule="nonzero" stroke="none" stroke-width="1" stroke-linecap="butt" stroke-linejoin="miter" stroke-miterlimit="10" stroke-dasharray="" stroke-dashoffset="0" font-family="Archivo Black" font-weight="normal" text-anchor="start" style="mix-blend-mode: normal"><tspan x="0" dy="0">yes, i'm a MAN.</tspan></text><text transform="translate(47.93629,227.86002) scale(0.29604,0.29604)" font-size="40" xml:space="preserve" fill="#000000" fill-rule="nonzero" stroke="none" stroke-width="1" stroke-linecap="butt" stroke-linejoin="miter" stroke-miterlimit="10" stroke-dasharray="" stroke-dashoffset="0" font-family="Archivo Black" font-weight="normal" text-anchor="start" style="mix-blend-mode: normal"><tspan x="0" dy="0">Masculine </tspan><tspan x="0" dy="46.150000000000006px">Ass</tspan><tspan x="0" dy="46.150000000000006px">Nice guy</tspan></text><path d="M23.17444,384.47339c3.1686,0 4.48088,1.8563 5.02438,3.3939c12.4698,-1.56649 26.63053,-2.72152 38.79644,-0.19615c1.65144,0.3428 3.05078,1.484 4.67739,1.92997c1.95305,0.53546 4.11045,0.24975 5.99322,0.99558c1.56894,0.62151 2.64523,2.10934 4.08148,2.99538c4.31457,2.6617 8.49394,6.1965 10.41713,11.34746c0.94372,2.52763 2.44524,5.48379 1.40173,7.97188c-1.21943,2.90754 -4.38707,4.78373 -7.27862,6.04059c-2.19951,0.95605 -4.79437,0.14939 -7.19062,0.24868c-3.96354,0.16423 -7.92778,0.37954 -11.89471,0.38108c-13.04774,0 -25.31219,0.59044 -37.7592,-3.69071c-4.39665,-1.51223 -6.87434,-1.43202 -9.74522,-6.10938c-3.10808,-5.06381 -1.93198,-12.03392 -1.93198,-17.62241v-2.2773c0,0 0,-5.40859 5.40859,-5.40859z" fill="#000000" stroke-width="0.5"/><path d="M101.67472,388.31091c0.13471,-1.28248 0.91065,-4.97616 5.38029,-4.97616c1.36397,0 2.38396,0.34397 3.14673,0.85842c1.07301,-0.16648 1.91748,-0.02574 1.91748,-0.02574c6.43119,1.12357 11.41329,4.46598 17.58928,6.1832c3.72727,1.03636 7.75085,1.04847 11.32954,2.51799c3.16319,1.29891 5.85607,3.58628 9.01501,4.89548c3.00898,1.24705 6.26325,2.24723 8.74853,4.35259c3.31787,2.81066 12.40123,12.01791 10.08461,16.62633c-1.64415,3.27071 -6.84968,2.64934 -10.41194,3.49259c-3.01313,0.71326 -6.19279,0.003 -9.28919,0.003c-5.3137,0 -10.6274,0 -15.9411,0c-8.1931,0 -16.05275,0.25966 -24.10191,-1.16875c-2.08564,-0.37012 -4.70785,0.49088 -6.28771,-0.92012c-5.88828,-5.25897 -4.61882,-15.99369 -4.24434,-23.05632c0.11015,-2.07724 -0.35927,-4.35374 0.571,-6.21429c0.53903,-1.07805 1.48945,-1.84359 2.49371,-2.56823z" fill="#000000" stroke-width="0.5"/><path d="M445.08776,252.13146c0.50778,0.91892 0.50778,1.88616 0.50778,1.88616c0,8.54996 -0.33563,16.1248 -2.2354,24.48197c-0.4515,1.9862 -0.42907,4.18927 -1.49516,5.92485c-2.17896,3.54727 -6.27637,5.50606 -9.02652,8.63138c-2.9998,3.40903 -5.67776,7.14802 -9.07965,10.15593c-0.88204,0.7799 -9.65341,7.08404 -10.00322,7.35615c-1.81679,1.41329 -3.28564,3.31821 -5.30886,4.4158c-1.18144,0.64093 -2.72726,0.14729 -3.98348,0.62531c-3.02652,1.15166 -5.4891,3.65896 -8.62304,4.47416c-1.29734,0.33747 -2.69384,-0.14398 -4.02131,0.04254c-2.78599,0.39143 -5.42413,1.49929 -8.157,2.16736c-7.87626,-0.0104 -11.29383,-2.53439 -18.1035,-5.69882c-1.77409,-0.82441 -6.02059,-2.41066 -7.59459,-3.5763c-2.73226,-2.02342 -4.67185,-5.01134 -7.4632,-6.95244c-1.55158,-1.07897 -3.69394,-1.33284 -4.97158,-2.72541c-1.21045,-1.31933 -1.15785,-3.41666 -2.07462,-4.95462c-2.27696,-3.81979 -5.3577,-7.15715 -7.35443,-11.13062c-2.21616,-4.41013 -4.76153,-9.58572 -6.38685,-14.24159c-0.63002,-1.80475 -0.59419,-3.8397 -1.45282,-5.54756c-0.91526,-1.82047 -2.81116,-3.01654 -3.75951,-4.81998c-0.89866,-1.70895 -0.85482,-3.7994 -1.68881,-5.54082c-0.981,-2.0484 -2.63764,-3.71359 -3.70365,-5.71906c-2.66298,-5.00982 -3.39,-8.15512 -5.05384,-13.46985c-0.7849,-2.11268 -2.09891,-4.09882 -2.35469,-6.33801c-0.18657,-1.63331 0.99109,-3.1704 1.08108,-4.81188c0.2706,-4.93599 -0.54919,-10.38569 -0.54919,-15.40334c0,-8.75913 -0.84999,-18.44316 0.59625,-27.083c1.47711,-8.82421 5.99513,-15.9853 10.06786,-23.68841c0.42391,-0.80178 4.24541,-8.57758 4.57658,-9.05369c1.47881,-2.126 3.95771,-3.41216 5.4802,-5.5071c2.41046,-3.31676 4.52862,-6.86575 7.22257,-9.95668c1.69423,-1.64494 3.05743,-3.72047 5.08267,-4.93481c5.65155,-3.38868 7.38843,-1.29635 13.43634,-2.44309c1.4824,-0.28107 2.73473,-1.31407 4.18996,-1.71262c4.52026,-1.238 11.61723,-1.784 16.15327,-0.59701c2.45092,0.64135 5.04944,1.33094 7.01116,2.93406c1.73021,1.41392 2.07962,4.0019 3.5428,5.69064c1.73508,2.00254 4.03188,3.44195 6.12556,5.06589c3.53125,2.73897 8.61991,3.57269 11.38078,7.08686c1.2371,1.57463 0.41146,4.09005 1.36705,5.84979c1.75244,3.22715 6.17896,4.53288 7.70721,7.87205c0.63167,1.38016 -0.41346,3.11976 0.08705,4.55271c1.23495,3.53562 5.00925,5.57301 7.36813,8.48186c2.34594,2.8929 4.22427,6.13561 6.35595,9.18982c2.78825,5.55837 5.1915,12.51981 8.96893,17.50488c1.29301,1.7064 3.42794,2.72985 4.4996,4.58328c3.4018,5.8834 1.94718,9.80391 3.15293,15.72152c1.23259,6.04937 3.08808,11.60549 2.1967,17.92657c-0.58555,4.15242 -2.1034,8.2236 -2.70103,12.42804l-1.01243,0.85712z" data-paper-data="{&quot;index&quot;:null}" fill="#000000" stroke-width="0.5"/><path d="M331.09826,332.03645c2.09192,-8.51875 4.92337,-17.37922 5.78217,-26.31981c-0.09606,-0.07477 -0.19162,-0.15074 -0.28666,-0.22794c-0.93143,-0.75657 -1.08729,-1.96726 -1.696,-2.92364c-0.84078,-1.32102 -2.16986,-2.46536 -2.65029,-3.90515c-0.18867,-0.56545 -0.15851,-5.75208 -0.15851,-7.09034c0,-8.48576 0,-16.97153 0,-25.4573c0,-2.53939 -0.82194,-9.03032 1.4774,-10.77388c1.98711,-1.5068 10.45184,-0.51349 13.22867,-0.25745c3.93068,0.03124 4.24771,-0.98062 7.95659,-1.81757c0.9992,-0.22548 2.10594,0.22141 3.10647,0c1.00832,-0.22314 1.7005,-1.0973 2.71817,-1.28898c2.3805,-0.44837 4.91202,0.00254 7.30866,-0.38205c9.42979,-1.51323 18.79226,-1.35061 28.37205,-1.35061c6.07036,0 12.17828,-0.36333 18.15468,0.44579c0.32781,-0.25628 0.73822,-0.49575 1.24865,-0.70754c3.90728,-1.62127 5.86092,1.62126 5.86092,1.62126l1.27291,2.12668c2.235,4.33572 5.01363,7.94871 6.5275,12.54766c0.04422,5.7127 0.93162,11.82445 -1.44126,17.30054c-0.40154,0.92667 -0.88766,1.91526 -1.44548,2.92687c0.557,9.29555 2.28837,18.15421 3.63191,27.3483c0.62299,4.26322 2.9927,8.48292 4.36565,12.40539c1.29269,3.6932 2.84068,8.85376 3.71761,12.94256c1.09312,5.0968 1.28396,10.63653 0.89668,15.88527c-0.17406,2.35888 -1.4774,4.7567 -0.90171,7.02099c0.30571,1.20238 1.03549,2.18373 1.55324,3.2756c-0.1126,1.6752 -0.78112,3.43207 -0.33782,5.02559c0.24458,0.87918 1.57607,0.51303 2.07497,1.21897c1.07943,1.52737 1.97854,3.31147 2.47909,5.22486c1.26533,4.83688 0.21914,6.44183 0.57215,10.93441c0.1449,1.84402 0.78536,3.62184 0.79259,5.47408c0.00788,2.01775 0.11872,4.25936 -0.74789,5.98585c-1.23475,2.45993 -2.88769,5.29186 -5.21908,5.90183c-2.09602,0.54839 -3.86921,-2.30714 -5.93956,-2.98238c-3.08719,-1.00688 -8.68357,-0.59834 -11.83354,-0.24488c-1.31432,0.14749 -2.56447,1.00872 -3.88309,0.93589c-2.24575,-0.12403 -5.14293,0.51984 -6.62591,-1.51628c-3.51638,-4.82797 -0.48914,-8.52335 -1.22309,-13.17396c-0.60448,-3.83022 -1.91367,-7.48611 -2.34479,-11.35022c-0.85655,-7.67708 -0.78304,-14.10757 -2.3386,-21.60585c-0.00856,-7.32986 -1.03509,-14.4828 -1.57497,-21.79543c-0.17201,-2.32987 0.44764,-4.72872 0.04541,-7.01702c-0.33928,-1.9302 -1.24743,-3.67702 -1.55324,-5.61532c-0.76286,-4.83509 0.85527,-10.25634 -0.33251,-15.05898c-2.675,0.70653 -5.3653,1.24096 -7.62523,1.63428c-11.47495,1.99712 -22.63171,3.45928 -34.29926,4.22401c-0.44184,1.68907 -0.82542,3.39978 -1.1171,5.13261c0.04793,9.37766 -0.80319,19.51835 0.37684,28.78642c0.24281,1.90706 0.93627,3.70572 1.16493,5.61532c1.11988,9.35256 -0.30143,19.50793 0.02825,28.94921c0.19655,5.62884 1.78884,16.12281 -0.8867,20.80698c-1.10648,1.93717 -3.81408,0.99845 -5.71877,1.51047c-4.48267,1.20502 -9.24866,4.33868 -13.65829,5.09034c-2.98816,0.50935 -6.03581,-0.0127 -9.05371,-0.01905c-1.82892,-1.22091 -4.35227,-1.54633 -5.48679,-3.66271c-2.57941,-4.81173 0.19506,-9.88316 0.87397,-14.39086c0.51115,-3.3938 0.61165,-9.90741 0.37123,-13.21206c-0.24335,-3.34496 -1.86495,-6.55767 -1.56304,-9.89568c0.222,-2.45458 1.23713,-4.71955 1.623,-7.14448c1.44828,-9.10152 2.16097,-18.1536 4.36051,-27.1106z" data-paper-data="{&quot;index&quot;:null}" fill="#00091f" stroke-width="0.5"/><path d="M313.24796,282.05369c2.36819,-0.39922 2.84614,1.99045 2.84614,1.99045c0.13171,0.87127 0.57036,1.75025 0.39512,2.61382c-0.77308,3.80966 -2.79816,4.48091 -4.9062,7.10081c-2.31354,2.8753 -3.66366,5.16722 -7.51473,6.32236c-2.43396,0.73006 -6.07048,0.56908 -8.50089,0.01511c-0.61308,-0.13974 -1.13827,-0.61342 -1.76485,-0.66627c-0.6591,-0.05561 -1.29887,0.45257 -1.95271,0.35268c-0.91377,-0.1396 -1.69625,-0.73978 -2.56928,-1.04351c-4.32587,-1.50503 -9.0761,-3.35892 -12.39885,-6.5975c-1.58832,-1.59989 -3.24017,-2.99619 -4.08231,-5.21665c-0.32353,-0.85302 0.06612,-6.05754 0.06802,-6.37182c0.00651,-1.07373 -0.3451,-2.16438 -0.13939,-3.21824c0.21626,-1.108 -3.53661,-3.29974 -3.18187,-4.37149c0.42883,-1.29557 3.2126,-5.07165 3.7018,-6.34566c1.26661,-3.29858 6.09596,-3.13333 8.55191,-5.53337c0.71288,-0.69665 1.29658,-1.58339 2.17789,-2.04902c4.74308,-2.50588 9.96058,-1.3762 14.92402,-1.04606c1.13251,0.07533 2.27725,-0.11461 3.40499,0.01366c2.46499,0.2804 5.42825,1.73397 7.74917,2.44791c1.79512,1.39319 4.79228,2.70962 5.92216,4.77886c2.18714,4.00556 0.38291,7.94325 -0.6379,11.89762c-0.22109,0.85645 -0.14944,1.79605 -0.50848,2.60443c-0.3118,0.70204 -1.15013,1.08569 -1.44547,1.79481c-0.07042,0.16908 -0.11249,0.34585 -0.13828,0.52707z" data-paper-data="{&quot;index&quot;:null}" fill="#ffca89" stroke-width="0.5"/><path d="M484.98317,249.29767c2.36819,-0.39922 2.84613,1.99045 2.84613,1.99045c0.13172,0.87127 0.57038,1.75024 0.39514,2.61382c-0.77308,3.80966 -2.79816,4.48091 -4.9062,7.10081c-2.31354,2.87528 -3.66366,5.1672 -7.51473,6.32235c-2.43395,0.73006 -6.07048,0.56908 -8.50088,0.01511c-0.61309,-0.13975 -1.13827,-0.61343 -1.76485,-0.66629c-0.6591,-0.05559 -1.29887,0.45257 -1.95271,0.35268c-0.91377,-0.1396 -1.69623,-0.73976 -2.56928,-1.04351c-4.32587,-1.50503 -9.0761,-3.35892 -12.39885,-6.5975c-1.58832,-1.59989 -3.24017,-2.99619 -4.08231,-5.21665c-0.32353,-0.85304 0.06611,-6.05754 0.06802,-6.37182c0.0065,-1.07372 -0.3451,-2.16437 -0.1394,-3.21822c0.21627,-1.108 -3.5366,-3.29974 -3.18187,-4.37149c0.42883,-1.29558 3.21261,-5.07166 3.7018,-6.34566c1.26661,-3.29858 6.09595,-3.13332 8.55191,-5.53337c0.71288,-0.69665 1.29659,-1.58339 2.1779,-2.04902c4.74308,-2.50588 9.96058,-1.3762 14.92402,-1.04606c1.13251,0.07532 2.27725,-0.11462 3.40499,0.01366c2.465,0.28039 5.42825,1.73397 7.74917,2.44791c1.79512,1.39318 4.79228,2.70962 5.92216,4.77886c2.18715,4.00558 0.38291,7.94326 -0.6379,11.89762c-0.22109,0.85646 -0.14944,1.79605 -0.50848,2.60443c-0.31182,0.70204 -1.15014,1.08568 -1.44548,1.79481c-0.07042,0.16908 -0.11249,0.34585 -0.13826,0.52707z" data-paper-data="{&quot;index&quot;:null}" fill="#ffca89" stroke-width="0.5"/><path d="M342.46392,132.36234c-4.10153,-2.9182 -1.26818,-7.16822 -1.26818,-7.16822c1.0961,-1.4865 1.74868,-3.43936 3.28829,-4.45953c6.79197,-4.50047 10.78818,-2.49397 17.7954,-3.25259c7.69031,-0.83256 13.08812,-2.2284 20.50774,1.76721c4.68935,2.52531 9.84041,8.15354 12.62143,12.57665c0.70152,1.11576 0.77786,2.59616 1.62818,3.60315c0.89444,1.05925 2.59578,1.25428 3.4168,2.37139c1.14739,1.56117 1.41757,3.61037 2.26132,5.35446c4.18073,8.64192 8.47336,18.42974 8.59811,28.15421c-0.01711,4.72519 0.36158,9.24282 -1.68117,13.78185c-0.78477,1.74377 -9.07579,8.8798 -9.54439,9.34276c-1.601,1.58172 -2.69631,3.71925 -4.56309,4.97628c-1.96269,1.32162 0.35103,10.13206 -1.76313,11.19472c-2.55571,1.28459 -12.27798,2.75527 -14.8912,3.91843c-6.766,3.01158 -13.67858,-4.39084 -20.87559,-4.47373c-2.08905,-0.02406 -4.26837,0.42508 -6.26465,-0.19102c-10.74357,-3.31571 -16.80209,-12.72276 -23.66903,-20.5683c-1.56681,-1.79011 -3.54494,-3.20523 -5.02622,-5.06673c-3.23777,-4.06889 -5.47525,-10.61501 -7.85691,-15.11293c-0.59572,-4.72532 -3.08671,-11.11845 -1.69447,-15.85981c2.69506,-9.17813 11.20508,-12.34007 18.5787,-16.68785c1.59701,-0.94166 2.88335,-2.44043 4.61359,-3.10638c1.5026,-0.57834 3.31367,0.09553 4.80238,-0.51773c0.35496,-0.14622 0.6793,-0.34588 0.98608,-0.57624z" data-paper-data="{&quot;index&quot;:null}" fill="#ffca89" stroke-width="0.5"/><path d="M369.33308,153.89618c-2.90743,0 -5.26436,-2.35693 -5.26436,-5.26436c0,-2.90743 2.35693,-5.26436 5.26436,-5.26436c2.90743,0 5.26436,2.35693 5.26436,5.26436c0,2.90743 -2.35693,5.26436 -5.26436,5.26436z" data-paper-data="{&quot;index&quot;:null}" fill="#000000" stroke-width="0.5"/><path d="M320.73893,166.85462c-2.90743,0 -5.26436,-2.35693 -5.26436,-5.26436c0,-2.90743 2.35693,-5.26436 5.26436,-5.26436c2.90743,0 5.26436,2.35693 5.26436,5.26436c0,2.90743 -2.35693,5.26436 -5.26436,5.26436z" data-paper-data="{&quot;index&quot;:null}" fill="#000000" stroke-width="0.5"/><path d="M330.23729,181.50711c4.3802,-2.92015 7.30035,1.46007 7.30035,1.46007l0.42212,0.81748c1.48906,1.48906 2.58604,3.42914 4.34658,4.58461c2.07556,1.36223 8.19006,0.34934 10.28873,0.35271c2.92763,0.00469 8.28136,0.48244 10.9672,-0.33594c1.39675,-0.42559 2.30554,-1.83826 3.63162,-2.44946c0.86665,-0.39945 2.03694,0.0309 2.81489,-0.52178c0.71007,-0.50445 0.63585,-1.6551 1.19239,-2.32511c1.95507,-2.3537 7.59285,-6.16405 8.05231,-9.91591c0.1654,-1.3506 -0.38697,-2.69371 -0.58044,-4.04057c0,0 -0.52383,-5.23824 4.71441,-5.76206c5.23824,-0.52383 5.76206,4.71441 5.76206,4.71441c0.16648,2.25271 0.8911,4.53349 0.49943,6.75812c-1.20145,6.82407 -6.12101,10.16137 -10.30546,14.92109c-1.14436,1.30169 -1.73113,3.12689 -3.1271,4.15412c-1.34751,0.99155 -3.23038,0.92576 -4.7442,1.63798c-1.75289,0.82469 -3.14525,2.41556 -5.00732,2.94988c-3.51606,1.00893 -10.05465,0.73833 -13.86979,0.74393c-5.15498,0.00758 -10.88098,0.83461 -15.62814,-1.80702c-0.66951,-0.37255 -5.51987,-5.28184 -6.45212,-6.21408l-1.73762,-2.42213c0,0 -2.92015,-4.3802 1.46007,-7.30035z" data-paper-data="{&quot;index&quot;:null}" fill="#000000" stroke-width="0.5"/><path d="M326.53353,231.1514c0,0 0.7215,-1.1544 2.01774,-1.92224c2.00623,-3.50661 5.54503,-6.19447 8.35032,-9.17407c1.54928,-1.64556 2.37552,-3.88104 3.91454,-5.53621c0.88935,-0.95647 2.32644,-1.26137 3.25757,-2.17721c1.29182,-1.27062 1.79419,-3.33243 3.3268,-4.29909c5.95531,-3.7562 6.22055,-1.65582 11.77708,-0.92338c2.47536,0.32628 5.01151,-0.307 7.4903,-0.00802c6.49103,0.78294 12.25672,1.02773 18.84517,0.08433c2.28962,-0.48584 5.10396,-2.38859 6.27954,-4.54025c0.62823,-1.14984 0.39756,-2.66096 1.07987,-3.77955c0.7637,-1.25202 1.93612,-2.19319 2.99262,-3.22255c-0.0423,-0.66111 0.04902,-1.40901 0.32991,-2.2517c1.66475,-4.99421 6.65896,-3.32948 6.65896,-3.32948c6.64117,2.26119 11.05387,6.25352 17.04074,9.54425c1.49987,0.82441 3.30603,1.12747 4.63865,2.20144c0.50344,0.40575 0.85759,0.94778 1.18412,1.51699c4.32884,1.16479 8.37705,2.82354 12.42762,4.86393c0.99206,0.49972 1.67996,1.53318 2.71843,1.92752c1.18975,0.45178 2.60255,0.05591 3.77955,0.53994c2.30234,0.9468 8.44197,5.64102 9.5529,7.44606c3.23904,5.2628 4.08512,15.40569 1.69216,21.17859c-1.05804,2.55247 -1.81949,5.79904 -4.24719,7.11844c-11.04163,6.0009 -10.93888,-0.98225 -19.04122,-3.10968c-0.38222,-0.10036 -0.76634,-0.19537 -1.15156,-0.28735c-0.31063,8.49133 -0.69751,16.9467 -0.69751,25.48522c-0.21998,2.11052 0.56246,4.59705 -0.65993,6.33154c-1.74902,2.48176 -4.66209,4.0595 -7.47262,5.20804c-0.60811,0.24852 -8.04924,0.204 -9.55031,0.204c-7.58589,0 -16.0918,-1.09471 -23.56688,-0.05089c-11.33926,1.58342 -22.79071,3.07415 -34.27329,4.34909c-4.52992,0.50298 -9.69165,2.03773 -14.34432,1.0879c-2.52977,-0.51644 -5.75363,-0.33922 -7.38335,-2.34183c-1.76082,-2.1637 -0.8373,-5.51608 -1.25595,-8.27413c-0.58065,-2.58289 -1.15781,-5.19428 -1.68961,-7.8215c-0.24522,0.40628 -0.46986,0.82368 -0.67046,1.2523c-2.07139,5.48971 -4.6706,8.56801 -8.01386,13.24854c-0.73537,1.02948 -0.74981,2.57127 -1.71987,3.38343c-2.38797,1.99926 -5.01458,5.56183 -8.02883,4.7784c-3.3122,-0.86088 -4.11395,-5.48262 -5.90361,-8.39962c-1.01481,-1.65405 -1.98166,-3.39133 -2.48092,-5.26655c-0.24295,-0.91253 0.81546,-2.00395 0.32963,-2.81372c-0.7545,-1.25764 -2.7925,-1.33207 -3.56486,-2.57882c-1.92759,-3.11153 -4.62725,-6.46145 -4.29363,-10.10644c0.32937,-3.59861 5.31903,-4.89312 7.96101,-7.35857c3.76357,-3.5121 8.16324,-6.8897 11.70653,-10.62885c1.87894,-1.9828 3.25117,-4.42893 5.24311,-6.29819c0.97879,-0.91851 2.56741,-1.00131 3.5311,-1.93566c0.91236,-0.88458 1.25588,-2.20961 1.88381,-3.31441z" data-paper-data="{&quot;index&quot;:null}" fill="#ff00e6" stroke-width="0.5"/><text transform="translate(433.86155,225.98623) rotate(-180) scale(0.27844,-0.24528) skewX(0)" font-size="40" xml:space="preserve" data-paper-data="{&quot;index&quot;:null}" fill="#000000" fill-rule="nonzero" stroke="none" stroke-width="1" stroke-linecap="butt" stroke-linejoin="miter" stroke-miterlimit="10" stroke-dasharray="" stroke-dashoffset="0" font-family="Archivo Black" font-weight="normal" text-anchor="start" style="mix-blend-mode: normal"><tspan x="0" dy="0">yes, i'm a GIRL</tspan></text><text transform="translate(420.9015,237.94493) rotate(-180) scale(0.28815,-0.28815)" font-size="40" xml:space="preserve" data-paper-data="{&quot;index&quot;:null}" fill="#000000" fill-rule="nonzero" stroke="none" stroke-width="1" stroke-linecap="butt" stroke-linejoin="miter" stroke-miterlimit="10" stroke-dasharray="" stroke-dashoffset="0" font-family="Archivo Black" font-weight="normal" text-anchor="start" style="mix-blend-mode: normal"><tspan x="0" dy="0">Good</tspan><tspan x="0" dy="46.150000000000006px">Itching</tspan><tspan x="0" dy="46.150000000000006px">Real</tspan><tspan x="0" dy="46.150000000000006px">Lice</tspan></text><path d="M445.00305,396.28522c5.26436,0 5.26436,5.26436 5.26436,5.26436v2.21658c0,5.43946 1.14474,12.22371 -1.88046,17.15249c-2.79432,4.55264 -5.20595,4.47457 -9.48536,5.94647c-12.1151,4.16699 -24.05251,3.59229 -36.75232,3.59229c-3.86115,-0.0015 -7.71968,-0.21107 -11.57753,-0.37092c-2.33235,-0.09664 -4.85802,0.68851 -6.99888,-0.24205c-2.81444,-1.22334 -5.89762,-3.0495 -7.08453,-5.87951c-1.01569,-2.42175 0.4458,-5.29908 1.36435,-7.75931c1.87191,-5.01361 5.93983,-8.45415 10.13935,-11.04487c1.39795,-0.86241 2.44554,-2.31056 3.97264,-2.9155c1.83256,-0.72595 3.93244,-0.44785 5.83341,-0.96904c1.58324,-0.43408 2.94526,-1.54484 4.55266,-1.87851c11.84149,-2.45802 25.62462,-1.33379 37.76189,0.19092c0.52901,-1.4966 1.80629,-3.30339 4.8904,-3.30339z" data-paper-data="{&quot;index&quot;:null}" fill="#000000" stroke-width="0.5"/><path d="M368.59608,400.02041c0.97747,0.70531 1.90255,1.45044 2.42721,2.49974c0.90547,1.81094 0.44857,4.02673 0.55578,6.04858c0.36449,6.8743 1.6001,17.32277 -4.13116,22.4415c-1.53773,1.37338 -4.09002,0.53534 -6.12004,0.89559c-7.83452,1.39031 -15.48458,1.13758 -23.45921,1.13758c-5.17201,0 -10.34401,0 -15.51602,0c-3.01383,0 -6.1087,0.69132 -9.04148,-0.00292c-3.46726,-0.82076 -8.53398,-0.21597 -10.13429,-3.39946c-2.25485,-4.48553 6.58629,-13.44726 9.81569,-16.18298c2.41901,-2.04921 5.5865,-3.02273 8.51524,-4.23652c3.0747,-1.27428 5.69577,-3.50066 8.77461,-4.76494c3.48325,-1.43033 7.39955,-1.44213 11.02742,-2.45085c6.0113,-1.67143 10.86055,-4.92471 17.12024,-6.01832c0,0 0.82196,-0.13699 1.86635,0.02506c0.74243,-0.50073 1.73522,-0.83553 3.06282,-0.83553c4.35046,0 5.1057,3.59518 5.23682,4.84347z" data-paper-data="{&quot;index&quot;:null}" fill="#000000" stroke-width="0.5"/><path d="M370.64451,142.7694c-0.34891,0.09678 -0.62013,0.09678 -0.62013,0.09678c-0.26913,0 -5.46229,0.02469 -5.79093,-0.07137c-2.98505,-0.87255 -2.83696,-1.93255 -5.16758,-3.52795c-0.9249,-0.63314 -2.28358,-0.71577 -2.94706,-1.61916c-1.20091,-1.63514 0.62643,-3.54982 -2.31624,-4.0157c-1.60118,-0.25349 -3.29588,-0.42804 -4.86335,-0.01438c-0.85166,0.22475 -1.44708,1.07004 -2.29429,1.31102c-0.77361,0.22005 -1.62439,-0.1315 -2.41275,0.02787c-2.69088,0.54394 -4.99526,2.82197 -7.50023,3.82298c-2.52198,1.0078 -5.3248,1.44332 -8.00495,1.46463c-0.60992,-0.10606 -1.21997,-0.42494 -1.82978,-0.31818c-0.2116,0.03705 -0.02902,0.42895 -0.02987,0.64377c-0.00293,0.73592 0.20155,1.4949 0.01854,2.20771c-0.87756,3.41823 -1.32842,3.98804 -3.60516,6.08663c-2.51102,2.31454 -6.18272,4.19439 -9.66282,4.46977c-0.45504,0.03601 -0.88643,-0.58673 -1.30687,-0.40901c-0.27797,0.1175 0.15136,0.58785 0.17138,0.88898c0.04421,0.66483 0.018,1.3325 0.02059,1.9988c0.00427,1.0925 0.00924,2.18508 0,3.27756c-0.02726,3.22304 1.5133,5.83428 2.49326,8.77544c0.38611,1.15885 0.27011,2.44624 0.65552,3.60533c0.26836,0.80705 0.9694,1.41588 1.27765,2.20853c0.79896,2.05451 1.32722,4.23412 2.38509,6.16809c0,5.77105 7.47474,10.02754 3.54287,15.96462c-1.56022,2.35591 -4.95405,2.94699 -7.30734,3.67297c-1.11673,0.34451 -2.07153,1.19453 -3.22679,1.37108c-5.8841,0.8992 -12.58141,-4.92838 -15.55861,-9.50335c-0.43919,-0.67488 -0.46192,-1.57689 -0.93874,-2.22572c-1.54181,-2.098 -3.58387,-3.94575 -4.50434,-6.38121c-0.69282,-1.83311 -0.88263,-3.81885 -1.35763,-5.72007c-1.45228,-4.94818 -1.38669,-9.97358 -2.02675,-15.05336c-0.35879,-2.84752 -0.91497,-5.65881 -1.3064,-8.48649c-0.50869,-3.67469 -0.02059,-7.72116 -0.02059,-11.43922c0,-2.17429 -0.28237,-4.36977 0.02059,-6.52287c0.31756,-2.25684 1.95024,-4.13873 2.603,-6.32232c0.27432,-0.91763 -0.18664,-1.9568 0.09688,-2.87163c0.29201,-0.94224 1.03291,-1.68114 1.57042,-2.50829c1.97329,-3.03658 3.7425,-5.74505 6.11652,-8.46765c3.05002,-3.05002 5.8891,-6.33449 8.83202,-9.4861c2.38547,-2.55463 4.29759,-5.5639 7.26857,-7.54281c1.02435,-0.68229 2.13733,-1.27516 3.32006,-1.61567c0.67611,-0.19466 1.45784,0.31617 2.11007,0.05233c1.01281,-0.40969 1.60251,-1.57393 2.62206,-1.96654c1.6919,-0.65152 3.63563,-0.25717 5.39387,-0.6994c3.67006,-0.9231 7.22873,-0.72095 11.01216,-0.72095c5.3472,0 10.69463,-0.0186 16.04169,0.02259c1.29171,0.38779 2.63316,0.63762 3.87512,1.16337c0.68962,0.29193 1.151,1.01552 1.85762,1.26345c1.11158,0.39001 2.35076,0.27783 3.48105,0.60974c3.66265,1.07552 8.22413,2.51117 11.51146,4.42341c1.18253,0.68788 2.06436,1.85657 3.30469,2.43375c1.28848,0.59959 2.84959,0.42821 4.13733,1.02939c3.9645,1.85081 8.28139,5.83874 11.79654,8.4842c1.64933,1.24127 2.7932,3.10774 4.532,4.22022c1.11199,0.71145 2.50725,0.90605 3.60533,1.63879c0.85691,0.57181 1.29545,1.65086 2.16121,2.20919c0.7442,0.47993 1.8514,0.24441 2.52845,0.81516c0.85427,0.72015 1.17411,1.90192 1.79588,2.83025c1.53083,2.2856 3.12748,4.52675 4.65328,6.81572c1.00693,1.6456 1.89158,4.282 3.28889,5.64329c0.79976,0.77915 1.95864,1.16135 2.67153,2.02069c2.37618,2.8643 3.12707,6.80161 5.11043,9.76149c0.63297,0.94462 1.8609,1.43149 2.38143,2.44243c0.60439,1.17383 0.59334,2.57322 0.86622,3.86501c1.19271,5.64612 0.35162,11.2671 0.69153,16.98239c0.30647,5.153 1.06799,10.7887 -4.25257,14.07136c-1.07006,0.66019 -2.42769,0.65563 -3.64152,0.98345c-5.32748,-2.35439 -11.2573,-5.25673 -14.91095,-9.97576c-0.65327,-0.84377 -0.91596,-1.93152 -1.4661,-2.84589c-2.4211,-4.02392 -5.8189,-7.51007 -8.46668,-11.38492c-0.43968,-0.64343 -0.59309,-1.47857 -1.12152,-2.05136c-2.64249,-2.8643 -6.67479,-4.98259 -9.2322,-7.92949c-0.62796,-0.72359 -0.71152,-1.80054 -1.27253,-2.57719c-0.8946,-1.23846 -2.57618,-0.6025 -3.73434,-1.052c-2.31106,-0.89699 -3.03606,-2.18296 -4.54739,-3.95985c-1.43536,-0.79429 -2.86408,-1.60062 -4.28841,-2.41452l-0.28943,-0.14384z" data-paper-data="{&quot;index&quot;:null}" fill="#000000" stroke-width="0.5"/><g fill="#000000" stroke-width="0"><path d="M-47.39999,76.89999v-98h572v98z"/><path d="M-56.39999,390.9v-98h572v98z"/></g><text transform="translate(27.12659,335.30779) scale(0.5,0.5)" font-size="40" xml:space="preserve" fill="#ffffff" fill-rule="nonzero" stroke="none" stroke-width="1" stroke-linecap="butt" stroke-linejoin="miter" stroke-miterlimit="10" stroke-dasharray="" stroke-dashoffset="0" font-family="Archivo Black" font-weight="normal" text-anchor="start" style="mix-blend-mode: normal"><tspan x="0" dy="0">joe:</tspan></text><text transform="translate(69.34048,335.3078) scale(1.30421,0.5)" font-size="40" xml:space="preserve" fill="#ffffff" fill-rule="nonzero" stroke="none" stroke-width="1" stroke-linecap="butt" stroke-linejoin="miter" stroke-miterlimit="10" stroke-dasharray="" stroke-dashoffset="0" font-family="Archivo Black" font-weight="normal" text-anchor="start" style="mix-blend-mode: normal"><tspan x="0" dy="0">oh</tspan></text></g></g></svg>