<svg version="1.1" xmlns="http://www.w3.org/2000/svg" xmlns:xlink="http://www.w3.org/1999/xlink" width="614.11412" height="485.4745" viewBox="0,0,614.11412,485.4745"><g transform="translate(78.81288,49.37689)"><g data-paper-data="{&quot;isPaintingLayer&quot;:true}" fill-rule="nonzero" stroke="none" stroke-linecap="butt" stroke-linejoin="miter" stroke-miterlimit="10" stroke-dasharray="" stroke-dashoffset="0" style="mix-blend-mode: normal"><path d="M-78.81288,361.61177v-318.31832h614.11412v318.31832z" fill="#130c1f" stroke-width="0"/><path d="M125.542,308.06721c0.08079,-0.45894 0.18294,-0.75568 0.18294,-0.75568c2.57984,-7.49455 6.1757,-14.64882 8.50984,-22.22295c1.32128,-4.28745 1.90263,-8.97912 2.86247,-13.46484c2.93082,-13.697 5.45904,-28.83398 9.77006,-41.76547c4.21259,-12.63622 10.69627,-24.59875 16.4716,-35.78379c7.58163,-14.66505 16.8575,-29.22433 27.30466,-39.69989c5.71309,-5.72861 12.09922,-9.25119 18.51029,-12.88097c3.74634,-2.12107 7.81431,-5.35991 11.73787,-6.52816c9.43292,-2.80867 20.1947,-0.89506 28.92487,4.45068c13.90739,8.59486 26.38164,19.38447 37.02292,35.18313c3.05476,4.53528 7.0142,9.07845 9.55969,14.24958c0.15136,0.30748 4.87554,12.46731 5.09807,13.03917c2.1707,5.57836 4.29075,11.05317 6.24282,16.80212c0.8166,2.40493 1.97341,4.63264 2.4243,7.23296c1.15008,6.63278 0.37356,15.82862 0.37552,22.6669c0.00221,8.8303 0.2813,18.09971 -0.65021,26.84801c-0.43907,4.12354 -1.76314,7.99777 -2.09401,12.14256c-0.34909,4.37302 0.17071,9.01942 0.01865,13.42849c-0.07905,2.29196 0.55836,5.00982 -0.37338,6.86311c-2.7406,5.45121 -11.03602,6.83043 -15.16031,8.4592c-5.76091,2.2751 -10.68544,7.29282 -16.74829,8.10946c-4.20177,0.56595 -9.82223,-1.65272 -13.88901,-0.11613c-1.28312,0.48481 -2.27376,1.9816 -3.41064,2.97241c-13.40683,0.37111 -26.74678,0.24512 -40.13483,1.11989c-2.60551,0.17025 -5.21657,0.05714 -7.82445,0.00268c-0.82106,-0.01715 -1.69866,-0.59874 -2.46108,-0.15581c-1.52239,0.88441 -2.52041,3.28802 -4.09277,3.96322c-0.45284,0.19445 -8.43586,0.15581 -9.59213,0.15581c-5.6844,0 -11.36881,0 -17.05321,0c-13.31307,0 -27.86105,2.70975 -40.57134,-4.00487c-0.8633,-0.45607 -1.47779,-1.70122 -2.36228,-2.0616c-0.82158,-0.33477 -1.74559,0.42782 -2.55961,0.05613c-1.76837,-0.80745 -3.70759,-1.59284 -5.00804,-3.51158c-0.55693,-0.82173 0.87118,-2.62688 0.3024,-3.43131c-0.65162,-0.92161 -2.26072,1.13293 -2.72851,0c-2.11482,-5.12181 -0.65808,-8.40786 1.39514,-11.36244z" fill="#fff000" stroke-width="0.5"/><path d="M172.96819,103.67813c0.15903,0 0.30636,0.0117 0.44285,0.03338c1.08199,-2.64548 2.46261,-5.19768 4.06809,-7.67722c1.49283,-2.30556 3.6738,-4.16045 4.92755,-6.60426c0.68875,-1.34251 0.63061,-3.02799 1.47169,-4.2807c2.14193,-3.19018 4.42438,-3.73833 7.47303,-5.51377c2.29533,-1.33673 4.2861,-3.26753 6.77529,-4.19451c7.64867,-2.84838 16.59208,-1.77487 24.58835,-1.77487c5.22557,0 10.45396,-0.04731 15.67922,0c1.63983,0.01485 3.34257,-0.36819 4.91899,0.08368c4.8403,1.38744 8.63839,6.33331 13.28862,8.22301c3.2561,1.32317 7.73294,1.43093 10.70686,3.32699c0.26608,0.16964 6.4841,5.67959 6.88043,6.05091c7.12061,6.6712 14.87351,15.0839 18.28019,24.30243c2.96435,8.21241 9.39671,14.87684 11.20985,23.6073c1.28169,6.17148 0.80013,13.90299 -0.56837,19.93668c-0.26624,1.17385 -0.29909,2.43424 -0.83069,3.51415c-0.97617,1.98299 -4.21688,5.37135 -5.68272,7.00087c-6.57085,7.30457 -14.29623,12.25288 -22.31008,17.83789c-1.26348,0.87286 -2.42621,1.91348 -3.79043,2.61857c-3.80115,1.9646 -8.38475,2.41493 -12.17623,4.38179c-2.54595,1.32074 -4.56139,3.8045 -7.17704,5.00413c-3.37588,1.5483 -9.31036,2.87854 -13.01598,3.33282c-0.21918,0.02687 -8.60244,0.03973 -8.95712,-0.06166c-1.43557,-0.41038 -2.45652,-1.76275 -3.85979,-2.27275c-1.22252,-0.4443 -2.57775,-0.3509 -3.86543,-0.53483c-3.56876,-0.50976 -7.65627,-0.90995 -11.05538,-2.09779c-0.17216,-0.06016 -5.83262,-2.89493 -6.75426,-3.35575c-0.48291,-0.24146 -6.66056,-3.31365 -6.88134,-3.49694c-1.06857,-0.8871 -1.71388,-2.18583 -2.57081,-3.27874c-1.40168,-0.46686 -3.04839,-0.48145 -4.20505,-1.40058c-2.36434,-1.87879 -4.40203,-6.96669 -6.47633,-9.37468c-1.05017,-1.21911 -2.59929,-2.05476 -3.34438,-3.48091c-0.71214,-1.36309 -0.32933,-3.08663 -0.84398,-4.53586c-0.48039,-1.35276 -1.61813,-2.4073 -2.10167,-3.75894c-0.84772,-2.36962 -0.27678,-5.15382 -1.35624,-7.42725c-0.60731,-1.27904 -2.08573,-2.07802 -2.50503,-3.4304c-0.49437,-1.5945 -0.08988,-3.33767 -0.11093,-5.00693c-0.0341,-2.70357 0,-5.40756 0,-8.11134c0,-5.31834 0,-10.63667 0,-15.95501c0,-2.22931 -0.15064,-4.51264 -0.08632,-6.76632c-0.05996,0.00364 -0.12175,0.00551 -0.18541,0.00551c-2.16167,0 -2.16167,-2.16167 -2.16167,-2.16167c0.00512,-1.1087 0.06721,-2.20011 0.18246,-3.2753c-0.24999,-1.22148 -0.18246,-5.77225 -0.18246,-6.45831v-0.81113c0,0 0,-2.16167 2.16167,-2.16167z" fill="#ffca89" stroke-width="0.5"/><path d="M118.7589,264.13335c-1.89874,-5.57019 -1.76981,-11.14613 -0.39971,-16.99638c0.6761,-2.88692 2.51072,-5.46738 2.91107,-8.40525c0.20087,-1.47406 -0.87661,-3.06882 -0.32659,-4.45109c0.99117,-2.49095 4.12608,-3.52407 6.32784,-4.32179c1.18332,-0.42873 2.32626,-1.22297 3.58434,-1.18699c1.47263,0.04212 3.51675,1.04753 5.42256,2.35137c0.6036,-0.01011 1.26543,0.03116 1.46207,-0.41701c0.37691,-0.85904 -1.57055,-1.86532 -1.01825,-2.62359c1.09282,-1.50035 3.2162,-1.85944 4.88119,-2.67989c3.64432,-1.79582 7.30147,-3.80428 11.03659,-0.91049c0.33374,0.25857 0.58111,0.59915 0.79798,0.9689c0.31425,-1.37507 0.77389,-2.64118 1.30533,-3.64572c0.48912,-0.92455 1.74582,-1.2108 2.38599,-2.03797c0.54131,-0.69944 0.50876,-1.74453 1.07023,-2.42789c2.05973,-2.50687 3.91063,-3.03341 6.87248,-4.07406c1.25947,-0.44252 2.52328,-1.44071 3.83034,-1.16929c4.05296,0.84161 4.66284,3.06023 5.81397,6.14547c0.32651,0.87511 0.22065,1.97074 0.8341,2.67508c0.58088,0.66694 1.84403,0.4059 2.42789,1.07023c0.51694,0.5882 3.15266,7.5971 3.23889,7.81928c1.69708,4.37265 3.39416,8.7453 5.09124,13.11795c1.03305,2.66173 2.06637,5.31687 3.05086,7.99376c0.67941,-0.263 1.48728,-0.35435 2.15961,-0.62256c4.04139,-1.61222 8.12452,-3.35063 12.24342,-4.75182c1.60324,-0.5454 3.22677,-1.93825 4.85849,-1.48513c6.13232,1.70291 8.87761,11.00341 10.60787,16.27684c0.68443,2.08599 2.26809,4.1596 1.86284,6.31728c-0.45817,2.43947 -7.15709,4.45399 -8.53726,4.9924c-5.27521,2.05787 -10.55739,4.09808 -15.83636,6.14631c1.98005,0.54818 4.37392,1.41838 4.40685,1.44923c1.18718,1.11235 1.37012,2.95174 2.01074,4.44718c2.04268,4.76838 4.70505,10.10761 5.86312,15.15855c0.81039,3.53452 0.79969,5.15963 -0.29552,8.53103c-0.65675,2.02169 -2.31702,3.71379 -2.60777,5.8195c-0.21668,1.56929 0.13398,3.17498 -0.01089,4.75252c-0.09953,1.08385 -0.6812,2.09752 -0.71805,3.18531c-0.12223,3.60872 2.01661,5.56567 -0.41103,9.40972c-0.73225,1.15948 -2.83301,0.652 -3.76527,1.65772c-1.11868,1.20683 -0.83265,3.33637 -1.96813,4.52741c-1.82928,1.91879 -6.96018,3.36763 -9.62251,3.88292c-0.14741,0.96257 0.07606,2.06329 -0.44222,2.8877c-0.93691,1.49033 -2.66668,2.33661 -3.72597,3.74258c-2.52301,3.34872 -2.41615,8.19989 -4.49465,11.58991c-0.87862,1.43302 -2.75639,2.04362 -3.67935,3.44849c-2.09739,3.19252 -0.48908,5.95954 -1.96957,9.41111c-0.5078,1.18386 -2.28243,1.52718 -2.73024,2.73501c-0.24494,0.66066 1.00195,1.14065 1.03232,1.8446c0.08359,1.93704 0.14382,4.02996 -0.70358,5.77382c-0.49349,1.01555 -2.60233,0.6207 -2.92894,1.70154c-0.36181,1.19731 1.7327,2.30489 1.35766,3.49812c-0.38658,1.22996 -2.43212,1.16716 -3.1587,2.23219c-0.25947,0.38034 0.74845,0.58633 0.95519,0.99772c1.15127,2.29084 2.60289,6.65309 1.83479,9.16006c-0.39095,1.27602 -1.95158,1.82246 -2.88122,2.77998c-1.01002,1.04031 -1.80936,2.29651 -2.93491,3.21058c-1.07689,0.87456 -2.72945,1.01112 -3.59676,2.09386c-0.75165,0.93833 -0.588,2.33153 -0.882,3.49729c-2.60836,1.24121 -6.02023,2.1167 -8.50182,3.58234c-2.26306,1.33657 -3.68091,3.81063 -5.87203,5.26212c-1.34364,0.89009 -6.65966,2.38408 -8.02386,3.15853c-1.41668,0.80424 -2.50068,2.10678 -3.88696,2.96236c-7.075,4.36652 -15.49695,6.25527 -22.95088,1.45699c-1.02089,-0.65717 -1.611,-1.81966 -2.47899,-2.6686c-3.22182,-3.15111 -3.99856,-2.89001 -5.80399,-6.62364c-2.72584,-5.63702 -4.61352,-11.85645 -6.88373,-17.70581c-1.0586,-2.72756 -4.30263,-9.09138 -3.69056,-11.53276c0.32317,-1.28902 2.94994,-0.49298 3.63847,-1.62961c0.55077,-0.90923 -1.02779,-2.05958 -0.77782,-3.09281c0.38823,-1.60474 2.00378,-2.68747 2.5529,-4.24451c0.43067,-1.22115 0.03756,-2.60629 0.30965,-3.87224c0.3189,-1.48377 1.41821,-2.79851 1.45019,-4.31582c0.03949,-1.8738 -1.67591,-3.65969 -1.24366,-5.48338c0.35585,-1.50135 2.60565,-1.86284 3.31022,-3.23552c1.03447,-2.01542 0.43629,-4.51618 0.86071,-6.74147c0.49293,-2.58452 1.69536,-5.02672 1.97061,-7.64339c0.17674,-1.68015 -0.48581,-3.39241 -0.23351,-5.06289c0.51665,-3.42074 3.21219,-6.13392 4.61164,-9.29777c0.57289,-1.29518 0.36614,-2.82269 0.7853,-4.17547c0.35397,-1.1424 1.30751,-2.07425 1.51607,-3.25191c0.30019,-1.69501 -1.39117,-5.42248 -1.84312,-6.62962c0.1226,-1.49402 0.35816,-2.98306 0.36781,-4.48207c0.01032,-1.60231 -0.88101,-3.30074 -0.30807,-4.79715c0.93452,-2.44081 4.16586,-3.55927 6.32784,-4.32179c0.58699,-0.20703 1.36439,-0.05065 1.80055,-0.49469c0.61977,-0.63096 0.38318,-1.87095 1.07023,-2.42789c3.02897,-2.45537 7.66257,-2.1575 11.47954,-0.85386c-0.10944,-0.35381 -0.25994,-0.67516 -0.52954,-0.89844c-1.26233,-1.04542 -3.25353,-0.90379 -4.51239,-1.95338c-0.92244,-0.76909 -1.0102,-2.18824 -1.66364,-3.19592c-2.18151,-3.36415 -4.5525,-6.92011 -5.29808,-11.04979c-0.29648,-1.64219 0.30032,-3.35605 0.05033,-5.00596c-0.18143,-1.19739 -1.05431,-2.20307 -1.3216,-3.38426c-0.3557,-1.57189 -0.35446,-3.20371 -0.53168,-4.80557c0.35674,-0.8093 0.97536,-1.54856 1.07023,-2.42789c0.15764,-1.46115 -0.84077,-3.01674 -0.33398,-4.39623c0.28397,-0.77296 0.93381,-1.30698 1.62524,-1.81383zM133.77271,304.78328c0.15367,0.30386 0.02379,0.81878 0.22929,1.12143c0.20975,0.30891 0.10566,-0.90419 -0.22929,-1.12143z" fill="#ffca89" stroke-width="0.5"/><path d="M336.28038,271.5757c0.50679,1.37949 -0.49162,2.93508 -0.33398,4.39623c0.09487,0.87934 0.71348,1.61859 1.07023,2.42789c-0.17723,1.60186 -0.17598,3.23369 -0.53169,4.80557c-0.26729,1.18119 -1.14018,2.18687 -1.3216,3.38426c-0.24999,1.6499 0.34681,3.36377 0.05033,5.00595c-0.74559,4.12968 -3.11657,7.68564 -5.29808,11.04979c-0.65344,1.00768 -0.7412,2.42683 -1.66364,3.19592c-1.25887,1.04958 -3.25007,0.90795 -4.5124,1.95338c-0.2696,0.22328 -0.4201,0.54463 -0.52954,0.89844c3.81697,-1.30364 8.45056,-1.60152 11.47954,0.85386c0.68705,0.55694 0.45045,1.79694 1.07022,2.42789c0.43617,0.44403 1.21357,0.28766 1.80056,0.49469c2.16198,0.76252 5.39333,1.88098 6.32785,4.32179c0.57294,1.49642 -0.31839,3.19484 -0.30807,4.79715c0.00965,1.49901 0.24521,2.98804 0.36781,4.48207c-0.45195,1.20713 -2.14331,4.93462 -1.84312,6.62962c0.20857,1.17766 1.1621,2.10951 1.51608,3.25191c0.41916,1.35278 0.21241,2.88029 0.7853,4.17547c1.39945,3.16385 4.09498,5.87703 4.61164,9.29777c0.2523,1.67048 -0.41024,3.38273 -0.23351,5.06288c0.27525,2.61667 1.47769,5.05887 1.97062,7.64339c0.42441,2.22528 -0.17377,4.72605 0.8607,6.74147c0.70457,1.37268 2.95437,1.73417 3.31022,3.23552c0.43225,1.82369 -1.28316,3.60958 -1.24366,5.48338c0.03198,1.51731 1.13129,2.83206 1.45019,4.31582c0.27209,1.26596 -0.12101,2.65109 0.30965,3.87224c0.54913,1.55704 2.16467,2.63977 2.5529,4.24451c0.24996,1.03323 -1.3286,2.18358 -0.77783,3.09281c0.68853,1.13664 3.3153,0.3406 3.63847,1.62962c0.61208,2.44138 -2.63196,8.80521 -3.69056,11.53276c-2.27021,5.84936 -4.15789,12.06878 -6.88373,17.70581c-1.80543,3.73363 -2.58218,3.47253 -5.80399,6.62364c-0.86799,0.84893 -1.4581,2.01143 -2.47899,2.6686c-7.45394,4.79828 -15.87588,2.90953 -22.95088,-1.45699c-1.38628,-0.85558 -2.47028,-2.15812 -3.88696,-2.96236c-1.36419,-0.77445 -6.68022,-2.26844 -8.02386,-3.15853c-2.19112,-1.4515 -3.60898,-3.92555 -5.87203,-5.26212c-2.48159,-1.46564 -5.89346,-2.34114 -8.50182,-3.58235c-0.294,-1.16577 -0.13035,-2.55896 -0.882,-3.4973c-0.86732,-1.08273 -2.51987,-1.2193 -3.59677,-2.09385c-1.12555,-0.91407 -1.92489,-2.17027 -2.93491,-3.21058c-0.92964,-0.95752 -2.49026,-1.50396 -2.88121,-2.77998c-0.7681,-2.50697 0.68352,-6.86922 1.83479,-9.16006c0.20674,-0.41138 1.21467,-0.61739 0.9552,-0.99772c-0.72659,-1.06504 -2.77213,-1.00223 -3.15871,-2.23219c-0.37504,-1.19324 1.71948,-2.30081 1.35766,-3.49812c-0.32661,-1.08083 -2.43546,-0.68598 -2.92894,-1.70153c-0.8474,-1.74385 -0.78716,-3.83677 -0.70358,-5.77382c0.03038,-0.70395 1.27727,-1.18394 1.03233,-1.8446c-0.44781,-1.20783 -2.22245,-1.55114 -2.73025,-2.73501c-1.48049,-3.45157 0.12783,-6.21859 -1.96956,-9.41111c-0.92296,-1.40488 -2.80074,-2.01547 -3.67935,-3.44849c-2.0785,-3.39003 -1.97164,-8.24119 -4.49466,-11.58992c-1.0593,-1.40597 -2.78906,-2.25225 -3.72597,-3.74258c-0.51827,-0.82441 -0.29481,-1.92514 -0.44222,-2.88771c-2.66233,-0.51529 -7.79323,-1.96412 -9.62251,-3.88292c-1.13548,-1.19104 -0.84944,-3.32059 -1.96813,-4.52741c-0.93226,-1.00572 -3.03303,-0.49824 -3.76527,-1.65772c-2.42765,-3.84405 -0.28881,-5.801 -0.41103,-9.40972c-0.03685,-1.08779 -0.61852,-2.10146 -0.71805,-3.18532c-0.14487,-1.57754 0.20579,-3.18322 -0.01089,-4.75252c-0.29075,-2.10571 -1.95102,-3.79781 -2.60777,-5.8195c-1.09521,-3.3714 -1.10591,-4.99651 -0.29552,-8.53103c1.15807,-5.05094 3.82044,-10.39017 5.86313,-15.15855c0.64062,-1.49543 0.82356,-3.33484 2.01074,-4.44719c0.03293,-0.03085 2.42681,-0.90105 4.40685,-1.44923c-5.27897,-2.04823 -10.56115,-4.08843 -15.83636,-6.14631c-1.38018,-0.53841 -8.07909,-2.55293 -8.53726,-4.9924c-0.40525,-2.15768 1.17841,-4.23129 1.86284,-6.31728c1.73026,-5.27344 4.47554,-14.57394 10.60787,-16.27684c1.63173,-0.45312 3.25525,0.93973 4.8585,1.48514c4.1189,1.40119 8.20202,3.13959 12.24342,4.75182c0.67233,0.26821 1.48019,0.35955 2.15961,0.62255c0.98449,-2.6769 2.01781,-5.33203 3.05086,-7.99376c1.69708,-4.37265 3.39416,-8.7453 5.09124,-13.11795c0.08623,-0.22217 2.72194,-7.23108 3.23888,-7.81928c0.58386,-0.66433 1.84702,-0.40328 2.42789,-1.07022c0.61345,-0.70434 0.50759,-1.79997 0.8341,-2.67508c1.15112,-3.08524 1.761,-5.30387 5.81396,-6.14548c1.30707,-0.27141 2.57088,0.72677 3.83035,1.16929c2.96185,1.04065 4.81275,1.56719 6.87248,4.07406c0.56147,0.68336 0.52891,1.72845 1.07022,2.42789c0.64017,0.82718 1.89687,1.11342 2.38599,2.03797c0.53144,1.00454 0.99108,2.27066 1.30533,3.64572c0.21687,-0.36976 0.46425,-0.71034 0.79799,-0.96891c3.73511,-2.89379 7.39227,-0.88533 11.03659,0.91048c1.66498,0.82046 3.78836,1.17955 4.88118,2.6799c0.55231,0.75826 -1.39515,1.76455 -1.01824,2.62359c0.19664,0.44817 0.85847,0.40689 1.46206,0.41701c1.9058,-1.30384 3.94993,-2.30924 5.42256,-2.35136c1.25807,-0.03598 2.40102,0.75826 3.58434,1.18699c2.20176,0.79772 5.33666,1.83084 6.32784,4.32179c0.55002,1.38227 -0.52747,2.97703 -0.32659,4.45109c0.40035,2.93787 2.23497,5.51834 2.91107,8.40525c1.3701,5.85025 1.49903,11.42619 -0.39971,16.99638c0.69143,0.50685 1.34127,1.04087 1.62524,1.81383zM319.41203,311.53323c0.20551,-0.30266 0.07562,-0.81758 0.22929,-1.12144c-0.33495,0.21724 -0.43904,1.43035 -0.22929,1.12144z" data-paper-data="{&quot;index&quot;:null}" fill="#ffca89" stroke-width="0.5"/><path d="M204.84286,144.4754c-0.92449,-1.84899 0.44438,-2.93352 0.94601,-3.25359c-0.79819,0.06176 -1.59428,0.11383 -2.31477,-0.18316c-1.05463,-0.43473 -8.49516,-6.2268 -9.0145,-7.03098c-0.82861,-1.28309 -0.12233,-3.16097 -0.8535,-4.50198c-0.81789,-1.50006 -2.79551,-2.14411 -3.59382,-3.65468c-0.68302,-1.29243 -0.44041,-9.22367 -0.25243,-9.71676c2.25211,-5.90759 11.51742,-3.86279 15.31119,-1.32063c1.6027,1.07395 2.65853,2.80537 3.83901,4.33131c0.91683,1.18515 2.03548,2.33443 2.43486,3.7786c0.48204,1.7431 0.086,3.6161 0.11019,5.42446c0.06271,4.68874 0,9.38224 0,14.07129l-3.25814,3.17415c0,0 -2.23607,1.11803 -3.3541,-1.11803zM206.45347,141.17534c-0.15294,0.00789 -0.30655,0.01892 -0.46032,0.03066l0.46196,1.21328c0,-0.4146 -0.0006,-0.82925 -0.00163,-1.24394z" fill="#000000" stroke-width="0.5"/><path d="M264.98257,142.87022c-3.76975,0.0051 -7.53948,0.00491 -11.30889,-0.01586c-3.94738,-0.02175 -7.87664,0.7019 -10.99626,-2.78102c-1.97478,-2.20475 -1.51055,-7.86219 -1.51312,-10.34749c-0.00284,-2.74854 -0.25547,-8.14113 1.12742,-10.51027c1.12181,-1.92186 2.95585,-3.49367 4.95198,-4.47727c1.44331,-0.7112 3.20789,-0.26527 4.81537,-0.33564c4.81778,-0.21091 9.86039,-0.43229 13.47488,3.1383c1.25078,0.3127 2.6585,0.25563 3.75235,0.93809c1.60296,1.00009 2.72427,2.6187 4.07155,3.94327c2.10153,2.06609 4.67285,3.7808 6.20419,6.29877c1.70015,2.79553 1.29878,4.7766 1.31146,7.88093c0.00559,1.36997 0.19046,7.37597 -0.73223,8.33437c-1.02537,1.06506 -2.91639,0.48751 -4.37582,0.72371c-3.03355,0.49097 -6.21868,0.60767 -9.2189,-0.05731z" fill="#000000" stroke-width="0.5"/><path d="M171.87365,69.45648c0.74469,-0.09274 1.48794,-0.16718 2.22993,-0.22499c0.25919,-0.65899 0.80946,-1.3585 1.97767,-1.3585c1.07402,0 1.62573,0.59126 1.90913,1.19871c6.46458,-0.0416 12.85487,0.96632 19.28501,1.89404c0.93863,0.13542 1.87284,0.33362 2.80563,0.5631c0.04212,-0.03804 0.08478,-0.07465 0.12816,-0.10935c0.90547,-1.57679 2.21233,-4.29994 3.83432,-5.12685c4.28506,-2.18458 9.72127,-1.2339 14.30121,-1.2339c5.19729,0 11.00344,-0.79757 16.12122,0.34128c1.42197,0.31643 2.69789,1.2587 4.12122,1.56717c1.5802,0.34247 4.53382,-0.47394 6.08709,0.07499c0.95516,0.33756 1.5521,1.51826 2.50003,1.88101c0.7418,0.28387 1.58997,-0.24317 2.349,-0.02538c2.84974,0.81767 5.33804,2.89296 8.18775,3.71073c4.42386,1.2695 8.44535,-0.5569 12.08459,3.9245c1.16877,0.07227 2.45962,-0.37631 3.50631,0.21681c1.2999,0.73661 1.78313,2.7387 3.0679,3.50857c0.72925,0.43699 1.64487,-0.16317 2.46963,-0.1903c2.65387,-0.08731 7.45751,-0.87129 9.96079,0.1903c0.83776,0.35528 1.20432,1.54173 1.97331,2.05924c0.70688,0.47572 1.63874,0.38296 2.34999,0.85027c1.09546,0.71973 1.79167,2.18669 2.98819,2.657c2.0799,0.81754 4.51594,-0.79555 6.60516,-0.00903c2.25481,0.84886 3.57372,3.75264 5.80087,4.69043c1.23232,0.5189 2.84462,-0.48389 3.93212,0.35263c1.82389,1.40297 1.86542,4.52453 2.85216,6.75688c1.18086,2.67153 3.05216,4.98467 3.84496,7.83397c0.46281,1.66333 0.11906,3.50945 0.48917,5.20226c0.72601,3.32059 2.07403,6.4376 2.82858,9.75003c0.0108,3.20263 -0.36841,6.43102 -0.01058,9.60796c0.11048,0.98089 0.70633,1.83518 0.8287,2.81426c0.2981,2.38524 -0.25314,4.12054 0.23872,6.38291c0.38867,1.7877 1.3907,3.43465 1.44718,5.27458c0.0443,1.44309 -0.55938,2.85383 -1.15853,4.12859c-0.31457,0.66928 -1.28315,0.79962 -1.49567,1.51855c-0.38679,1.30851 0.39169,2.9133 -0.1754,4.13469c-0.44438,0.9571 -1.88024,0.77318 -2.48982,1.6056c-0.90652,1.23789 -0.94611,3.11027 -1.86297,4.33836c-3.37437,4.51983 -7.8085,2.7907 -12.07492,3.62747c-2.76777,0.54284 -2.70038,2.03342 -5.96591,0.8631c-1.64494,-0.58953 -2.59951,-2.60277 -4.05758,-3.64508h-2.76069c-1.21971,0 -2.20847,-1.11929 -2.20847,-2.5c0,-1.1246 0.65597,-2.07576 1.5584,-2.38994l2.228,-0.8407c1.02597,-0.76995 3.42506,-2.46482 5.64984,-3.21318c-0.17036,-0.26892 -0.35907,-0.50709 -0.61466,-0.62734c-0.61549,-0.28956 -1.40117,0.50134 -1.9947,0.15802c-0.10684,-0.0618 -0.21207,-0.12646 -0.31586,-0.1937l-0.02877,0.09769l-2.43777,-0.91986c-0.90244,-0.31417 -1.5584,-1.26534 -1.5584,-2.38994c0,-1.38071 0.98877,-2.5 2.20847,-2.5l0.84384,0c-0.1372,-0.77094 -0.36076,-1.58238 0.08062,-2.08203c0.58598,-0.66333 1.86446,0.62035 2.48609,0c0.45839,-0.45744 -0.68476,-1.35196 -0.47874,-2.0032c0.48784,-1.54209 2.1283,-2.51492 2.34649,-4.13418c0.21837,-1.62056 -0.59858,-3.20913 -0.8287,-4.82761c-0.41197,-2.89747 0.72944,-6.81926 -0.40434,-9.57957c-0.58648,-1.42784 -1.76514,-2.4342 -2.64771,-3.65131c-0.86677,-2.63923 -0.90514,-3.96865 -3.31436,-5.63198c-1.01937,-0.70378 -5.7322,-0.83892 -6.27438,-1.34582c-0.64424,-0.60232 0.64605,-2.26671 -0.02024,-2.83747c-0.69601,-0.59623 -1.68702,0.66944 -2.55909,0.62793c-1.67653,-0.0798 -3.37822,-0.34582 -4.95814,-0.98575c-3.57555,-1.44825 -4.45446,-5.77405 -7.49126,-7.51981c-0.73569,-0.42292 -1.64487,0.16317 -2.46963,0.1903c-1.93281,0.06359 -3.86724,0 -5.80087,0c-8.28695,0 -16.5739,0 -24.86086,0c-6.89048,0 -13.78994,-0.11658 -20.67943,-0.00037c-3.38318,0.05707 -7.31384,-0.32736 -10.52369,1.11351c-1.423,0.63877 -2.49896,2.12594 -3.96592,2.62114c-1.41058,0.47616 -2.99976,-0.26248 -4.4121,0.20697c-1.29482,0.43039 -2.23808,1.72431 -3.44616,2.40506c-2.55998,1.44253 -5.47615,2.00237 -7.97821,3.56972c-1.87308,1.17334 -2.94408,3.5332 -4.57933,5.09714c-0.3738,0.3575 -0.81238,0.63299 -1.24909,0.90823c0.50098,2.00763 -1.28817,2.87562 -1.28817,2.87562l-0.19797,0.09565c0.01454,0.06206 0.02623,0.12329 0.03379,0.18332c0,0 0,2.5 -2.20847,2.5c-0.7233,0 -1.20971,-0.26816 -1.53682,-0.62883c-2.43784,1.5237 -5.04864,3.02517 -7.67215,4.2159c1.30417,0.54673 3.14784,-0.51415 4.14104,0.58793c0.96635,1.0723 -0.12867,3.19457 0.47874,4.5634c0.60379,1.36068 2.26621,1.8131 2.93656,3.13325c0.78482,1.54557 1.7398,3.44963 1.27017,5.15123c-0.46533,1.68604 -2.27405,2.46591 -3.61941,3.3608c-0.48004,0.31931 -1.38621,-0.39164 -1.66478,0.15407c-0.34455,0.67497 0.37239,1.51264 0.41687,2.29057c0.0951,1.66319 0.11201,3.33816 0,5c-0.06335,0.93983 -1.10821,2.09402 -0.52336,2.76493c0.01246,0.01429 0.02512,0.02805 0.03796,0.04128c0.06806,0.01112 0.13611,0.02163 0.20416,0.03147c0.94444,0.13653 2.04706,-0.54976 2.88292,-0.11922l2.71217,0.10152c1.19008,0.03838 2.1444,1.14251 2.1444,2.49897c0,1.38071 -0.98877,2.5 -2.20847,2.5h-2.48609c-3.16185,0.93186 -5.72828,-1.61533 -8.76189,-0.97037c-3.34738,0.71168 -6.76463,2.19526 -9.98124,-0.48095c-0.87894,-0.73128 -1.07773,-2.19478 -1.87849,-3.03326c-2.85636,-2.9909 -7.00684,-4.92531 -9.31855,-8.70715c-0.56111,-0.91795 -0.2767,-2.4421 -1.05393,-3.12911c-0.65316,-0.57734 -1.87413,0.63256 -2.48609,0c-1.32462,-1.36922 -2.02121,-3.40107 -2.64572,-5.30459c-0.26029,-0.79336 0.38456,-1.76835 0.07283,-2.53758c-0.94301,-2.32697 -3.85441,-3.06223 -4.86654,-5.35168c-1.13253,-2.56179 -0.23754,-8.61501 -0.23754,-11.44685c0,-1.82044 -0.02791,-7.65355 0.16811,-8.4614c0.20694,-0.85285 1.35755,-1.05946 1.65739,-1.87617c0.25579,-0.69673 -0.25363,-1.51462 -0.13959,-2.25801c0.34038,-2.2189 1.7791,-5.94802 3.39385,-7.2716c0.83193,-0.68192 2.30023,0.16118 3.02534,-0.66231c0.73635,-0.83625 -0.05727,-2.57096 0.61586,-3.47291c1.86425,-2.49797 5.77082,-2.56612 7.24952,-5.37529c0.68891,-1.30877 0.12099,-3.10377 0.62855,-4.51478c0.63548,-1.76666 1.69642,-3.30953 2.72835,-4.8175c2.77308,-4.05231 7.74097,-8.79714 12.36037,-9.72397c1.51923,-0.30482 3.20173,-0.30315 4.88433,-0.2304c0.22274,-0.0751 0.37748,-0.09456 0.37748,-0.09456z" fill="#000000" stroke-width="0.5"/><path d="M199.05054,154.61233c0.43628,1.0907 0.15505,1.8739 -0.26572,2.39776c12.84971,5.94222 26.25686,10.94954 39.77315,14.9382c2.45485,0.72443 4.65423,2.26696 7.16627,2.75757c2.22039,0.43366 4.52842,-0.1664 6.78693,-0.03476c4.51187,0.26297 8.95344,0.43502 13.50327,0.43502c0.4445,0.12446 0.98052,0.67082 1.33351,0.37337c0.55193,-0.46509 0.21303,-1.49923 0.66773,-2.05974c0.70371,-0.86746 6.27723,-5.68489 7.70839,-5.33511c4.44211,1.08566 3.35881,6.03719 2.88991,8.69749c-0.78385,4.44714 -2.7377,8.70172 -6.00144,11.87662c-1.18557,1.1533 -2.84955,1.72426 -4.06355,2.8476c-0.96788,0.89559 -1.28311,2.4496 -2.40686,3.13957c-4.19301,2.57446 -6.50087,1.66753 -10.94281,2.17243c-1.67107,0.18995 -3.29636,0.70023 -4.96915,0.87443c-2.40643,0.2506 -4.86026,-0.28029 -7.25822,0.04142c-1.15337,0.15474 -2.20842,0.94334 -3.37153,0.90595c-6.40694,-0.20596 -13.53254,-3.33173 -19.12698,-6.17196c-1.13002,-1.05208 -2.03205,-2.42166 -3.39007,-3.15623c-2.53468,-1.37104 -5.92124,-0.58225 -8.39681,-2.05735c-1.50549,-0.89707 -2.36158,-2.61668 -3.75397,-3.68087c-2.07105,-1.58288 -4.68748,-2.37648 -6.69908,-4.03427c-1.73957,-1.43361 -2.8927,-3.45811 -4.32014,-5.20275c-1.44524,-1.7664 -3.26306,-3.29984 -4.28419,-5.34096c-1.68929,-3.37669 -3.06264,-11.0216 0.1613,-14.01516c1.0989,-1.02038 2.91918,-0.68803 4.37878,-1.03205l1.63161,-0.72893c0,0 2.32119,-0.92848 3.24967,1.39272zM193.08819,159.2392c-0.47876,0.52404 -0.18591,1.60018 -0.04565,3.15631c0.43001,4.77077 3.64749,7.86831 6.50277,11.41911c2.3163,2.88053 5.54681,3.58567 8.39826,5.76739c1.25183,0.95781 1.97357,2.53941 3.30693,3.38003c3.56734,2.24905 4.18987,-0.13824 8.00079,1.84436c1.58777,0.82602 2.69525,2.35561 4.04287,3.53342c4.63235,2.30176 10.90421,5.15383 16.17752,5.302c0.97806,0.02748 1.83679,-0.73074 2.80676,-0.85928c4.01744,-0.53237 8.30283,-0.47505 12.3583,-0.93243c2.25107,-0.25388 6.41698,0.16914 8.60215,-1.27496c0.88855,-0.58721 1.028,-1.90848 1.80617,-2.63566c2.23834,-2.09166 5.19305,-3.60837 6.73091,-6.25793c0.49607,-0.85467 1.68805,-4.83292 1.939,-5.89928c0.06246,-0.26541 0.09775,-0.53784 0.12737,-0.81151c-0.65493,0.50912 -1.43915,1.00311 -1.88564,1.52604c-0.82112,0.96171 -0.89929,2.57945 -1.9801,3.23593c-1.13381,0.68867 -2.64144,0.24892 -3.96217,0.37337c-4.66661,0 -9.22792,-0.17264 -13.85772,-0.4476c-2.44068,-0.14495 -4.93373,0.42618 -7.33487,-0.03476c-2.68358,-0.51516 -5.05362,-2.10934 -7.67559,-2.8789c-14.57943,-4.27913 -29.03358,-9.77071 -42.81104,-16.29687c0,0 -0.83193,-0.39407 -1.24702,-1.20879z" fill="#000000" stroke-width="0.5"/><g fill="#000000" stroke-width="0"><path d="M-47.39997,76.9v-98h572v98z"/><path d="M-56.39997,390.90003v-98h572v98z"/></g><text transform="translate(27.12661,335.3078) scale(0.5,0.5)" font-size="40" xml:space="preserve" fill="#ffffff" fill-rule="nonzero" stroke="none" stroke-width="1" stroke-linecap="butt" stroke-linejoin="miter" stroke-miterlimit="10" stroke-dasharray="" stroke-dashoffset="0" font-family="Archivo Black" font-weight="normal" text-anchor="start" style="mix-blend-mode: normal"><tspan x="0" dy="0">Joe: Ow! Wait.. I'm free!</tspan></text><path d="M-49.88738,-46.87688c0,-1.38071 1.11929,-2.5 2.5,-2.5c1.38071,0 2.5,1.11929 2.5,2.5c0,1.38071 -1.11929,2.5 -2.5,2.5c-1.38071,0 -2.5,-1.11929 -2.5,-2.5z" fill="#ff0000" stroke-width="0.5"/></g></g></svg>