<svg version="1.1" xmlns="http://www.w3.org/2000/svg" xmlns:xlink="http://www.w3.org/1999/xlink" width="552.40981" height="392" viewBox="0,0,552.40981,392"><g transform="translate(38.40981,16)"><g data-paper-data="{&quot;isPaintingLayer&quot;:true}" fill-rule="nonzero" stroke="none" stroke-linecap="butt" stroke-linejoin="miter" stroke-miterlimit="10" stroke-dasharray="" stroke-dashoffset="0" style="mix-blend-mode: normal"><path d="M-34,376v-392h548v392z" fill="#00bdff" stroke-width="0"/><path d="M-27.95037,122.6683c5.49758,-1.58509 12.17025,-1.56966 15.02911,-1.68561c1.16263,-1.5465 18.64217,-18.29316 41.19308,-18.10292c22.62555,0.23197 31.27692,8.49313 42.13947,13.06917c13.48561,-5.10336 23.03277,-7.06738 37.29499,-5.17297c13.39942,1.83412 20.18924,12.3609 20.72908,12.78616c0.26101,0.2079 7.61994,-2.72439 13.83584,-2.14257c7.98884,0.74776 10.56404,9.38318 8.81833,9.38318c-2.21815,0 -184.07879,-0.15156 -188.38077,0.11908c-4.18936,-2.02432 4.38261,-6.82304 9.34087,-8.25352z" fill="#ffffff" stroke-width="0"/><path d="M198.55351,126.58251c5.07468,-2.66069 11.23407,-2.63479 13.87303,-2.82941c1.07319,-2.59591 17.20815,-30.70637 38.02438,-30.38704c20.88513,0.38938 28.871,14.25633 38.89797,21.93754c12.44825,-8.56635 21.26101,-11.86311 34.42615,-8.6832c12.3687,3.0787 18.63622,20.74865 19.13454,21.46247c0.24093,0.34897 7.0338,-4.57308 12.77154,-3.59646c7.37432,1.25517 9.75142,15.75034 8.13999,15.75034c-2.04753,0 -169.91889,-0.25441 -173.88995,0.19988c-3.8671,-3.39796 4.04549,-11.45296 8.62235,-13.85412z" fill="#ffffff" stroke-width="0"/><path d="M76.20177,244.63825c9.35645,-1.30204 20.71282,-1.28937 25.57839,-1.3846c1.9787,-1.27034 31.72753,-15.02652 70.10745,-14.87025c38.50695,0.19055 53.23091,6.9765 71.71813,10.73539c22.95147,-4.19204 39.2,-5.80535 63.47321,-4.24923c22.80479,1.5066 34.36053,10.15359 35.2793,10.50291c0.44422,0.17077 12.96856,-2.23789 23.54753,-1.75997c13.5964,0.61423 17.97918,7.70761 15.00811,7.70761c-3.77513,0 -313.28795,-0.1245 -320.60959,0.09781c-7.12997,-1.66283 7.45887,-5.60464 15.89745,-6.77968z" fill="#ffffff" stroke-width="0"/><path d="M333.38587,48.87431c2.90737,-1.6417 6.43619,-1.62572 7.94809,-1.74581c0.61485,-1.60173 9.85884,-18.94648 21.7848,-18.74945c11.96544,0.24025 16.54068,8.79646 22.2853,13.53593c7.13181,-5.28562 12.18079,-7.31979 19.72331,-5.35772c7.08623,1.89962 10.677,12.80236 10.9625,13.2428c0.13803,0.21532 4.02978,-2.82169 7.31703,-2.21909c4.22487,0.77447 5.58675,9.71829 4.66354,9.71829c-1.17306,0 -97.34936,-0.15698 -99.62445,0.12333c-2.21553,-2.09661 2.31773,-7.06672 4.93989,-8.54829z" fill="#ffffff" stroke-width="0"/><path d="M267.35486,216.19617c6.29049,-0.90577 13.92557,-0.89695 17.19677,-0.9632c1.33031,-0.88372 21.33094,-10.45323 47.13439,-10.34452c25.88885,0.13255 35.78801,4.85322 48.21728,7.4681c15.43065,-2.9162 26.3548,-4.03851 42.67408,-2.95598c15.33203,1.04807 23.10115,7.06337 23.71885,7.30637c0.29865,0.1188 8.71898,-1.55679 15.83139,-1.22433c9.14108,0.42729 12.0877,5.36182 10.0902,5.36182c-2.53808,0 -210.62862,-0.08661 -215.55108,0.06804c-4.79359,-1.15675 5.01472,-3.89888 10.68812,-4.7163z" fill="#ffffff" stroke-width="0"/><path d="M-6.05792,313.41721c10.41368,-1.1039 23.05326,-1.09316 28.46861,-1.1739c2.20228,-1.07703 35.31257,-12.73988 78.0292,-12.60739c42.85802,0.16155 59.2457,5.91486 79.82188,9.10175c25.54485,-3.55412 43.62937,-4.92193 70.64532,-3.60261c25.3816,1.27733 38.24308,8.60848 39.26567,8.90464c0.49441,0.14479 14.43393,-1.89734 26.20827,-1.49215c15.13271,0.52076 20.01073,6.53472 16.70395,6.53472c-4.20169,0 -348.68771,-0.10555 -356.83666,0.08293c-7.93561,-1.40979 8.30168,-4.75176 17.69377,-5.74799z" fill="#ffffff" stroke-width="0"/><path d="M7.39511,269.9v-86h93v86z" fill="#c67d00" stroke-width="0"/><path d="M-8.75776,188.15l63.65287,-70.5l63.65287,70.5z" fill="#e2a131" stroke-width="0"/><path d="M29.82536,268.24816v-66.76471h40.58824v66.76471z" fill="#171105" stroke-width="0"/><path d="M29.82535,268.24816v-66.76471h12.64706v66.76471z" fill="#e2a131" stroke-width="0"/><path d="M39.64062,238.54228c0,-2.11168 0.5334,-3.82353 1.19139,-3.82353c0.65799,0 1.19139,1.71185 1.19139,3.82353c0,2.11168 -0.5334,3.82353 -1.19139,3.82353c-0.65799,0 -1.19139,-1.71185 -1.19139,-3.82353z" fill="#ffef2b" stroke-width="0"/><path d="M79.67626,233.1727c0.0961,0.1739 0.0961,0.35695 0.0961,0.35695c0,1.61806 -0.06352,3.05158 -0.42304,4.63316c-0.08545,0.37588 -0.0812,0.79281 -0.28296,1.12126c-0.41236,0.67131 -1.18779,1.04201 -1.70825,1.63347c-0.56771,0.64515 -1.0745,1.35275 -1.7183,1.92199c-0.16692,0.14759 -1.82689,1.34064 -1.89309,1.39214c-0.34382,0.26746 -0.6218,0.62796 -1.00469,0.83568c-0.22358,0.1213 -0.51613,0.02787 -0.75386,0.11834c-0.57276,0.21795 -1.0388,0.69245 -1.63189,0.84672c-0.24552,0.06386 -0.5098,-0.02725 -0.76102,0.00805c-0.52724,0.07408 -1.0265,0.28374 -1.54369,0.41017c-1.49056,-0.00197 -2.13733,-0.47963 -3.42604,-1.07849c-0.33574,-0.15602 -1.13938,-0.45621 -1.43726,-0.67681c-0.51707,-0.38293 -0.88414,-0.94838 -1.41239,-1.31573c-0.29363,-0.20419 -0.69907,-0.25224 -0.94086,-0.51578c-0.22908,-0.24968 -0.21912,-0.64659 -0.39262,-0.93765c-0.43091,-0.72289 -1.01393,-1.35447 -1.39181,-2.10644c-0.4194,-0.83461 -0.90111,-1.81407 -1.2087,-2.69519c-0.11923,-0.34154 -0.11245,-0.72665 -0.27494,-1.04986c-0.17321,-0.34452 -0.532,-0.57087 -0.71148,-0.91217c-0.17007,-0.32342 -0.16177,-0.71903 -0.3196,-1.04859c-0.18565,-0.38765 -0.49917,-0.70279 -0.70091,-1.08232c-0.50396,-0.9481 -0.64155,-1.54334 -0.95643,-2.54914c-0.14854,-0.39982 -0.39721,-0.77569 -0.44562,-1.19945c-0.03531,-0.3091 0.18756,-0.59999 0.20459,-0.91064c0.05121,-0.93413 -0.10393,-1.96547 -0.10393,-2.91505c0,-1.65764 -0.16086,-3.49032 0.11284,-5.12539c0.27954,-1.66996 1.13456,-3.02518 1.90532,-4.48298c0.08022,-0.15174 0.80343,-1.62329 0.86611,-1.71339c0.27986,-0.40234 0.74899,-0.64574 1.03712,-1.04221c0.45617,-0.62769 0.85703,-1.29933 1.36685,-1.88428c0.32063,-0.3113 0.57861,-0.70409 0.96188,-0.9339c1.06954,-0.6413 1.39824,-0.24533 2.5428,-0.46235c0.28054,-0.05319 0.51754,-0.24868 0.79294,-0.32411c0.85545,-0.23429 2.19853,-0.33762 3.05697,-0.11298c0.46383,0.12137 0.95559,0.25188 1.32685,0.55526c0.32744,0.26758 0.39356,0.75735 0.67047,1.07694c0.32836,0.37898 0.76302,0.65138 1.15925,0.95871c0.66828,0.51834 1.6313,0.67612 2.15379,1.34117c0.23412,0.298 0.07787,0.77403 0.25871,1.10706c0.33165,0.61073 1.16935,0.85784 1.45857,1.48977c0.11954,0.26119 -0.07825,0.59041 0.01647,0.86159c0.23371,0.66911 0.94799,1.05468 1.3944,1.60517c0.44396,0.54747 0.79943,1.16115 1.20285,1.73915c0.52767,1.05191 0.98248,2.36934 1.69735,3.31276c0.2447,0.32293 0.64873,0.51662 0.85154,0.86738c0.64378,1.11342 0.3685,1.85537 0.59669,2.97526c0.23326,1.14483 0.58441,2.19631 0.41572,3.39256c-0.11081,0.78584 -0.39806,1.5563 -0.51116,2.35198l-0.1916,0.16221z" data-paper-data="{&quot;index&quot;:null}" fill="#000000" stroke-width="0.5"/><path d="M58.10402,248.29453c0.39589,-1.61215 0.93174,-3.28898 1.09426,-4.98096c-0.01818,-0.01415 -0.03626,-0.02853 -0.05425,-0.04314c-0.17627,-0.14318 -0.20577,-0.3723 -0.32096,-0.55329c-0.15912,-0.25 -0.41064,-0.46656 -0.50156,-0.73904c-0.03571,-0.10701 -0.03,-1.08857 -0.03,-1.34183c0,-1.60591 0,-3.21182 0,-4.81773c0,-0.48057 -0.15555,-1.70897 0.2796,-2.03893c0.37606,-0.28516 1.97799,-0.09718 2.5035,-0.04872c0.74387,0.00591 0.80387,-0.18558 1.50577,-0.34397c0.1891,-0.04267 0.39854,0.0419 0.58789,0c0.19082,-0.04223 0.32182,-0.20766 0.51441,-0.24394c0.4505,-0.08485 0.92959,0.00048 1.38315,-0.0723c1.78457,-0.28638 3.55639,-0.2556 5.36934,-0.2556c1.1488,0 2.30471,-0.06876 3.43573,0.08436c0.06204,-0.0485 0.13971,-0.09382 0.2363,-0.1339c0.73944,-0.30682 1.10917,0.30682 1.10917,0.30682l0.2409,0.40247c0.42297,0.82052 0.94882,1.50428 1.23531,2.37462c0.00837,1.08112 0.17631,2.23775 -0.27275,3.27409c-0.07599,0.17537 -0.16799,0.36246 -0.27355,0.5539c0.10541,1.75916 0.43307,3.43564 0.68733,5.1756c0.1179,0.8068 0.56636,1.60537 0.82619,2.34769c0.24464,0.69893 0.53759,1.67555 0.70355,2.44935c0.20687,0.96456 0.24299,2.01294 0.1697,3.00625c-0.03294,0.44641 -0.2796,0.90019 -0.17065,1.32871c0.05786,0.22755 0.19596,0.41327 0.29395,0.6199c-0.02131,0.31703 -0.14782,0.64951 -0.06393,0.95108c0.04629,0.16638 0.29827,0.09709 0.39268,0.23069c0.20428,0.28905 0.37443,0.62669 0.46916,0.98879c0.23946,0.91537 0.04147,1.2191 0.10828,2.06931c0.02742,0.34898 0.14863,0.68542 0.15,1.03596c0.00149,0.38186 0.02247,0.80607 -0.14154,1.13281c-0.23367,0.46554 -0.54649,1.00147 -0.9877,1.11691c-0.39667,0.10378 -0.73224,-0.43662 -1.12405,-0.56441c-0.58424,-0.19055 -1.64335,-0.11323 -2.23947,-0.04634c-0.24873,0.02791 -0.48532,0.1909 -0.73487,0.17712c-0.425,-0.02347 -0.97329,0.09838 -1.25394,-0.28695c-0.66547,-0.91368 -0.09257,-1.61303 -0.23147,-2.49314c-0.1144,-0.72486 -0.36216,-1.41673 -0.44375,-2.148c-0.1621,-1.45287 -0.14819,-2.66982 -0.44257,-4.08886c-0.00162,-1.38716 -0.19589,-2.74084 -0.29806,-4.12473c-0.03255,-0.44092 0.08471,-0.8949 0.00859,-1.32795c-0.06421,-0.36529 -0.23607,-0.69587 -0.29395,-1.06269c-0.14437,-0.91503 0.16186,-1.94099 -0.06293,-2.84988c-0.50624,0.13371 -1.01537,0.23485 -1.44306,0.30928c-2.17161,0.37795 -4.283,0.65466 -6.49106,0.79938c-0.08362,0.31965 -0.15621,0.6434 -0.21141,0.97134c0.00907,1.7747 -0.152,3.6938 0.07132,5.44776c0.04595,0.36091 0.17719,0.7013 0.22046,1.06269c0.21193,1.76995 -0.05705,3.69183 0.00535,5.47857c0.0372,1.06524 0.33853,3.0512 -0.16781,3.93767c-0.2094,0.36661 -0.72181,0.18895 -1.08226,0.28585c-0.84833,0.22805 -1.75029,0.82108 -2.5848,0.96334c-0.5655,0.09639 -1.14226,-0.0024 -1.71339,-0.00361c-0.34612,-0.23105 -0.82366,-0.29264 -1.03836,-0.69316c-0.48815,-0.91061 0.03692,-1.87037 0.1654,-2.72344c0.09673,-0.64227 0.11575,-1.87495 0.07025,-2.50035c-0.04605,-0.63303 -0.35294,-1.24102 -0.2958,-1.87273c0.04201,-0.46452 0.23412,-0.89316 0.30715,-1.35208c0.27408,-1.72244 0.40896,-3.43553 0.82522,-5.13062z" data-paper-data="{&quot;index&quot;:null}" fill="#00091f" stroke-width="0.5"/><path d="M54.72589,238.83541c0.44817,-0.07555 0.53863,0.37669 0.53863,0.37669c0.02493,0.16489 0.10794,0.33123 0.07478,0.49466c-0.1463,0.72097 -0.52954,0.848 -0.92849,1.34381c-0.43783,0.54414 -0.69334,0.97788 -1.42215,1.19649c-0.46062,0.13816 -1.14883,0.1077 -1.60877,0.00286c-0.11602,-0.02644 -0.21541,-0.11609 -0.33399,-0.12609c-0.12473,-0.01052 -0.24581,0.08565 -0.36955,0.06674c-0.17293,-0.02642 -0.32101,-0.14 -0.48623,-0.19748c-0.81866,-0.28482 -1.71763,-0.63567 -2.34645,-1.24856c-0.30059,-0.30278 -0.61319,-0.56702 -0.77257,-0.98724c-0.06123,-0.16143 0.01251,-1.14638 0.01287,-1.20585c0.00123,-0.2032 -0.06531,-0.4096 -0.02638,-0.60904c0.04093,-0.20969 -0.6693,-0.62447 -0.60216,-0.82729c0.08115,-0.24518 0.60798,-0.9598 0.70056,-1.2009c0.2397,-0.62425 1.15365,-0.59298 1.61843,-1.04718c0.13491,-0.13184 0.24537,-0.29965 0.41216,-0.38777c0.89762,-0.47423 1.88502,-0.26044 2.82434,-0.19797c0.21433,0.01426 0.43096,-0.02169 0.64439,0.00258c0.46649,0.05307 1.02728,0.32815 1.46651,0.46326c0.33972,0.26366 0.90693,0.51279 1.12075,0.90439c0.41391,0.75804 0.07246,1.50324 -0.12072,2.2516c-0.04184,0.16208 -0.02828,0.3399 -0.09623,0.49288c-0.05901,0.13286 -0.21766,0.20547 -0.27355,0.33966c-0.01333,0.032 -0.02129,0.06545 -0.02617,0.09975z" data-paper-data="{&quot;index&quot;:null}" fill="#ffca89" stroke-width="0.5"/><path d="M87.22638,232.63641c0.44817,-0.07555 0.53862,0.37669 0.53862,0.37669c0.02493,0.16489 0.10794,0.33123 0.07478,0.49466c-0.1463,0.72097 -0.52954,0.848 -0.92849,1.34381c-0.43783,0.54414 -0.69334,0.97788 -1.42215,1.19649c-0.46062,0.13816 -1.14883,0.1077 -1.60877,0.00286c-0.11603,-0.02645 -0.21541,-0.11609 -0.33399,-0.12609c-0.12473,-0.01052 -0.24581,0.08565 -0.36955,0.06674c-0.17293,-0.02642 -0.32101,-0.14 -0.48623,-0.19748c-0.81866,-0.28482 -1.71763,-0.63567 -2.34645,-1.24856c-0.30059,-0.30278 -0.61319,-0.56702 -0.77257,-0.98724c-0.06123,-0.16144 0.01251,-1.14638 0.01287,-1.20585c0.00123,-0.2032 -0.06531,-0.4096 -0.02638,-0.60904c0.04093,-0.20969 -0.66929,-0.62447 -0.60216,-0.82729c0.08115,-0.24519 0.60798,-0.9598 0.70056,-1.2009c0.2397,-0.62425 1.15364,-0.59297 1.61843,-1.04718c0.13491,-0.13184 0.24538,-0.29965 0.41216,-0.38777c0.89762,-0.47423 1.88502,-0.26044 2.82434,-0.19797c0.21433,0.01425 0.43096,-0.02169 0.64439,0.00258c0.4665,0.05306 1.02728,0.32815 1.46651,0.46326c0.33972,0.26366 0.90693,0.51279 1.12075,0.90439c0.41391,0.75805 0.07246,1.50324 -0.12072,2.2516c-0.04184,0.16208 -0.02828,0.3399 -0.09623,0.49288c-0.05901,0.13286 -0.21766,0.20546 -0.27355,0.33966c-0.01333,0.032 -0.02129,0.06545 -0.02617,0.09975z" data-paper-data="{&quot;index&quot;:null}" fill="#ffca89" stroke-width="0.5"/><path d="M60.25494,210.50667c-0.7762,-0.55226 -0.24,-1.35657 -0.24,-1.35657c0.20743,-0.28132 0.33093,-0.65089 0.6223,-0.84396c1.28536,-0.8517 2.04164,-0.47198 3.36774,-0.61555c1.45537,-0.15756 2.4769,-0.42172 3.88104,0.33444c0.88745,0.47791 1.86228,1.54304 2.38858,2.3801c0.13276,0.21116 0.14721,0.49132 0.30813,0.68189c0.16927,0.20046 0.49125,0.23737 0.64662,0.44878c0.21714,0.29545 0.26827,0.68325 0.42795,1.01332c0.79119,1.63546 1.60356,3.48778 1.62717,5.32812c-0.00324,0.89423 0.06843,1.74918 -0.31816,2.60818c-0.14852,0.33 -1.71757,1.68048 -1.80625,1.76809c-0.30299,0.29934 -0.51027,0.70386 -0.86355,0.94175c-0.37144,0.25011 0.06643,1.91747 -0.33367,2.11857c-0.48366,0.24311 -2.32358,0.52143 -2.81812,0.74155c-1.28045,0.56993 -2.58864,-0.83096 -3.95066,-0.84664c-0.39535,-0.00455 -0.80778,0.08045 -1.18557,-0.03615c-2.0332,-0.62749 -3.17976,-2.40775 -4.47931,-3.8925c-0.29652,-0.33877 -0.67087,-0.60658 -0.9512,-0.95887c-0.61274,-0.77003 -1.03618,-2.00887 -1.4869,-2.86009c-0.11274,-0.89426 -0.58415,-2.10414 -0.32067,-3.00143c0.51003,-1.73694 2.12053,-2.33533 3.51597,-3.15814c0.30223,-0.17821 0.54567,-0.46185 0.87311,-0.58788c0.28436,-0.10945 0.6271,0.01808 0.90884,-0.09798c0.06718,-0.02767 0.12856,-0.06546 0.18661,-0.10905z" data-paper-data="{&quot;index&quot;:null}" fill="#ffca89" stroke-width="0.5"/><path d="M65.33986,214.5819c-0.55022,0 -0.99627,-0.44604 -0.99627,-0.99627c0,-0.55022 0.44604,-0.99627 0.99627,-0.99627c0.55022,0 0.99627,0.44604 0.99627,0.99627c0,0.55022 -0.44604,0.99627 -0.99627,0.99627z" data-paper-data="{&quot;index&quot;:null}" fill="#000000" stroke-width="0.5"/><path d="M56.14354,217.03426c-0.55022,0 -0.99627,-0.44604 -0.99627,-0.99627c0,-0.55022 0.44604,-0.99627 0.99627,-0.99627c0.55022,0 0.99627,0.44604 0.99627,0.99627c0,0.55022 -0.44604,0.99627 -0.99627,0.99627z" data-paper-data="{&quot;index&quot;:null}" fill="#000000" stroke-width="0.5"/><path d="M57.94108,219.80721c0.82894,-0.55263 1.38157,0.27631 1.38157,0.27631l0.07988,0.15471c0.2818,0.2818 0.4894,0.64896 0.82258,0.86763c0.3928,0.2578 1.54995,0.06611 1.94712,0.06675c0.55405,0.00089 1.56723,0.0913 2.07552,-0.06358c0.26433,-0.08054 0.43632,-0.34789 0.68728,-0.46355c0.16401,-0.07559 0.38549,0.00585 0.53271,-0.09874c0.13438,-0.09547 0.12033,-0.31322 0.22566,-0.44002c0.36999,-0.44543 1.43693,-1.16653 1.52388,-1.87656c0.0313,-0.2556 -0.07323,-0.50978 -0.10985,-0.76467c0,0 -0.09913,-0.99132 0.89219,-1.09046c0.99132,-0.09913 1.09046,0.89219 1.09046,0.89219c0.03151,0.42632 0.16864,0.85795 0.09452,1.27896c-0.22737,1.29144 -1.15839,1.92302 -1.95028,2.82378c-0.21657,0.24634 -0.32761,0.59176 -0.5918,0.78616c-0.25501,0.18765 -0.61134,0.1752 -0.89783,0.30998c-0.33173,0.15607 -0.59523,0.45714 -0.94762,0.55826c-0.66541,0.19094 -1.90282,0.13973 -2.62482,0.14079c-0.97557,0.00143 -2.0592,0.15795 -2.95759,-0.34198c-0.1267,-0.0705 -1.04462,-0.99958 -1.22105,-1.176l-0.32884,-0.45838c0,0 -0.55263,-0.82894 0.27631,-1.38157z" data-paper-data="{&quot;index&quot;:null}" fill="#000000" stroke-width="0.5"/><path d="M57.24015,229.20227c0,0 0.13654,-0.21847 0.38185,-0.36378c0.37967,-0.66362 1.04938,-1.17229 1.58028,-1.73617c0.2932,-0.31142 0.44956,-0.73448 0.74082,-1.04772c0.16831,-0.18101 0.44027,-0.23871 0.61649,-0.41203c0.24447,-0.24046 0.33955,-0.63065 0.62959,-0.81359c1.12703,-0.71085 1.17723,-0.31336 2.22879,-0.17475c0.46846,0.06175 0.94842,-0.0581 1.41752,-0.00152c1.22841,0.14817 2.31955,0.1945 3.5664,0.01596c0.43331,-0.09194 0.96591,-0.45203 1.18839,-0.85923c0.11889,-0.2176 0.07524,-0.50358 0.20436,-0.71527c0.14453,-0.23694 0.36641,-0.41506 0.56635,-0.60986c-0.008,-0.12511 0.00928,-0.26665 0.06244,-0.42613c0.31505,-0.94514 1.26019,-0.6301 1.26019,-0.6301c1.25683,0.42793 2.09192,1.18346 3.22492,1.80623c0.28385,0.15602 0.62566,0.21337 0.87785,0.41662c0.09528,0.07679 0.1623,0.17937 0.22409,0.28709c0.81922,0.22043 1.58534,0.53435 2.3519,0.92049c0.18774,0.09457 0.31793,0.29015 0.51446,0.36478c0.22516,0.0855 0.49253,0.01058 0.71527,0.10218c0.43571,0.17918 1.59762,1.06755 1.80786,1.40915c0.61298,0.99597 0.7731,2.91549 0.32024,4.008c-0.20023,0.48305 -0.34433,1.09745 -0.80377,1.34715c-2.0896,1.13566 -2.07016,-0.18589 -3.60351,-0.5885c-0.07233,-0.01899 -0.14503,-0.03697 -0.21793,-0.05438c-0.05879,1.60697 -0.132,3.20712 -0.132,4.82302c-0.04163,0.39941 0.10644,0.86998 -0.12489,1.19823c-0.331,0.46967 -0.88229,0.76825 -1.41418,0.98561c-0.11508,0.04703 -1.5233,0.03861 -1.80737,0.03861c-1.43561,0 -3.04533,-0.20717 -4.45998,-0.00963c-2.14593,0.29966 -4.31309,0.58178 -6.48614,0.82306c-0.85728,0.09519 -1.83412,0.38564 -2.71463,0.20588c-0.47875,-0.09774 -1.08886,-0.0642 -1.39728,-0.44319c-0.33323,-0.40947 -0.15846,-1.04391 -0.23769,-1.56586c-0.10989,-0.48881 -0.21911,-0.98301 -0.31975,-1.4802c-0.04641,0.07689 -0.08892,0.15588 -0.12688,0.23699c-0.39201,1.03891 -0.8839,1.62148 -1.5166,2.50725c-0.13917,0.19483 -0.1419,0.48661 -0.32548,0.64031c-0.45192,0.37836 -0.949,1.05256 -1.51944,0.9043c-0.62683,-0.16292 -0.77856,-1.03757 -1.11724,-1.58961c-0.19205,-0.31302 -0.37502,-0.6418 -0.46951,-0.99668c-0.04598,-0.17269 0.15432,-0.37924 0.06238,-0.53249c-0.14279,-0.238 -0.52847,-0.25209 -0.67464,-0.48804c-0.36479,-0.58885 -0.8757,-1.22281 -0.81256,-1.91262c0.06233,-0.68103 1.00661,-0.92601 1.5066,-1.39259c0.71225,-0.66466 1.54487,-1.30386 2.21543,-2.01148c0.35559,-0.37524 0.61528,-0.83816 0.99225,-1.19192c0.18523,-0.17383 0.48588,-0.1895 0.66825,-0.36632c0.17266,-0.1674 0.23767,-0.41816 0.35651,-0.62725z" data-paper-data="{&quot;index&quot;:null}" fill="#ff00e6" stroke-width="0.5"/><text transform="translate(77.55172,228.22478) rotate(-180) scale(0.05269,-0.04642)" font-size="40" xml:space="preserve" data-paper-data="{&quot;index&quot;:null}" fill="#000000" fill-rule="nonzero" stroke="none" stroke-width="1" stroke-linecap="butt" stroke-linejoin="miter" stroke-miterlimit="10" stroke-dasharray="" stroke-dashoffset="0" font-family="Archivo Black" font-weight="normal" text-anchor="start" style="mix-blend-mode: normal"><tspan x="0" dy="0">yes, i'm a GIRL</tspan></text><text transform="translate(75.09907,230.48793) rotate(-180) scale(0.05453,-0.05453)" font-size="40" xml:space="preserve" data-paper-data="{&quot;index&quot;:null}" fill="#000000" fill-rule="nonzero" stroke="none" stroke-width="1" stroke-linecap="butt" stroke-linejoin="miter" stroke-miterlimit="10" stroke-dasharray="" stroke-dashoffset="0" font-family="Archivo Black" font-weight="normal" text-anchor="start" style="mix-blend-mode: normal"><tspan x="0" dy="0">Good</tspan><tspan x="0" dy="46.15px">Itching</tspan><tspan x="0" dy="46.15px">Real</tspan><tspan x="0" dy="46.15px">Lice</tspan></text><path d="M79.66023,260.45346c0.99627,0 0.99627,0.99627 0.99627,0.99627v0.41948c0,1.02941 0.21664,2.31331 -0.35587,3.24607c-0.52882,0.86158 -0.98521,0.8468 -1.79508,1.12536c-2.29275,0.78859 -4.55188,0.67983 -6.95529,0.67983c-0.73071,-0.00028 -1.46093,-0.03994 -2.19102,-0.0702c-0.44139,-0.01829 -0.91937,0.1303 -1.32452,-0.04581c-0.53263,-0.23151 -1.11611,-0.57711 -1.34073,-1.11268c-0.19222,-0.45831 0.08437,-1.00284 0.2582,-1.46843c0.35425,-0.94881 1.1241,-1.59993 1.91885,-2.09022c0.26456,-0.16321 0.46281,-0.43727 0.75181,-0.55175c0.34681,-0.13738 0.7442,-0.08475 1.10396,-0.18339c0.29962,-0.08215 0.55738,-0.29236 0.86158,-0.3555c2.24097,-0.46518 4.8494,-0.25242 7.14635,0.03613c0.10011,-0.28323 0.34184,-0.62516 0.9255,-0.62516z" data-paper-data="{&quot;index&quot;:null}" fill="#000000" stroke-width="0.5"/><path d="M65.20039,261.16034c0.18498,0.13348 0.36005,0.27449 0.45934,0.47307c0.17136,0.34272 0.08489,0.76205 0.10518,1.14468c0.06898,1.30095 0.30282,3.27829 -0.78181,4.247c-0.29101,0.25991 -0.77403,0.10131 -1.1582,0.16949c-1.48267,0.26311 -2.93042,0.21528 -4.4396,0.21528c-0.97879,0 -1.95758,0 -2.93637,0c-0.57036,0 -1.15606,0.13083 -1.71108,-0.00055c-0.65617,-0.15533 -1.61504,-0.04087 -1.91789,-0.64334c-0.42672,-0.84888 1.24644,-2.54486 1.8576,-3.06259c0.45779,-0.38781 1.05723,-0.57204 1.61149,-0.80175c0.58188,-0.24116 1.07791,-0.66249 1.66057,-0.90175c0.6592,-0.27069 1.40035,-0.27292 2.08691,-0.46382c1.13762,-0.31631 2.05533,-0.93199 3.23997,-1.13895c0,0 0.15555,-0.02592 0.3532,0.00474c0.1405,-0.09476 0.32839,-0.15812 0.57963,-0.15812c0.82331,0 0.96624,0.68038 0.99106,0.91661z" data-paper-data="{&quot;index&quot;:null}" fill="#000000" stroke-width="0.5"/><path d="M65.58805,212.47619c-0.06603,0.01832 -0.11736,0.01832 -0.11736,0.01832c-0.05093,0 -1.03373,0.00467 -1.09592,-0.01351c-0.56491,-0.16513 -0.53689,-0.36573 -0.97795,-0.66766c-0.17504,-0.11982 -0.43216,-0.13546 -0.55772,-0.30642c-0.22727,-0.30945 0.11855,-0.6718 -0.43834,-0.75996c-0.30302,-0.04797 -0.62374,-0.08101 -0.92038,-0.00272c-0.16117,0.04253 -0.27386,0.2025 -0.43419,0.24811c-0.1464,0.04164 -0.30741,-0.02489 -0.45661,0.00527c-0.50924,0.10294 -0.94534,0.53405 -1.4194,0.72349c-0.47728,0.19072 -1.00771,0.27314 -1.51492,0.27718c-0.11543,-0.02007 -0.23088,-0.08042 -0.34628,-0.06021c-0.04004,0.00701 -0.00549,0.08118 -0.00565,0.12183c-0.00056,0.13927 0.03814,0.28291 0.00351,0.4178c-0.16608,0.64689 -0.2514,0.75473 -0.68227,1.15188c-0.4752,0.43802 -1.17007,0.79378 -1.82867,0.84589c-0.08611,0.00681 -0.16776,-0.11104 -0.24732,-0.0774c-0.05261,0.02224 0.02864,0.11125 0.03243,0.16824c0.00837,0.12582 0.00341,0.25217 0.0039,0.37827c0.00081,0.20675 0.00175,0.41352 0,0.62027c-0.00516,0.60995 0.28639,1.10412 0.47184,1.66073c0.07307,0.21931 0.05112,0.46295 0.12406,0.6823c0.05079,0.15273 0.18346,0.26795 0.24179,0.41796c0.1512,0.38881 0.25117,0.8013 0.45137,1.1673c0,1.09216 1.41458,1.89769 0.67048,3.02127c-0.29527,0.44585 -0.93754,0.55771 -1.3829,0.6951c-0.21134,0.0652 -0.39203,0.22606 -0.61066,0.25947c-1.11355,0.17017 -2.381,-0.93269 -2.94443,-1.79849c-0.08312,-0.12772 -0.08742,-0.29842 -0.17765,-0.42121c-0.29178,-0.39704 -0.67824,-0.74672 -0.85244,-1.20763c-0.13111,-0.34691 -0.16704,-0.72271 -0.25693,-1.08251c-0.27484,-0.93643 -0.26243,-1.88748 -0.38356,-2.84881c-0.0679,-0.53889 -0.17316,-1.07092 -0.24723,-1.60605c-0.09627,-0.69543 -0.0039,-1.46121 -0.0039,-2.16485c0,-0.41148 -0.05344,-0.82697 0.0039,-1.23444c0.0601,-0.4271 0.36908,-0.78324 0.49261,-1.19648c0.05191,-0.17366 -0.03532,-0.37032 0.01833,-0.54345c0.05526,-0.17832 0.19548,-0.31815 0.2972,-0.47469c0.37344,-0.57467 0.70826,-1.08724 1.15754,-1.60248c0.57721,-0.57721 1.1145,-1.19879 1.67144,-1.79522c0.45145,-0.48346 0.81331,-1.05295 1.37556,-1.42746c0.19386,-0.12912 0.40448,-0.24132 0.62831,-0.30576c0.12795,-0.03684 0.27589,0.05983 0.39933,0.0099c0.19167,-0.07753 0.30327,-0.29786 0.49622,-0.37216c0.32019,-0.1233 0.68803,-0.04867 1.02078,-0.13236c0.69455,-0.1747 1.36802,-0.13644 2.08403,-0.13644c1.01195,0 2.02393,-0.00352 3.03585,0.00427c0.24445,0.07339 0.49832,0.12067 0.73336,0.22016c0.13051,0.05525 0.21782,0.19218 0.35155,0.2391c0.21036,0.07381 0.44488,0.05258 0.65878,0.11539c0.69315,0.20354 1.5564,0.47523 2.17852,0.83712c0.22379,0.13018 0.39068,0.35135 0.6254,0.46058c0.24384,0.11347 0.53928,0.08104 0.78298,0.19481c0.75027,0.35026 1.56723,1.10497 2.23247,1.60562c0.31213,0.23491 0.52861,0.58813 0.85767,0.79867c0.21044,0.13464 0.47449,0.17147 0.6823,0.31014c0.16217,0.10821 0.24516,0.31242 0.409,0.41808c0.14084,0.09083 0.35037,0.04625 0.4785,0.15427c0.16167,0.13629 0.2222,0.35993 0.33987,0.53562c0.28971,0.43255 0.59187,0.85668 0.88062,1.28986c0.19056,0.31143 0.35798,0.81036 0.62242,1.06798c0.15135,0.14745 0.37067,0.21978 0.50558,0.38241c0.44969,0.54206 0.59179,1.28719 0.96714,1.84734c0.11979,0.17877 0.35217,0.27091 0.45068,0.46222c0.11438,0.22214 0.11229,0.48698 0.16393,0.73144c0.22572,1.06852 0.06654,2.13227 0.13087,3.21388c0.058,0.97519 0.20211,2.04174 -0.80479,2.66297c-0.20251,0.12494 -0.45943,0.12408 -0.68915,0.18612c-1.00821,-0.44556 -2.13042,-0.99482 -2.82186,-1.88789c-0.12363,-0.15968 -0.17334,-0.36553 -0.27746,-0.53858c-0.45819,-0.76152 -1.10121,-1.42126 -1.6023,-2.15457c-0.08321,-0.12177 -0.11224,-0.27982 -0.21225,-0.38822c-0.50008,-0.54206 -1.26319,-0.94294 -1.74717,-1.50064c-0.11884,-0.13694 -0.13465,-0.34075 -0.24082,-0.48773c-0.1693,-0.23438 -0.48754,-0.11402 -0.70672,-0.19909c-0.43736,-0.16975 -0.57457,-0.41312 -0.86058,-0.74939c-0.27164,-0.15032 -0.54202,-0.30291 -0.81157,-0.45694l-0.05477,-0.02722z" data-paper-data="{&quot;index&quot;:null}" fill="#000000" stroke-width="0.5"/></g></g></svg>