<svg version="1.1" xmlns="http://www.w3.org/2000/svg" xmlns:xlink="http://www.w3.org/1999/xlink" width="166.86684" height="92.62083" viewBox="0,0,166.86684,92.62083"><g transform="translate(-156.56659,-133.68956)"><g data-paper-data="{&quot;isPaintingLayer&quot;:true}" fill-rule="nonzero" stroke="none" stroke-width="0.5" stroke-linecap="butt" stroke-linejoin="miter" stroke-miterlimit="10" stroke-dasharray="" stroke-dashoffset="0" style="mix-blend-mode: normal"><path d="M179.73347,149.38557c0,-1.17133 0.32258,-2.27994 0.89781,-3.26764l-0.00933,-0.11256l0.17887,-0.16378c0.72398,-1.12194 1.78101,-2.0728 3.06099,-2.76092l3.35876,-1.86394l0.34139,-0.10149l0.15145,-0.22063l1.96892,-0.40974l1.91127,-0.56822l0.27304,0.11364l0.35168,-0.07319h5.80996l8.71015,-0.90632l0.5652,0.05702l0.55233,-0.11494h11.11054l10.53397,-0.92302l0.47643,0.05593l0.46677,-0.09714h9.76132l14.98104,-1.8475l0.66861,0.05466l0.65177,-0.13564h12.96201l10.08627,-1.76759l0.9418,0.0294l0.91432,-0.19027h10.5549l5.34458,-0.4449l0.45267,0.05514l0.44384,-0.09237h15.63764l4.50491,0.9375l0.5206,0.75839l1.02894,0.1713l2.49301,3.2611l0.57918,1.44635l0.11108,1.20208l0.35127,1.16963v54.96134l-0.26901,0.89572v0.92329l-0.88933,2.96121v16.43292l-1.12623,3.75l-2.15007,1.02272l-1.22862,1.78978l-4.50491,0.9375h-8.68758l-0.29752,-0.06191l-0.30181,0.0453l-8.68758,-0.48211l-0.37666,-0.10097l-0.39402,0.03037l-14.98223,-1.9187l-12.66536,-1.43768l-0.12725,-0.04237l-0.13662,0.0091l-13.44323,-1.86507l-8.80446,-0.45807l-0.58836,-0.15548l-0.61659,0.02445l-11.48306,-1.91176l-8.96822,-1.31742h-16.00709l-0.44384,-0.09237l-0.45267,0.05515l-5.79172,-0.48212l-0.62483,-0.18671h-0.66387l-6.42225,-1.33651l-3.53692,-0.36803h-3.49327l-0.04968,-0.01034l-0.14347,0.06699l-2.14081,-0.54236l-2.17095,-0.45179l-0.08161,-0.11889l-0.04899,-0.01242l-0.75592,-0.37754h-7.45906l-0.01445,0.00908l-0.06768,-0.00908h-0.96749l-1.75907,-0.36607l-1.79007,-0.24034l-0.88926,-0.31724l-0.06651,-0.01384l-0.00899,-0.01309l-1.54619,-0.5516l-4.23655,-0.88165l-0.99339,-1.44711l-1.70955,-0.61539l-0.3604,-2.4l-1.44157,-2.1l0.92408,-1.34616l-0.24835,-1.65384l2.20354,-2.25759l0.10713,-0.62425l0.4945,-1.01037l0.24421,-1.0719l3.47503,-6.26753l0.19327,-0.20002l0.0776,-0.24844l2.81867,-4.30161l1.4687,-6.11292l0.51517,-0.90533l0.26106,-0.9779l1.73752,-2.8927l0.37052,-0.35983l0.19149,-0.44632l0.98621,-1.23142l1.54608,-2.25224l0.00872,-0.02901v-1.96941l0.91587,-3.04958l-0.02739,-0.33063l0.17475,-0.16001l0.06301,-0.20979l0.34567,-0.16443l2.54017,-2.32595l0.04213,-0.02338v-2.41434l1.12623,-3.75l0.03212,-0.01528v-0.09166l0.41385,-1.37802l0.23056,-1.40741l0.35303,-0.73467c-0.27171,-0.71472 -0.41826,-1.47577 -0.41826,-2.2653z" data-paper-data="{&quot;index&quot;:null}" fill="#16ff00"/><path d="M216.11006,200.30982c-2.70826,4.22441 -6.15741,7.59833 -11.66774,9.00912c-2.28819,0.58584 -4.5459,0.60097 -6.76179,0.27129c-1.03904,1.64875 -3.20731,1.64875 -3.20731,1.64875l-3.90311,-0.00725c-3.07735,-0.40466 -6.98823,-0.53361 -9.25613,-3.17969c-1.28296,-1.4969 -1.26296,-3.75333 -1.58279,-5.69869c-0.71735,-4.36324 -0.26109,-9.97009 0.84339,-14.18483c1.65092,-6.29999 1.89759,-13.33413 4.60309,-19.27811c2.17071,-4.76907 5.14385,-9.31956 7.97225,-13.70342c2.93638,-4.55123 2.48077,-6.02629 7.9438,-8.17353c2.66961,-1.04929 5.73608,-0.1442 8.60441,-0.12116c1.7961,0.60696 3.89052,0.65855 5.3883,1.82089c1.62925,1.26437 2.39518,3.35956 3.51703,5.09004c1.27807,1.97145 3.75319,6.88704 4.12206,8.47317c1.12329,4.83021 -0.3301,10.91533 -0.65396,15.71785c-0.10431,1.54683 0.17467,9.82543 -0.09307,10.90482c-0.39892,1.60825 -1.26915,3.0479 -2.08949,4.50401c2.57516,2.67801 5.0561,5.46516 7.52618,8.34235l-0.92958,5.82614c0,0 -2.65165,2.65165 -5.3033,0c-1.02024,-1.02024 -1.25539,-2.04047 -1.15856,-2.90968c-1.29147,-1.47958 -2.59155,-2.93125 -3.91368,-4.35207zM214.39252,188.01811c0.11562,-0.27299 0.21348,-0.55281 0.28661,-0.84219c0.78798,-3.11802 -0.30464,-6.43862 -0.09307,-9.6477c0.41964,-6.36491 1.97601,-11.64726 -1.0588,-17.50086c-1.34761,-2.5993 -1.90852,-5.12682 -4.91823,-5.71455c-1.78101,0.01834 -3.64834,-0.67257 -5.34193,-0.12116c-2.16833,0.70598 -2.81803,3.46935 -3.8005,5.0388c-2.5888,4.1355 -5.35748,8.27808 -7.44214,12.72124c-2.15035,4.58318 -2.29006,10.21139 -3.44381,15.11233c-0.95363,4.05086 -1.35613,7.05418 -1.36772,11.24973c-0.00077,0.27951 -0.00042,0.55905 0.00005,0.83859c1.40334,-0.49062 2.83039,0.10398 2.83039,0.10398c6.24894,2.60467 12.76084,4.8905 18.27045,-0.63479c0.98066,-0.98345 1.77437,-2.3466 2.464,-3.72298c-1.9661,-1.87113 -4.01006,-3.6741 -6.1689,-5.40084c0,0 -2.92826,-2.34261 -0.58565,-5.27086c2.34261,-2.92826 5.27086,-0.58565 5.27086,-0.58565c1.76543,1.41263 3.45898,2.87296 5.09839,4.37691z" data-paper-data="{&quot;index&quot;:null}" fill="#ffffff"/><path d="M251.96451,163.36797c3.75,0 3.75,3.75 3.75,3.75c0,4.52645 0,9.4199 0,13.94635c0,1.12292 0.03766,5.51078 -0.1609,6.22482c-0.23635,0.84993 -1.26572,1.34339 -1.46804,2.20206c-0.2716,1.15273 0.32363,2.38578 0.11248,3.55109c-0.98283,5.42432 -4.73964,13.90655 -11.70915,13.41352c-5.34559,-0.37815 -6.73601,-5.3697 -8.58261,-9.08245c-1.15983,-2.33194 -3.06765,-4.30705 -3.88133,-6.78114c-1.89015,-5.74721 -0.77311,-14.48083 0.70525,-20.05683c0,0 0.98669,-3.61786 4.60455,-2.63117c3.61786,0.98669 2.63117,4.60455 2.63117,4.60455c-1.06009,3.75359 -0.96449,6.88575 -0.96889,10.7576c-0.0007,0.61145 -0.11714,4.20419 0.2061,5.15247c0.7168,2.10284 2.46154,3.71196 3.45886,5.69718c0.76082,1.51445 1.70631,6.98582 3.85624,3.47311c0.42048,-0.68701 0.74904,-1.4296 1.04565,-2.17847c0.46349,-1.17023 1.02488,-2.32805 1.23101,-3.56973c0.24699,-1.48781 -0.23256,-3.05494 0.11248,-4.52311c0.20183,-0.85878 1.17308,-1.37065 1.46804,-2.20206c0.45189,-1.27376 -0.1609,-2.69989 -0.1609,-4.05144c0,-4.52645 0,-9.05289 0,-13.57934v-0.36701c0,0 0,-3.75 3.75,-3.75z" fill="#ffffff"/><path d="M271.04898,167.40506c3.75,0 3.75,3.75 3.75,3.75c0,10.64327 0,23.48859 0,34.13185c0,0 0,3.75 -3.75,3.75c-3.75,0 -3.75,-3.75 -3.75,-3.75c0,-10.64327 0,-21.28653 0,-31.9298v-2.20206c0,0 0,-3.75 3.75,-3.75z" fill="#ffffff"/><path d="M267.29898,146.93245c0,-2.07107 1.67893,-3.75 3.75,-3.75c2.07107,0 3.75,1.67893 3.75,3.75c0,2.07107 -1.67893,3.75 -3.75,3.75c-2.07107,0 -3.75,-1.67893 -3.75,-3.75z" fill="#ffffff"/><path d="M312.96794,172.25609c0,3.75 -3.75,3.75 -3.75,3.75l-1.26435,-0.03769c-1.81618,-0.26696 -3.67606,-0.11767 -5.49494,-0.36557c-0.14301,-0.01949 -0.28545,-0.03961 -0.42734,-0.0603c-0.02821,0.38761 -0.0601,0.77426 -0.09604,1.15984c-0.38854,4.16911 -1.37326,7.87756 -2.22809,11.93579c-0.3727,1.76937 0.25608,3.63291 0.01218,5.42458c-0.59764,4.39019 -0.69777,8.55101 -0.69777,13.05921c0,0 0,3.75 -3.75,3.75c-3.75,0 -3.75,-3.75 -3.75,-3.75c0,-4.83079 0.05662,-9.37639 0.77026,-14.09947c0.27817,-1.841 -0.33708,-3.75684 0.01218,-5.58569c0.29027,-1.51998 1.20159,-2.87978 1.46804,-4.40411c0.4123,-2.35879 0.4756,-4.76544 0.70799,-7.14869c0.05774,-0.59212 0.10469,-1.18738 0.14236,-1.78521c-2.73195,-0.56186 -5.48068,-1.03181 -8.52606,-1.02877c0,0 -3.75,0 -3.75,-3.75c0,-3.75 3.75,-3.75 3.75,-3.75c3.42863,0.00314 5.19416,-0.12091 8.60762,0.40527c-0.08453,-3.31345 -0.24631,-6.63161 -0.24631,-9.8676l-0.31599,-1.58556c0,0 -0.6165,-3.69898 3.08248,-4.31547c3.69898,-0.6165 4.31547,3.08248 4.31547,3.08248l0.41803,2.81855c0,3.88985 0.19956,7.87635 0.25092,11.84191c0.42981,0.09267 0.85987,0.16995 1.29033,0.22573c1.82727,0.23677 3.69046,0.11389 5.51534,0.36845l0.20369,-0.03769c0,0 3.75,0 3.75,3.75z" fill="#ffffff"/></g></g></svg>