<svg version="1.1" xmlns="http://www.w3.org/2000/svg" xmlns:xlink="http://www.w3.org/1999/xlink" width="472.00001" height="412.93209" viewBox="0,0,472.00001,412.93209"><g transform="translate(3.45625,8.08443)"><g data-paper-data="{&quot;isPaintingLayer&quot;:true}" fill-rule="nonzero" stroke="none" stroke-width="0" stroke-linecap="butt" stroke-linejoin="miter" stroke-miterlimit="10" stroke-dasharray="" stroke-dashoffset="0" style="mix-blend-mode: normal"><path d="M290.1921,314.7048v90.14286h-86.07692v-90.14286z" fill="#965400"/><path d="M151.90639,277.99053v90.14286h-155.36264v-90.14286z" fill="#965400"/><path d="M16.20174,61.33396v-69.41839h14.77485v69.41839z" fill="#f3ff00"/><path d="M-3.45624,282.27624v-16h163v16z" fill="#16ff00"/><path d="M194.54375,318.27624v-16h103v16z" fill="#16ff00"/><path d="M426.19211,263.70481v28.14286h-86.07692v-28.14286z" fill="#965400"/><path d="M330.54375,267.27624v-16h103v16z" fill="#16ff00"/><path d="M461.19211,203.70481v28.14286h-86.07692v-28.14286z" fill="#965400"/><path d="M365.54377,207.27624v-16h103v16z" fill="#16ff00"/><path d="M290.34594,144.70481v28.14286h-86.07692v-28.14286z" fill="#965400"/><path d="M194.69759,148.27624v-16h103v16z" fill="#16ff00"/><path d="M136.19211,85.7048v28.14286h-86.07692v-28.14286z" fill="#965400"/><path d="M40.54376,89.27624v-16h103v16z" fill="#16ff00"/></g></g></svg>