<svg version="1.1" xmlns="http://www.w3.org/2000/svg" xmlns:xlink="http://www.w3.org/1999/xlink" width="834.13326" height="858.94512" viewBox="0,0,834.13326,858.94512"><g transform="translate(251.21134,183.23228)"><g data-paper-data="{&quot;isPaintingLayer&quot;:true}" fill-rule="nonzero" stroke-linecap="butt" stroke-linejoin="miter" stroke-miterlimit="10" stroke-dasharray="" stroke-dashoffset="0" style="mix-blend-mode: normal"><path d="M-200.86186,454.19219v-624.62462h783.78378v624.62462z" fill="#00b0ff" stroke="none" stroke-width="0"/><path d="M-251.21134,242.78307l412.12186,19.21693l-412.12186,19.21693z" fill="#66e5ff" stroke="#000000" stroke-width="0"/><path d="M573.21134,281.21693l-412.12186,-19.21693l412.12186,-19.21693z" data-paper-data="{&quot;index&quot;:null}" fill="#66e5ff" stroke="#000000" stroke-width="0"/><path d="M-144.06585,539.88901l305.00259,-277.82574l-277.82574,305.00259z" fill="#66e5ff" stroke="#000000" stroke-width="0"/><path d="M466.06585,-15.88901l-305.00259,277.82574l277.82574,-305.00259z" data-paper-data="{&quot;index&quot;:null}" fill="#66e5ff" stroke="#000000" stroke-width="0"/><path d="M143.28457,675.71284l19.21693,-412.12186l19.21693,412.12186z" fill="#66e5ff" stroke="#000000" stroke-width="0"/><path d="M180.21693,-150.21134l-19.21693,412.12186l-19.21693,-412.12186z" data-paper-data="{&quot;index&quot;:null}" fill="#66e5ff" stroke="#000000" stroke-width="0"/><path d="M438.88901,567.06585l-277.82574,-305.00259l305.00259,277.82574z" fill="#66e5ff" stroke="#000000" stroke-width="0"/><path d="M-116.88901,-43.06585l277.82574,305.00259l-305.00259,-277.82574z" data-paper-data="{&quot;index&quot;:null}" fill="#66e5ff" stroke="#000000" stroke-width="0"/><path d="M6.27666,644.55478l154.6937,-382.47036l-118.43124,395.20597z" fill="#66e5ff" stroke="#000000" stroke-width="0"/><path d="M315.72335,-120.55478l-154.6937,382.47036l118.43123,-395.20597z" data-paper-data="{&quot;index&quot;:null}" fill="#66e5ff" stroke="#000000" stroke-width="0"/><path d="M322.10116,641.91301l-161.06243,-379.83235l195.70929,363.19635z" fill="#66e5ff" stroke="#000000" stroke-width="0"/><path d="M-0.10116,-117.91301l161.06243,379.83235l-195.70929,-363.19635z" data-paper-data="{&quot;index&quot;:null}" fill="#66e5ff" stroke="#000000" stroke-width="0"/><path d="M543.55478,416.72335l-382.47036,-154.6937l395.20597,118.43123z" fill="#66e5ff" stroke="#000000" stroke-width="0"/><path d="M-221.55478,107.27665l382.47036,154.6937l-395.20597,-118.43123z" data-paper-data="{&quot;index&quot;:null}" fill="#66e5ff" stroke="#000000" stroke-width="0"/><path d="M540.91301,100.89885l-379.83235,161.06242l363.19635,-195.70929z" fill="#66e5ff" stroke="#000000" stroke-width="0"/><path d="M-218.91301,423.10115l379.83235,-161.06242l-363.19635,195.70929z" data-paper-data="{&quot;index&quot;:null}" fill="#66e5ff" stroke="#000000" stroke-width="0"/><path d="M385.139,107.41193l0.01657,0.2983l0.25941,0.14823l0.94577,3.78311v12.64571l-0.07382,0.29534l0.11464,0.22929l-0.57322,1.60504l-0.41337,1.65344l-0.02697,0.01542v3.98344l-0.22591,0.90363v0.93144l-0.26047,1.04186v3.44592l-0.36203,1.44812l0.15223,0.55818l-0.50018,0.83364l-0.23579,0.94316l-0.50233,0.28705l-0.01099,0.01833v1.74797l-0.94577,3.78311l-0.25941,0.14823l-0.01657,0.29831l-0.72375,0.62035v0.50011l-0.94578,3.78311l-1.02497,0.58571l-0.31962,1.13641l-0.62892,0.33543l-0.19844,0.79374l0.47457,0.25311l1.2194,0.4355l2.07517,1.38345l0.79216,0.26406h0.2313l1.44812,0.36203l0.55818,-0.15222l0.83364,0.50018l0.94317,0.23578l0.28704,0.50233l0.01834,0.01099h0.28886l3.7831,0.94577l0.14823,0.25941l0.29831,0.01657l1.26754,1.47879l1.08851,0.2177h8.51488l0.57126,-0.99972l3.7831,-0.94577h3.0107l0.01542,-0.02697l3.7831,-0.94578h11.67296l0.90363,0.22591h0.93144l1.04186,0.26047h3.93229l3.7831,0.94577l1.03176,1.80558l1.80558,1.03175l0.46986,1.87947l0.4912,0.60458l1.13142,1.31997l0.09429,0.18856l0.13703,0.16866l-0.01054,0.08433l1.72471,3.44943l0.06966,0.31342l0.18798,0.26028l0.39596,0.98992l1.33372,1.33372l0.76798,1.27996l0.50233,0.28704l0.23578,0.94317l0.50018,0.83364l-0.15222,0.55818l0.0892,0.35681l0.65371,1.08952l0.28978,0.95211l0.49734,0.86207l0.97274,3.40462l0.03516,1.05476l0.25596,1.02383v4.37736l-0.94577,3.78311l-0.25941,0.14823l-0.01658,0.29831l-1.73432,1.48655l0.21177,0.14119l-0.18798,3.3837l0.18798,3.38371l-0.39043,0.26028l-0.03253,0.58564l-2.96074,2.53779l-0.53118,0.26559l-0.04216,0.07379l-0.21082,0.05271l-0.18856,0.09429l-1.69711,0.37713l-1.68659,0.42166h-0.21082l-0.21215,0.04715l-0.0707,-0.04715h-6.31556l-3.78311,-0.94577l-0.08106,-0.14187l-0.27155,-0.06789l-0.75275,0.03584l-2.43186,-0.48637l-1.32864,-0.62936l-1.3845,-0.49445l-1.01211,-0.67475h-6.95022l-1.17997,-0.29498l-1.21269,-0.09328l-0.99076,-0.33026l-0.08199,0.02237l-0.18635,-0.11182l-0.20001,-0.06667l-1.34145,-0.85365l-0.2177,0.05938l-0.83364,-0.50018l-0.94317,-0.23578l-0.28704,-0.50233l-1.27996,-0.76798l-0.28771,-0.28771l-1.54989,-0.38747l-0.4372,-0.76509l-0.86407,-0.17281l-0.07779,-0.12223l-0.80741,-0.23068l-1.55579,-0.89757l-0.59528,-0.03307l-0.20896,-0.24379l-1.37698,-0.306l-0.18856,-0.09429l-0.21082,-0.05271l-0.04216,-0.07379l-0.23339,-0.11669l-0.07708,-0.01926l-0.75275,0.03584l-1.69722,-0.33944h-7.51915l-0.138,-0.03449l-0.16275,0.08745l-1.72402,-0.55915l-1.75831,-0.43958l-0.09167,-0.16041l-0.13531,-0.04388l-2.84901,-1.78064l-3.73323,-0.93331l-0.14823,-0.25941l-0.29831,-0.01658l-2.0704,-2.41547l-0.08362,0.02279l-0.83364,-0.50017l-0.94317,-0.23579l-0.28704,-0.50233l-1.27996,-0.76798l-3.36122,-3.36122l-8.34506,-5.56337l-0.0217,-0.00434l-0.00838,0.00558l-0.21214,-0.04715h-0.21082l-1.68659,-0.42166l-1.69711,-0.37714l-0.18856,-0.09429l-0.21082,-0.05271l-0.04216,-0.07379l-0.44587,-0.22293l-1.39418,0.34854l-0.67846,0.58153l-0.53118,0.26559l-0.04217,0.07378l-0.21082,0.05271l-0.18856,0.09429l-0.37108,0.08247l-0.03358,0.02015l-0.02563,-0.00698l-0.39049,0.08679l-0.77747,0.63169l-1.31997,1.13142l-0.18856,0.09429l-0.16866,0.13703l-0.08433,-0.01054l-0.88434,0.44218l-0.18554,0.16868l-0.08071,0.40355l-1.21066,0.77042l-1.06182,0.96531l-0.41058,-0.02831l-0.60683,0.38617l-1.45911,0.48637l-1.48828,0.11449l-0.48139,0.32094l-0.94903,-0.2109l-0.96934,0.07457l-0.43117,-0.38578l-1.45713,-0.32381l-0.97274,-0.48638l-2.96075,-2.53778l-0.01657,-0.29831l-0.25941,-0.14823l-0.94577,-3.78311v-1.45912l0.22591,-0.90362v-0.93145l0.26047,-1.04186v-1.01406l0.94577,-3.7831l0.76508,-0.4372l0.17281,-0.86407l0.06182,-0.03933v-1.19915l0.07383,-0.29533l-0.11465,-0.2293l0.57322,-1.60503l0.41337,-1.65344l0.13528,-0.0773l0.4241,-1.18749l0.41337,-1.65344l0.02697,-0.01542v-0.09247l0.07382,-0.29533l-0.11465,-0.2293l0.57322,-1.60504l0.41337,-1.65344l0.22258,-0.12719l0.10239,-0.28669l0.24577,-0.36867l0.16851,-0.67404l0.13961,-0.26176l0.02276,-0.29581l0.88085,-2.64258l0.41589,-1.66359l0.39212,-0.73522l0.18077,-0.81341l0.97275,-1.94548l0.12161,-0.14189l-0.00437,-0.20499l1.26045,-1.26045l1.16008,-1.35341l0.20472,-0.01137l0.13214,-0.13214l0.49598,-0.29758l0.14613,-0.73068l3.28989,-2.09355l0.81031,-0.2701l0.4472,-0.55043l0.16866,-0.12649l0.14144,-0.16499l0.08487,-0.00472l1.55055,-1.16291l0.34721,-0.14619l0.00395,-0.01581l0.50232,-0.28704l0.011,-0.01833v-2.19897l-0.49739,-0.82897l-0.50233,-0.28704l-0.078,-0.312l-0.11081,-0.06649l-0.90456,-0.90456l-0.17204,-0.14747l-0.73172,-0.33537l-2.43186,-1.94549l-0.25822,-0.33891l-0.36533,-0.21921l-1.6749,-1.67489h-0.50059l-0.25271,0.13478l-0.1576,0.78799l-3.28989,2.09356l-0.14821,0.0494l-0.47931,0.52723l-0.32607,0.21737l-0.16871,0.67487l-1.80559,1.03175l-1.03175,1.80558l-1.84934,0.46233l-0.45423,0.53323l-2.78169,1.98693l-0.01267,0.03799l-0.12034,0.05701l-0.48991,0.34994l-1.47815,0.58229l-1.43578,0.6801l-0.59037,0.11808l-0.12389,0.04879l-0.03638,-0.01674l-1.68124,0.33626l-1.49099,-0.071l-0.51748,0.25875l-0.91555,-0.32698l-0.97109,-0.04624l-0.37999,-0.43629l-1.40573,-0.50204l-2.91823,-1.94548l-2.13315,-2.34648l-0.29029,-0.16589l-0.05291,-0.21164l-0.14675,-0.16142l0.02301,-0.33355l-0.76912,-3.07649v-0.38419l-0.18837,-0.28256l-0.26619,-0.74535l-0.46339,-0.64161l-0.97274,-2.43186l-0.19362,-1.41983l-0.34754,-1.39019v-13.13208c0,-1.28964 0.32265,-2.50391 0.89162,-3.5665l0.05415,-0.21661l0.09974,-0.05701c0.52967,-0.89747 1.23933,-1.67606 2.07934,-2.28608c-0.51371,0.11012 -1.04679,0.16808 -1.59339,0.16808c-4.1787,0 -7.56621,-3.38751 -7.56621,-7.56621v-1.50169c-0.05556,0.08365 -0.11122,0.16702 -0.16698,0.25015c-1.13055,1.68567 -1.74913,3.80067 -3.28629,5.12613c-4.7513,4.09695 -13.09959,4.85507 -19.36918,2.09374c-4.66615,2.32854 -10.54364,2.7112 -15.16473,0.79909c-0.08381,-0.03468 -0.165,-0.07317 -0.24381,-0.11509c-0.92487,0.22225 -1.85758,0.34239 -2.77669,0.34746c-2.73641,0.01511 -5.7496,0.10979 -8.10972,-1.2751c-1.91823,-1.12559 -2.43136,-3.72507 -3.61761,-5.60638c-4.3723,-6.93421 -5.16546,-14.2879 3.60953,-16.75329c-1.07137,-4.39023 -1.1842,-9.61533 1.09266,-13.34968c1.8913,-3.10198 5.68062,-4.19286 8.07923,-6.7224c0,0 5.35011,-5.35011 10.70024,0c1.83117,1.83117 2.40886,3.66236 2.37655,5.27901l0.17804,-0.53412c0.95083,-3.09174 3.82952,-5.33907 7.23311,-5.33907c4.1787,0 7.56621,3.38752 7.56621,7.56622c0,0.78229 -0.11872,1.53682 -0.33913,2.24662l-0.77714,2.71996c0.81225,2.93185 -0.23219,6.38118 -0.54248,9.29488c-0.12288,1.15378 0.15255,2.35055 -0.11771,3.47893c-0.2275,0.94984 -0.78871,1.78892 -1.21008,2.67455c0.01232,0.5477 0.01713,1.09665 0.01038,1.64327c0.30145,0.03708 0.60317,0.07306 0.89972,0.13638c0.14331,0.03059 0.07201,0.55929 0.12333,0.42203c0.57033,-1.52581 1.65162,-2.80871 2.4338,-4.23752c0.93058,-1.69987 1.93195,-3.41835 2.3824,-5.3032c0.28638,-1.19838 -0.20684,-2.55108 0.27199,-3.68636c0.3654,-0.86634 2.58999,-3.86175 4.05653,-5.81631c0.09338,-1.62418 0.15229,-3.28016 -0.08482,-4.68634c-1.12865,-6.69348 -2.86338,-12.00023 3.86859,-17.63813c3.20891,-2.68742 9.68992,-0.71904 13.60363,-1.38074c1.69966,-0.88999 3.08641,-2.37636 4.88534,-3.04328c0.54895,-0.2035 1.22697,0.63669 1.72527,0.32931c0.35796,-0.22082 -0.43952,-0.85689 -0.25627,-1.23548c0.48127,-0.99439 2.55502,-2.68538 2.9357,-4.12517c0.38263,-1.44723 0.25862,-3.01791 0.77242,-4.42393c0.32133,-0.87936 1.24435,-1.43169 1.66266,-2.2661c-4.16213,-0.12715 -8.3289,-0.2475 -12.51339,-0.2475h-2.70319c-4.1787,0 -7.56621,-3.38751 -7.56621,-7.56621c0,-2.41549 1.13189,-4.56661 2.89421,-5.95189l2.64861,-2.11888l0.27258,0.34072c0.30676,-0.40079 0.6332,-0.78708 0.98345,-1.15581c1.96037,-2.06377 7.20277,-1.89297 9.95818,-1.92418c6.32536,-0.07166 13.19907,-0.43141 18.25438,3.7777l0.00002,0.00002c0.58296,0.0044 1.16601,0.00678 1.74918,0.00678c3.36316,0 9.04654,-0.64281 12.12412,0.38828c1.78397,0.59769 3.25534,1.91213 4.72731,3.08393c1.82995,1.45676 3.54469,3.46312 4.85665,5.68821c1.22583,-0.04962 2.47935,0.05752 3.70188,0.03045c4.17372,-0.09247 8.96574,-0.22392 12.5705,2.53621c1.48553,1.13747 2.61262,2.45024 3.46094,3.88341c1.49167,-1.00581 3.25961,-1.81733 5.69466,-2.48066c1.35958,-0.37036 2.81565,-0.12734 4.22448,-0.15452c4.45134,-0.08588 8.47806,-0.35779 12.55297,1.86932c1.87122,1.0227 3.49534,2.44381 5.24301,3.66569c2.02882,5.00011 3.84163,9.49215 3.28615,15.00649c-0.21735,2.15761 0.09223,4.54732 -0.98208,6.43105c-1.08375,1.90031 -3.36204,2.80019 -5.06544,4.17285c-0.54217,0.43691 -1.05573,0.92451 -1.56618,1.41795c1.04273,1.29673 1.66671,2.94441 1.66671,4.73788c0,4.06374 -3.20367,7.3792 -7.22316,7.55858l0.14859,1.33734l-0.19584,0.02176c0.07757,0.13133 0.15444,0.26311 0.23054,0.39537c0.41089,0.7142 -0.25673,1.64319 -0.19083,2.46451c0.2232,2.78211 2.47305,5.90246 1.05494,8.30642c-0.21287,0.36085 -0.43586,0.69471 -0.66809,1.00358c0.66116,0 1.32233,0 1.9835,0v-0.00271c0.06746,-1.66071 -0.21142,-3.37242 0.2024,-4.98219c0.97399,-3.78883 6.02146,-11.94325 9.87084,-12.2069c3.88723,-0.26623 7.54769,2.84843 10.2074,5.69579c0.24969,0.26732 0.42716,0.56874 0.55171,0.89509c0.28944,-0.21098 0.59188,-0.39078 0.93329,-0.47796c2.93464,-0.74944 12.38685,-0.5477 14.59421,0.52425c1.62763,0.79041 2.96161,2.28854 4.07439,3.98537c1.52308,0.57169 2.7566,1.76261 4.10989,2.6761c0.83627,0.5645 1.5631,1.28172 2.34956,1.91405c0.6617,-1.43743 1.33839,-1.85376 2.66932,-2.73862l0.23589,-1.65127c0.47168,-3.7255 3.65236,-6.60632 7.5059,-6.60632c4.1787,0 7.56621,3.38751 7.56621,7.56621v4.32509c1.42795,3.52506 -2.12433,9.80358 -3.838,11.83778c-1.03431,1.22777 -2.84858,1.49804 -4.1699,2.40983c-1.30753,0.90229 -2.19892,2.46972 -3.69113,3.01478c-2.07632,0.75841 -11.31021,1.17318 -13.73823,0.25128c-0.27733,-0.10531 -0.54441,-0.21098 -0.802,-0.31747c-5.05122,2.05162 -12.2207,1.86069 -15.86989,-1.08187c-0.89745,-0.72366 -1.47451,-1.71628 -1.94505,-2.79458c-0.45767,0.00756 -1.01404,0.01327 -1.60233,0.0284c-4.3029,6.307 -13.51864,8.2584 -20.69621,6.37819c-1.25247,-0.32809 -2.20651,-1.38365 -3.41186,-1.8564c-0.91043,-0.35709 -1.99129,-0.17887 -2.8703,-0.60753c-0.40675,-0.19836 -0.81333,-0.41012 -1.21769,-0.63454c-1.49144,-0.06442 -2.91993,-0.2196 -4.2248,-0.51959c-0.40082,0.33737 -0.8194,0.6492 -1.25362,0.93128c-1.47674,0.95935 -3.3779,0.78811 -5.20615,0.76391zM320.91611,92.4024l3.48674,0.87168c0.07347,-2.94098 0.58298,-5.96004 0.17928,-8.65032c-0.01767,-0.11779 -0.0469,-0.23463 -0.08441,-0.35068c-0.00444,-0.00296 -0.00885,-0.00593 -0.01319,-0.00891c-0.25925,0.9981 -0.46723,2.01818 -0.91127,2.94514c-0.86502,1.80571 -1.87914,3.52696 -2.98904,5.19309zM313.06561,63.02876c0.31373,1.54932 0.47739,3.08463 0.56047,4.62748c1.2077,0.96342 2.14479,2.17602 2.86881,3.5635c3.40632,-2.02378 7.69599,-2.887 11.33867,-2.21413c2.05286,0.37918 4.29093,0.66527 6.17022,1.55363c1.37026,-1.93685 3.62796,-3.20132 6.181,-3.20132c2.41549,0 4.56662,1.13189 5.9519,2.89422l2.11888,2.64861l-0.41306,0.33044c0.39299,0.24422 0.77726,0.50345 1.15118,0.78034c1.1594,0.85853 2.42985,7.99719 2.51602,9.47935c0.03962,0.68158 -0.55952,1.3622 -0.36248,2.01588c0.37018,1.22814 1.2366,1.71547 1.77919,2.32941c-0.01069,-0.35794 -0.30224,-0.73049 -0.27847,-1.10144c0.14474,-2.25706 0.01075,-4.5847 0.65139,-6.75378c0.68502,-2.31932 1.56205,-4.02208 2.62999,-5.40466c-0.06641,-0.79861 -0.08566,-1.6257 -0.06108,-2.48196c-0.2517,-1.06025 -0.43156,-2.07082 -0.50606,-2.9123c-0.10944,-1.23624 -0.19259,-2.48673 -0.14495,-3.72786c-0.19199,-0.18597 -0.37214,-0.37276 -0.52302,-0.56338c-1.42189,-1.79653 -2.82677,-3.60732 -4.18587,-5.45182c-3.01401,-5.95045 -4.3981,-10.67426 -3.81858,-17.42322c0.267,-3.10931 0.51915,-6.22858 1.98374,-8.91376c-1.3956,0.4793 -3.40386,0.36868 -5.08762,0.26803c-0.42856,0.8897 -0.85828,1.77338 -1.20965,2.6534c-2.24696,5.62773 -3.45906,10.7311 -7.17152,15.94668c-1.22002,1.714 -1.86238,3.93153 -3.50009,5.25218c-1.28881,1.03928 -3.2382,0.7641 -4.76238,1.41059c-2.10375,0.89232 -3.87653,2.43643 -5.92739,3.44437c-2.58493,0.53498 -5.22222,0.93674 -7.86187,0.95018c-0.02904,0.00015 -0.05814,0.00059 -0.08732,0.00134zM273.72647,72.06144c-1.68327,1.67541 -2.81338,2.98222 -4.97142,4.01604c-0.00016,0.02902 0.00173,0.05732 0.00628,0.08474c0.40949,2.4758 0.65312,2.78043 2.10555,4.95296c0.58186,0.87033 1.32635,1.85151 2.07893,2.89702c0.04532,-1.98313 0.14614,-3.96172 0.20273,-5.84425c0.05203,-1.72989 -0.21148,-3.51878 0.25346,-5.18582c0.08782,-0.3149 0.19797,-0.62103 0.32448,-0.92068zM370.88968,47.55035c0.12658,-0.25482 -0.39338,-0.45677 -0.42651,-0.73935c-0.16983,-1.44843 -0.34502,-2.93952 -0.15615,-4.38287c-1.02598,0.09504 -2.06162,0.10822 -3.09038,0.05506c-0.98829,-0.05107 -2.67765,-0.14052 -2.95814,0.50791c-0.29279,0.67688 0.25224,1.46052 0.25224,2.19799c0,0.912 -0.20848,1.83311 -0.07313,2.73503c0.07957,0.53032 0.79257,4.18242 1.55727,4.80723c0.12453,0.12476 0.25518,0.24552 0.3901,0.3635c0.45361,-0.24012 0.93459,-0.43548 1.43704,-0.58017c-0.61497,-2.20826 2.10461,-3.02548 3.06766,-4.96431z" fill-opacity="0.43529" fill="#000000" stroke="none" stroke-width="0.5"/><path d="M305.87374,49.29802c2.37023,-0.8619 3.23212,1.50832 3.23212,1.50832l0.53992,1.78161c0.80613,0.64252 1.46807,1.52817 2.41843,1.92755c1.491,0.62655 7.40719,-3.35918 7.74964,-3.58403c3.23933,-2.12694 7.4831,-5.69557 9.19938,-9.32209c1.96681,-4.15591 1.96492,-8.70364 1.95725,-13.18489c-2.33533,-0.00079 -4.67111,0.02272 -7.00766,0.10359c-4.28663,0.14838 -8.60737,0.80795 -12.89254,1.09386c0,0 -2.51648,0.16776 -2.68424,-2.34873c-0.16776,-2.51647 2.34871,-2.68424 2.34871,-2.68424c4.31786,-0.28763 8.66644,-0.94629 12.98614,-1.09924c9.29563,-0.32915 18.58924,0.29478 27.87889,-0.32022l2.9475,-0.52184c0,0 2.48399,-0.43666 2.92065,2.0473c0.43667,2.48399 -2.04732,2.92065 -2.04732,2.92065l-3.21553,0.56158c-5.39831,0.36219 -10.79436,0.31717 -16.19178,0.27431c-0.00554,5.18945 -0.11948,10.4983 -2.42973,15.29211c-3.04728,6.32321 -9.64206,10.71072 -15.55766,13.87007c-2.29702,1.22678 -4.48073,2.82605 -7.40783,1.73418c-1.96607,-0.73338 -3.35874,-2.51635 -5.03812,-3.77453l-1.21457,-3.04322c0,0 -0.8619,-2.37022 1.50833,-3.23212z" fill-opacity="0.43529" fill="#000000" stroke="none" stroke-width="0.5"/><path d="M369.29519,62.47627c-2.27103,1.32429 -4.82747,2.68144 -7.57297,1.69788c-5.07613,-1.81848 -5.88976,-5.24763 -7.27187,-9.67006c-2.25628,-7.21962 2.57075,-16.39147 10.15689,-18.0347c1.32531,-0.28706 8.03906,-0.05136 9.2188,0.75457c3.70914,2.53384 3.80065,5.5341 4.67032,9.27636c1.24439,5.35472 2.43744,12.94415 -3.52378,16.19615c-1.14159,0.62277 -2.56104,0.45303 -3.84158,0.67954zM371.99946,58.34781c0.24668,-0.02286 0.48757,-0.06967 0.71733,-0.16297c3.39987,-1.38039 1.36555,-8.31325 0.86243,-10.55974c-0.37648,-1.68107 -0.5695,-4.88565 -2.34763,-6.07537c-0.65657,-0.43931 -1.57867,-0.0673 -2.36847,-0.08431c-1.10843,-0.02387 -2.23104,-0.2133 -3.32585,-0.03836c-4.74233,0.75775 -7.57091,7.41314 -6.25622,11.62535c0.76674,2.45662 1.04713,5.19301 3.87779,6.28652c1.37538,0.53133 4.70538,-1.85773 5.28244,-2.19298c0,0 2.19818,-1.23647 3.43466,0.96169c0.04578,0.0814 0.08685,0.16146 0.12349,0.24019z" fill-opacity="0.43529" fill="#000000" stroke="none" stroke-width="0.5"/><path d="M401.97914,62.1638c1.1279,2.25581 -1.1279,3.3837 -1.1279,3.3837l-1.03512,0.51089c-6.9001,2.83231 -14.74881,3.89496 -18.41667,-4.39583c-0.57831,-1.30716 -0.57606,-2.80011 -0.86409,-4.20018c0.58256,-4.99444 0.99525,-11.07696 3.98181,-15.38118c4.24597,-6.11933 13.52077,-7.78536 19.26718,-3.06788c5.16145,4.23725 5.19262,15.02429 -1.63383,17.86503c-1.47945,0.61565 -3.21629,0.10849 -4.80651,-0.08914c-4.03671,-0.50162 -7.76829,-2.27468 -11.12445,-4.47858c-0.26555,1.70993 -0.43321,3.41754 -0.64339,4.9676c0.15059,0.79305 0.11549,1.64532 0.45177,2.37915c2.45755,5.36307 7.52653,3.57853 11.84818,1.74488l0.71936,-0.36637c0,0 2.25581,-1.12791 3.38373,1.1279zM387.53874,47.10484c3.28596,2.36525 6.53296,3.79928 10.61634,4.70587c0.72854,0.16175 1.50394,0.58703 2.21141,0.34949c3.34235,-1.1222 2.21123,-7.74094 0.12067,-9.3295c-3.52818,-2.68093 -9.35876,-1.64024 -11.87494,2.19557c-0.42338,0.64541 -0.77616,1.34385 -1.0735,2.07856z" fill-opacity="0.43529" fill="#000000" stroke="none" stroke-width="0.5"/><path d="M256.69641,86.02089c2.52207,0 2.52207,2.52208 2.52207,2.52208v0.21931c-0.02931,0.7224 -0.48066,2.88528 0.60394,3.51685c1.00689,0.58633 5.2504,1.79107 6.2243,-0.22318c0.94416,-1.95279 -5.07135,-7.49552 -5.57432,-8.32774c-1.91622,-3.17074 -3.97553,-8.71278 -1.47462,-12.39483c0.78028,-1.1488 2.27339,-1.60065 3.46867,-2.30764c2.47954,-1.46659 5.38571,-2.46073 8.26583,-2.52346c0,0 2.52208,0 2.52208,2.52208c0,2.52208 -2.52208,2.52208 -2.52208,2.52208c-0.81257,-0.02689 -1.664,-0.33041 -2.43771,-0.08063c-1.22368,0.39504 -2.19514,1.34317 -3.33235,1.94338c-0.57488,0.30343 -1.40288,0.24407 -1.79475,0.76269c-1.26115,1.66904 0.9225,5.84498 1.59573,6.90449c2.40425,3.7837 8.41868,7.70731 5.82983,13.16469c-2.43988,5.14332 -10.14929,4.5736 -13.916,1.98145c-2.9518,-2.03132 -2.43091,-4.61919 -2.50269,-7.4602v-0.21932c0,0 0.00001,-2.52208 2.52208,-2.52208z" fill-opacity="0.43529" fill="#000000" stroke="none" stroke-width="0.5"/><path d="M281.61811,76.50065c2.39265,0.79756 1.5951,3.1902 1.5951,3.1902l-0.52852,1.17625c0,4.93935 -0.34746,9.73754 0.81021,14.55478c0,0 0.57767,2.45503 -1.87736,3.03267c-2.45503,0.57766 -3.03267,-1.87736 -3.03267,-1.87736c-1.21095,-5.24245 -0.9443,-10.35254 -0.9443,-15.71009l0.78737,-2.77134c0,0 0.79756,-2.39265 3.19021,-1.5951z" fill-opacity="0.43529" fill="#000000" stroke="none" stroke-width="0.5"/><path d="M281.14953,69.68227c0,-1.3929 1.12916,-2.52208 2.52208,-2.52208c1.3929,0 2.52208,1.12916 2.52208,2.52208c0,1.39289 -1.12916,2.52208 -2.52208,2.52208c-1.3929,0 -2.52208,-1.12917 -2.52208,-2.52208z" fill-opacity="0.43529" fill="#000000" stroke="none" stroke-width="0.5"/><path d="M334.25265,101.24322c-2.39265,0.79756 -3.19019,-1.5951 -3.19019,-1.5951l-0.72637,-2.22003c-1.04938,-4.70172 -1.60829,-9.43707 -2.46026,-14.17944c-0.26768,-1.48995 -0.52982,-2.98116 -0.75994,-4.47738c-0.13393,-0.87093 0.19029,-1.91287 -0.33198,-2.62259c-0.46781,-0.63566 0.32835,1.59672 0.14132,2.36348c-0.50507,2.07063 -3.08507,4.92174 -4.00879,6.47188c-1.58656,2.6625 -2.90959,4.98279 -4.39223,7.27152l0.42015,0.21921l-2.30868,4.42497c-0.41242,0.83119 -1.26979,1.40253 -2.2606,1.40253c-1.20027,0 -2.20469,-0.83842 -2.45956,-1.96155l-0.64513,-2.58055l0.0686,-0.01716l-0.10998,-0.18234c-0.41937,-4.94257 -0.99752,-9.90143 -1.94728,-14.77653c-0.19425,-0.99705 -0.50853,-1.967 -0.77747,-2.94655c-0.13396,-0.48794 -0.01719,-1.74649 -0.43112,-1.45546c-0.54615,0.38398 -0.01174,1.38233 -0.31257,1.97835c-0.74967,1.48522 -1.87166,2.75136 -2.77872,4.14603c-4.17356,6.41712 -8.36017,12.88434 -11.56371,19.83957c0,0 -1.05689,2.28995 -3.34683,1.23304c-2.28995,-1.05688 -1.23305,-3.34683 -1.23305,-3.34683c3.31821,-7.17553 7.60588,-13.85108 11.91518,-20.47604c0.69149,-1.06305 5.26632,-8.3314 6.76504,-8.38766c2.166,-0.08131 3.9129,2.11862 5.27093,3.80799c0.98719,1.22806 1.06363,2.97418 1.41563,4.51002c0.74694,3.25895 1.20535,6.65154 1.5494,10.02882c0.43088,-0.63779 0.88172,-1.26766 1.23908,-1.94096c1.70155,-3.20585 3.36356,-6.60438 5.44666,-9.57035c1.25128,-1.7816 1.91748,-5.25056 4.08889,-5.09308c2.59698,0.18833 3.98814,3.50158 5.26398,5.7714c0.90607,1.61194 0.69792,3.63183 1.04277,5.44853c0.88774,4.67663 1.37863,9.35307 2.42246,13.99454l0.5895,1.72756c0,0 0.79755,2.39263 -1.5951,3.19018z" fill-opacity="0.43529" fill="#000000" stroke="none" stroke-width="0.5"/><path d="M362.84272,79.00295c2.52207,0 2.52208,2.52208 2.52208,2.52208v0.65792c-0.02226,1.50808 0.29366,3.05971 -0.0668,4.52424c-0.39337,1.59828 -1.50264,2.93241 -2.14175,4.44921c-1.56496,3.7141 -3.10071,10.3916 -8.46852,10.8678c-3.77346,0.33477 -5.80617,-3.60825 -7.35881,-5.99933c-3.4379,-5.29439 -5.6288,-11.34933 -6.08268,-17.62174c0,0 -0.16777,-2.51647 2.34873,-2.68424c2.51648,-0.16777 2.68424,2.3487 2.68424,2.3487c0.32892,5.50507 2.44845,10.59128 5.32146,15.27483c0.61427,1.00141 1.2286,2.00673 1.9321,2.94758c0.21216,0.28374 0.45432,0.79121 0.79737,0.70275c2.29642,-0.59213 3.7264,-6.74349 4.19013,-7.82413c0.53482,-1.24625 1.52873,-2.30148 1.8672,-3.61472c0.28049,-1.0883 -0.04454,-2.24729 -0.06682,-3.37094v-0.65792c0,0 0,-2.52208 2.52208,-2.52208z" fill-opacity="0.43529" fill="#000000" stroke="none" stroke-width="0.5"/><path d="M372.27307,98.74092c-2.52207,0 -2.52207,-2.52208 -2.52207,-2.52208c0,-5.70207 0,-14.47448 0,-20.17657c0,0 0,-2.52208 2.52207,-2.52208c2.52207,0 2.52208,2.52208 2.52208,2.52208c0,5.70207 0,11.40415 0,17.10622v3.07035c0,0 -0.00001,2.52208 -2.52208,2.52208z" fill-opacity="0.43529" fill="#000000" stroke="none" stroke-width="0.5"/><path d="M401.48524,99.92518c-1.51324,2.01766 -3.5309,0.50442 -3.5309,0.50442l-2.92739,-2.23398c-1.15118,-1.61053 -2.35068,-3.15038 -3.57981,-4.6584c0.01178,0.70315 0.0129,1.38287 0.0156,2.02368v1.31586c0,0 0,2.52208 -2.52207,2.52208c-0.87662,0 -1.44853,-0.30469 -1.82166,-0.70228c-0.04962,0.47116 -0.26737,0.98494 -0.78117,1.49874c-1.78337,1.78337 -3.56674,0 -3.56674,0c-3.85379,-3.99919 -5.26616,-8.25183 -5.33953,-13.91112c-0.02618,-2.01915 -0.72263,-4.42255 0.48867,-6.03823c3.58949,-4.78785 7.86563,-0.62462 10.24237,2.0096c0.58587,0.28165 0.94894,0.71071 0.94894,0.71071c3.28508,3.88341 6.6212,7.52957 9.53325,11.71441l2.33608,1.71361c0,0 2.01766,1.51324 0.50441,3.5309zM386.41861,96.71751v-1.15661c0.01579,-3.22493 0.10427,-7.02492 -1.88679,-9.83006c-0.68795,-0.96925 -2.64646,-3.67315 -2.55415,-2.48816c0.38072,4.88706 0.72854,9.93898 4.36017,13.38587c0,0 0.031,0.031 0.08078,0.08896z" fill-opacity="0.43529" fill="#000000" stroke="none" stroke-width="0.5"/><path d="M426.92527,86.3718c1.51324,2.01766 -0.50441,3.5309 -0.50441,3.5309l-1.67884,1.05987c-2.21909,0.65242 -4.18375,1.15049 -6.15536,1.49508c0.14834,1.74602 0.17822,3.54819 0.06568,5.4537c0,0 -0.15731,2.51716 -2.67446,2.35985c-2.51716,-0.15733 -2.35985,-2.67449 -2.35985,-2.67449c0.10671,-1.60752 0.09112,-3.12888 -0.02485,-4.60127c-0.66437,0.02895 -1.34967,0.04342 -2.06352,0.04342c0,0 -2.52208,0 -2.52208,-2.52208c0,-2.52208 2.52208,-2.52208 2.52208,-2.52208c0.44123,0 0.86735,-0.00566 1.28116,-0.01709c-0.58112,-2.55312 -1.40798,-5.08777 -2.35016,-7.82512l-0.13722,-1.47848c0,0 0,-2.52208 2.52208,-2.52208c2.52207,0 2.52208,2.52208 2.52208,2.52208l-0.13722,-0.16264c1.07479,3.12479 1.98697,6.02976 2.60899,8.96614c1.72163,-0.30752 3.44569,-0.75575 5.47935,-1.35412l0.07565,-0.256c0,0 2.01766,-1.51324 3.53091,0.50442z" fill-opacity="0.43529" fill="#000000" stroke="none" stroke-width="0.5"/><path d="M440.03199,100.8624c-0.21202,0.0512 -0.35271,0.06291 -0.35271,0.06291c-1.20016,0.037 -2.47516,0.52986 -3.60046,0.11101c-4.99362,-1.8587 -12.65337,-12.20817 -5.89925,-16.56824c5.83421,-3.76624 10.18828,2.25045 13.02946,6.02717c0.63849,0.84873 1.62961,1.46575 2.04536,2.44306c1.41571,3.3279 0.64905,4.02635 -0.34399,6.99347l-3.02814,1.66018c0,0 -1.10312,0 -1.85027,-0.72956zM440.54114,96.10719c-0.12164,-2.32614 -1.93863,-4.43288 -3.80282,-6.30179c-0.60753,-0.60906 -2.62777,-1.57376 -3.7686,-1.13511c-0.88581,0.34058 -0.21743,2.0194 0.26892,2.83432c1.35844,2.27618 3.37643,4.9151 6.02174,4.39398c0,0 0.627,-0.05225 1.28076,0.20861z" fill-opacity="0.43529" fill="#000000" stroke="none" stroke-width="0.5"/><path d="M462.57594,91.32476c-1.46594,2.05228 -3.51821,0.58637 -3.51821,0.58637l-1.64478,-1.17945c-2.36291,-2.84255 -1.47832,1.61454 -2.24543,3.40655c-0.40544,0.94711 -1.45155,1.52344 -1.8574,2.4704c-0.59654,1.39192 -0.72758,2.94003 -1.09136,4.41004c0,0 -0.63295,2.44134 -3.0743,1.80841c-2.44135,-0.63295 -1.80841,-3.0743 -1.80841,-3.0743c0.48015,-1.78512 0.72412,-3.65122 1.44043,-5.35538c0.36714,-0.87347 1.37417,-1.36958 1.75153,-2.23867c1.50579,-3.4681 0.58802,-8.22525 6.6766,-7.63961c1.34596,0.12947 2.23958,1.51581 3.35938,2.27372l1.42557,1.01367c0,0 2.05228,1.46594 0.58637,3.51822z" fill-opacity="0.43529" fill="#000000" stroke="none" stroke-width="0.5"/><path d="M434.68826,182.96325c-0.79755,2.39265 -3.19018,1.5951 -3.19018,1.5951l-3.15013,-1.06298c-3.65056,-2.12877 -6.93942,-2.30408 -10.87082,-3.97288c-2.24795,-0.95421 -6.21247,-3.21274 -8.76288,-3.62396c-1.71382,-0.27634 -3.50034,0.28056 -5.20774,-0.03294c-1.06968,-0.19642 -1.85566,-1.22732 -2.91823,-1.45911c-5.25806,-1.14702 -11.44007,0.82579 -16.63046,-0.51041c-0.91549,-0.23568 -1.52453,-1.19379 -2.43186,-1.45911c-2.32229,-0.67908 -6.11396,0.09152 -8.56787,0.09152c-6.16073,0 -12.32146,0 -18.48219,0c-0.91047,-0.03051 -1.84603,-0.30602 -2.73138,-0.09152c-3.79138,0.91859 -4.48359,4.62681 -9.41852,2.96424c-1.70943,-0.57591 -4.3668,-1.27769 -4.44975,-3.07961c-0.3007,-6.53258 4.97892,-4.12659 7.65808,-4.74576c1.52358,-0.35211 2.75027,-1.51583 3.98485,-2.4756c6.1538,-4.784 10.4813,-11.30095 13.88392,-18.10137c0.82335,-1.64554 1.98736,-3.23712 2.19357,-5.06558c0.42013,-3.72553 0.04289,-7.41863 -0.97274,-10.97333c0.05409,-2.4826 -0.37127,-5.05536 -1.95971,-7.11548c-1.19365,-1.54811 -3.23897,-2.22832 -4.62158,-3.6103c-0.67241,-0.6721 -1.00823,-1.6564 -1.74769,-2.2539c-1.76445,-1.42578 -4.06752,-2.02086 -6.0118,-3.18961c-0.62609,-0.37636 -1.11441,-1.06084 -1.83057,-1.2049c-3.40092,-0.68415 -7.2184,0.30821 -10.47373,1.00881c-1.11061,0.23901 -4.27837,0.37379 -5.52292,1.13791c-1.87689,1.15236 -2.9339,3.31048 -4.63754,4.70624c-1.52314,1.24788 -3.30513,2.15309 -4.84032,3.38611c0,0 -1.9694,1.57552 -3.54494,-0.39388c-1.57552,-1.9694 0.39388,-3.54494 0.39388,-3.54494c1.55523,-1.23978 3.34688,-2.16481 4.88714,-3.42312c0.21001,-0.17157 4.61123,-4.73805 5.08992,-5.02123c2.68325,-1.58734 4.25625,-1.16855 7.12279,-1.78033c4.05322,-0.86502 8.66906,-1.87512 12.87217,-0.9367c1.13329,0.25302 2.02365,1.1395 3.03317,1.71334c2.18995,1.24487 4.66082,2.05358 6.6339,3.61962c0.88174,0.69983 1.34749,1.81365 2.1433,2.60982c1.30016,1.30074 4.02551,2.79068 5.10589,4.17167c2.10472,2.69032 2.84533,6.16165 2.90403,9.42122c3.78343,13.24206 -3.24448,25.07605 -12.38729,34.23382c-0.89765,0.89912 -1.88456,1.95117 -2.9511,2.99254c0.06509,-0.00017 0.13008,-0.00093 0.19498,-0.00238c6.16073,0 12.32146,0 18.48219,0c2.99446,0 7.02652,-0.65193 9.91432,0.09152c0.91549,0.23568 1.52453,1.19379 2.43186,1.45911c1.65216,0.48313 3.44191,-0.0932 5.16325,-0.09152c3.39125,0.00331 8.00187,-0.1373 11.27967,0.55383c1.06416,0.22438 1.84841,1.26349 2.91823,1.45911c1.60035,0.29266 3.27739,-0.30978 4.88054,-0.03294c3.54426,0.61203 6.67066,2.56104 9.90328,3.95641c3.89893,1.68302 7.21979,1.91347 10.95756,4.01068l2.68635,0.88251c0,0 2.39265,0.79755 1.59509,3.19018z" fill-opacity="0.43529" fill="#000000" stroke="none" stroke-width="0.5"/><path d="M201.71852,-152.13837c0.37386,0.28074 0.76912,0.52405 1.2017,0.70225c1.81423,0.74736 4.02132,-0.07386 5.85249,0.63094c2.10858,0.81157 3.6762,2.63807 5.62242,3.78564c8.98597,5.29848 19.35683,9.15183 22.64121,20.3369c1.69668,5.77814 -1.33901,13.56922 -2.06499,19.3278c-2.90246,5.48147 -5.6292,13.45899 -9.57495,18.4176c-1.80518,2.26855 -4.21585,3.99311 -6.12528,6.17465c-8.36849,9.56109 -15.7518,21.02514 -28.84462,25.06587c-2.43279,0.75082 -5.08865,0.20347 -7.63451,0.23279c-8.77074,0.10101 -17.19486,9.12208 -25.44035,5.45197c-3.18463,-1.4175 -15.03282,-3.20977 -18.14738,-4.77525c-2.57645,-1.29502 0.24321,-12.032 -2.14866,-13.64261c-2.27499,-1.5319 -3.6098,-4.13683 -5.56088,-6.06442c-0.57106,-0.56419 -10.67504,-9.26062 -11.63141,-11.38569c-2.48943,-5.53156 -2.02793,-11.03703 -2.04878,-16.79546c0.15202,-11.85087 5.3833,-23.77894 10.47822,-34.31055c1.02824,-2.12546 1.3575,-4.62275 2.75579,-6.52529c1.00054,-1.36139 3.07391,-1.59907 4.16393,-2.88993c1.03625,-1.22719 1.12928,-3.0313 1.9842,-4.39104c3.38913,-5.39028 9.66654,-12.24922 15.3813,-15.32672c9.04203,-4.86931 15.62016,-3.16825 24.99207,-2.15364c8.53945,0.9245 13.4095,-1.52075 21.68663,3.96382c1.87627,1.24325 2.67155,3.62313 4.00732,5.43468c0,0 3.45291,5.17936 -1.54548,8.73566z" fill="#ffca89" stroke="none" stroke-width="0.5"/><path d="M241.26687,-125.06944c-0.90445,1.32087 -2.46932,2.46357 -5.17689,2.46357c-3.99388,0 -5.50142,-2.48632 -6.07046,-4.36332c-1.05437,-0.81034 -2.09108,-1.63747 -2.90673,-2.67497c-0.90794,-1.15487 -1.04046,-2.8032 -1.73389,-4.08255c-0.25669,-0.3206 -0.50843,-0.64482 -0.75323,-0.97406c-1.11577,-0.97363 -2.9145,-1.04964 -4.0231,-2.06271c-1.38352,-1.26431 -1.8473,-3.34997 -3.26124,-4.58017c-4.45386,-3.87508 -11.5903,-7.17731 -17.32642,-7.85748c-6.56321,-3.23456 -9.46101,-4.35667 -16.56488,-4.33072c-4.80853,0.01757 -11.53017,-1.3608 -16.11933,-0.21493c-1.24259,0.31025 -2.10507,1.4673 -3.22545,2.08781c-3.06715,1.69872 -6.55272,2.59205 -9.54491,4.41961c-7.56021,4.6176 -13.11057,14.2514 -17.62229,21.57028c-2.79074,4.52713 -4.41964,10.98093 -7.6904,15.12149c-1.42477,1.80368 -3.89741,2.52153 -5.47202,4.19599c-2.4318,2.58601 -3.65061,6.09679 -5.69595,8.9981c-2.44566,1.38089 -4.63091,3.3907 -7.33695,4.14267c-2.48155,0.68959 -5.25107,0.75412 -7.72663,0.0433c-14.86185,-4.26737 -10.24201,-26.66511 -5.80924,-37.55188c3.13057,-7.68864 6.96961,-16.06656 12.13259,-22.69393c2.08208,-2.67263 5.20493,-4.36967 7.48666,-6.87402c1.22861,-1.34849 1.75063,-3.3091 3.15817,-4.46956c1.89218,-1.56003 4.33479,-2.29519 6.48259,-3.47882c8.5084,-4.68891 16.53424,-8.49449 25.57608,-12.11477c12.47359,-5.03885 27.26141,-2.5047 39.98306,0.31072c1.83446,0.40599 3.82187,0.22044 5.55772,0.93943c6.30434,2.61133 8.65866,8.2887 13.67775,12.26414c1.35509,1.07332 9.52573,6.46357 11.20934,7.91568c5.625,4.85153 8.04505,10.36366 12.12157,16.10652c0.32435,0.39472 0.626,0.81011 0.91444,1.2373c2.19838,2.85633 4.75378,5.45315 6.68149,8.49711c0,0 2.88985,4.62376 -0.92144,8.01013z" fill="#000000" stroke="none" stroke-width="0.5"/><path d="M162.55852,-132.31136c0,-3.54318 2.87231,-6.4155 6.4155,-6.4155c3.54318,0 6.4155,2.87231 6.4155,6.4155c0,3.54318 -2.87231,6.4155 -6.4155,6.4155c-3.54318,0 -6.4155,-2.87231 -6.4155,-6.4155z" fill="#000000" stroke="none" stroke-width="0.5"/><path d="M221.77847,-116.51937c0,-3.54318 2.87231,-6.4155 6.4155,-6.4155c3.54318,0 6.4155,2.87231 6.4155,6.4155c0,3.54318 -2.87231,6.4155 -6.4155,6.4155c-3.54318,0 -6.4155,-2.87231 -6.4155,-6.4155z" fill="#000000" stroke="none" stroke-width="0.5"/><path d="M216.61867,-92.24741c5.33802,3.55868 1.77933,8.89668 1.77933,8.89668l-2.11758,2.95176c-1.13609,1.13609 -7.04705,7.11887 -7.86297,7.57289c-5.7852,3.21926 -12.76328,2.2114 -19.04547,2.20216c-4.64937,-0.00683 -12.61772,0.32295 -16.90262,-0.9066c-2.26924,-0.65116 -3.96606,-2.58989 -6.10225,-3.59492c-1.84484,-0.86796 -4.13943,-0.78777 -5.78159,-1.99614c-1.70122,-1.25184 -2.4163,-3.47616 -3.81089,-5.06248c-5.09945,-5.8005 -11.09474,-9.86755 -12.55891,-18.18381c-0.47731,-2.71109 0.40575,-5.49059 0.60863,-8.23589c0,0 0.63837,-6.38366 7.02203,-5.74529c6.38366,0.63837 5.74529,7.02203 5.74529,7.02203c-0.23578,1.64137 -0.90893,3.27818 -0.70736,4.92411c0.55993,4.57226 7.4305,9.2158 9.81307,12.08418c0.67823,0.81651 0.58778,2.21877 1.45312,2.83353c0.94806,0.67352 2.37425,0.14908 3.43041,0.63587c1.61605,0.74485 2.72356,2.46642 4.42573,2.98507c3.27313,0.99733 9.79754,0.41511 13.36534,0.40939c2.55758,-0.00411 10.0091,1.23027 12.53851,-0.42984c2.14551,-1.40814 3.48237,-3.77245 5.29703,-5.58711l0.51442,-0.99623c0,0 3.55868,-5.33802 8.89668,-1.77933z" fill="#000000" stroke="none" stroke-width="0.5"/><g fill-opacity="0.53333" fill="#000000" stroke="none"><path d="M298.29746,341.2828c5.99639,10.3244 10.18054,21.30877 15.29641,32.08648c1.36304,2.87152 3.44941,5.31502 4.6197,8.28309c1.5915,4.03631 0.74804,8.61795 1.66477,12.8616c0.90569,4.19252 3.40429,12.2468 5.27603,16.27615c2.48606,5.35185 7.78058,10.64025 6.3301,17.55719c-0.63797,3.04232 -3.65377,4.36613 -5.48063,6.54921c-3.74639,1.1077 -7.34178,2.86684 -11.23917,3.32313c-5.75138,0.67332 -12.81348,-1.48229 -18.8208,-1.34548c-2.55252,0.05812 -5.57367,2.2109 -7.65406,0.20787c-5.03051,-4.84342 -6.87698,-18.45884 -8.68416,-25.52237c-3.0312,-11.84768 -8.49764,-23.94427 -10.51495,-35.96972c-0.41189,-2.45535 -0.20599,-4.94229 -0.59939,-7.39964c-1.9118,-11.94243 -6.66462,-24.22858 -10.02261,-35.89455c-0.9938,-2.04615 -2.09371,-4.03133 -3.2581,-5.9684c-14.77162,3.30211 -29.16291,5.55177 -44.1444,7.25289c-2.95052,0.33502 -6.48706,0.65162 -10.0673,0.74885c0.27483,6.3985 4.26048,12.54284 5.07495,18.82678c0.32651,2.51911 -0.16495,5.01991 0.11704,7.54115c0.3343,2.98901 1.97823,5.74293 2.61364,8.69968c1.99434,9.28018 3.326,18.53934 5.9866,27.64729c0.80037,9.88092 3.23515,17.8418 4.96897,27.69009c0.87269,4.95694 0.57879,9.97523 1.2238,14.95326c0.78315,6.04426 5.89018,9.53127 3.28176,16.80985c-1.10006,3.06962 -4.93346,3.32566 -7.67783,4.29815c-1.61139,0.57101 -3.47813,-0.04318 -5.16448,0.2526c-4.04156,0.7089 -11.14203,2.24093 -14.60986,4.61671c-2.32562,1.59326 -3.48755,5.78648 -6.29099,5.86915c-3.11823,0.09196 -6.20349,-2.82336 -8.63372,-5.42899c-1.70566,-1.82874 -2.38488,-4.65357 -3.11043,-7.1628c-0.66604,-2.30341 -0.51839,-4.74515 -1.01041,-7.08851c-1.19875,-5.70913 -3.08318,-7.32145 -3.27416,-13.79074c-0.07554,-2.55915 0.39111,-5.10294 1.17531,-7.39355c0.36245,-1.05871 2.14981,-1.08914 2.13321,-2.27034c-0.03008,-2.14095 -1.50074,-4.07962 -2.25111,-6.11945c0.24521,-1.54496 0.79408,-3.0299 0.73563,-4.63486c-0.11008,-3.02241 -2.60287,-5.52588 -3.67874,-8.39255c-2.39387,-6.37862 -4.17567,-13.32936 -4.67529,-20.05875c-0.40081,-5.3985 -0.35864,-12.37287 -0.09884,-17.43149c0.27594,-5.37266 1.68169,-11.47779 0.90188,-17.00042c-1.68175,-11.91012 -2.7595,-23.54492 -5.45522,-35.29443c-1.06157,-1.05329 -2.02568,-2.10412 -2.86216,-3.10885c-4.94315,-5.9374 -6.06818,-13.85254 -8.09514,-20.96472c0.20446,-6.26432 2.33926,-11.76484 3.5354,-17.96498l0.80612,-3.10555c0,0 1.24504,-4.73969 6.68934,-4.14976c0.71122,0.07707 1.30828,0.22495 1.80887,0.42383c7.12875,-3.18304 14.84815,-4.95766 22.38848,-7.16989c11.8996,-3.49119 23.46997,-7.10517 35.73472,-8.66203c3.11717,-0.39569 6.09737,-1.87836 9.21773,-2.18895c1.33395,-0.13277 2.51233,0.70082 3.84613,0.61053c1.3235,-0.0896 2.53537,-1.04804 3.85871,-1.1321c4.91201,-0.31201 5.67456,0.82933 10.5457,-0.64194c3.35595,-1.33002 13.50847,-5.64868 16.52589,-4.50117c3.49156,1.32781 4.83608,9.6901 5.76152,12.84442c3.09249,10.54064 6.18498,21.08129 9.27747,31.62193c0.4877,1.66232 2.41536,8.09394 2.38706,8.86507c-0.07207,1.96352 -1.30595,3.86933 -1.86891,5.81665c-0.40756,1.40981 -0.15996,2.97048 -1.04122,4.2497c-0.08992,0.13053 -0.18093,0.25972 -0.27301,0.38761c4.325,10.79263 11.07115,20.76684 16.77414,30.58609z" stroke-width="0.5"/><path d="M302.92569,272.49445c-0.09808,-0.21571 -0.21476,-0.41995 -0.36384,-0.60431c-0.62528,-0.7732 -1.80643,-0.94425 -2.44958,-1.70266c-0.74059,-0.87329 -0.99401,-2.06653 -1.58075,-3.0498c-2.7091,-4.53992 -6.38526,-8.77362 -5.12825,-14.54622c0.64938,-2.98209 3.89257,-5.70956 5.61467,-8.09432c2.62276,-1.73265 5.77387,-4.61812 8.73358,-5.86474c1.35408,-0.57031 2.84525,-0.75156 4.22455,-1.25786c6.04505,-2.21892 12.11431,-5.52358 18.91918,-4.13942c1.26441,0.2572 2.31262,1.14595 3.452,1.7515c3.92531,2.08619 9.86391,0.12095 12.63934,3.75671c1.07196,1.40425 5.90596,5.08023 6.91078,6.53325c0.83123,1.20199 -3.03168,5.29214 -2.35926,6.58964c0.63959,1.23408 0.6003,2.71698 0.99969,4.04835c0.11689,0.38969 2.49758,6.71251 2.40658,7.89c-0.23687,3.06505 -1.77986,5.40147 -3.16975,7.96761c-2.94713,5.23374 -8.17204,9.26769 -12.99696,12.71366c-0.97375,0.69544 -1.72698,1.72612 -2.81115,2.23253c-0.77578,0.36235 -1.75567,-0.03572 -2.5541,0.27354c-0.75906,0.294 -1.23879,1.07378 -1.94941,1.47078c-2.81706,1.57385 -7.27552,3.09908 -10.56494,3.07924c-5.2046,-0.03141 -7.71691,-2.38631 -11.63854,-5.11474c-3.5733,-2.48608 -6.33339,-2.58188 -8.68204,-7.03233c-0.53239,-1.00882 -0.30784,-2.26051 -0.46176,-3.39077c0,0 -0.27719,-3.14252 2.80996,-3.50967z" stroke-width="0.5"/><path d="M77.66642,294.39226c-0.09806,-0.21571 -0.21474,-0.41995 -0.36383,-0.60431c-0.62529,-0.77322 -1.80643,-0.94425 -2.4496,-1.70265c-0.74059,-0.87329 -0.994,-2.06651 -1.58075,-3.0498c-2.7091,-4.5399 -6.38527,-8.7736 -5.12825,-14.54622c0.64938,-2.98209 3.89257,-5.70958 5.61467,-8.09432c2.62276,-1.73265 5.77385,-4.61813 8.73358,-5.86474c1.35408,-0.57033 2.84524,-0.75158 4.22455,-1.25786c6.04505,-2.21892 12.11431,-5.52358 18.91918,-4.13942c1.26441,0.2572 2.31263,1.14595 3.45202,1.7515c3.92534,2.0862 9.86391,0.12095 12.63934,3.75671c1.07194,1.40423 5.90596,5.08021 6.91078,6.53325c0.83121,1.20199 -3.0317,5.29215 -2.35926,6.58964c0.63957,1.23409 0.6003,2.71698 0.99967,4.04834c0.1169,0.38968 2.49758,6.71249 2.40658,7.89c-0.23687,3.06505 -1.77986,5.40147 -3.16975,7.96761c-2.94713,5.23374 -8.17204,9.26769 -12.99696,12.71366c-0.97376,0.69547 -1.72698,1.72612 -2.81115,2.23253c-0.77578,0.36235 -1.75566,-0.03571 -2.5541,0.27354c-0.75906,0.294 -1.23878,1.07378 -1.94941,1.4708c-2.81704,1.57384 -7.27552,3.09908 -10.56492,3.07923c-5.2046,-0.03141 -7.71691,-2.38631 -11.63853,-5.11473c-3.5733,-2.48608 -6.33339,-2.58188 -8.68204,-7.03233c-0.53239,-1.00884 -0.30784,-2.26051 -0.46174,-3.39077c0,0 -0.2772,-3.14252 2.80995,-3.50967z" stroke-width="0.5"/><path d="M212.08254,97.20174c0.46502,0.17435 0.94066,0.30415 1.43487,0.35643c2.0727,0.21924 4.07675,-1.27782 6.15398,-1.10704c2.39191,0.19666 4.53595,1.58958 6.86286,2.17727c10.74365,2.71343 22.46674,3.53973 29.15923,13.95823c3.4573,5.38213 2.69295,14.23119 3.67504,20.31788c-1.31921,6.45508 -1.71289,15.40179 -4.25187,21.63593c-1.16159,2.85211 -3.10301,5.3308 -4.39686,8.12539c-5.67063,12.24792 -9.76802,26.14087 -21.90486,34.1748c-2.25516,1.4928 -5.12589,1.72911 -7.71206,2.52032c-8.90959,2.72577 -14.79842,14.43991 -24.30036,13.16481c-3.66991,-0.49248 -16.28245,1.22381 -19.92519,0.55954c-3.01338,-0.54952 -3.35018,-12.33665 -6.2698,-13.26304c-2.77694,-0.88111 -4.91647,-3.13709 -7.48159,-4.51838c-0.75079,-0.40429 -13.65013,-6.24684 -15.26042,-8.12687c-4.19159,-4.89374 -5.36756,-10.64334 -7.11083,-16.50653c-3.38896,-12.12477 -1.62384,-25.84713 0.41988,-38.10534c0.41246,-2.47392 0.00127,-5.11781 0.85757,-7.47517c0.61272,-1.68683 2.65498,-2.54912 3.37998,-4.19083c0.68924,-1.56073 0.24456,-3.42743 0.70934,-5.06904c1.84253,-6.50768 6.18984,-15.37604 11.09444,-20.22182c7.7602,-7.66712 14.97381,-7.90041 24.82978,-9.66884c8.98052,-1.61134 13.21321,-5.56007 23.29001,-2.445c2.28422,0.70614 3.80651,2.89406 5.70977,4.34108c0,0 5.06831,4.24663 1.03706,9.36622z" stroke-width="0.5"/><path d="M260.48797,112.96581c-0.52688,1.6168 -1.7802,3.24948 -4.53997,4.05917c-4.07086,1.19434 -6.35098,-0.88909 -7.49229,-2.6321c-1.31701,-0.51066 -2.62106,-1.04372 -3.76269,-1.8573c-1.2708,-0.90562 -1.89879,-2.54609 -2.98817,-3.64273c-0.35751,-0.25002 -0.71106,-0.5052 -1.05903,-0.76759c-1.42843,-0.65874 -3.28457,-0.19832 -4.71748,-0.89939c-1.78828,-0.87495 -2.88469,-2.86212 -4.69377,-3.6932c-5.69852,-2.61788 -13.96004,-3.84967 -20.01012,-2.8276c-7.65699,-1.33423 -10.94621,-1.6114 -18.17925,0.53941c-4.89596,1.45586 -12.15936,2.06097 -16.49432,4.60129c-1.17376,0.68782 -1.70686,2.12509 -2.66328,3.0926c-2.61829,2.64867 -5.90389,4.60155 -8.40724,7.35913c-6.32508,6.96743 -9.10151,18.44672 -11.51154,27.25588c-1.49073,5.44895 -1.22107,12.51426 -3.31667,17.71273c-0.91286,2.26451 -3.21849,3.73562 -4.32272,5.91324c-1.70535,3.36307 -1.89777,7.306 -3.11493,10.87488c-2.07985,2.13886 -3.70621,4.8409 -6.23954,6.41658c-2.32317,1.44497 -5.12678,2.33895 -7.86262,2.35473c-16.42444,0.0947 -18.41343,-24.11631 -17.15082,-36.53851c0.89169,-8.77302 2.29937,-18.46046 5.58001,-26.75954c1.32298,-3.34677 3.99855,-6.0104 5.57535,-9.24535c0.84904,-1.74189 0.79481,-3.89639 1.88246,-5.50015c1.46214,-2.15594 3.73198,-3.63572 5.56723,-5.48445c7.27023,-7.32366 14.31273,-13.60267 22.44625,-19.99662c11.2072,-8.86611 27.03788,-10.70529 40.84668,-11.63993c1.99122,-0.13476 3.96146,-0.91822 5.94578,-0.70445c7.20676,0.7764 11.30424,5.85916 17.6089,8.41031c1.70218,0.68878 11.64222,3.73956 13.79253,4.71619c7.18424,3.26294 11.2993,8.15762 17.17176,12.79212c0.44864,0.30533 0.88032,0.63853 1.30207,0.98769c3.09492,2.25398 6.47614,4.13669 9.35128,6.66285c0,0 4.32825,3.8487 1.45617,8.44008z" stroke-width="0.5"/><path d="M178.09682,129.12143c-1.05956,-3.61148 1.00917,-7.3981 4.62065,-8.45766c3.61148,-1.05956 7.3981,1.00917 8.45766,4.62065c1.05956,3.61148 -1.00917,7.3981 -4.62065,8.45766c-3.61148,1.05956 -7.3981,-1.00917 -8.45766,-4.62065z" stroke-width="0.5"/><path d="M243.18075,127.50855c-1.05956,-3.61148 1.00917,-7.3981 4.62065,-8.45766c3.61148,-1.05956 7.3981,1.00917 8.45766,4.62065c1.05956,3.61148 -1.00917,7.3981 -4.62065,8.45766c-3.61148,1.05956 -7.3981,-1.00917 -8.45766,-4.62065z" stroke-width="0.5"/><path d="M245.17984,153.79137c6.50511,2.03099 4.47412,8.53608 4.47412,8.53608l-1.27569,3.6419c-0.81825,1.49773 -5.05405,9.36346 -5.74992,10.07022c-4.93402,5.01134 -12.348,6.07078 -18.75405,7.94001c-4.74103,1.3834 -12.76436,4.10241 -17.49955,4.13052c-2.5077,0.01488 -4.817,-1.4538 -7.29491,-1.83938c-2.13996,-0.333 -4.4548,0.43491 -6.48997,-0.30568c-2.10836,-0.76724 -3.50239,-2.82058 -5.39824,-4.02044c-6.93234,-4.38736 -14.25941,-6.73995 -18.23872,-14.77867c-1.29724,-2.62061 -1.22835,-5.71776 -1.84251,-8.57665c0,0 -1.25831,-6.69761 5.43929,-7.95592c6.69761,-1.25831 7.95592,5.43929 7.95592,5.43929c0.25051,1.74352 0.05386,3.61318 0.75152,5.23055c1.93802,4.49296 10.32964,7.17141 13.61591,9.38258c0.93547,0.62943 1.26262,2.08577 2.32847,2.4536c1.16774,0.403 2.46459,-0.55805 3.68668,-0.37771c1.86995,0.27594 3.51362,1.69951 5.40371,1.71913c3.63447,0.03775 10.11053,-2.50677 13.7454,-3.57952c2.60565,-0.76901 10.56993,-1.73916 12.65166,-4.18767c1.76578,-2.07688 2.42137,-4.88654 3.72835,-7.27884l0.22642,-1.16927c0,0 2.03099,-6.50511 8.53608,-4.47412z" stroke-width="0.5"/><path d="M267.87247,214.10754c1.18262,1.14349 2.0922,2.6642 3.54787,3.4305c1.53756,0.80941 3.54104,0.33331 5.09159,1.11754c3.15551,1.59598 5.75149,4.13437 8.80802,5.91257c5.76397,3.35331 12.45996,5.94543 18.41483,8.93645c4.18024,2.09965 10.84994,1.88924 12.57051,6.23924c1.74276,4.40606 -0.38982,9.55103 -1.65024,14.11851c-0.50503,1.83014 -3.00942,2.6653 -3.4883,4.50245c-0.30836,1.18291 1.40409,2.15291 1.43487,3.37496c0.06324,2.51126 -0.50462,5.02159 -1.16238,7.44601c-1.15998,4.27558 -0.47158,10.30868 -4.27211,12.58511c-3.45866,2.07164 -8.01963,-1.39641 -11.71446,-3.00955c-1.50094,-0.6553 -2.08076,-2.56518 -3.36938,-3.57597c-5.85859,-4.59555 -10.20904,-7.47205 -14.78266,-13.53623c-0.40537,-0.45931 -0.83652,-0.89592 -1.28919,-1.31122c0.29686,3.45721 0.53162,6.9113 0.75165,10.33126c0.48509,3.5785 2.85397,7.40612 1.45528,10.73547c-1.29455,3.08147 -5.36367,4.03621 -8.31783,5.59965c-5.43319,2.87542 -12.40418,2.85013 -18.21435,3.8762c-14.72779,2.60095 -29.49555,4.92251 -44.15772,7.08805c-9.66562,1.42758 -19.83234,5.88721 -29.25519,8.65175c-1.86457,0.54704 -11.09138,3.31412 -11.93732,3.22704c-3.90968,-0.40242 -8.10315,-1.3006 -11.18013,-3.74593c-2.1505,-1.70903 -2.08476,-5.08284 -3.12715,-7.62426c-3.11171,-10.60617 -6.67369,-20.96806 -10.15405,-31.40242c-0.44499,0.25464 -0.8875,0.51264 -1.3257,0.7766c-9.28905,5.59536 -6.61654,14.23207 -22.51889,10.80195c-3.49641,-0.75417 -5.62541,-4.50942 -7.86986,-7.2944c-5.07626,-6.29877 -7.7217,-19.20615 -5.61624,-26.92379c0.72213,-2.64699 6.63778,-10.71543 9.1526,-12.73055c1.28562,-1.03017 3.18481,-1.05332 4.49801,-2.04808c1.14623,-0.86828 1.62409,-2.40269 2.67427,-3.38496c4.28785,-4.01065 8.71186,-7.54638 13.66446,-10.57079c0.19816,-0.82605 0.44053,-1.6284 0.91802,-2.31587c1.26392,-1.81969 3.39702,-2.85436 4.95965,-4.42501c6.23738,-6.26941 10.26371,-12.83663 17.68902,-18.06564c0,0 5.5969,-3.88791 9.48483,1.70899c0.65602,0.94439 1.04201,1.84012 1.2304,2.67673c1.68746,0.8936 3.48679,1.63541 4.8917,2.9123c1.25518,1.1408 1.51936,3.10192 2.71875,4.30125c2.24439,2.24428 6.43367,3.58216 9.45479,3.35123c8.52769,-1.2292 15.60037,-3.63446 23.37791,-6.97254c2.97009,-1.27474 6.35117,-1.41236 9.30705,-2.71975c6.63515,-2.93478 6.19917,-5.64044 14.96548,-3.14497c2.25602,0.64222 3.63143,3.02022 5.69913,4.12775c1.49038,0.79829 3.38658,0.6533 4.83986,1.51727c2.5149,1.49511 4.3559,3.97083 6.88004,5.45026c4.57047,2.67879 9.94576,4.72787 13.71573,8.3525c1.88996,0.48138 3.20687,1.65239 3.20687,1.65239z" stroke-width="0.5"/><text transform="translate(132.67203,246.80545) rotate(-16.35088) scale(0.36044,0.31751) skewX(-0.00007)" font-size="40" xml:space="preserve" fill-opacity="0.53333" fill="#000000" fill-rule="nonzero" stroke="none" stroke-width="1" stroke-linecap="butt" stroke-linejoin="miter" stroke-miterlimit="10" stroke-dasharray="" stroke-dashoffset="0" font-family="Archivo Black" font-weight="normal" text-anchor="start" style="mix-blend-mode: normal"><tspan x="0" dy="0">yes, i'm a MAN.</tspan></text><text transform="translate(155.27988,264.26961) rotate(-16.35092) scale(0.37301,0.37301)" font-size="40" xml:space="preserve" fill-opacity="0.53333" fill="#000000" fill-rule="nonzero" stroke="none" stroke-width="1" stroke-linecap="butt" stroke-linejoin="miter" stroke-miterlimit="10" stroke-dasharray="" stroke-dashoffset="0" font-family="Archivo Black" font-weight="normal" text-anchor="start" style="mix-blend-mode: normal"><tspan x="0" dy="0">Masculine </tspan><tspan x="0" dy="46.150000000000006px">Ass</tspan><tspan x="0" dy="46.150000000000006px">Nice guy</tspan></text><path d="M180.89505,462.40364c3.83094,-1.12395 6.07598,0.65489 7.2785,2.32111c14.52073,-6.31715 31.23182,-12.73664 46.83658,-13.99882c2.11824,-0.17133 4.21488,0.71205 6.33971,0.67426c2.55124,-0.04538 5.05826,-1.15609 7.59915,-0.92219c2.11736,0.1949 3.94638,1.61195 5.99715,2.17375c6.1606,1.68765 12.46743,4.47884 16.61976,10.02434c2.03757,2.72123 4.90156,5.76272 4.52248,9.14105c-0.44298,3.94786 -3.60725,7.33984 -6.6574,9.8851c-2.32015,1.93609 -5.74356,1.88125 -8.60549,2.85128c-4.7338,1.60449 -9.45031,3.27097 -14.24592,4.67997c-15.77514,4.62822 -30.39382,9.69247 -46.96125,8.93156c-5.8521,-0.26878 -8.81926,0.70707 -13.94938,-3.92967c-5.55397,-5.01983 -6.60443,-13.8641 -8.58675,-20.62076l-0.80779,-2.75333c0,0 -1.91851,-6.53916 4.62065,-8.45766z" stroke-width="0.5"/><path d="M277.16564,439.19813c-0.29205,-1.59835 -0.66411,-6.33936 4.73983,-7.92481c1.64909,-0.48382 3.0043,-0.42975 4.109,-0.07833c1.23825,-0.58189 2.30917,-0.71129 2.30917,-0.71129c8.17406,-0.9228 15.38319,1.35105 23.45928,1.23652c4.874,-0.06913 9.74294,-1.4817 14.59095,-0.97442c4.28514,0.4484 8.35229,2.2587 12.63593,2.72104c4.0803,0.44039 8.36959,0.49531 12.12118,2.15919c5.0084,2.22128 19.25642,10.13115 18.09022,16.52462c-0.82767,4.5376 -7.34173,5.63282 -11.3495,7.91592c-3.38997,1.93115 -7.48622,2.2003 -11.22986,3.29864c-6.42444,1.88485 -12.84887,3.76969 -19.27331,5.65454c-9.90573,2.90621 -19.31619,6.00808 -29.55456,7.13625c-2.65289,0.29232 -5.51782,2.26344 -7.92842,1.11788c-8.98455,-4.2696 -11.2575,-17.69852 -13.30996,-26.37031c-0.60366,-2.55053 -1.97871,-5.13637 -1.51394,-7.71583c0.2693,-1.4946 1.14685,-2.75729 2.10398,-3.98963z" stroke-width="0.5"/></g><g stroke="none"><path d="M305.80497,332.27379c5.99639,10.3244 10.18054,21.30877 15.29641,32.08648c1.36304,2.87152 3.44941,5.31502 4.6197,8.28309c1.5915,4.03631 0.74804,8.61795 1.66477,12.8616c0.90569,4.19252 3.40429,12.2468 5.27603,16.27615c2.48606,5.35185 7.78058,10.64025 6.3301,17.55719c-0.63797,3.04232 -3.65377,4.36613 -5.48063,6.54921c-3.74639,1.1077 -7.34178,2.86684 -11.23917,3.32313c-5.75138,0.67332 -12.81348,-1.48229 -18.8208,-1.34548c-2.55252,0.05812 -5.57367,2.2109 -7.65406,0.20787c-5.03051,-4.84342 -6.87698,-18.45884 -8.68416,-25.52237c-3.0312,-11.84768 -8.49764,-23.94427 -10.51495,-35.96972c-0.41189,-2.45535 -0.20599,-4.94229 -0.59939,-7.39964c-1.9118,-11.94243 -6.66462,-24.22858 -10.02261,-35.89455c-0.9938,-2.04615 -2.09371,-4.03133 -3.2581,-5.9684c-14.77162,3.30211 -29.16291,5.55177 -44.1444,7.25289c-2.95052,0.33502 -6.48706,0.65162 -10.0673,0.74885c0.27483,6.3985 4.26048,12.54284 5.07495,18.82678c0.32651,2.51911 -0.16495,5.01991 0.11704,7.54115c0.3343,2.98901 1.97823,5.74293 2.61364,8.69968c1.99434,9.28018 3.326,18.53934 5.9866,27.64729c0.80037,9.88092 3.23515,17.8418 4.96897,27.69009c0.87269,4.95694 0.57879,9.97523 1.2238,14.95326c0.78315,6.04426 5.89018,9.53127 3.28176,16.80985c-1.10006,3.06962 -4.93346,3.32566 -7.67783,4.29815c-1.61139,0.57101 -3.47813,-0.04318 -5.16448,0.2526c-4.04156,0.7089 -11.14203,2.24093 -14.60986,4.61671c-2.32562,1.59326 -3.48755,5.78648 -6.29099,5.86915c-3.11823,0.09196 -6.20349,-2.82336 -8.63372,-5.42899c-1.70566,-1.82874 -2.38488,-4.65357 -3.11043,-7.1628c-0.66604,-2.30341 -0.51839,-4.74515 -1.01041,-7.08851c-1.19875,-5.70913 -3.08318,-7.32145 -3.27416,-13.79074c-0.07554,-2.55915 0.39111,-5.10294 1.17531,-7.39355c0.36245,-1.05871 2.14981,-1.08914 2.13321,-2.27034c-0.03008,-2.14095 -1.50074,-4.07962 -2.25111,-6.11945c0.24521,-1.54496 0.79408,-3.0299 0.73563,-4.63486c-0.11008,-3.02241 -2.60287,-5.52588 -3.67874,-8.39255c-2.39387,-6.37862 -4.17567,-13.32936 -4.67529,-20.05875c-0.40081,-5.3985 -0.35864,-12.37287 -0.09884,-17.43149c0.27594,-5.37266 1.68169,-11.47779 0.90188,-17.00042c-1.68175,-11.91012 -2.7595,-23.54492 -5.45522,-35.29443c-1.06157,-1.05329 -2.02568,-2.10412 -2.86216,-3.10885c-4.94315,-5.9374 -6.06818,-13.85254 -8.09514,-20.96472c0.20446,-6.26432 2.33926,-11.76484 3.5354,-17.96498l0.80612,-3.10555c0,0 1.24504,-4.73969 6.68934,-4.14976c0.71122,0.07707 1.30828,0.22495 1.80887,0.42383c7.12875,-3.18304 14.84815,-4.95766 22.38848,-7.16989c11.8996,-3.49119 23.46997,-7.10517 35.73472,-8.66203c3.11717,-0.39569 6.09737,-1.87836 9.21773,-2.18895c1.33395,-0.13277 2.51233,0.70082 3.84613,0.61053c1.3235,-0.0896 2.53537,-1.04804 3.85871,-1.1321c4.91201,-0.31201 5.67456,0.82933 10.5457,-0.64194c3.35595,-1.33002 13.50847,-5.64868 16.52589,-4.50117c3.49156,1.32781 4.83608,9.6901 5.76152,12.84442c3.09249,10.54064 6.18498,21.08129 9.27747,31.62193c0.4877,1.66232 2.41536,8.09394 2.38706,8.86507c-0.07207,1.96352 -1.30595,3.86933 -1.86891,5.81665c-0.40756,1.40981 -0.15996,2.97048 -1.04122,4.2497c-0.08992,0.13053 -0.18093,0.25972 -0.27301,0.38761c4.325,10.79263 11.07115,20.76684 16.77414,30.58609z" fill="#004eff" stroke-width="0.5"/><path d="M310.4332,263.48544c-0.09808,-0.21571 -0.21476,-0.41995 -0.36384,-0.60431c-0.62528,-0.7732 -1.80643,-0.94425 -2.44958,-1.70266c-0.74059,-0.87329 -0.99401,-2.06653 -1.58075,-3.0498c-2.7091,-4.53992 -6.38526,-8.77362 -5.12825,-14.54622c0.64938,-2.98209 3.89257,-5.70956 5.61467,-8.09432c2.62276,-1.73265 5.77387,-4.61812 8.73358,-5.86474c1.35408,-0.57031 2.84525,-0.75156 4.22455,-1.25786c6.04505,-2.21892 12.11431,-5.52358 18.91918,-4.13942c1.26441,0.2572 2.31262,1.14595 3.452,1.7515c3.92531,2.08619 9.86391,0.12095 12.63934,3.75671c1.07196,1.40425 5.90596,5.08023 6.91078,6.53325c0.83123,1.20199 -3.03168,5.29214 -2.35926,6.58964c0.63959,1.23408 0.6003,2.71698 0.99969,4.04835c0.11689,0.38969 2.49758,6.71251 2.40658,7.89c-0.23687,3.06505 -1.77986,5.40147 -3.16975,7.96761c-2.94713,5.23374 -8.17204,9.26769 -12.99696,12.71366c-0.97375,0.69544 -1.72698,1.72612 -2.81115,2.23253c-0.77578,0.36235 -1.75567,-0.03572 -2.5541,0.27354c-0.75906,0.294 -1.23879,1.07378 -1.94941,1.47078c-2.81706,1.57385 -7.27552,3.09908 -10.56494,3.07924c-5.2046,-0.03141 -7.71691,-2.38631 -11.63854,-5.11474c-3.5733,-2.48608 -6.33339,-2.58188 -8.68204,-7.03233c-0.53239,-1.00882 -0.30784,-2.26051 -0.46176,-3.39077c0,0 -0.27719,-3.14252 2.80996,-3.50967z" fill="#ffca89" stroke-width="0.5"/><path d="M85.17393,285.38325c-0.09806,-0.21571 -0.21474,-0.41995 -0.36383,-0.60431c-0.62529,-0.77322 -1.80643,-0.94425 -2.4496,-1.70265c-0.74059,-0.87329 -0.994,-2.06651 -1.58075,-3.0498c-2.7091,-4.5399 -6.38527,-8.7736 -5.12825,-14.54622c0.64938,-2.98209 3.89257,-5.70958 5.61467,-8.09432c2.62276,-1.73265 5.77385,-4.61813 8.73358,-5.86474c1.35408,-0.57033 2.84524,-0.75158 4.22455,-1.25786c6.04505,-2.21892 12.11431,-5.52358 18.91918,-4.13942c1.26441,0.2572 2.31263,1.14595 3.45202,1.7515c3.92534,2.0862 9.86391,0.12095 12.63934,3.75671c1.07194,1.40423 5.90596,5.08021 6.91078,6.53325c0.83121,1.20199 -3.0317,5.29215 -2.35926,6.58964c0.63957,1.23409 0.6003,2.71698 0.99967,4.04834c0.1169,0.38968 2.49758,6.71249 2.40658,7.89c-0.23687,3.06505 -1.77986,5.40147 -3.16975,7.96761c-2.94713,5.23374 -8.17204,9.26769 -12.99696,12.71366c-0.97376,0.69547 -1.72698,1.72612 -2.81115,2.23253c-0.77578,0.36235 -1.75566,-0.03571 -2.5541,0.27354c-0.75906,0.294 -1.23878,1.07378 -1.94941,1.4708c-2.81704,1.57384 -7.27552,3.09908 -10.56492,3.07923c-5.2046,-0.03141 -7.71691,-2.38631 -11.63853,-5.11473c-3.5733,-2.48608 -6.33339,-2.58188 -8.68204,-7.03233c-0.53239,-1.00884 -0.30784,-2.26051 -0.46174,-3.39077c0,0 -0.2772,-3.14252 2.80995,-3.50967z" fill="#ffca89" stroke-width="0.5"/><path d="M219.59005,88.19273c0.46502,0.17435 0.94066,0.30415 1.43487,0.35643c2.0727,0.21924 4.07675,-1.27782 6.15398,-1.10704c2.39191,0.19666 4.53595,1.58958 6.86286,2.17727c10.74365,2.71343 22.46674,3.53973 29.15923,13.95823c3.4573,5.38213 2.69295,14.23119 3.67504,20.31788c-1.31921,6.45508 -1.71289,15.40179 -4.25187,21.63593c-1.16159,2.85211 -3.10301,5.3308 -4.39686,8.12539c-5.67063,12.24792 -9.76802,26.14087 -21.90486,34.1748c-2.25516,1.4928 -5.12589,1.72911 -7.71206,2.52032c-8.90959,2.72577 -14.79842,14.43991 -24.30036,13.16481c-3.66991,-0.49248 -16.28245,1.22381 -19.92519,0.55954c-3.01338,-0.54952 -3.35018,-12.33665 -6.2698,-13.26304c-2.77694,-0.88111 -4.91647,-3.13709 -7.48159,-4.51838c-0.75079,-0.40429 -13.65013,-6.24684 -15.26042,-8.12687c-4.19159,-4.89374 -5.36756,-10.64334 -7.11083,-16.50653c-3.38896,-12.12477 -1.62384,-25.84713 0.41988,-38.10534c0.41246,-2.47392 0.00127,-5.11781 0.85757,-7.47517c0.61272,-1.68683 2.65498,-2.54912 3.37998,-4.19083c0.68924,-1.56073 0.24456,-3.42743 0.70934,-5.06904c1.84253,-6.50768 6.18984,-15.37604 11.09444,-20.22182c7.7602,-7.66712 14.97381,-7.90041 24.82978,-9.66884c8.98052,-1.61134 13.21321,-5.56007 23.29001,-2.445c2.28422,0.70614 3.80651,2.89406 5.70977,4.34108c0,0 5.06831,4.24663 1.03706,9.36622z" fill="#ffca89" stroke-width="0.5"/><path d="M267.99548,103.9568c-0.52688,1.6168 -1.7802,3.24948 -4.53997,4.05917c-4.07086,1.19434 -6.35098,-0.88909 -7.49229,-2.6321c-1.31701,-0.51066 -2.62106,-1.04372 -3.76269,-1.8573c-1.2708,-0.90562 -1.89879,-2.54609 -2.98817,-3.64273c-0.35751,-0.25002 -0.71106,-0.5052 -1.05903,-0.76759c-1.42843,-0.65874 -3.28457,-0.19832 -4.71748,-0.89939c-1.78828,-0.87495 -2.88469,-2.86212 -4.69377,-3.6932c-5.69852,-2.61788 -13.96004,-3.84967 -20.01012,-2.8276c-7.65699,-1.33423 -10.94621,-1.6114 -18.17925,0.53941c-4.89596,1.45586 -12.15936,2.06097 -16.49432,4.60129c-1.17376,0.68782 -1.70686,2.12509 -2.66328,3.0926c-2.61829,2.64867 -5.90389,4.60155 -8.40724,7.35913c-6.32508,6.96743 -9.10151,18.44672 -11.51154,27.25588c-1.49073,5.44895 -1.22107,12.51426 -3.31667,17.71273c-0.91286,2.26451 -3.21849,3.73562 -4.32272,5.91324c-1.70535,3.36307 -1.89777,7.306 -3.11493,10.87488c-2.07985,2.13886 -3.70621,4.8409 -6.23954,6.41658c-2.32317,1.44497 -5.12678,2.33895 -7.86262,2.35473c-16.42444,0.0947 -18.41343,-24.11631 -17.15082,-36.53851c0.89169,-8.77302 2.29937,-18.46046 5.58001,-26.75954c1.32298,-3.34677 3.99855,-6.0104 5.57535,-9.24535c0.84904,-1.74189 0.79481,-3.89639 1.88246,-5.50015c1.46214,-2.15594 3.73198,-3.63572 5.56723,-5.48445c7.27023,-7.32366 14.31273,-13.60267 22.44625,-19.99662c11.2072,-8.86611 27.03788,-10.70529 40.84668,-11.63993c1.99122,-0.13476 3.96146,-0.91822 5.94578,-0.70445c7.20676,0.7764 11.30424,5.85916 17.6089,8.41031c1.70218,0.68878 11.64222,3.73956 13.79253,4.71619c7.18424,3.26294 11.2993,8.15762 17.17176,12.79212c0.44864,0.30533 0.88032,0.63853 1.30207,0.98769c3.09492,2.25398 6.47614,4.13669 9.35128,6.66285c0,0 4.32825,3.8487 1.45617,8.44008z" fill="#000000" stroke-width="0.5"/><path d="M185.60433,120.11242c-1.05956,-3.61148 1.00917,-7.3981 4.62065,-8.45766c3.61148,-1.05956 7.3981,1.00917 8.45766,4.62065c1.05956,3.61148 -1.00917,7.3981 -4.62065,8.45766c-3.61148,1.05956 -7.3981,-1.00917 -8.45766,-4.62065z" fill="#000000" stroke-width="0.5"/><path d="M250.68826,118.49954c-1.05956,-3.61148 1.00917,-7.3981 4.62065,-8.45766c3.61148,-1.05956 7.3981,1.00917 8.45766,4.62065c1.05956,3.61148 -1.00917,7.3981 -4.62065,8.45766c-3.61148,1.05956 -7.3981,-1.00917 -8.45766,-4.62065z" fill="#000000" stroke-width="0.5"/><path d="M252.68735,144.78236c6.50511,2.03099 4.47412,8.53608 4.47412,8.53608l-1.27569,3.6419c-0.81825,1.49773 -5.05405,9.36346 -5.74992,10.07022c-4.93402,5.01134 -12.348,6.07078 -18.75405,7.94001c-4.74103,1.3834 -12.76436,4.10241 -17.49955,4.13052c-2.5077,0.01488 -4.817,-1.4538 -7.29491,-1.83938c-2.13996,-0.333 -4.4548,0.43491 -6.48997,-0.30568c-2.10836,-0.76724 -3.50239,-2.82058 -5.39824,-4.02044c-6.93234,-4.38736 -14.25941,-6.73995 -18.23872,-14.77867c-1.29724,-2.62061 -1.22835,-5.71776 -1.84251,-8.57665c0,0 -1.25831,-6.69761 5.43929,-7.95592c6.69761,-1.25831 7.95592,5.43929 7.95592,5.43929c0.25051,1.74352 0.05386,3.61318 0.75152,5.23055c1.93802,4.49296 10.32964,7.17141 13.61591,9.38258c0.93547,0.62943 1.26262,2.08577 2.32847,2.4536c1.16774,0.403 2.46459,-0.55805 3.68668,-0.37771c1.86995,0.27594 3.51362,1.69951 5.40371,1.71913c3.63447,0.03775 10.11053,-2.50677 13.7454,-3.57952c2.60565,-0.76901 10.56993,-1.73916 12.65166,-4.18767c1.76578,-2.07688 2.42137,-4.88654 3.72835,-7.27884l0.22642,-1.16927c0,0 2.03099,-6.50511 8.53608,-4.47412z" fill="#000000" stroke-width="0.5"/><path d="M275.37998,205.09853c1.18262,1.14349 2.0922,2.6642 3.54787,3.4305c1.53756,0.80941 3.54104,0.33331 5.09159,1.11754c3.15551,1.59598 5.75149,4.13437 8.80802,5.91257c5.76397,3.35331 12.45996,5.94543 18.41483,8.93645c4.18024,2.09965 10.84994,1.88924 12.57051,6.23924c1.74276,4.40606 -0.38982,9.55103 -1.65024,14.11851c-0.50503,1.83014 -3.00942,2.6653 -3.4883,4.50245c-0.30836,1.18291 1.40409,2.15291 1.43487,3.37496c0.06324,2.51126 -0.50462,5.02159 -1.16238,7.44601c-1.15998,4.27558 -0.47158,10.30868 -4.27211,12.58511c-3.45866,2.07164 -8.01963,-1.39641 -11.71446,-3.00955c-1.50094,-0.6553 -2.08076,-2.56518 -3.36938,-3.57597c-5.85859,-4.59555 -10.20904,-7.47205 -14.78266,-13.53623c-0.40537,-0.45931 -0.83652,-0.89592 -1.28919,-1.31122c0.29686,3.45721 0.53162,6.9113 0.75165,10.33126c0.48509,3.5785 2.85397,7.40612 1.45528,10.73547c-1.29455,3.08147 -5.36367,4.03621 -8.31783,5.59965c-5.43319,2.87542 -12.40418,2.85013 -18.21435,3.8762c-14.72779,2.60095 -29.49555,4.92251 -44.15772,7.08805c-9.66562,1.42758 -19.83234,5.88721 -29.25519,8.65175c-1.86457,0.54704 -11.09138,3.31412 -11.93732,3.22704c-3.90968,-0.40242 -8.10315,-1.3006 -11.18013,-3.74593c-2.1505,-1.70903 -2.08476,-5.08284 -3.12715,-7.62426c-3.11171,-10.60617 -6.67369,-20.96806 -10.15405,-31.40242c-0.44499,0.25464 -0.8875,0.51264 -1.3257,0.7766c-9.28905,5.59536 -6.61654,14.23207 -22.51889,10.80195c-3.49641,-0.75417 -5.62541,-4.50942 -7.86986,-7.2944c-5.07626,-6.29877 -7.7217,-19.20615 -5.61624,-26.92379c0.72213,-2.64699 6.63778,-10.71543 9.1526,-12.73055c1.28562,-1.03017 3.18481,-1.05332 4.49801,-2.04808c1.14623,-0.86828 1.62409,-2.40269 2.67427,-3.38496c4.28785,-4.01065 8.71186,-7.54638 13.66446,-10.57079c0.19816,-0.82605 0.44053,-1.6284 0.91802,-2.31587c1.26392,-1.81969 3.39702,-2.85436 4.95965,-4.42501c6.23738,-6.26941 10.26371,-12.83663 17.68902,-18.06564c0,0 5.5969,-3.88791 9.48483,1.70899c0.65602,0.94439 1.04201,1.84012 1.2304,2.67673c1.68746,0.8936 3.48679,1.63541 4.8917,2.9123c1.25518,1.1408 1.51936,3.10192 2.71875,4.30125c2.24439,2.24428 6.43367,3.58216 9.45479,3.35123c8.52769,-1.2292 15.60037,-3.63446 23.37791,-6.97254c2.97009,-1.27474 6.35117,-1.41236 9.30705,-2.71975c6.63515,-2.93478 6.19917,-5.64044 14.96548,-3.14497c2.25602,0.64222 3.63143,3.02022 5.69913,4.12775c1.49038,0.79829 3.38658,0.6533 4.83986,1.51727c2.5149,1.49511 4.3559,3.97083 6.88004,5.45026c4.57047,2.67879 9.94576,4.72787 13.71573,8.3525c1.88996,0.48138 3.20687,1.65239 3.20687,1.65239z" fill="#fff000" stroke-width="0.5"/><text transform="translate(140.17954,237.79644) rotate(-16.35101) scale(0.36044,0.31751) skewX(0)" font-size="40" xml:space="preserve" fill="#000000" fill-rule="nonzero" stroke="none" stroke-width="1" stroke-linecap="butt" stroke-linejoin="miter" stroke-miterlimit="10" stroke-dasharray="" stroke-dashoffset="0" font-family="Archivo Black" font-weight="normal" text-anchor="start" style="mix-blend-mode: normal"><tspan x="0" dy="0">yes, i'm a MAN.</tspan></text><text transform="translate(162.78739,255.2606) rotate(-16.35101) scale(0.37301,0.37301)" font-size="40" xml:space="preserve" fill="#000000" fill-rule="nonzero" stroke="none" stroke-width="1" stroke-linecap="butt" stroke-linejoin="miter" stroke-miterlimit="10" stroke-dasharray="" stroke-dashoffset="0" font-family="Archivo Black" font-weight="normal" text-anchor="start" style="mix-blend-mode: normal"><tspan x="0" dy="0">Masculine </tspan><tspan x="0" dy="46.150000000000006px">Ass</tspan><tspan x="0" dy="46.150000000000006px">Nice guy</tspan></text><path d="M188.40256,453.39463c3.83094,-1.12395 6.07598,0.65489 7.2785,2.32111c14.52073,-6.31715 31.23182,-12.73664 46.83658,-13.99882c2.11824,-0.17133 4.21488,0.71205 6.33971,0.67426c2.55124,-0.04538 5.05826,-1.15609 7.59915,-0.92219c2.11736,0.1949 3.94638,1.61195 5.99715,2.17375c6.1606,1.68765 12.46743,4.47884 16.61976,10.02434c2.03757,2.72123 4.90156,5.76272 4.52248,9.14105c-0.44298,3.94786 -3.60725,7.33984 -6.6574,9.8851c-2.32015,1.93609 -5.74356,1.88125 -8.60549,2.85128c-4.7338,1.60449 -9.45031,3.27097 -14.24592,4.67997c-15.77514,4.62822 -30.39382,9.69247 -46.96125,8.93156c-5.8521,-0.26878 -8.81926,0.70707 -13.94938,-3.92967c-5.55397,-5.01983 -6.60443,-13.8641 -8.58675,-20.62076l-0.80779,-2.75333c0,0 -1.91851,-6.53916 4.62065,-8.45766z" fill="#000000" stroke-width="0.5"/><path d="M284.67315,430.18912c-0.29205,-1.59835 -0.66411,-6.33936 4.73983,-7.92481c1.64909,-0.48382 3.0043,-0.42975 4.109,-0.07833c1.23825,-0.58189 2.30917,-0.71129 2.30917,-0.71129c8.17406,-0.9228 15.38319,1.35105 23.45928,1.23652c4.874,-0.06913 9.74294,-1.4817 14.59095,-0.97442c4.28514,0.4484 8.35229,2.2587 12.63593,2.72104c4.0803,0.44039 8.36959,0.49531 12.12118,2.15919c5.0084,2.22128 19.25642,10.13115 18.09022,16.52462c-0.82767,4.5376 -7.34173,5.63282 -11.3495,7.91592c-3.38997,1.93115 -7.48622,2.2003 -11.22986,3.29864c-6.42444,1.88485 -12.84887,3.76969 -19.27331,5.65454c-9.90573,2.90621 -19.31619,6.00808 -29.55456,7.13625c-2.65289,0.29232 -5.51782,2.26344 -7.92842,1.11788c-8.98455,-4.2696 -11.2575,-17.69852 -13.30996,-26.37031c-0.60366,-2.55053 -1.97871,-5.13637 -1.51394,-7.71583c0.2693,-1.4946 1.14685,-2.75729 2.10398,-3.98963z" fill="#000000" stroke-width="0.5"/></g><path d="M395.64951,98.40292l0.01658,0.29831l0.25941,0.14823l0.94577,3.78311v12.64571l-0.07383,0.29533l0.11465,0.2293l-0.57322,1.60504l-0.41337,1.65344l-0.02697,0.01542v3.98345l-0.22591,0.90363v0.93145l-0.26046,1.04186v3.44592l-0.36203,1.44812l0.15222,0.55817l-0.50018,0.83364l-0.23579,0.94317l-0.50233,0.28704l-0.011,0.01833v1.74798l-0.94577,3.78311l-0.25941,0.14823l-0.01658,0.29831l-0.72375,0.62035v0.50012l-0.94577,3.78311l-1.02497,0.5857l-0.31962,1.13642l-0.62892,0.33543l-0.19844,0.79373l0.47457,0.25311l1.2194,0.43551l2.07516,1.38345l0.79216,0.26406h0.2313l1.44812,0.36203l0.55817,-0.15222l0.83364,0.50018l0.94317,0.23579l0.28704,0.50233l0.01833,0.011h0.28886l3.78311,0.94577l0.14823,0.25941l0.29831,0.01658l1.26754,1.47879l1.08851,0.2177h8.51488l0.57126,-0.99972l3.78311,-0.94577h3.0107l0.01542,-0.02697l3.78311,-0.94577h11.67297l0.90363,0.22591h0.93145l1.04186,0.26046h3.93229l3.78311,0.94577l1.03175,1.80558l1.80558,1.03175l0.46986,1.87947l0.49121,0.60458l1.13142,1.31997l0.09429,0.18856l0.13703,0.16866l-0.01054,0.08433l1.72471,3.44943l0.06965,0.31342l0.18798,0.26028l0.39597,0.98992l1.33372,1.33372l0.76798,1.27996l0.50233,0.28704l0.23579,0.94317l0.50018,0.83364l-0.15222,0.55817l0.08921,0.3568l0.6537,1.08952l0.28977,0.95212l0.49735,0.86206l0.97274,3.40462l0.03516,1.05476l0.25596,1.02384v4.37737l-0.94577,3.78311l-0.25941,0.14823l-0.01658,0.29831l-1.73432,1.48654l0.21177,0.14119l-0.18798,3.38371l0.18798,3.38371l-0.39043,0.26028l-0.03253,0.58564l-2.96075,2.53779l-0.53118,0.26559l-0.04216,0.07379l-0.21082,0.0527l-0.18856,0.09429l-1.69711,0.37714l-1.68659,0.42166h-0.21082l-0.21214,0.04714l-0.07071,-0.04714h-6.31556l-3.78311,-0.94577l-0.08106,-0.14187l-0.27154,-0.0679l-0.75275,0.03584l-2.43186,-0.48637l-1.32864,-0.62936l-1.3845,-0.49445l-1.01212,-0.67474h-6.95023l-1.17997,-0.29498l-1.21268,-0.09328l-0.99077,-0.33026l-0.08199,0.02236l-0.18635,-0.11182l-0.20001,-0.06668l-1.34145,-0.85365l-0.2177,0.05938l-0.83364,-0.50018l-0.94317,-0.23579l-0.28704,-0.50233l-1.27996,-0.76798l-0.28771,-0.28771l-1.54989,-0.38747l-0.4372,-0.76509l-0.86407,-0.17281l-0.0778,-0.12223l-0.80742,-0.23068l-1.55578,-0.89757l-0.59527,-0.03307l-0.20896,-0.24379l-1.37698,-0.306l-0.18856,-0.09429l-0.21082,-0.0527l-0.04216,-0.07379l-0.23339,-0.11669l-0.07707,-0.01926l-0.75275,0.03584l-1.69722,-0.33944h-7.51915l-0.138,-0.0345l-0.16274,0.08745l-1.72402,-0.55915l-1.75831,-0.43958l-0.09166,-0.16041l-0.13532,-0.04388l-2.84901,-1.78064l-3.73323,-0.93331l-0.14823,-0.25941l-0.29831,-0.01658l-2.07041,-2.41547l-0.08362,0.0228l-0.83364,-0.50018l-0.94317,-0.23579l-0.28704,-0.50233l-1.27996,-0.76798l-3.36122,-3.36122l-8.34506,-5.56337l-0.0217,-0.00434l-0.00837,0.00558l-0.21214,-0.04714h-0.21082l-1.68659,-0.42166l-1.69711,-0.37714l-0.18856,-0.09429l-0.21082,-0.0527l-0.04216,-0.07379l-0.44586,-0.22293l-1.39417,0.34853l-0.67847,0.58153l-0.53118,0.26559l-0.04216,0.07379l-0.21082,0.0527l-0.18856,0.09429l-0.37108,0.08247l-0.03359,0.02015l-0.02563,-0.00699l-0.39049,0.08679l-0.77747,0.63169l-1.31997,1.13142l-0.18856,0.09429l-0.16866,0.13703l-0.08433,-0.01054l-0.88434,0.44218l-0.18554,0.16868l-0.08071,0.40355l-1.21066,0.77042l-1.06183,0.9653l-0.41058,-0.02832l-0.60683,0.38617l-1.45912,0.48637l-1.48828,0.11448l-0.48139,0.32094l-0.94904,-0.2109l-0.96933,0.07457l-0.43117,-0.38578l-1.45713,-0.32381l-0.97274,-0.48637l-2.96075,-2.53779l-0.01658,-0.29831l-0.25941,-0.14823l-0.94577,-3.78311v-1.45912l0.22591,-0.90363v-0.93145l0.26046,-1.04186v-1.01406l0.94577,-3.78311l0.76509,-0.4372l0.17281,-0.86407l0.06182,-0.03933v-1.19915l0.07383,-0.29533l-0.11465,-0.2293l0.57322,-1.60504l0.41337,-1.65344l0.13528,-0.0773l0.4241,-1.18749l0.41337,-1.65344l0.02697,-0.01542v-0.09247l0.07383,-0.29533l-0.11465,-0.2293l0.57322,-1.60504l0.41337,-1.65344l0.22258,-0.12719l0.10239,-0.28669l0.24577,-0.36866l0.16851,-0.67404l0.13962,-0.26177l0.02276,-0.29581l0.88085,-2.64257l0.41589,-1.66359l0.39212,-0.73522l0.18077,-0.81341l0.97274,-1.94549l0.12161,-0.14189l-0.00436,-0.20499l1.26045,-1.26045l1.16008,-1.35342l0.20472,-0.01137l0.13213,-0.13213l0.49598,-0.29759l0.14613,-0.73067l3.28989,-2.09356l0.81031,-0.2701l0.4472,-0.55042l0.16866,-0.12649l0.14143,-0.165l0.08486,-0.00471l1.55055,-1.16291l0.34721,-0.14619l0.00395,-0.01581l0.50233,-0.28704l0.011,-0.01833v-2.19897l-0.49739,-0.82897l-0.50233,-0.28704l-0.078,-0.31199l-0.1108,-0.06649l-0.90456,-0.90456l-0.17204,-0.14747l-0.73173,-0.33537l-2.43186,-1.94549l-0.25821,-0.3389l-0.36534,-0.21921l-1.67489,-1.67489h-0.50059l-0.25271,0.13478l-0.1576,0.78799l-3.28989,2.09356l-0.14821,0.0494l-0.4793,0.52723l-0.32607,0.21737l-0.16872,0.67487l-1.80558,1.03175l-1.03175,1.80558l-1.84934,0.46233l-0.45423,0.53323l-2.78169,1.98693l-0.01267,0.03799l-0.12033,0.057l-0.48991,0.34994l-1.47815,0.58229l-1.43578,0.6801l-0.59038,0.11808l-0.12389,0.0488l-0.03638,-0.01674l-1.68124,0.33626l-1.49099,-0.071l-0.51748,0.25875l-0.91555,-0.32698l-0.97109,-0.04624l-0.37999,-0.43629l-1.40573,-0.50204l-2.91823,-1.94549l-2.13316,-2.34648l-0.29029,-0.16589l-0.05291,-0.21165l-0.14675,-0.16142l0.023,-0.33355l-0.76912,-3.07649v-0.38419l-0.18837,-0.28256l-0.26619,-0.74535l-0.46339,-0.64161l-0.97274,-2.43186l-0.19362,-1.41982l-0.34754,-1.39019v-13.13208c0,-1.28963 0.32266,-2.50391 0.89162,-3.5665l0.05415,-0.21661l0.09975,-0.057c0.52967,-0.89747 1.23933,-1.67605 2.07934,-2.28608c-0.51372,0.11012 -1.0468,0.16808 -1.5934,0.16808c-4.1787,0 -7.56621,-3.38751 -7.56621,-7.56621v-1.50169c-0.05556,0.08365 -0.11122,0.16702 -0.16698,0.25015c-1.13055,1.68566 -1.74914,3.80067 -3.2863,5.12613c-4.7513,4.09696 -13.09959,4.85508 -19.36918,2.09374c-4.66615,2.32854 -10.54364,2.71119 -15.16473,0.79909c-0.08381,-0.03468 -0.165,-0.07317 -0.24381,-0.11508c-0.92488,0.22225 -1.85758,0.34239 -2.77669,0.34746c-2.73641,0.01511 -5.74959,0.10979 -8.10971,-1.2751c-1.91823,-1.12559 -2.43136,-3.72507 -3.61761,-5.60638c-4.3723,-6.93421 -5.16546,-14.28791 3.60953,-16.75329c-1.07137,-4.39022 -1.1842,-9.61533 1.09266,-13.34968c1.89129,-3.10197 5.68062,-4.19286 8.07922,-6.7224c0,0 5.35011,-5.35011 10.70024,0c1.83117,1.83117 2.40886,3.66236 2.37655,5.27901l0.17804,-0.53412c0.95084,-3.09174 3.82953,-5.33907 7.23312,-5.33907c4.1787,0 7.56621,3.38751 7.56621,7.56621c0,0.78228 -0.11872,1.53683 -0.33913,2.24663l-0.77714,2.71996c0.81225,2.93185 -0.23219,6.38118 -0.54249,9.29489c-0.12287,1.15378 0.15255,2.35055 -0.11771,3.47893c-0.2275,0.94984 -0.78871,1.78892 -1.21008,2.67455c0.01232,0.5477 0.01713,1.09665 0.01038,1.64327c0.30145,0.03708 0.60317,0.07306 0.89972,0.13637c0.14332,0.03059 0.07201,0.55929 0.12333,0.42203c0.57033,-1.52581 1.65162,-2.80871 2.4338,-4.23752c0.93058,-1.69986 1.93195,-3.41835 2.3824,-5.30319c0.28638,-1.19838 -0.20683,-2.55108 0.272,-3.68636c0.3654,-0.86634 2.58999,-3.86175 4.05653,-5.81631c0.09338,-1.62417 0.15229,-3.28016 -0.08482,-4.68634c-1.12865,-6.69348 -2.86338,-12.00023 3.86859,-17.63813c3.20891,-2.68743 9.68992,-0.71904 13.60363,-1.38074c1.69966,-0.88999 3.08641,-2.37636 4.88534,-3.04328c0.54896,-0.2035 1.22697,0.63669 1.72526,0.32931c0.35796,-0.22082 -0.43952,-0.8569 -0.25627,-1.23548c0.48127,-0.99438 2.55502,-2.68538 2.9357,-4.12517c0.38264,-1.44723 0.25863,-3.01792 0.77242,-4.42393c0.32133,-0.87936 1.24435,-1.43169 1.66266,-2.2661c-4.16213,-0.12715 -8.3289,-0.24751 -12.51339,-0.24751h-2.7032c-4.1787,0 -7.56621,-3.38751 -7.56621,-7.56621c0,-2.41549 1.13189,-4.56661 2.89421,-5.9519l2.64861,-2.11888l0.27258,0.34072c0.30676,-0.40078 0.6332,-0.78708 0.98345,-1.1558c1.96037,-2.06377 7.20278,-1.89297 9.95818,-1.92418c6.32536,-0.07166 13.19907,-0.43141 18.25438,3.77769l0.00002,0.00002c0.58296,0.0044 1.16602,0.00678 1.74918,0.00678c3.36316,0 9.04653,-0.64281 12.12412,0.38828c1.78396,0.59769 3.25533,1.91213 4.72731,3.08393c1.82995,1.45676 3.54469,3.46312 4.85665,5.68821c1.22583,-0.04963 2.47936,0.05752 3.70188,0.03044c4.17372,-0.09247 8.96574,-0.22392 12.5705,2.53621c1.48553,1.13747 2.61263,2.45023 3.46095,3.88341c1.49167,-1.00581 3.25961,-1.81732 5.69466,-2.48066c1.35958,-0.37036 2.81565,-0.12734 4.22448,-0.15452c4.45134,-0.08588 8.47807,-0.35779 12.55297,1.86932c1.87123,1.0227 3.49534,2.44381 5.24301,3.66569c2.02882,5.00011 3.84164,9.49215 3.28615,15.00649c-0.21735,2.15761 0.09222,4.54732 -0.98209,6.43105c-1.08375,1.90031 -3.36205,2.80019 -5.06544,4.17285c-0.54218,0.43691 -1.05573,0.9245 -1.56618,1.41794c1.04273,1.29672 1.66671,2.94442 1.66671,4.73789c0,4.06374 -3.20366,7.3792 -7.22315,7.55858l0.14859,1.33734l-0.19583,0.02176c0.07757,0.13133 0.15444,0.26311 0.23054,0.39537c0.41089,0.7142 -0.25672,1.64319 -0.19083,2.46452c0.2232,2.78211 2.47305,5.90246 1.05494,8.30641c-0.21287,0.36085 -0.43586,0.69471 -0.66809,1.00358c0.66117,0 1.32233,0 1.9835,0v-0.00271c0.06746,-1.66072 -0.21142,-3.37242 0.20241,-4.98219c0.97398,-3.78883 6.02147,-11.94325 9.87083,-12.2069c3.88723,-0.26623 7.54769,2.84843 10.2074,5.69579c0.2497,0.26733 0.42716,0.56874 0.55171,0.89509c0.28944,-0.21098 0.59188,-0.39078 0.93329,-0.47796c2.93464,-0.74944 12.38686,-0.5477 14.59421,0.52426c1.62763,0.79041 2.96161,2.28854 4.07439,3.98537c1.52308,0.57169 2.7566,1.76261 4.1099,2.6761c0.83627,0.5645 1.5631,1.28172 2.34956,1.91405c0.6617,-1.43743 1.33839,-1.85376 2.66932,-2.73862l0.23589,-1.65127c0.47168,-3.7255 3.65236,-6.60632 7.5059,-6.60632c4.1787,0 7.56621,3.38751 7.56621,7.56621v4.3251c1.42795,3.52506 -2.12433,9.80358 -3.838,11.83778c-1.03432,1.22777 -2.84858,1.49803 -4.1699,2.40983c-1.30753,0.90228 -2.19892,2.46972 -3.69113,3.01477c-2.07632,0.75841 -11.31021,1.17319 -13.73823,0.25129c-0.27733,-0.10531 -0.54441,-0.21098 -0.802,-0.31747c-5.05122,2.05162 -12.2207,1.86068 -15.8699,-1.08187c-0.89745,-0.72367 -1.47451,-1.71627 -1.94505,-2.79457c-0.45766,0.00756 -1.01404,0.01327 -1.60233,0.0284c-4.3029,6.307 -13.51864,8.2584 -20.6962,6.37818c-1.25247,-0.32809 -2.20651,-1.38365 -3.41186,-1.85641c-0.91043,-0.35709 -1.99129,-0.17887 -2.8703,-0.60753c-0.40676,-0.19836 -0.81333,-0.41013 -1.21769,-0.63454c-1.49144,-0.06442 -2.91993,-0.2196 -4.22479,-0.51959c-0.40082,0.33737 -0.8194,0.6492 -1.25363,0.93128c-1.47675,0.95935 -3.3779,0.78811 -5.20615,0.76391zM331.42663,83.39339l3.48674,0.87167c0.07348,-2.94099 0.58298,-5.96004 0.17928,-8.65032c-0.01767,-0.11779 -0.0469,-0.23463 -0.08441,-0.35068c-0.00444,-0.00296 -0.00885,-0.00593 -0.01319,-0.00891c-0.25925,0.9981 -0.46723,2.01818 -0.91128,2.94514c-0.86502,1.80571 -1.87914,3.52696 -2.98904,5.19309zM323.57612,54.01975c0.31373,1.54931 0.47738,3.08463 0.56047,4.62748c1.2077,0.96342 2.14479,2.17602 2.86881,3.5635c3.40632,-2.02378 7.69599,-2.887 11.33867,-2.21414c2.05286,0.37918 4.29093,0.66528 6.17022,1.55363c1.37026,-1.93685 3.62797,-3.20133 6.18101,-3.20133c2.41549,0 4.56661,1.13189 5.9519,2.89421l2.11888,2.64861l-0.41306,0.33045c0.39299,0.24422 0.77726,0.50344 1.15118,0.78034c1.1594,0.85853 2.42985,7.99719 2.51602,9.47935c0.03962,0.68159 -0.55952,1.3622 -0.36248,2.01588c0.37017,1.22814 1.2366,1.71547 1.77919,2.32941c-0.01069,-0.35794 -0.30224,-0.73049 -0.27847,-1.10145c0.14474,-2.25707 0.01075,-4.58469 0.65139,-6.75377c0.68502,-2.31932 1.56204,-4.02208 2.62999,-5.40466c-0.06641,-0.79861 -0.08565,-1.6257 -0.06108,-2.48196c-0.2517,-1.06025 -0.43156,-2.07082 -0.50607,-2.9123c-0.10944,-1.23625 -0.19259,-2.48673 -0.14495,-3.72786c-0.19199,-0.18598 -0.37214,-0.37276 -0.52302,-0.56338c-1.42189,-1.79653 -2.82677,-3.60732 -4.18587,-5.45182c-3.01401,-5.95045 -4.3981,-10.67426 -3.81857,-17.42322c0.267,-3.10931 0.51915,-6.22859 1.98374,-8.91376c-1.3956,0.4793 -3.40386,0.36869 -5.08762,0.26803c-0.42856,0.8897 -0.85828,1.77338 -1.20965,2.65341c-2.24696,5.62773 -3.45906,10.7311 -7.17152,15.94668c-1.22002,1.714 -1.86238,3.93153 -3.50009,5.25218c-1.28881,1.03928 -3.2382,0.76409 -4.76238,1.41059c-2.10375,0.89232 -3.87653,2.43643 -5.92738,3.44437c-2.58493,0.53498 -5.22221,0.93674 -7.86187,0.95017c-0.02904,0.00014 -0.05814,0.0006 -0.08732,0.00134zM284.23699,63.05244c-1.68327,1.67541 -2.81338,2.98222 -4.97142,4.01604c-0.00017,0.02902 0.00174,0.05731 0.00628,0.08474c0.40948,2.4758 0.65313,2.78043 2.10554,4.95296c0.58186,0.87033 1.32634,1.85151 2.07892,2.89703c0.04533,-1.98312 0.14615,-3.96172 0.20274,-5.84425c0.05202,-1.72989 -0.21148,-3.51878 0.25346,-5.18582c0.08782,-0.31491 0.19796,-0.62103 0.32448,-0.92068zM381.4002,38.54134c0.12657,-0.25482 -0.39338,-0.45677 -0.42652,-0.73935c-0.16983,-1.44843 -0.34502,-2.93952 -0.15615,-4.38286c-1.02599,0.09503 -2.06162,0.10822 -3.09038,0.05506c-0.98829,-0.05107 -2.67765,-0.14053 -2.95814,0.50791c-0.29279,0.67687 0.25224,1.46052 0.25224,2.19799c0,0.912 -0.20848,1.83311 -0.07313,2.73503c0.07957,0.53031 0.79258,4.18242 1.55727,4.80723c0.12453,0.12476 0.25517,0.24552 0.3901,0.3635c0.45361,-0.24013 0.93459,-0.43549 1.43704,-0.58017c-0.61497,-2.20827 2.10461,-3.02548 3.06766,-4.96431z" fill="#000000" stroke="none" stroke-width="0.5"/><path d="M316.38426,40.28901c2.37023,-0.8619 3.23212,1.50833 3.23212,1.50833l0.53992,1.78161c0.80613,0.64252 1.46806,1.52817 2.41842,1.92755c1.49101,0.62655 7.40719,-3.35917 7.74964,-3.58403c3.23934,-2.12694 7.4831,-5.69556 9.19938,-9.32209c1.96682,-4.1559 1.96492,-8.70364 1.95725,-13.18489c-2.33534,-0.00079 -4.67111,0.02271 -7.00766,0.10359c-4.28663,0.14838 -8.60737,0.80795 -12.89253,1.09386c0,0 -2.51648,0.16777 -2.68424,-2.34873c-0.16777,-2.51648 2.34871,-2.68424 2.34871,-2.68424c4.31786,-0.28762 8.66644,-0.94629 12.98614,-1.09924c9.29563,-0.32915 18.58923,0.29477 27.87889,-0.32022l2.9475,-0.52184c0,0 2.48399,-0.43666 2.92065,2.0473c0.43666,2.48399 -2.04732,2.92065 -2.04732,2.92065l-3.21553,0.56158c-5.39831,0.3622 -10.79437,0.31718 -16.19179,0.27431c-0.00554,5.18945 -0.11948,10.49829 -2.42973,15.29211c-3.04729,6.32321 -9.64205,10.71072 -15.55766,13.87007c-2.29702,1.22678 -4.48073,2.82605 -7.40783,1.73417c-1.96607,-0.73338 -3.35874,-2.51635 -5.03812,-3.77453l-1.21457,-3.04321c0,0 -0.8619,-2.37023 1.50833,-3.23212z" fill="#ffffff" stroke="none" stroke-width="0.5"/><path d="M379.8057,53.46726c-2.27104,1.32429 -4.82747,2.68143 -7.57297,1.69788c-5.07613,-1.81848 -5.88977,-5.24764 -7.27187,-9.67006c-2.25628,-7.21962 2.57075,-16.39147 10.15689,-18.0347c1.32531,-0.28707 8.03907,-0.05136 9.2188,0.75457c3.70913,2.53384 3.80065,5.5341 4.67032,9.27637c1.24439,5.35472 2.43744,12.94414 -3.52378,16.19615c-1.14158,0.62276 -2.56104,0.45303 -3.84158,0.67954zM382.50997,49.33881c0.24668,-0.02286 0.48757,-0.06967 0.71732,-0.16297c3.39987,-1.38039 1.36555,-8.31325 0.86244,-10.55974c-0.37648,-1.68107 -0.5695,-4.88565 -2.34763,-6.07537c-0.65658,-0.43931 -1.57866,-0.0673 -2.36847,-0.08431c-1.10843,-0.02387 -2.23104,-0.2133 -3.32586,-0.03836c-4.74233,0.75775 -7.5709,7.41314 -6.25622,11.62534c0.76674,2.45662 1.04713,5.19301 3.87779,6.28652c1.37539,0.53133 4.70538,-1.85773 5.28244,-2.19297c0,0 2.19818,-1.23647 3.43465,0.96169c0.04578,0.08139 0.08685,0.16146 0.12349,0.24019z" fill="#ffffff" stroke="none" stroke-width="0.5"/><path d="M412.48965,53.15479c1.1279,2.2558 -1.1279,3.38371 -1.1279,3.38371l-1.03512,0.51088c-6.90011,2.83231 -14.74881,3.89496 -18.41667,-4.39582c-0.57831,-1.30716 -0.57605,-2.80011 -0.86409,-4.20018c0.58256,-4.99445 0.99525,-11.07697 3.98181,-15.38119c4.24598,-6.11933 13.52077,-7.78536 19.26718,-3.06787c5.16145,4.23726 5.19262,15.02428 -1.63383,17.86503c-1.47945,0.61565 -3.21629,0.10849 -4.80651,-0.08914c-4.03671,-0.50163 -7.76829,-2.27467 -11.12444,-4.47858c-0.26555,1.70993 -0.43321,3.41754 -0.64339,4.9676c0.15059,0.79305 0.1155,1.64532 0.45177,2.37915c2.45755,5.36307 7.52653,3.57853 11.84817,1.74488l0.71937,-0.36637c0,0 2.2558,-1.1279 3.38373,1.1279zM398.04925,38.09583c3.28597,2.36524 6.53297,3.79929 10.61635,4.70587c0.72854,0.16175 1.50395,0.58703 2.21141,0.34948c3.34235,-1.1222 2.21122,-7.74094 0.12066,-9.32951c-3.52818,-2.68094 -9.35875,-1.64023 -11.87494,2.19558c-0.42337,0.64542 -0.77617,1.34385 -1.0735,2.07855z" fill="#ffffff" stroke="none" stroke-width="0.5"/><path d="M267.20692,77.01188c2.52208,0 2.52208,2.52208 2.52208,2.52208v0.21931c-0.02931,0.72241 -0.48067,2.88529 0.60393,3.51685c1.00689,0.58632 5.25041,1.79107 6.22431,-0.22318c0.94416,-1.95278 -5.07135,-7.49552 -5.57432,-8.32774c-1.91622,-3.17074 -3.97553,-8.71278 -1.47462,-12.39483c0.78028,-1.1488 2.27339,-1.60065 3.46868,-2.30764c2.47954,-1.4666 5.3857,-2.46073 8.26582,-2.52346c0,0 2.52208,0 2.52208,2.52208c0,2.52208 -2.52208,2.52208 -2.52208,2.52208c-0.81256,-0.02689 -1.664,-0.33041 -2.43771,-0.08063c-1.22368,0.39504 -2.19514,1.34317 -3.33235,1.94338c-0.57487,0.30343 -1.40288,0.24407 -1.79475,0.76269c-1.26115,1.66905 0.9225,5.84498 1.59573,6.90449c2.40425,3.7837 8.41868,7.70732 5.82983,13.1647c-2.43988,5.14332 -10.14928,4.57359 -13.916,1.98145c-2.9518,-2.03132 -2.43091,-4.61919 -2.50269,-7.4602v-0.21931c0,0 0,-2.52208 2.52208,-2.52208z" fill="#ffffff" stroke="none" stroke-width="0.5"/><path d="M292.12862,67.49164c2.39265,0.79756 1.59509,3.19021 1.59509,3.19021l-0.52851,1.17625c0,4.93934 -0.34746,9.73754 0.81021,14.55478c0,0 0.57766,2.45503 -1.87736,3.03267c-2.45503,0.57766 -3.03267,-1.87736 -3.03267,-1.87736c-1.21095,-5.24245 -0.9443,-10.35254 -0.9443,-15.71009l0.78737,-2.77134c0,0 0.79756,-2.39265 3.19021,-1.59509z" fill="#ffffff" stroke="none" stroke-width="0.5"/><path d="M291.66005,60.67326c0,-1.39289 1.12916,-2.52208 2.52208,-2.52208c1.39289,0 2.52208,1.12916 2.52208,2.52208c0,1.39289 -1.12916,2.52208 -2.52208,2.52208c-1.39289,0 -2.52208,-1.12916 -2.52208,-2.52208z" fill="#ffffff" stroke="none" stroke-width="0.5"/><path d="M344.76316,92.23421c-2.39265,0.79756 -3.19019,-1.59509 -3.19019,-1.59509l-0.72637,-2.22003c-1.04938,-4.70172 -1.60828,-9.43706 -2.46026,-14.17944c-0.26768,-1.48995 -0.52982,-2.98117 -0.75994,-4.47738c-0.13393,-0.87093 0.1903,-1.91287 -0.33198,-2.62259c-0.46781,-0.63566 0.32834,1.59673 0.14131,2.36349c-0.50508,2.07064 -3.08507,4.92173 -4.00879,6.47187c-1.58656,2.6625 -2.90959,4.98279 -4.39223,7.27152l0.42015,0.21921l-2.30867,4.42497c-0.41242,0.83118 -1.26979,1.40253 -2.2606,1.40253c-1.20026,0 -2.20469,-0.83842 -2.45955,-1.96155l-0.64513,-2.58055l0.0686,-0.01715l-0.10998,-0.18234c-0.41936,-4.94257 -0.99753,-9.90142 -1.94729,-14.77653c-0.19424,-0.99705 -0.50853,-1.967 -0.77747,-2.94655c-0.13395,-0.48794 -0.0172,-1.74649 -0.43112,-1.45546c-0.54615,0.38398 -0.01174,1.38233 -0.31257,1.97835c-0.74967,1.48522 -1.87166,2.75135 -2.77872,4.14602c-4.17355,6.41712 -8.36017,12.88435 -11.56371,19.83958c0,0 -1.05689,2.28995 -3.34683,1.23304c-2.28995,-1.05689 -1.23304,-3.34683 -1.23304,-3.34683c3.31821,-7.17553 7.60587,-13.85108 11.91518,-20.47604c0.69149,-1.06304 5.26632,-8.3314 6.76504,-8.38766c2.166,-0.08131 3.9129,2.11863 5.27093,3.80799c0.98719,1.22806 1.06362,2.97418 1.41563,4.51002c0.74694,3.25895 1.20535,6.65155 1.5494,10.02883c0.43088,-0.63779 0.88172,-1.26766 1.23908,-1.94096c1.70156,-3.20585 3.36356,-6.60438 5.44665,-9.57036c1.25127,-1.78161 1.91748,-5.25055 4.0889,-5.09308c2.59698,0.18833 3.98814,3.50158 5.26398,5.7714c0.90607,1.61194 0.69791,3.63183 1.04277,5.44853c0.88773,4.67663 1.37863,9.35307 2.42245,13.99454l0.58951,1.72756c0,0 0.79756,2.39263 -1.59509,3.19019z" fill="#ffffff" stroke="none" stroke-width="0.5"/><path d="M373.35323,69.99394c2.52208,0 2.52208,2.52208 2.52208,2.52208v0.65792c-0.02226,1.50808 0.29366,3.05971 -0.0668,4.52424c-0.39336,1.59828 -1.50264,2.93241 -2.14176,4.44921c-1.56496,3.71409 -3.10071,10.3916 -8.46852,10.8678c-3.77345,0.33477 -5.80616,-3.60825 -7.3588,-5.99933c-3.4379,-5.29439 -5.62881,-11.34934 -6.08269,-17.62174c0,0 -0.16777,-2.51648 2.34873,-2.68424c2.51648,-0.16777 2.68424,2.34871 2.68424,2.34871c0.32892,5.50506 2.44846,10.59128 5.32146,15.27483c0.61427,1.00141 1.2286,2.00673 1.93209,2.94758c0.21216,0.28374 0.45431,0.79121 0.79737,0.70275c2.29642,-0.59213 3.72639,-6.7435 4.19013,-7.82413c0.53482,-1.24625 1.52873,-2.30148 1.86719,-3.61472c0.28049,-1.0883 -0.04454,-2.24729 -0.06682,-3.37093v-0.65792c0,0 0,-2.52208 2.52208,-2.52208z" fill="#ffffff" stroke="none" stroke-width="0.5"/><path d="M382.78358,89.73191c-2.52208,0 -2.52208,-2.52208 -2.52208,-2.52208c0,-5.70208 0,-14.47448 0,-20.17658c0,0 0,-2.52208 2.52208,-2.52208c2.52208,0 2.52208,2.52208 2.52208,2.52208c0,5.70208 0,11.40415 0,17.10623v3.07035c0,0 0,2.52208 -2.52208,2.52208z" fill="#ffffff" stroke="none" stroke-width="0.5"/><path d="M411.99576,90.91618c-1.51325,2.01766 -3.53091,0.50442 -3.53091,0.50442l-2.92739,-2.23398c-1.15118,-1.61053 -2.35067,-3.15038 -3.57981,-4.6584c0.01178,0.70314 0.0129,1.38287 0.0156,2.02368v1.31586c0,0 0,2.52208 -2.52208,2.52208c-0.87661,0 -1.44853,-0.3047 -1.82166,-0.70228c-0.04963,0.47116 -0.26737,0.98494 -0.78117,1.49874c-1.78336,1.78336 -3.56675,0 -3.56675,0c-3.85379,-3.9992 -5.26616,-8.25183 -5.33953,-13.91112c-0.02619,-2.01915 -0.72263,-4.42255 0.48867,-6.03823c3.58948,-4.78784 7.86564,-0.62462 10.24237,2.0096c0.58587,0.28165 0.94893,0.71071 0.94893,0.71071c3.28508,3.88341 6.6212,7.52957 9.53326,11.71441l2.33608,1.71361c0,0 2.01766,1.51325 0.50442,3.53091zM396.92912,87.7085v-1.15661c0.01579,-3.22493 0.10427,-7.02492 -1.88679,-9.83006c-0.68795,-0.96925 -2.64646,-3.67315 -2.55415,-2.48816c0.38071,4.88705 0.72854,9.93898 4.36017,13.38587c0,0 0.031,0.031 0.08077,0.08896z" fill="#ffffff" stroke="none" stroke-width="0.5"/><path d="M437.43578,77.36279c1.51325,2.01766 -0.50442,3.53091 -0.50442,3.53091l-1.67884,1.05986c-2.2191,0.65242 -4.18374,1.15049 -6.15536,1.49508c0.14834,1.74602 0.17822,3.54819 0.06568,5.4537c0,0 -0.15731,2.51716 -2.67447,2.35985c-2.51716,-0.15733 -2.35985,-2.67449 -2.35985,-2.67449c0.10671,-1.60752 0.09113,-3.12888 -0.02484,-4.60127c-0.66437,0.02896 -1.34968,0.04342 -2.06353,0.04342c0,0 -2.52208,0 -2.52208,-2.52208c0,-2.52208 2.52208,-2.52208 2.52208,-2.52208c0.44123,0 0.86735,-0.00566 1.28116,-0.01709c-0.58112,-2.55312 -1.40798,-5.08777 -2.35016,-7.82513l-0.13722,-1.47848c0,0 0,-2.52208 2.52208,-2.52208c2.52208,0 2.52208,2.52208 2.52208,2.52208l-0.13722,-0.16264c1.07478,3.12479 1.98697,6.02975 2.60899,8.96613c1.72163,-0.30753 3.44569,-0.75574 5.47935,-1.35412l0.07565,-0.256c0,0 2.01766,-1.51325 3.53091,0.50442z" fill="#ffffff" stroke="none" stroke-width="0.5"/><path d="M450.5425,91.85339c-0.21202,0.0512 -0.35271,0.06292 -0.35271,0.06292c-1.20016,0.037 -2.47516,0.52986 -3.60046,0.11101c-4.99362,-1.8587 -12.65338,-12.20818 -5.89925,-16.56824c5.83421,-3.76624 10.18828,2.25045 13.02946,6.02717c0.63849,0.84873 1.62961,1.46575 2.04536,2.44306c1.41571,3.3279 0.64905,4.02635 -0.34399,6.99347l-3.02815,1.66018c0,0 -1.10312,0 -1.85027,-0.72956zM451.05165,87.09818c-0.12163,-2.32614 -1.93863,-4.43288 -3.80282,-6.30179c-0.60753,-0.60906 -2.62778,-1.57376 -3.7686,-1.13512c-0.88581,0.34058 -0.21743,2.0194 0.26892,2.83432c1.35844,2.27618 3.37643,4.9151 6.02173,4.39398c0,0 0.627,-0.05225 1.28077,0.20861z" fill="#ffffff" stroke="none" stroke-width="0.5"/><path d="M473.08645,82.31575c-1.46594,2.05228 -3.51822,0.58637 -3.51822,0.58637l-1.64478,-1.17945c-2.36291,-2.84254 -1.47832,1.61454 -2.24543,3.40655c-0.40543,0.94711 -1.45155,1.52344 -1.8574,2.47041c-0.59654,1.39192 -0.72757,2.94004 -1.09136,4.41004c0,0 -0.63295,2.44135 -3.0743,1.80841c-2.44135,-0.63295 -1.80841,-3.0743 -1.80841,-3.0743c0.48015,-1.78512 0.72412,-3.65122 1.44043,-5.35538c0.36714,-0.87347 1.37417,-1.36958 1.75153,-2.23867c1.50579,-3.4681 0.58802,-8.22525 6.6766,-7.63961c1.34596,0.12947 2.23958,1.51581 3.35938,2.27372l1.42557,1.01367c0,0 2.05228,1.46594 0.58637,3.51822z" fill="#ffffff" stroke="none" stroke-width="0.5"/><path d="M445.19878,173.95425c-0.79756,2.39265 -3.19019,1.59509 -3.19019,1.59509l-3.15013,-1.06298c-3.65056,-2.12878 -6.93942,-2.30409 -10.87082,-3.97288c-2.24795,-0.9542 -6.21246,-3.21274 -8.76288,-3.62396c-1.71381,-0.27634 -3.50034,0.28055 -5.20775,-0.03295c-1.06968,-0.19641 -1.85566,-1.22732 -2.91823,-1.45912c-5.25805,-1.14702 -11.44007,0.82579 -16.63046,-0.51041c-0.91549,-0.23568 -1.52453,-1.19379 -2.43186,-1.45912c-2.3223,-0.67909 -6.11396,0.09152 -8.56787,0.09152c-6.16073,0 -12.32146,0 -18.48219,0c-0.91047,-0.03051 -1.84603,-0.30602 -2.73139,-0.09152c-3.79137,0.91859 -4.48358,4.62682 -9.41852,2.96424c-1.70943,-0.57591 -4.36681,-1.27769 -4.44975,-3.07961c-0.30071,-6.53258 4.97892,-4.1266 7.65808,-4.74576c1.52358,-0.35211 2.75028,-1.51583 3.98485,-2.47559c6.15381,-4.784 10.4813,-11.30095 13.88392,-18.10137c0.82335,-1.64555 1.98736,-3.23713 2.19357,-5.06559c0.42013,-3.72552 0.04289,-7.41864 -0.97274,-10.97334c0.05409,-2.4826 -0.37127,-5.05536 -1.95971,-7.11547c-1.19365,-1.54811 -3.23897,-2.22832 -4.62159,-3.6103c-0.67241,-0.6721 -1.00823,-1.6564 -1.74769,-2.2539c-1.76445,-1.42578 -4.06753,-2.02087 -6.01179,-3.18961c-0.62609,-0.37635 -1.11441,-1.06083 -1.83057,-1.20489c-3.40092,-0.68415 -7.2184,0.30821 -10.47374,1.00881c-1.1106,0.23901 -4.27836,0.37379 -5.52292,1.13791c-1.87689,1.15235 -2.9339,3.31048 -4.63754,4.70624c-1.52315,1.24788 -3.30513,2.15308 -4.84032,3.3861c0,0 -1.9694,1.57552 -3.54494,-0.39388c-1.57552,-1.9694 0.39388,-3.54494 0.39388,-3.54494c1.55522,-1.23978 3.34688,-2.1648 4.88714,-3.42312c0.21001,-0.17157 4.61123,-4.73805 5.08991,-5.02123c2.68325,-1.58734 4.25625,-1.16856 7.12279,-1.78033c4.05322,-0.86502 8.66906,-1.87511 12.87217,-0.9367c1.1333,0.25302 2.02366,1.1395 3.03317,1.71334c2.18995,1.24487 4.66082,2.05358 6.6339,3.61962c0.88174,0.69984 1.34748,1.81364 2.14331,2.60982c1.30015,1.30073 4.02551,2.79069 5.10589,4.17167c2.10472,2.69032 2.84533,6.16164 2.90403,9.42121c3.78344,13.24206 -3.24448,25.07605 -12.38729,34.23382c-0.89765,0.89912 -1.88456,1.95117 -2.95109,2.99253c0.06509,-0.00017 0.13009,-0.00093 0.19499,-0.00238c6.16073,0 12.32146,0 18.48219,0c2.99446,0 7.02651,-0.65193 9.91432,0.09152c0.91549,0.23568 1.52453,1.19379 2.43186,1.45912c1.65216,0.48313 3.44191,-0.09319 5.16325,-0.09152c3.39125,0.00331 8.00186,-0.1373 11.27966,0.55383c1.06416,0.22438 1.84841,1.26349 2.91823,1.45912c1.60034,0.29267 3.27739,-0.30978 4.88054,-0.03295c3.54426,0.61204 6.67066,2.56104 9.90328,3.95641c3.89893,1.68302 7.21979,1.91347 10.95757,4.01069l2.68635,0.8825c0,0 2.39265,0.79756 1.59509,3.19019z" fill="#ff0000" stroke="none" stroke-width="0.5"/><path d="M68.4481,397.6662c0.13615,2.86589 1.86787,6.40795 0.02543,8.60734c-1.20089,1.43354 -7.01102,1.21829 -9.15875,1.21888c-1.49445,0.00041 -6.45252,0.08384 -7.20458,-0.45233c-1.28813,-0.91835 -1.37489,-2.84976 -2.03823,-4.28594c-2.47196,-5.35196 -2.20122,-10.49131 -2.20122,-16.22682c0,-2.40009 0,-4.80017 0,-7.20026c-1.1201,-0.00135 -2.21789,0.03861 -3.2534,0.16047c-2.67027,0.31423 -5.08731,1.08334 -7.61503,1.67804c0,2.47763 0,5.39872 0,7.38138c0,5.24956 0.0935,10.86417 -1.8846,15.8654c-0.5682,1.43658 -1.19406,3.09815 -2.52127,3.88881c-1.31514,0.78347 -3.04894,0.33894 -4.57976,0.3415c-3.01248,0.00503 -8.3604,-1.07144 -10.40589,-3.45482c-0.99348,-1.15759 -1.09999,-2.84586 -1.62624,-4.27767c-2.19779,-5.97968 -1.03588,-11.47623 -0.11286,-17.62987c0.03876,-0.25844 0.0769,-0.5127 0.11486,-0.7633c-0.5342,-0.34726 -1.00674,-0.96162 -1.00674,-2.04852c0,-0.66436 0.17656,-1.15217 0.43582,-1.51036c-0.75539,-0.45329 -1.09923,-1.25557 -1.09923,-1.25557l-1.06769,-3.00442c0,-7.07107 0.30096,-14.19854 -0.28636,-21.24636c-0.00242,-3.88153 -0.00216,-7.76305 -0.00216,-11.64458c0,-4.17917 0.14527,-7.95221 0.67824,-12.08736c0.43866,-3.40348 0.14091,-7.49129 0.80227,-10.85073c0.77299,-3.92646 2.06334,-8.09482 3.25327,-11.86435c1.10295,-3.49399 1.33553,-6.79125 3.55421,-9.97249c2.06122,-2.95546 7.01416,-6.77314 10.30433,-7.84329c1.96596,-0.63944 5.93264,0.30203 7.76216,0.61583c5.60787,2.79067 10.28017,7.41973 13.00364,13.08863c0.97198,2.02318 0.55307,4.46409 1.07282,6.64764c0.24576,1.03249 1.0233,1.87249 1.35962,2.87912c0.48368,1.44768 0.48044,3.04773 1.08833,4.44779c0.63748,1.46821 1.93234,2.58298 2.59665,4.03924c0.98339,2.15569 1.09969,4.61395 1.81919,6.87147c1.79465,5.63092 3.11188,11.04942 3.85456,16.94329c0.11913,0.94543 -0.25198,1.92622 -0.05343,2.85821c0.17923,0.84131 0.96836,1.46823 1.15407,2.30813c0.22231,1.00547 -0.14677,2.07621 0.03927,3.08902c0.54577,2.97126 1.61971,5.8271 2.20043,8.79173c2.06335,4.26337 3.02862,12.87998 -0.56913,16.92832c-0.00018,6.33304 1.26403,12.58223 1.56743,18.96882z" fill="#000000" stroke="none" stroke-width="0.5"/><path d="M21.09622,321.23783c-0.80646,-0.32091 -1.57612,-0.69331 -2.18266,-1.29387c-1.62747,-1.61144 -3.54546,-6.50677 -2.63417,-8.98301c1.34169,-3.64577 7.93383,-6.03096 11.35637,-4.23131c1.22425,0.64374 1.78313,2.1369 2.45195,3.34763c2.79875,5.06639 2.53859,14.10557 -5.86559,12.83497c-0.98287,-0.1486 -2.12798,-0.7815 -3.12591,-1.67441z" fill="#1f0000" stroke="none" stroke-width="0.5"/><path d="M39.61235,308.23092c0.07457,-0.25117 0.16329,-0.46424 0.26478,-0.629c1.01779,-1.6522 2.29682,-2.39714 3.62706,-2.49857c0.39643,-0.26422 0.8726,-0.41821 1.38474,-0.41821c1.07511,0 1.99173,0.67865 2.34481,1.63093c0.5958,0.42245 1.15758,0.93601 1.66205,1.51139c1.60746,0.11744 3.06826,1.04005 3.82747,3.12793c1.13227,3.11389 -0.43968,5.16609 -2.71718,5.9941c-0.06335,0.08958 -0.12745,0.17725 -0.19227,0.26293c0.0432,0.12183 0.0809,0.25295 0.11225,0.39404c0.54233,2.44047 -1.89814,2.98279 -1.89814,2.98279c-2.20761,0.39598 -5.23604,0.28999 -6.9901,-1.0014c-2.13042,-0.41941 -3.39213,-2.46654 -3.79363,-5.56504c-0.2441,-1.88376 -0.34137,-4.50905 1.23953,-5.56207c0.35339,-0.23539 0.73288,-0.28921 1.12865,-0.22983z" fill="#1f0000" stroke="none" stroke-width="0.5"/></g></g></svg>