<svg version="1.1" xmlns="http://www.w3.org/2000/svg" xmlns:xlink="http://www.w3.org/1999/xlink" width="156.16233" height="242.19002" viewBox="0,0,156.16233,242.19002"><g transform="translate(-165.91884,-54.23724)"><g data-paper-data="{&quot;isPaintingLayer&quot;:true}" fill-rule="nonzero" stroke="none" stroke-linecap="butt" stroke-linejoin="miter" stroke-miterlimit="10" stroke-dasharray="" stroke-dashoffset="0" style="mix-blend-mode: normal"><path d="M197.01955,167.33874l-0.72119,-0.61056c-0.42571,-2.99498 -1.50693,-5.89503 -1.92404,-8.85295c-0.63496,-4.50274 0.68677,-8.46057 1.56479,-12.76976c0.8589,-4.21533 -0.17728,-7.00806 2.24595,-11.19902c0.76338,-1.32027 2.28417,-2.04931 3.20523,-3.26484c2.6908,-3.55105 4.40273,-8.50994 6.3889,-12.46937c1.51848,-2.17563 2.85648,-4.48553 4.52758,-6.54625c1.68032,-2.07208 4.36889,-3.52339 5.24859,-6.04194c0.35653,-1.02074 -0.38795,-2.25992 0.06201,-3.24306c1.08863,-2.37861 4.2418,-3.30873 5.49013,-5.60755c0.6807,-1.25353 0.09257,-3.04535 0.9738,-4.16702c1.96667,-2.50327 5.59151,-3.09716 8.10695,-5.04823c1.4914,-1.15679 3.1275,-2.18214 4.36346,-3.60862c1.04228,-1.20295 1.29118,-3.04646 2.52367,-4.05365c1.39741,-1.14196 3.24843,-1.63318 4.99431,-2.09004c3.23119,-0.84554 8.28662,-0.4566 11.50657,0.42527c1.03661,0.2839 1.92869,1.01974 2.98466,1.21996c4.30815,0.81686 5.54539,-0.67358 9.5712,1.7403c1.44265,0.86502 2.41371,2.3435 3.62057,3.51525c1.919,2.20178 3.42784,4.72986 5.1449,7.09251c1.08453,1.4923 2.85034,2.40848 3.90375,3.92291c0.23591,0.33915 2.9581,5.87814 3.26007,6.44928c2.90116,5.48721 6.11951,10.58832 7.17171,16.87413c1.03021,6.15448 0.42473,13.05277 0.42473,19.29222c0,3.57426 -0.58397,7.45628 -0.39121,10.97237c0.0641,1.16929 0.90299,2.26421 0.77009,3.42768c-0.1822,1.59506 -1.11822,3.00986 -1.67733,4.5148c-1.18522,3.78588 -1.7031,6.02639 -3.60004,9.59507c-0.75936,1.42857 -1.93945,2.61475 -2.63825,4.0739c-0.59408,1.24048 -0.56285,2.72958 -1.203,3.94693c-0.67555,1.28466 -2.02607,2.13666 -2.67804,3.43345c-0.61164,1.21657 -0.58611,2.66614 -1.0349,3.95173c-1.15778,3.31655 -2.97094,7.00331 -4.54959,10.14481c-1.42234,2.83045 -3.61687,5.20777 -5.23883,7.92875c-0.65305,1.09555 -0.61558,2.58955 -1.47783,3.52936c-0.91011,0.99198 -2.43619,1.17282 -3.54144,1.94141c-1.98838,1.38272 -3.37002,3.51112 -5.31631,4.95248c-1.12122,0.83033 -4.14616,1.96027 -5.40991,2.54753c-4.85078,2.25414 -7.28524,4.05207 -12.89579,4.05948c-1.94672,-0.47589 -3.82597,-1.26506 -5.81053,-1.54389c-0.94561,-0.13286 -1.94039,0.21009 -2.86453,-0.0303c-2.23242,-0.5807 -3.98661,-2.36674 -6.14251,-3.18711c-0.89485,-0.34051 -1.996,0.01113 -2.83758,-0.44543c-1.44122,-0.78186 -2.48753,-2.1388 -3.7817,-3.14554c-0.24918,-0.19384 -6.49735,-4.68451 -7.12566,-5.24006c-2.42329,-2.14264 -4.3309,-4.80606 -6.46777,-7.23444c-1.95903,-2.22628 -4.87777,-3.6216 -6.42992,-6.14845c-0.75942,-1.23632 -0.74344,-2.80565 -1.06506,-4.22049c-1.35328,-5.95312 -1.59236,-11.34896 -1.59236,-17.43941c0,0 0,-0.689 0.36171,-1.34358z" fill="#000000" stroke-width="0.5"/><path d="M278.21846,224.25802c1.56681,6.3804 2.07449,12.82853 3.10615,19.31188c0.27487,1.72737 0.99798,3.34079 1.15612,5.08928c0.21506,2.37779 -0.94006,4.66632 -1.11341,7.04906c-0.17126,2.35403 -0.09967,6.99391 0.26444,9.41144c0.48361,3.211 2.45997,6.82357 0.62256,10.25114c-0.80816,1.50757 -2.60563,1.73938 -3.90844,2.60908c-2.14976,0.00452 -4.32071,0.3764 -6.44929,0.01357c-3.14114,-0.53544 -6.53613,-2.76766 -9.7293,-3.62604c-1.35678,-0.36473 -3.2855,0.30396 -4.07369,-1.07596c-1.90589,-3.33671 -0.77164,-10.81195 -0.63163,-14.82158c0.23484,-6.72537 -0.77761,-13.95942 0.02012,-20.62159c0.16288,-1.36028 0.65686,-2.64153 0.82982,-4c0.84058,-6.60199 0.2343,-13.82558 0.26844,-20.50563c-0.20777,-1.23436 -0.48101,-2.45296 -0.79575,-3.65615c-8.31123,-0.54475 -16.2586,-1.5863 -24.43263,-3.00892c-1.60983,-0.28018 -3.52623,-0.66087 -5.43173,-1.16416c-0.8461,3.4211 0.30655,7.28286 -0.23686,10.72707c-0.21784,1.38072 -0.86475,2.62505 -1.10643,4c-0.28652,1.63004 0.15488,3.33883 0.03235,4.99848c-0.38458,5.20906 -1.11581,10.30436 -1.12191,15.52569c-1.10808,5.3413 -1.05572,9.92197 -1.66587,15.39064c-0.3071,2.75255 -1.23969,5.35677 -1.67028,8.08518c-0.52282,3.3128 1.6336,5.94516 -0.87125,9.3843c-1.05638,1.4504 -3.12015,0.99175 -4.71988,1.0801c-0.9393,0.05188 -1.82983,-0.56161 -2.76607,-0.66667c-2.24384,-0.25178 -6.23035,-0.5428 -8.42947,0.17444c-1.47479,0.481 -2.7379,2.5151 -4.23097,2.12446c-1.66073,-0.4345 -2.83818,-2.45179 -3.71774,-4.20409c-0.61732,-1.22984 -0.53836,-2.82662 -0.53275,-4.26394c0.00515,-1.31942 0.46137,-2.58583 0.56459,-3.89939c0.25146,-3.20023 -0.49378,-4.34349 0.40756,-7.78898c0.35656,-1.36298 0.99703,-2.63386 1.76595,-3.72186c0.35539,-0.50287 1.30386,-0.24205 1.47808,-0.86832c0.31578,-1.13512 -0.16043,-2.3866 -0.24064,-3.57991c0.36881,-0.77778 0.88866,-1.47683 1.10643,-2.33333c0.41009,-1.61294 -0.51833,-3.32099 -0.64232,-5.00131c-0.27587,-3.73887 -0.13993,-7.68502 0.63874,-11.31566c0.62467,-2.9126 1.72736,-6.58866 2.64819,-9.21946c0.978,-2.79412 2.66603,-5.79997 3.10981,-8.83682c0.95705,-6.54929 2.19037,-12.85964 2.58714,-19.4812c-0.39736,-0.72061 -0.74364,-1.42482 -1.02967,-2.08492c-1.69029,-3.90082 -1.05816,-8.25444 -1.02666,-12.32381c1.07839,-3.276 3.05771,-5.84967 4.64978,-8.93816l0.90674,-1.51491c0,0 1.39165,-2.30977 4.17495,-1.15488c0.3636,0.15087 0.65595,0.32145 0.88946,0.50401c4.25721,-0.57636 8.60811,-0.31755 12.93225,-0.31755c6.82404,0 13.49327,-0.11584 20.21046,0.96209c1.70722,0.27396 3.51051,-0.04724 5.20623,0.27215c0.72492,0.13654 1.21799,0.75924 1.93625,0.91819c0.71271,0.15772 1.50108,-0.16062 2.21285,0c2.64197,0.59619 2.8678,1.31697 5.66777,1.29472c1.97804,-0.18239 8.00778,-0.88996 9.42327,0.18339c1.63791,1.242 1.05241,5.86573 1.05241,7.67463c0,6.04472 0,12.08945 0,18.13417c0,0.95329 0.02149,4.64792 -0.11291,5.05071c-0.34223,1.02561 -1.28898,1.84077 -1.8879,2.78178c-0.4336,0.68127 -0.54463,1.54369 -1.20812,2.08262c-0.0677,0.05499 -0.13577,0.10911 -0.2042,0.16237c0.61175,6.36871 2.6287,12.68035 4.11885,18.74857z" fill="#00091f" stroke-width="0.5"/><path d="M290.9339,188.65348c-0.01837,-0.12909 -0.04834,-0.25501 -0.0985,-0.37545c-0.21038,-0.50513 -0.80755,-0.77842 -1.02966,-1.27851c-0.25576,-0.57584 -0.20472,-1.24515 -0.36221,-1.85523c-0.72716,-2.81684 -2.01238,-5.6218 -0.4544,-8.47511c0.80485,-1.474 2.93984,-2.41174 4.21857,-3.40416c1.65328,-0.50857 3.76412,-1.544 5.52002,-1.74374c0.80333,-0.09137 1.61877,0.04393 2.4255,-0.00973c3.53564,-0.23517 7.25226,-1.03988 10.63093,0.74515c0.62779,0.33168 1.04358,0.96334 1.55139,1.45959c1.74946,1.70963 5.18959,1.59192 6.09184,3.94162c0.34848,0.90753 2.33146,3.59737 2.63693,4.52025c0.2527,0.76344 -2.42061,2.3247 -2.26656,3.11397c0.14654,0.7507 -0.10393,1.52761 -0.09929,2.29247c0.00135,0.22387 0.27891,3.93124 0.04845,4.53888c-0.59989,1.58171 -1.77656,2.57635 -2.90798,3.71601c-2.36692,2.30696 -5.75068,3.62755 -8.83216,4.69964c-0.62189,0.21636 -1.17928,0.64389 -1.83019,0.74333c-0.46576,0.07115 -0.92149,-0.29084 -1.39099,-0.25123c-0.44634,0.03765 -0.82045,0.37507 -1.25717,0.47461c-1.73127,0.39462 -4.3217,0.50929 -6.0555,-0.01076c-2.74326,-0.82285 -3.705,-2.45547 -5.35302,-4.50365c-1.50164,-1.86625 -2.94418,-2.34441 -3.49487,-5.05817c-0.12483,-0.61515 0.18764,-1.24128 0.28146,-1.86192c0,0 0.34046,-1.70225 2.02741,-1.41787z" fill="#ffca89" stroke-width="0.5"/><path d="M168.60056,165.32015c-0.01836,-0.12909 -0.04833,-0.25501 -0.09849,-0.37545c-0.21038,-0.50514 -0.80755,-0.77842 -1.02967,-1.27851c-0.25576,-0.57584 -0.20472,-1.24514 -0.36221,-1.85523c-0.72716,-2.81683 -2.01239,-5.62179 -0.4544,-8.47511c0.80485,-1.474 2.93984,-2.41175 4.21857,-3.40416c1.65328,-0.50857 3.76411,-1.54401 5.52002,-1.74374c0.80333,-0.09138 1.61877,0.04392 2.4255,-0.00973c3.53564,-0.23517 7.25226,-1.03988 10.63093,0.74515c0.62779,0.33168 1.04359,0.96334 1.5514,1.45959c1.74947,1.70964 5.18959,1.59192 6.09184,3.94162c0.34847,0.90752 2.33146,3.59736 2.63693,4.52025c0.25269,0.76344 -2.42062,2.3247 -2.26656,3.11397c0.14653,0.7507 -0.10393,1.52761 -0.0993,2.29246c0.00136,0.22387 0.27891,3.93123 0.04845,4.53888c-0.59989,1.58171 -1.77656,2.57635 -2.90798,3.71601c-2.36692,2.30696 -5.75068,3.62755 -8.83216,4.69964c-0.6219,0.21637 -1.17928,0.64389 -1.83019,0.74333c-0.46576,0.07115 -0.92149,-0.29083 -1.39099,-0.25123c-0.44634,0.03765 -0.82044,0.37507 -1.25717,0.47462c-1.73126,0.39462 -4.3217,0.50929 -6.05549,-0.01076c-2.74326,-0.82285 -3.705,-2.45547 -5.35302,-4.50364c-1.50164,-1.86625 -2.94418,-2.34441 -3.49487,-5.05817c-0.12483,-0.61516 0.18764,-1.24128 0.28147,-1.86192c0,0 0.34045,-1.70225 2.0274,-1.41787z" fill="#ffca89" stroke-width="0.5"/><path d="M270.1223,82.02282c0.21853,0.1641 0.44957,0.30632 0.70242,0.41048c1.06046,0.43685 2.35055,-0.04317 3.42091,0.3688c1.23251,0.47438 2.14882,1.54201 3.28643,2.21279c5.2525,3.09708 11.3145,5.34945 13.23429,11.88737c0.99175,3.37745 -0.78268,7.93151 -1.20703,11.29753c-1.69655,3.20404 -3.29039,7.86708 -5.59677,10.7655c-1.05517,1.32602 -2.46426,2.33406 -3.58036,3.60922c-4.89157,5.58867 -9.20728,12.28966 -16.86032,14.65156c-1.42202,0.43887 -2.97443,0.11893 -4.46254,0.13607c-5.12669,0.05904 -10.05078,5.33206 -14.87045,3.1868c-1.86149,-0.82856 -8.78702,-1.87618 -10.60755,-2.79124c-1.50599,-0.75697 0.14216,-7.03297 -1.25594,-7.97441c-1.32978,-0.89543 -2.11001,-2.41807 -3.25046,-3.54479c-0.3338,-0.32978 -6.2398,-5.41304 -6.79882,-6.65519c-1.45513,-3.23332 -1.18537,-6.45139 -1.19756,-9.81732c0.08886,-6.9271 3.14666,-13.89932 6.12475,-20.05528c0.60103,-1.24238 0.79349,-2.7021 1.61082,-3.81418c0.58484,-0.79576 1.79677,-0.93469 2.43391,-1.68923c0.60571,-0.71732 0.66009,-1.77186 1.15981,-2.56666c1.98102,-3.15074 5.65031,-7.15994 8.99071,-8.95881c5.28527,-2.84622 9.13033,-1.85191 14.60842,-1.25885c4.9915,0.54039 7.83815,-0.88891 12.67632,2.31694c1.09672,0.72671 1.56158,2.1178 2.34237,3.17669c0,0 2.0183,3.02745 -0.90337,5.10619z" fill="#ffca89" stroke-width="0.5"/><path d="M247.23241,93.61215c0,-2.07107 1.67893,-3.75 3.75,-3.75c2.07107,0 3.75,1.67893 3.75,3.75c0,2.07107 -1.67893,3.75 -3.75,3.75c-2.07107,0 -3.75,-1.67893 -3.75,-3.75z" fill="#000000" stroke-width="0.5"/><path d="M281.84779,102.84292c0,-2.07107 1.67893,-3.75 3.75,-3.75c2.07107,0 3.75,1.67893 3.75,3.75c0,2.07107 -1.67893,3.75 -3.75,3.75c-2.07107,0 -3.75,-1.67893 -3.75,-3.75z" fill="#000000" stroke-width="0.5"/><path d="M278.83177,117.03042c3.12019,2.08013 1.04006,5.20031 1.04006,5.20031l-1.23777,1.72537c-0.66407,0.66407 -4.11916,4.16114 -4.59608,4.42652c-3.38158,1.88173 -7.46042,1.29261 -11.1325,1.28721c-2.71766,-0.00399 -7.37534,0.18877 -9.87996,-0.52993c-1.32642,-0.38062 -2.31825,-1.51385 -3.5669,-2.10131c-1.07835,-0.50734 -2.41959,-0.46047 -3.37947,-1.16679c-0.9944,-0.73173 -1.41238,-2.03189 -2.22755,-2.95913c-2.98074,-3.39052 -6.48512,-5.7678 -7.34096,-10.62884c-0.279,-1.58469 0.23717,-3.20937 0.35576,-4.81406c0,0 0.37314,-3.73139 4.10453,-3.35825c3.73139,0.37314 3.35825,4.10453 3.35825,4.10453c-0.13782,0.95942 -0.53129,1.91617 -0.41347,2.87825c0.32729,2.67259 4.34329,5.38684 5.73596,7.06347c0.39644,0.47727 0.34357,1.29692 0.84938,1.65626c0.55416,0.39369 1.3878,0.08714 2.00515,0.37168c0.94462,0.43538 1.59198,1.44168 2.58694,1.74484c1.91322,0.58296 5.72688,0.24264 7.81234,0.2393c1.49496,-0.0024 5.85054,0.71912 7.32904,-0.25125c1.2541,-0.82309 2.03552,-2.20508 3.09623,-3.26579l0.30069,-0.58232c0,0 2.08013,-3.12019 5.20031,-1.04006z" fill="#000000" stroke-width="0.5"/><path d="M281.47008,152.39388c0.4473,0.78699 0.692,1.73086 1.34191,2.36098c0.68647,0.66557 1.8181,0.72455 2.51533,1.37884c1.41893,1.33154 2.39642,3.07401 3.73486,4.48643c2.52401,2.66353 5.65806,5.06952 8.33899,7.57132c1.88198,1.75623 5.4363,2.67836 5.67092,5.24178c0.23765,2.59646 -1.68542,4.98273 -3.05851,7.19919c-0.55018,0.88811 -2.00192,0.94113 -2.53938,1.83699c-0.34607,0.57683 0.40787,1.35429 0.23481,2.00432c-0.35564,1.33579 -1.04436,2.57332 -1.76725,3.75156c-1.27484,2.07789 -1.84596,5.37012 -4.20536,5.98336c-2.14716,0.55807 -4.01819,-1.97968 -5.71923,-3.40383c-0.69101,-0.57853 -0.7013,-1.6768 -1.22513,-2.41014c-2.38153,-3.33411 -4.23304,-5.5269 -5.70857,-9.43742c-0.14289,-0.30532 -0.30291,-0.60265 -0.47759,-0.89206c-0.37882,1.87146 -0.78995,3.73165 -1.20357,5.57154c-0.29822,1.96466 0.35964,4.35269 -0.89466,5.89397c-1.16091,1.42653 -3.45738,1.30029 -5.25943,1.66817c-3.31427,0.6766 -6.99116,-0.41666 -10.21799,-0.77495c-8.17947,-0.90819 -16.33676,-1.97009 -24.41413,-3.09802c-5.32478,-0.74355 -11.38385,0.03625 -16.78756,0.03625c-1.06927,0 -6.36986,0.03171 -6.80304,-0.14532c-2.00204,-0.81815 -4.07713,-1.94203 -5.32302,-3.70988c-0.87075,-1.23554 -0.31339,-3.00679 -0.47009,-4.51019c0,-6.0823 -0.27559,-12.10537 -0.49686,-18.15406c-0.27441,0.06552 -0.54803,0.1332 -0.8203,0.20469c-5.77159,1.51545 -5.6984,6.4898 -13.56376,2.21514c-1.72934,-0.93986 -2.27175,-3.25251 -3.02543,-5.07073c-1.70459,-4.11225 -1.1019,-11.3374 1.20539,-15.08629c0.79135,-1.28579 5.16484,-4.62966 6.80488,-5.3041c0.83842,-0.34479 1.84481,-0.0628 2.69231,-0.38462c0.73974,-0.2809 1.22976,-1.01707 1.93644,-1.37304c2.88537,-1.45345 5.76906,-2.63504 8.85265,-3.46476c0.2326,-0.40547 0.48487,-0.79158 0.84349,-1.08061c0.94927,-0.76503 2.23587,-0.98091 3.30428,-1.56817c4.26467,-2.34411 7.408,-5.18799 12.13875,-6.79872c0,0 3.55756,-1.18585 4.74342,2.37171c0.20009,0.60028 0.26514,1.13304 0.23501,1.60397c0.75258,0.73325 1.58774,1.40368 2.13175,2.29554c0.48603,0.79681 0.32172,1.87324 0.76923,2.69231c0.83741,1.53271 2.84217,2.88811 4.47315,3.23419c4.6932,0.67202 8.80031,0.49765 13.42411,-0.06007c1.76574,-0.21298 3.57233,0.23813 5.33562,0.00571c3.95812,-0.52174 4.14706,-2.01792 8.38925,0.65776c1.09173,0.68859 1.44959,2.15729 2.3698,3.0624c0.66328,0.65239 1.68697,0.86958 2.32049,1.55091c1.0963,1.17904 1.68486,2.77146 2.78847,3.94365c1.99831,2.12248 4.51913,4.03714 5.94824,6.53503c0.92336,0.54696 1.43731,1.36928 1.43731,1.36928z" fill="#ff00e6" stroke-width="0.5"/><text transform="translate(205.0164,148.71455) scale(0.19834,0.17472)" font-size="40" xml:space="preserve" fill="#000000" fill-rule="nonzero" stroke="none" stroke-width="1" stroke-linecap="butt" stroke-linejoin="miter" stroke-miterlimit="10" stroke-dasharray="" stroke-dashoffset="0" font-family="Archivo Black" font-weight="normal" text-anchor="start" style="mix-blend-mode: normal"><tspan x="0" dy="0">yes, i'm a GIRL</tspan></text><text transform="translate(214.24832,157.23317) scale(0.20526,0.20526)" font-size="40" xml:space="preserve" fill="#000000" fill-rule="nonzero" stroke="none" stroke-width="1" stroke-linecap="butt" stroke-linejoin="miter" stroke-miterlimit="10" stroke-dasharray="" stroke-dashoffset="0" font-family="Archivo Black" font-weight="normal" text-anchor="start" style="mix-blend-mode: normal"><tspan x="0" dy="0">Good</tspan><tspan x="0" dy="46.150000000000006px">Itching</tspan><tspan x="0" dy="46.150000000000006px">Real</tspan><tspan x="0" dy="46.150000000000006px">Lice</tspan></text><path d="M197.0799,270.02481c2.19692,0 3.10678,1.28705 3.48361,2.35313c8.64583,-1.08611 18.46406,-1.88694 26.89919,-0.136c1.14501,0.23768 2.11523,1.02892 3.24303,1.33813c1.35413,0.37126 2.84995,0.17316 4.15535,0.69028c1.08781,0.43092 1.83405,1.46249 2.82986,2.07682c2.99147,1.84547 5.8892,4.29629 7.22263,7.86767c0.65432,1.75251 1.69539,3.80214 0.97188,5.52724c-0.84548,2.01592 -3.04174,3.31676 -5.04657,4.18819c-1.52501,0.66287 -3.32414,0.10358 -4.98556,0.17242c-2.74809,0.11387 -5.49666,0.26315 -8.2471,0.26422c-9.04654,0 -17.55,0.40938 -26.18003,-2.55892c-3.04838,-1.04849 -4.76627,-0.99288 -6.75677,-4.23589c-2.15496,-3.51095 -1.33952,-8.34362 -1.33952,-12.21835v-1.57895c0,0 0,-3.75 3.75,-3.75z" fill="#000000" stroke-width="0.5"/><path d="M251.50741,272.68552c0.0934,-0.8892 0.63139,-3.45018 3.73038,-3.45018c0.9457,0 1.6529,0.23849 2.18176,0.59518c0.74396,-0.11543 1.32947,-0.01785 1.32947,-0.01785c4.45901,0.77902 7.91331,3.09645 12.19538,4.28707c2.58427,0.71855 5.37399,0.72695 7.85524,1.74583c2.19317,0.90059 4.06026,2.48652 6.25048,3.39424c2.08625,0.86463 4.34257,1.5581 6.06572,3.01783c2.30042,1.94875 8.59829,8.33252 6.99208,11.52773c-1.13996,2.26772 -4.74917,1.8369 -7.21903,2.42156c-2.08913,0.49453 -4.29372,0.00208 -6.44058,0.00208c-3.68421,0 -7.36842,0 -11.05263,0c-5.68062,0 -11.13004,0.18003 -16.71086,-0.81034c-1.44606,-0.25662 -3.26415,0.34035 -4.35953,-0.63796c-4.08259,-3.64626 -3.20242,-11.08909 -2.94278,-15.98591c0.07637,-1.44024 -0.2491,-3.01863 0.3959,-4.30863c0.37373,-0.74746 1.0327,-1.27824 1.72899,-1.78066z" fill="#000000" stroke-width="0.5"/><path d="M250.04826,89.43613l-0.20617,0.10246c-1.0146,0.57977 -2.03233,1.15415 -3.05479,1.71995c-1.07657,1.26575 -1.59302,2.18179 -3.23927,2.82075c-0.825,0.3202 -2.02285,-0.13282 -2.66011,0.74938c-0.39963,0.55324 -0.45915,1.32039 -0.90647,1.83583c-1.82174,2.09919 -4.6941,3.60812 -6.57644,5.64847c-0.37642,0.40802 -0.4857,1.00292 -0.7989,1.46126c-1.88611,2.7602 -4.30649,5.24351 -6.03113,8.1099c-0.39189,0.65134 -0.57901,1.42618 -1.04436,2.02723c-2.60263,3.36154 -6.82666,5.42898 -10.62162,7.1061c-0.86466,-0.23352 -1.83175,-0.23027 -2.59399,-0.70055c-3.79003,-2.33836 -3.24757,-6.35288 -3.02926,-10.02355c0.24213,-4.07121 -0.35701,-8.07524 0.4926,-12.09718c0.19438,-0.92019 0.18651,-1.91703 0.61704,-2.75319c0.37079,-0.72013 1.24549,-1.06694 1.69638,-1.73983c1.41282,-2.10843 1.94771,-4.91312 3.64035,-6.95347c0.50782,-0.61214 1.33333,-0.88439 1.90303,-1.43941c0.99536,-0.96969 1.62553,-2.8477 2.3428,-4.01992c1.08688,-1.63052 2.22423,-3.22697 3.3147,-4.85509c0.44291,-0.66128 0.67074,-1.5031 1.27927,-2.01609c0.48229,-0.40657 1.27099,-0.2388 1.80111,-0.58067c0.61671,-0.39772 0.9291,-1.16637 1.53951,-1.57369c0.7822,-0.52196 1.7761,-0.66058 2.56821,-1.16737c1.23861,-0.79246 2.05343,-2.12202 3.22831,-3.00622c2.50397,-1.88446 5.57905,-4.72521 8.40311,-6.04361c0.9173,-0.42824 2.02934,-0.30616 2.94717,-0.73327c0.88353,-0.41115 1.51169,-1.24365 2.35405,-1.73365c2.34169,-1.36216 5.591,-2.38483 8.20004,-3.15096c0.80515,-0.23643 1.68786,-0.15652 2.47968,-0.43434c0.50335,-0.17661 0.83201,-0.69205 1.32325,-0.9c0.88469,-0.37451 1.84026,-0.55247 2.76039,-0.82871c3.80891,-0.02934 7.61808,-0.01609 11.42709,-0.01609c2.69508,0 5.23005,-0.144 7.84437,0.51356c1.25246,0.31502 2.63705,0.03411 3.84225,0.49821c0.72626,0.27967 1.14633,1.109 1.86779,1.40084c0.46461,0.18794 1.02146,-0.17594 1.50308,-0.03728c0.8425,0.24256 1.63532,0.66488 2.365,1.1509c2.11634,1.40965 3.47841,3.55326 5.17767,5.37302c2.09635,2.24501 4.11873,4.58466 6.29137,6.7573c1.6911,1.93941 2.95137,3.86875 4.35702,6.03182c0.38289,0.58921 0.91066,1.11556 1.11867,1.78675c0.20196,0.65167 -0.1264,1.39191 0.06901,2.04557c0.46498,1.55545 1.628,2.89599 1.85421,4.50362c0.21581,1.53373 0.01467,3.09765 0.01467,4.64648c0,2.64851 0.34769,5.53096 -0.01467,8.14858c-0.27883,2.01426 -0.67502,4.01685 -0.9306,6.04524c-0.45594,3.61851 -0.40922,7.19829 -1.44373,10.72306c-0.33836,1.35431 -0.47357,2.76883 -0.96709,4.07462c-0.65569,1.73487 -2.11032,3.05109 -3.20861,4.54557c-0.33966,0.46218 -0.35585,1.10472 -0.6687,1.58546c-2.12077,3.25892 -6.89151,7.41012 -11.08297,6.76959c-0.82293,-0.12576 -1.50307,-0.73126 -2.29856,-0.97667c-1.67634,-0.51714 -4.09389,-0.93819 -5.20529,-2.61639c-2.80081,-4.2292 2.52372,-7.26126 2.52372,-11.37219c0.75356,-1.37764 1.12986,-2.93026 1.69899,-4.39376c0.21958,-0.56464 0.71896,-0.99833 0.91012,-1.57322c0.27454,-0.82566 0.19191,-1.74272 0.46695,-2.56821c0.69806,-2.0951 1.79546,-3.95518 1.77604,-6.25107c-0.00658,-0.77822 -0.00304,-1.5565 0,-2.33473c0.00185,-0.47463 -0.01682,-0.95024 0.01467,-1.42382c0.01426,-0.2145 0.32009,-0.54955 0.12208,-0.63325c-0.29949,-0.1266 -0.60679,0.317 -0.93093,0.29135c-2.479,-0.19616 -5.09449,-1.53525 -6.88318,-3.18398c-1.62181,-1.4949 -1.94297,-1.9008 -2.56809,-4.33573c-0.13036,-0.50776 0.0153,-1.04841 0.01321,-1.57263c-0.00061,-0.15302 0.12945,-0.43219 -0.02128,-0.45858c-0.43439,-0.07605 -0.86895,0.1511 -1.30342,0.22665c-1.90917,-0.01518 -3.90572,-0.32542 -5.70222,-1.04331c-1.78438,-0.71306 -3.42588,-2.33578 -5.34269,-2.72325c-0.56158,-0.11352 -1.16762,0.1369 -1.71869,-0.01985c-0.6035,-0.17166 -1.02764,-0.77379 -1.63431,-0.93389c-1.11656,-0.29467 -2.32376,-0.17033 -3.46434,0.01024c-2.09617,0.33186 -0.79449,1.69576 -1.64994,2.86053c-0.47262,0.64352 -1.44046,0.70238 -2.0993,1.15339c-1.66019,1.13646 -1.5547,1.89154 -3.68106,2.51309c-0.2341,0.06843 -3.93338,0.05084 -4.12509,0.05084c0,0 -0.1932,0 -0.44174,-0.06894z" fill="#000000" stroke-width="0.5"/></g></g></svg>