<svg version="1.1" xmlns="http://www.w3.org/2000/svg" xmlns:xlink="http://www.w3.org/1999/xlink" width="106.99249" height="94.29664" viewBox="0,0,106.99249,94.29664"><g transform="translate(-193.45216,-135.95838)"><g data-paper-data="{&quot;isPaintingLayer&quot;:true}" fill-rule="nonzero" stroke="none" stroke-width="0.5" stroke-linecap="butt" stroke-linejoin="miter" stroke-miterlimit="10" stroke-dasharray="" stroke-dashoffset="0" style="mix-blend-mode: normal"><path d="M260.04269,180.99072l0.00802,0.14433l0.12551,0.07172l0.45759,1.83037v6.11834l-0.03572,0.14289l0.05547,0.11094l-0.27734,0.77656l-0.2,0.79998l-0.01305,0.00746v1.9273l-0.1093,0.4372v0.45066l-0.12602,0.50408v1.66723l-0.17516,0.70064l0.07365,0.27006l-0.242,0.40334l-0.11408,0.45633l-0.24304,0.13888l-0.00532,0.00887v0.84572l-0.45759,1.83037l-0.12551,0.07172l-0.00802,0.14433l-0.35017,0.30014v0.24197l-0.45759,1.83037l-0.49591,0.28338l-0.15464,0.54983l-0.30429,0.16229l-0.09601,0.38403l0.22961,0.12246l0.58998,0.21071l1.00402,0.66935l0.38327,0.12776h0.11191l0.70064,0.17516l0.27006,-0.07365l0.40334,0.242l0.45633,0.11408l0.13888,0.24304l0.00887,0.00532h0.13976l1.83037,0.45759l0.07172,0.12551l0.14433,0.00802l0.61327,0.71548l0.52665,0.10533h4.11973l0.27639,-0.48369l1.83037,-0.45759l1.45666,0l0.00746,-0.01305l1.83037,-0.45759h5.6477l0.4372,0.1093h0.45066l0.50408,0.12602h1.90255l1.83037,0.45759l0.49919,0.87359l0.87359,0.49919l0.22733,0.90934l0.23766,0.29251l0.54741,0.63864l0.04562,0.09123l0.0663,0.0816l-0.0051,0.0408l0.83446,1.66893l0.0337,0.15164l0.09095,0.12593l0.19158,0.47895l0.64529,0.64529l0.37157,0.61928l0.24304,0.13888l0.11408,0.45633l0.242,0.40334l-0.07365,0.27006l0.04316,0.17263l0.31628,0.52714l0.1402,0.46066l0.24063,0.41709l0.47064,1.64725l0.01701,0.51032l0.12384,0.49536v2.11789l-0.45759,1.83037l-0.12551,0.07172l-0.00802,0.14433l-0.83911,0.71923l0.10246,0.06831l-0.09095,1.63713l0.09095,1.63713l-0.1889,0.12593l-0.01574,0.28335l-1.43249,1.22785l-0.257,0.1285l-0.0204,0.0357l-0.102,0.0255l-0.09123,0.04562l-0.82111,0.18247l-0.81602,0.20401h-0.102l-0.10264,0.02281l-0.03421,-0.02281l-3.05564,0l-1.83037,-0.45759l-0.03922,-0.06864l-0.13138,-0.03285l-0.3642,0.01734l-1.1766,-0.23532l-0.64283,-0.3045l-0.66986,-0.23923l-0.48969,-0.32646h-3.36271l-0.5709,-0.14272l-0.58673,-0.04513l-0.47936,-0.15979l-0.03967,0.01082l-0.09016,-0.0541l-0.09677,-0.03226l-0.64903,-0.41302l-0.10533,0.02873l-0.40334,-0.242l-0.45633,-0.11408l-0.13888,-0.24304l-0.61928,-0.37157l-0.1392,-0.1392l-0.74988,-0.18747l-0.21153,-0.37017l-0.41806,-0.08361l-0.03764,-0.05914l-0.39065,-0.11161l-0.75273,-0.43427l-0.28801,-0.016l-0.1011,-0.11795l-0.66622,-0.14805l-0.09123,-0.04562l-0.102,-0.0255l-0.0204,-0.0357l-0.11292,-0.05646l-0.03729,-0.00932l-0.3642,0.01734l-0.82116,-0.16423h-3.63797l-0.06677,-0.01669l-0.07874,0.04231l-0.83413,-0.27053l-0.85072,-0.21268l-0.04435,-0.07761l-0.06547,-0.02123l-1.37843,-0.86152l-1.80624,-0.45156l-0.07172,-0.12551l-0.14433,-0.00802l-1.00172,-1.16867l-0.04046,0.01103l-0.40334,-0.242l-0.45633,-0.11408l-0.13888,-0.24304l-0.61928,-0.37157l-1.62625,-1.62625l-4.03757,-2.69171l-0.0105,-0.0021l-0.00405,0.0027l-0.10264,-0.02281h-0.102l-0.81602,-0.20401l-0.82111,-0.18247l-0.09123,-0.04562l-0.102,-0.0255l-0.0204,-0.0357l-0.21572,-0.10786l-0.67454,0.16863l-0.32826,0.28136l-0.257,0.1285l-0.0204,0.0357l-0.102,0.0255l-0.09123,0.04562l-0.17954,0.0399l-0.01625,0.00975l-0.0124,-0.00338l-0.18893,0.04199l-0.37616,0.30563l-0.63864,0.54741l-0.09123,0.04562l-0.0816,0.0663l-0.0408,-0.0051l-0.42787,0.21394l-0.08977,0.08161l-0.03905,0.19525l-0.58575,0.37275l-0.51374,0.46704l-0.19865,-0.0137l-0.2936,0.18684l-0.70596,0.23532l-0.72007,0.05539l-0.23291,0.15528l-0.45917,-0.10204l-0.46899,0.03608l-0.20861,-0.18665l-0.705,-0.15667l-0.47064,-0.23532l-1.43249,-1.22785l-0.00802,-0.14433l-0.12551,-0.07172l-0.45759,-1.83037v-0.70596l0.1093,-0.4372v-0.45066l0.12602,-0.50408v-0.49063l0.45759,-1.83037l0.37017,-0.21153l0.08361,-0.41806l0.02991,-0.01903v-0.58018l0.03572,-0.14289l-0.05547,-0.11094l0.27734,-0.77656l0.2,-0.79998l0.06545,-0.0374l0.20519,-0.57454l0.2,-0.79998l0.01305,-0.00746v-0.04474l0.03572,-0.14289l-0.05547,-0.11094l0.27734,-0.77656l0.2,-0.79998l0.10769,-0.06154l0.04954,-0.13871l0.11891,-0.17837l0.08153,-0.32612l0.06755,-0.12665l0.01101,-0.14312l0.42618,-1.27855l0.20122,-0.80489l0.18972,-0.35572l0.08746,-0.39355l0.47064,-0.94128l0.05884,-0.06865l-0.00211,-0.09918l0.60984,-0.60984l0.56128,-0.65482l0.09905,-0.0055l0.06393,-0.06393l0.23997,-0.14398l0.0707,-0.35352l1.59174,-1.01292l0.39205,-0.13068l0.21637,-0.26631l0.0816,-0.0612l0.06843,-0.07983l0.04106,-0.00228l0.7502,-0.56265l0.16799,-0.07073l0.00191,-0.00765l0.24304,-0.13888l0.00532,-0.00887v-1.06392l-0.24065,-0.40108l-0.24304,-0.13888l-0.03774,-0.15095l-0.05361,-0.03217l-0.43765,-0.43765l-0.08324,-0.07135l-0.35403,-0.16226l-1.1766,-0.94128l-0.12493,-0.16397l-0.17676,-0.10606l-0.81036,-0.81036h-0.2422l-0.12227,0.06521l-0.07625,0.38125l-1.59174,1.01292l-0.07171,0.0239l-0.2319,0.25509l-0.15776,0.10517l-0.08163,0.32652l-0.87359,0.49919l-0.49919,0.87359l-0.89476,0.22369l-0.21977,0.25799l-1.34586,0.96133l-0.00613,0.01838l-0.05822,0.02758l-0.23703,0.16931l-0.71517,0.28173l-0.69467,0.32905l-0.28564,0.05713l-0.05994,0.02361l-0.0176,-0.0081l-0.81343,0.16269l-0.72138,-0.03435l-0.25037,0.12519l-0.44297,-0.1582l-0.46984,-0.02237l-0.18385,-0.21109l-0.68013,-0.2429l-1.41192,-0.94128l-1.03208,-1.13529l-0.14045,-0.08026l-0.0256,-0.1024l-0.071,-0.0781l0.01113,-0.16138l-0.37212,-1.48849l0,-0.18588l-0.09114,-0.13671l-0.12879,-0.36062l-0.2242,-0.31043l-0.47064,-1.1766l-0.09368,-0.68695l-0.16815,-0.67261c0,0 0,-6.35366 0,-6.35366c0,-0.62396 0.15611,-1.21146 0.43139,-1.72557l0.0262,-0.1048l0.04826,-0.02758c0.25627,-0.43422 0.59962,-0.81092 1.00604,-1.10607c-0.24855,0.05328 -0.50647,0.08132 -0.77093,0.08132c-2.02177,0 -3.66074,-1.63897 -3.66074,-3.66074v-0.72656c-0.02688,0.04047 -0.05381,0.08081 -0.08079,0.12103c-0.54699,0.81557 -0.84628,1.83887 -1.59,2.48016c-2.29881,1.98222 -6.33794,2.34902 -9.37134,1.01301c-2.25761,1.12661 -5.1013,1.31175 -7.33711,0.38662c-0.04055,-0.01678 -0.07983,-0.0354 -0.11796,-0.05568c-0.44748,0.10753 -0.89875,0.16566 -1.34344,0.16811c-1.32395,0.00731 -2.78181,0.05312 -3.9237,-0.61693c-0.92809,-0.54459 -1.17636,-1.80229 -1.7503,-2.71252c-2.11544,-3.35496 -2.49919,-6.91288 1.74639,-8.1057c-0.51836,-2.12411 -0.57295,-4.65216 0.52866,-6.45894c0.91506,-1.50082 2.74844,-2.02862 3.90895,-3.25248c0,0 2.58853,-2.58853 5.17707,0c0.88597,0.88597 1.16547,1.77195 1.14984,2.55413l0.08614,-0.25842c0.46004,-1.49587 1.85283,-2.58319 3.49958,-2.58319c2.02177,0 3.66074,1.63897 3.66074,3.66074c0,0.37849 -0.05744,0.74356 -0.16408,1.08698l-0.376,1.31599c0.39299,1.41851 -0.11234,3.08739 -0.26247,4.49712c-0.05945,0.55823 0.07381,1.13726 -0.05695,1.6832c-0.11007,0.45956 -0.3816,0.86553 -0.58547,1.29402c0.00596,0.26499 0.00829,0.53059 0.00502,0.79506c0.14585,0.01794 0.29183,0.03535 0.43531,0.06598c0.06934,0.0148 0.03484,0.2706 0.05967,0.20419c0.27594,-0.73823 0.7991,-1.35893 1.17754,-2.05023c0.45024,-0.82244 0.93473,-1.65389 1.15267,-2.56583c0.13856,-0.57981 -0.10007,-1.23428 0.1316,-1.78356c0.17679,-0.41916 1.25311,-1.86842 1.96266,-2.81409c0.04518,-0.78582 0.07368,-1.58703 -0.04104,-2.26738c-0.54607,-3.23849 -1.38538,-5.80604 1.87173,-8.53381c1.55256,-1.30025 4.68825,-0.34789 6.58181,-0.66804c0.82234,-0.4306 1.49329,-1.14975 2.36366,-1.47242c0.2656,-0.09846 0.59364,0.30805 0.83473,0.15933c0.17319,-0.10684 -0.21265,-0.41459 -0.12399,-0.59776c0.23285,-0.48111 1.23619,-1.29926 1.42037,-1.99587c0.18513,-0.70021 0.12513,-1.46015 0.37372,-2.14042c0.15547,-0.42546 0.60205,-0.69269 0.80444,-1.0964c-2.01375,-0.06152 -4.02975,-0.11975 -6.05432,-0.11975h-1.30788c-2.02177,0 -3.66074,-1.63897 -3.66074,-3.66074c0,-1.16868 0.54764,-2.20945 1.4003,-2.87969l1.28147,-1.02517l0.13188,0.16485c0.14842,-0.19391 0.30636,-0.38081 0.47582,-0.55921c0.94848,-0.99851 3.4849,-0.91587 4.81804,-0.93097c3.06038,-0.03467 6.38607,-0.20873 8.83197,1.82775l0.00001,0.00001c0.28205,0.00213 0.56415,0.00328 0.8463,0.00328c1.62719,0 4.37696,-0.31101 5.86598,0.18786c0.86313,0.28918 1.57502,0.92514 2.2872,1.49209c0.88538,0.70482 1.71502,1.67555 2.34978,2.75211c0.59309,-0.02401 1.19958,0.02783 1.79107,0.01473c2.01936,-0.04474 4.33787,-0.10834 6.08195,1.22709c0.71874,0.55034 1.26406,1.18549 1.6745,1.8789c0.72171,-0.48664 1.57709,-0.87927 2.75523,-1.20021c0.6578,-0.17919 1.36229,-0.06161 2.04392,-0.07476c2.15368,-0.04155 4.10192,-0.17311 6.07347,0.90443c0.90535,0.49481 1.69114,1.18238 2.53671,1.77356c0.9816,2.41919 1.85869,4.59256 1.58993,7.26055c-0.10516,1.04391 0.04462,2.20012 -0.47516,3.11152c-0.52435,0.91942 -1.62665,1.35481 -2.4508,2.01894c-0.26232,0.21139 -0.51079,0.4473 -0.75776,0.68604c0.5045,0.62739 0.8064,1.42459 0.8064,2.29232c0,1.96615 -1.55002,3.57026 -3.49476,3.65705l0.07189,0.64704l-0.09475,0.01053c0.03753,0.06354 0.07472,0.1273 0.11154,0.19129c0.1988,0.34555 -0.12421,0.79502 -0.09233,1.1924c0.10799,1.34606 1.19653,2.85577 0.51041,4.01887c-0.10299,0.17459 -0.21088,0.33612 -0.32324,0.48556c0.31989,0 0.63978,0 0.95967,0v-0.00131c0.03264,-0.8035 -0.10229,-1.63167 0.09793,-2.41052c0.47124,-1.83314 2.91335,-5.77847 4.77578,-5.90603c1.88075,-0.12881 3.65178,1.37815 4.93862,2.75578c0.12081,0.12934 0.20667,0.27517 0.26693,0.43307c0.14004,-0.10208 0.28637,-0.18907 0.45155,-0.23125c1.41986,-0.3626 5.9931,-0.26499 7.06108,0.25365c0.78749,0.38242 1.43291,1.10726 1.9713,1.92823c0.73691,0.2766 1.33372,0.8528 1.98848,1.29477c0.40461,0.27312 0.75627,0.62013 1.13678,0.92607c0.32015,-0.69547 0.64755,-0.8969 1.29149,-1.32502l0.11413,-0.79893c0.22821,-1.8025 1.76711,-3.19632 3.63156,-3.19632c2.02177,0 3.66074,1.63897 3.66074,3.66074v2.0926c0.69088,1.70552 -1.02781,4.74324 -1.85693,5.72744c-0.50043,0.59403 -1.37822,0.72479 -2.01751,1.16594c-0.63262,0.43655 -1.0639,1.19492 -1.78587,1.45863c-1.00458,0.36694 -5.47219,0.56762 -6.64693,0.12158c-0.13418,-0.05095 -0.2634,-0.10208 -0.38803,-0.1536c-2.44392,0.99263 -5.91271,0.90025 -7.67829,-0.52344c-0.43421,-0.35013 -0.71341,-0.83038 -0.94107,-1.35209c-0.22143,0.00366 -0.49062,0.00642 -0.77525,0.01374c-2.08186,3.0515 -6.54069,3.99564 -10.01339,3.08594c-0.60598,-0.15874 -1.06757,-0.66945 -1.65075,-0.89818c-0.44049,-0.17277 -0.96344,-0.08654 -1.38873,-0.29394c-0.1968,-0.09597 -0.39351,-0.19843 -0.58915,-0.30701c-0.7216,-0.03117 -1.41274,-0.10625 -2.04407,-0.25139c-0.19393,0.16323 -0.39645,0.3141 -0.60654,0.45058c-0.71449,0.46416 -1.63432,0.38131 -2.51888,0.3696zM228.9699,173.7287l1.68698,0.42174c0.03555,-1.42293 0.28206,-2.88363 0.08674,-4.18526c-0.00855,-0.05699 -0.02269,-0.11352 -0.04084,-0.16967c-0.00215,-0.00143 -0.00428,-0.00287 -0.00638,-0.00431c-0.12543,0.48291 -0.22606,0.97645 -0.4409,1.42494c-0.41852,0.87365 -0.90918,1.70644 -1.44618,2.51256zM225.17161,159.51693c0.15179,0.7496 0.23097,1.49243 0.27117,2.2389c0.58432,0.46613 1.03771,1.05282 1.38801,1.72412c1.64807,-0.97916 3.72353,-1.39681 5.48596,-1.07126c0.99323,0.18346 2.07607,0.32188 2.98532,0.75169c0.66297,-0.9371 1.75531,-1.54889 2.99054,-1.54889c1.16868,0 2.20945,0.54764 2.87969,1.4003l1.02517,1.28147l-0.19985,0.15988c0.19014,0.11816 0.37606,0.24358 0.55697,0.37755c0.56095,0.41538 1.17563,3.86926 1.21732,4.58637c0.01917,0.32977 -0.27071,0.65907 -0.17538,0.97534c0.1791,0.59421 0.5983,0.82999 0.86082,1.12703c-0.00517,-0.17318 -0.14623,-0.35343 -0.13473,-0.53291c0.07003,-1.09203 0.0052,-2.2182 0.31516,-3.26766c0.33143,-1.12215 0.75576,-1.94599 1.27246,-2.61492c-0.03213,-0.38639 -0.04144,-0.78656 -0.02955,-1.20084c-0.12178,-0.51298 -0.2088,-1.00192 -0.24485,-1.40905c-0.05295,-0.59813 -0.09318,-1.20315 -0.07013,-1.80364c-0.09289,-0.08998 -0.18005,-0.18035 -0.25305,-0.27258c-0.68795,-0.86921 -1.36767,-1.74532 -2.02524,-2.63774c-1.45826,-2.87899 -2.12792,-5.1645 -1.84753,-8.42983c0.12918,-1.50437 0.25118,-3.01356 0.95979,-4.31272c-0.67523,0.2319 -1.64688,0.17838 -2.46153,0.12968c-0.20735,0.43046 -0.41526,0.85801 -0.58526,1.28379c-1.08714,2.72285 -1.67359,5.192 -3.46978,7.71544c-0.59028,0.82928 -0.90107,1.90218 -1.69344,2.54115c-0.62356,0.50283 -1.56673,0.36969 -2.30417,0.68248c-1.01785,0.43173 -1.87557,1.17881 -2.86783,1.66648c-1.25066,0.25884 -2.52665,0.45322 -3.80379,0.45972c-0.01405,0.00007 -0.02813,0.00029 -0.04225,0.00065zM206.13826,163.88719c-0.81441,0.81061 -1.36119,1.44288 -2.40531,1.94307c-0.00008,0.01404 0.00084,0.02773 0.00304,0.041c0.19812,1.19786 0.316,1.34525 1.01872,2.39638c0.28152,0.42109 0.64172,0.89581 1.00584,1.40166c0.02193,-0.95949 0.07071,-1.91679 0.09809,-2.82761c0.02517,-0.83697 -0.10232,-1.70248 0.12263,-2.50904c0.04249,-0.15236 0.09578,-0.30047 0.15699,-0.44545zM253.14848,152.02805c0.06124,-0.12329 -0.19033,-0.221 -0.20636,-0.35772c-0.08217,-0.70079 -0.16693,-1.42222 -0.07555,-2.12055c-0.4964,0.04598 -0.99747,0.05236 -1.49521,0.02664c-0.47816,-0.02471 -1.29552,-0.06799 -1.43123,0.24574c-0.14166,0.32749 0.12204,0.70664 0.12204,1.06345c0,0.44125 -0.10087,0.88691 -0.03538,1.32328c0.0385,0.25658 0.38347,2.02357 0.75345,2.32587c0.06025,0.06036 0.12346,0.11879 0.18874,0.17587c0.21947,-0.11618 0.45218,-0.2107 0.69528,-0.2807c-0.29754,-1.06842 1.01827,-1.46381 1.48422,-2.40187z" fill="#000000"/><path d="M221.69199,152.87362c1.14678,-0.41701 1.56379,0.72977 1.56379,0.72977l0.26123,0.86199c0.39003,0.31087 0.71029,0.73937 1.1701,0.9326c0.72139,0.30314 3.5838,-1.62526 3.74949,-1.73405c1.56728,-1.02907 3.62053,-2.75567 4.45091,-4.51028c0.9516,-2.01074 0.95068,-4.21106 0.94697,-6.37921c-1.1299,-0.00038 -2.26001,0.01099 -3.3905,0.05012c-2.07399,0.07179 -4.16448,0.39091 -6.23776,0.52924c0,0 -1.21754,0.08117 -1.29871,-1.13638c-0.08117,-1.21754 1.13637,-1.29871 1.13637,-1.29871c2.0891,-0.13916 4.19306,-0.45784 6.28305,-0.53184c4.49748,-0.15925 8.99398,0.14262 13.48857,-0.15493l1.42608,-0.25248c0,0 1.20182,-0.21127 1.41309,0.99054c0.21127,1.20182 -0.99055,1.41309 -0.99055,1.41309l-1.55576,0.27171c-2.61185,0.17524 -5.22261,0.15346 -7.83403,0.13272c-0.00268,2.5108 -0.05781,5.07936 -1.17557,7.39874c-1.47436,3.05934 -4.66509,5.18214 -7.52722,6.71072c-1.11136,0.59355 -2.1679,1.36732 -3.58411,0.83904c-0.95124,-0.35483 -1.62505,-1.21748 -2.43758,-1.82622l-0.58764,-1.47239c0,0 -0.41701,-1.14678 0.72977,-1.56379z" fill="#ffffff"/><path d="M252.37702,159.24962c-1.09879,0.64073 -2.33566,1.29735 -3.66401,0.82148c-2.45597,-0.87983 -2.84963,-2.53895 -3.51833,-4.67864c-1.09165,-3.49305 1.2438,-7.93064 4.91418,-8.72568c0.64122,-0.13889 3.88952,-0.02485 4.46031,0.36508c1.79458,1.22594 1.83886,2.67755 2.25963,4.48816c0.60207,2.59076 1.1793,6.26273 -1.7049,7.83614c-0.55233,0.30131 -1.2391,0.21919 -1.85866,0.32878zM253.68542,157.25216c0.11935,-0.01106 0.2359,-0.03371 0.34706,-0.07885c1.64495,-0.66787 0.66069,-4.02218 0.41727,-5.10909c-0.18215,-0.81335 -0.27554,-2.36381 -1.13585,-2.93943c-0.31767,-0.21255 -0.7638,-0.03256 -1.14593,-0.04079c-0.53629,-0.01155 -1.07944,-0.1032 -1.60914,-0.01856c-2.29447,0.36662 -3.66301,3.58668 -3.02693,5.62466c0.37097,1.18858 0.50663,2.51252 1.87618,3.04159c0.66545,0.25707 2.27659,-0.89882 2.55579,-1.06102c0,0 1.06354,-0.59824 1.66178,0.46529c0.02215,0.03938 0.04202,0.07812 0.05975,0.11621z" fill="#ffffff"/><path d="M268.19041,159.09844c0.54571,1.09142 -0.54571,1.63713 -0.54571,1.63713l-0.50082,0.24718c-3.33846,1.37035 -7.13588,1.88449 -8.91049,-2.12682c-0.2798,-0.63244 -0.27871,-1.35477 -0.41807,-2.03216c0.28186,-2.41645 0.48153,-5.35934 1.92651,-7.44184c2.05432,-2.9607 6.54172,-3.76677 9.32199,-1.48432c2.49725,2.0501 2.51233,7.26916 -0.79049,8.64359c-0.7158,0.29787 -1.55613,0.05249 -2.32552,-0.04313c-1.95307,-0.2427 -3.75851,-1.10055 -5.38231,-2.16686c-0.12848,0.82731 -0.2096,1.6535 -0.31129,2.40346c0.07286,0.3837 0.05588,0.79605 0.21858,1.1511c1.18903,2.5948 3.64154,1.73139 5.73247,0.84422l0.34805,-0.17726c0,0 1.09142,-0.54571 1.63714,0.54571zM261.20375,151.8125c1.58984,1.14437 3.16083,1.8382 5.13648,2.27683c0.35249,0.07826 0.72765,0.28402 1.06994,0.16909c1.61712,-0.54295 1.06985,-3.74528 0.05838,-4.51387c-1.70703,-1.29711 -4.52802,-0.79359 -5.74542,1.06228c-0.20484,0.31227 -0.37553,0.65019 -0.51939,1.00566z" fill="#ffffff"/><path d="M197.89865,170.64115c1.22025,0 1.22025,1.22025 1.22025,1.22025v0.10611c-0.01418,0.34952 -0.23256,1.39598 0.2922,1.70155c0.48716,0.28368 2.54029,0.86657 3.01149,-0.10798c0.45681,-0.94481 -2.45366,-3.62654 -2.69701,-4.02919c-0.92712,-1.53409 -1.92347,-4.21548 -0.71346,-5.99696c0.37752,-0.55582 1.09993,-0.77444 1.67824,-1.1165c1.19967,-0.70958 2.60575,-1.19057 3.99923,-1.22092c0,0 1.22025,0 1.22025,1.22025c0,1.22025 -1.22025,1.22025 -1.22025,1.22025c-0.39314,-0.01301 -0.80509,-0.15986 -1.17943,-0.03901c-0.59205,0.19113 -1.06207,0.64986 -1.61228,0.94026c-0.27814,0.14681 -0.67875,0.11809 -0.86835,0.36901c-0.61018,0.80753 0.44633,2.82796 0.77206,3.34058c1.16324,1.83066 4.07319,3.72901 2.82063,6.36944c-1.18048,2.48848 -4.9105,2.21283 -6.73294,0.95868c-1.42816,-0.98281 -1.17614,-2.23489 -1.21087,-3.60945v-0.10611c0,0 0,-1.22025 1.22025,-1.22025z" fill="#ffffff"/><path d="M209.95645,166.035c1.15763,0.38588 0.77175,1.54351 0.77175,1.54351l-0.25571,0.5691c0,2.38979 -0.16811,4.71129 0.392,7.042c0,0 0.27949,1.18781 -0.90832,1.46729c-1.18781,0.27949 -1.46729,-0.90832 -1.46729,-0.90832c-0.58589,-2.53644 -0.45688,-5.00884 -0.45688,-7.60097l0.38095,-1.34085c0,0 0.38588,-1.15763 1.54351,-0.77175z" fill="#ffffff"/><path d="M209.72974,162.73608c0,-0.67392 0.54632,-1.22025 1.22025,-1.22025c0.67392,0 1.22025,0.54632 1.22025,1.22025c0,0.67392 -0.54632,1.22025 -1.22025,1.22025c-0.67392,0 -1.22025,-0.54632 -1.22025,-1.22025z" fill="#ffffff"/><path d="M235.42248,178.00613c-1.15763,0.38588 -1.5435,-0.77175 -1.5435,-0.77175l-0.35144,-1.07411c-0.50772,-2.27482 -0.77813,-4.56591 -1.19034,-6.8604c-0.12951,-0.72088 -0.25634,-1.44237 -0.36768,-2.16628c-0.0648,-0.42138 0.09207,-0.9255 -0.16062,-1.26888c-0.22634,-0.30755 0.15886,0.77254 0.06837,1.14352c-0.24437,1.00183 -1.49264,2.38127 -1.93956,3.13127c-0.76762,1.28819 -1.40774,2.41081 -2.12508,3.51816l0.20328,0.10606l-1.117,2.14092c-0.19954,0.40215 -0.61436,0.67858 -1.09374,0.67858c-0.58072,0 -1.06669,-0.40565 -1.19,-0.94905l-0.31213,-1.24854l0.03319,-0.0083l-0.05321,-0.08822c-0.2029,-2.39135 -0.48263,-4.79058 -0.94215,-7.14929c-0.09398,-0.4824 -0.24604,-0.95169 -0.37616,-1.42562c-0.06481,-0.23608 -0.00832,-0.845 -0.20859,-0.70419c-0.26424,0.18578 -0.00568,0.66881 -0.15123,0.95718c-0.36271,0.71859 -0.90556,1.33118 -1.34442,2.00596c-2.01928,3.10478 -4.04488,6.2338 -5.59484,9.59893c0,0 -0.51135,1.10794 -1.61929,0.59658c-1.10794,-0.51135 -0.59658,-1.61929 -0.59658,-1.61929c1.60544,-3.47172 3.67993,-6.70153 5.76489,-9.90687c0.33456,-0.51433 2.54799,-4.03096 3.27311,-4.05818c1.04797,-0.03934 1.89317,1.02505 2.55022,1.84241c0.47763,0.59417 0.51461,1.43899 0.68492,2.18207c0.36139,1.57677 0.58318,3.2182 0.74964,4.85222c0.20847,-0.30858 0.4266,-0.61333 0.5995,-0.93909c0.82326,-1.55108 1.62738,-3.19538 2.63524,-4.6304c0.6054,-0.86199 0.92773,-2.54036 1.97832,-2.46417c1.25649,0.09112 1.92957,1.69416 2.54686,2.79236c0.43838,0.7799 0.33767,1.75718 0.50452,2.63615c0.42951,2.26268 0.66702,4.52527 1.17205,6.77094l0.28522,0.83584c0,0 0.38588,1.15762 -0.77175,1.5435z" fill="#ffffff"/><path d="M249.25514,167.24568c1.22025,0 1.22025,1.22025 1.22025,1.22025v0.31832c-0.01077,0.72965 0.14208,1.48037 -0.03232,2.18895c-0.19032,0.77329 -0.72702,1.41878 -1.03624,2.15265c-0.75717,1.79698 -1.50021,5.02774 -4.0973,5.25814c-1.8257,0.16197 -2.80918,-1.74577 -3.56039,-2.90264c-1.66335,-2.56157 -2.72337,-5.49112 -2.94297,-8.52588c0,0 -0.08117,-1.21754 1.13638,-1.29871c1.21754,-0.08117 1.29871,1.13637 1.29871,1.13637c0.15914,2.6635 1.18463,5.12435 2.57467,7.39038c0.2972,0.48451 0.59443,0.97091 0.9348,1.42612c0.10265,0.13728 0.21981,0.38281 0.38579,0.34001c1.11107,-0.28649 1.80293,-3.26269 2.0273,-3.78553c0.25876,-0.60297 0.73964,-1.11352 0.9034,-1.7489c0.13571,-0.52655 -0.02155,-1.0873 -0.03233,-1.63095v-0.31832c0,0 0,-1.22025 1.22025,-1.22025z" fill="#ffffff"/><path d="M253.8178,176.79545c-1.22025,0 -1.22025,-1.22025 -1.22025,-1.22025c0,-2.75882 0,-7.00315 0,-9.76198c0,0 0,-1.22025 1.22025,-1.22025c1.22025,0 1.22025,1.22025 1.22025,1.22025c0,2.75882 0,5.51764 0,8.27646v1.48552c0,0 0,1.22025 -1.22025,1.22025z" fill="#ffffff"/><path d="M267.95145,177.36843c-0.73215,0.9762 -1.70835,0.24405 -1.70835,0.24405l-1.41635,-1.08086c-0.55697,-0.77922 -1.13732,-1.52424 -1.73201,-2.25386c0.0057,0.3402 0.00624,0.66907 0.00755,0.97911v0.63665c0,0 0,1.22025 -1.22025,1.22025c-0.42413,0 -0.70084,-0.14742 -0.88137,-0.33978c-0.02401,0.22796 -0.12936,0.47654 -0.37795,0.72513c-0.86284,0.86284 -1.72569,0 -1.72569,0c-1.86457,-1.93492 -2.54791,-3.99246 -2.58341,-6.73058c-0.01267,-0.97692 -0.34963,-2.13975 0.23643,-2.92146c1.73669,-2.31649 3.80561,-0.30221 4.95554,0.9723c0.28346,0.13627 0.45912,0.34386 0.45912,0.34386c1.58941,1.8789 3.20352,3.64301 4.61245,5.66775l1.13026,0.82909c0,0 0.9762,0.73215 0.24405,1.70835zM260.6618,175.81647v-0.5596c0.00764,-1.56031 0.05045,-3.39885 -0.91288,-4.75605c-0.33285,-0.46895 -1.28043,-1.77717 -1.23577,-1.20384c0.1842,2.36449 0.35249,4.80875 2.10957,6.47645c0,0 0.015,0.015 0.03908,0.04304z" fill="#ffffff"/><path d="M280.26003,170.81093c0.73215,0.9762 -0.24405,1.70835 -0.24405,1.70835l-0.81227,0.51279c-1.07366,0.31566 -2.02421,0.55664 -2.97813,0.72336c0.07177,0.84477 0.08623,1.71671 0.03178,2.63865c0,0 -0.07611,1.21787 -1.29398,1.14176c-1.21787,-0.07612 -1.14176,-1.29399 -1.14176,-1.29399c0.05163,-0.77776 0.04409,-1.51384 -0.01202,-2.22622c-0.32144,0.01401 -0.65301,0.02101 -0.99839,0.02101c0,0 -1.22025,0 -1.22025,-1.22025c0,-1.22025 1.22025,-1.22025 1.22025,-1.22025c0.21348,0 0.41965,-0.00274 0.61986,-0.00827c-0.28116,-1.23527 -0.68122,-2.4616 -1.13707,-3.78601l-0.06639,-0.71533c0,0 0,-1.22025 1.22025,-1.22025c1.22025,0 1.22025,1.22025 1.22025,1.22025l-0.06639,-0.07869c0.52001,1.51186 0.96135,2.91736 1.2623,4.33806c0.83297,-0.14879 1.66712,-0.36565 2.65106,-0.65516l0.0366,-0.12386c0,0 0.9762,-0.73215 1.70835,0.24405z" fill="#ffffff"/><path d="M286.60142,177.82188c-0.10258,0.02477 -0.17065,0.03044 -0.17065,0.03044c-0.58067,0.0179 -1.19755,0.25636 -1.742,0.05371c-2.41605,-0.89929 -6.12205,-5.90665 -2.85422,-8.01617c2.82275,-1.82221 4.92937,1.08883 6.30401,2.91611c0.30892,0.41064 0.78845,0.70917 0.9896,1.18202c0.68496,1.61013 0.31403,1.94806 -0.16643,3.38363l-1.4651,0.80324c0,0 -0.53372,0 -0.89521,-0.35298zM286.84776,175.52118c-0.05885,-1.12545 -0.93796,-2.14475 -1.83991,-3.04898c-0.29394,-0.29468 -1.27139,-0.76143 -1.82335,-0.5492c-0.42858,0.16478 -0.1052,0.97704 0.13011,1.37132c0.65725,1.10128 1.63361,2.37806 2.91348,2.12593c0,0 0.30336,-0.02528 0.61967,0.10093z" fill="#ffffff"/><path d="M297.5088,173.20731c-0.70926,0.99295 -1.70221,0.2837 -1.70221,0.2837l-0.79579,-0.57065c-1.14324,-1.3753 -0.71525,0.78116 -1.0864,1.64818c-0.19616,0.45824 -0.7023,0.73708 -0.89866,1.19525c-0.28862,0.67345 -0.35202,1.42247 -0.52803,2.1337c0,0 -0.30624,1.18119 -1.48743,0.87496c-1.18119,-0.30624 -0.87496,-1.48743 -0.87496,-1.48743c0.23231,-0.86369 0.35035,-1.76656 0.69692,-2.59108c0.17763,-0.42261 0.66486,-0.66264 0.84744,-1.08313c0.72854,-1.67796 0.2845,-3.9796 3.23032,-3.69625c0.65121,0.06264 1.08357,0.73339 1.62536,1.10009l0.68973,0.49044c0,0 0.99295,0.70926 0.2837,1.70221z" fill="#ffffff"/><path d="M284.01598,217.54452c-0.38588,1.15763 -1.5435,0.77175 -1.5435,0.77175l-1.52412,-0.5143c-1.76624,-1.02996 -3.35748,-1.11478 -5.2596,-1.92219c-1.08762,-0.46167 -3.00576,-1.55441 -4.23972,-1.75337c-0.82919,-0.1337 -1.69356,0.13574 -2.51965,-0.01594c-0.51754,-0.09503 -0.89782,-0.59381 -1.41192,-0.70596c-2.54399,-0.55496 -5.53502,0.39954 -8.04627,-0.24695c-0.44294,-0.11403 -0.73761,-0.57759 -1.1766,-0.70596c-1.12359,-0.32856 -2.9581,0.04428 -4.14537,0.04428c-2.98073,0 -5.96146,0 -8.94219,0c-0.44051,-0.01476 -0.89316,-0.14806 -1.32152,-0.04428c-1.83437,0.44444 -2.16928,2.23858 -4.55694,1.43418c-0.82707,-0.27864 -2.11278,-0.61818 -2.15291,-1.49c-0.14549,-3.16064 2.40894,-1.99656 3.70519,-2.29613c0.73715,-0.17036 1.33066,-0.7334 1.92798,-1.19776c2.97738,-2.31463 5.07114,-5.46771 6.71742,-8.75794c0.39836,-0.79616 0.96154,-1.56621 1.06131,-2.45087c0.20327,-1.80251 0.02075,-3.58934 -0.47064,-5.3092c0.02617,-1.20115 -0.17963,-2.44592 -0.94816,-3.44266c-0.57752,-0.74902 -1.5671,-1.07812 -2.23605,-1.74676c-0.32533,-0.32518 -0.48781,-0.80141 -0.84558,-1.0905c-0.85369,-0.68983 -1.96798,-0.97775 -2.90867,-1.54322c-0.30292,-0.18209 -0.53918,-0.51326 -0.88568,-0.58296c-1.64546,-0.33101 -3.49246,0.14912 -5.06748,0.48809c-0.53734,0.11564 -2.06999,0.18085 -2.67214,0.55055c-0.90809,0.55754 -1.4195,1.6017 -2.24377,2.27701c-0.73694,0.60376 -1.59911,1.04172 -2.34188,1.63829c0,0 -0.95285,0.76228 -1.71514,-0.19057c-0.76228,-0.95285 0.19057,-1.71514 0.19057,-1.71514c0.75246,-0.59984 1.61931,-1.04739 2.36453,-1.6562c0.10161,-0.08301 2.23104,-2.2924 2.46264,-2.42941c1.29823,-0.768 2.05929,-0.56538 3.4462,-0.86137c1.96106,-0.41852 4.19433,-0.90723 6.22791,-0.4532c0.54832,0.12242 0.9791,0.55132 1.46753,0.82896c1.05956,0.6023 2.25503,0.99358 3.20966,1.75127c0.42661,0.3386 0.65195,0.87749 1.03699,1.2627c0.62905,0.62933 1.94765,1.35021 2.47037,2.01837c1.01832,1.30165 1.37665,2.98117 1.40505,4.55824c1.83053,6.40687 -1.56977,12.13248 -5.99331,16.56326c-0.43431,0.43502 -0.9118,0.94403 -1.42782,1.44787c0.03149,-0.00008 0.06294,-0.00045 0.09434,-0.00115c2.98073,0 5.96146,0 8.94219,0c1.4488,0 3.39962,-0.31542 4.79682,0.04428c0.44294,0.11403 0.73761,0.57759 1.1766,0.70596c0.79936,0.23375 1.66529,-0.04509 2.49812,-0.04428c1.64078,0.0016 3.87152,-0.06643 5.45741,0.26796c0.51487,0.10856 0.89431,0.61131 1.41192,0.70596c0.77429,0.1416 1.58569,-0.14988 2.36134,-0.01594c1.71481,0.29612 3.22745,1.2391 4.79148,1.91422c1.88641,0.81429 3.49313,0.92579 5.30157,1.94048l1.29973,0.42698c0,0 1.15763,0.38588 0.77175,1.5435z" fill="#ff0000"/></g></g></svg>