<svg version="1.1" xmlns="http://www.w3.org/2000/svg" xmlns:xlink="http://www.w3.org/1999/xlink" width="937.63704" height="937.63704" viewBox="0,0,937.63704,937.63704"><defs><linearGradient x1="73.2619" y1="-8.18183" x2="439.3154" y2="357.87167" gradientUnits="userSpaceOnUse" id="color-1"><stop offset="0" stop-color="#000000"/><stop offset="1" stop-color="#000000" stop-opacity="0"/></linearGradient></defs><g transform="translate(212.52987,293.9736)"><g data-paper-data="{&quot;isPaintingLayer&quot;:true}" fill-rule="nonzero" stroke="none" stroke-linecap="butt" stroke-linejoin="miter" stroke-miterlimit="10" stroke-dasharray="" stroke-dashoffset="0" style="mix-blend-mode: normal"><path d="M-78.81288,361.61176v-318.31832h614.11412v318.31832z" fill="#130c1f" stroke-width="0"/><path d="M65.22523,296.1255c0.24173,0 0.4601,0.03319 0.65734,0.09315c4.94355,-13.33249 8.71491,-27.48879 13.63353,-40.80166c3.11616,-8.43427 6.72936,-16.54931 10.16573,-24.72411c0.12369,-0.29424 4.99047,-11.89883 5.14863,-12.16718c3.70634,-6.28833 10.20511,-10.23584 13.45551,-16.95321c2.4572,-5.07813 3.51658,-11.5584 5.86367,-16.76357c2.5218,-5.5926 6.0401,-13.07795 9.37922,-17.71202c2.88236,-4.00018 7.43931,-8.28616 10.97704,-11.17961c2.80637,-2.29528 6.14289,-3.31194 8.7074,-6.12039c3.80003,-4.1615 6.15944,-11.31457 9.76576,-15.85153c1.32541,-1.66744 2.91603,-2.85385 4.37405,-4.28078c6.21279,-6.03246 12.46654,-11.97642 18.55348,-18.26275c3.92607,-4.05468 8.15021,-9.74905 12.48158,-12.83062c5.79983,-4.12632 13.23125,-5.81924 19.40807,-8.72822c7.9838,-3.75998 15.96672,-7.26769 24.12338,-10.2026c2.88904,-1.03953 5.70816,-2.64553 8.6719,-3.09175c1.30319,-0.19621 7.99028,0.05214 9.64311,0.1011c1.41769,-1.21088 2.66183,-2.98975 4.25307,-3.63264c0.41101,-0.16605 9.85722,-0.54138 10.62206,-0.57447c4.72462,-0.20442 9.90879,-0.94443 14.60214,-0.1627c8.58475,1.42987 15.13666,8.56435 21.66842,15.83902c1.43204,1.59492 3.07692,2.87277 4.28352,4.80751c2.37235,3.80395 3.00642,8.40389 5.21699,12.31053c4.13608,7.30949 10.46557,12.14902 14.55539,19.52876c3.04135,5.48786 5.27052,13.03128 7.49773,19.23548c0.17409,0.48512 4.59285,12.78046 4.66135,13.04714c3.20632,12.48295 3.92163,26.55743 6.32531,39.39158c1.17938,6.29715 2.27831,13.90712 4.17031,19.83822c0.70556,2.21181 2.07372,3.93852 2.68737,6.20493c2.28716,8.44728 1.49926,18.49757 3.60292,27.02129c1.44685,5.86244 4.32065,11.05118 5.9465,16.83134c0.30433,1.08194 2.86456,12.29111 3.16102,13.58233c-0.00863,2.30239 -0.36414,4.6554 -0.02588,6.90717c0.92703,6.17124 4.45969,12.06487 5.9222,18.06718c2.06009,8.45484 3.95641,17.09496 6.00864,25.59562c0.56025,2.32062 1.32416,4.57644 1.60855,6.99617c0.26914,2.29 0.21747,4.65814 0.03228,6.96487c-0.05421,0.6753 -1.15937,1.44725 -0.73223,1.75399c0.82727,0.5941 2.16573,-1.28158 2.77377,-0.28789c1.1469,1.87433 0.95628,4.77675 1.43441,7.16513l5.5156,4.58007c-1.82851,1.0437 -3.56115,2.52795 -5.48554,3.13109c-3.0937,0.96963 -6.33635,0.01149 -9.5045,0c-11.49612,-0.0417 -23.41562,-7.71263 -34.45918,-12.20188c-3.71919,-1.51187 -8.08188,-4.36587 -11.93927,-4.88919c-3.23649,-0.43909 -6.50508,0.21814 -9.75365,0.03154c-7.91834,-0.45484 -16.05385,-1.39424 -23.82067,-3.5905c-5.63114,-1.5992 -11.65229,-4.36776 -17.37567,-4.95219c-9.31651,-0.95134 -18.93969,0.01728 -28.28218,0.01728c-17.34735,0 -34.69469,0 -52.04204,0c-4.83981,0 -9.67972,0.01152 -14.51952,0c-2.72268,-0.00648 -6.60308,-0.04013 -8.99459,1.8229c-2.26352,1.76332 -3.72292,5.68235 -6.23586,6.52324c-0.70105,0.23459 -9.6919,0.18217 -10.79057,0.18217c-4.83891,0 -9.68081,0.05973 -14.51952,0c-1.45591,-0.01797 -2.9586,-0.63898 -4.36714,-0.11562c-2.96572,1.10193 -5.04615,5.32823 -8.01802,6.39624c-4.3537,1.5646 -9.35304,-1.05982 -13.74592,0.06979c-2.64214,0.67941 -5.22297,2.14176 -7.90796,2.17792c-3.003,0 -6.01183,0.26543 -9.00901,0c-1.188,-0.10521 -2.49989,-1.49103 -3.53975,-0.66852c-0.92224,0.72948 -0.04886,3.63181 -1.00601,4.26416c-3.26421,2.15654 -7.33369,-0.87129 -10.79398,0.54013c-1.56975,0.64029 -2.63156,2.91387 -4.19051,3.60535c-5.33313,2.36551 -12.45283,0.7872 -18.0073,0.7872c-1.50469,0 -8.30813,0.01958 -8.62026,-0.1099c-2.09843,-0.87054 -4.19149,-2.3512 -5.70726,-4.58813c-1.04539,-1.54275 -0.93467,-4.07503 -1.50568,-6.05647c-0.47072,-1.63341 -1.3468,-3.04896 -1.61493,-4.77228c-0.1549,-0.99554 0.93355,-2.31399 0.40502,-3.00409c-1.24177,-1.62139 -4.29317,-0.29994 -4.71247,-2.62018c-2.54908,-14.10584 6.02477,-11.53372 11.24508,-11.53372c1.66367,0 3.35759,0.06767 5.05533,0.1263c0.02142,-1.0928 0.05138,-1.85468 0.09311,-2.01559c0.42936,-1.65577 5.32889,-9.4154 6.28901,-11.46309c0.3205,-0.68355 0.6349,-1.38023 0.94394,-2.08749c0.12513,-2.15564 0.38355,-3.96644 0.86586,-4.84117c0.25411,-0.46086 0.69977,-0.35668 1.18077,-0.15105c0.41413,-1.06612 0.82069,-2.14207 1.2219,-3.22034c-0.05449,-0.17483 -0.10029,-0.34697 -0.13189,-0.51469v-4.26416c0,0 0,-3.54991 2.5,-3.54991z" fill="#000000" stroke-width="0.5"/><path d="M214.41942,167.27185c0.10999,0.09089 0.22032,0.18299 0.33101,0.27633c1.45047,0.54886 3.09895,0.732 4.3514,1.64659c1.29601,0.9464 1.9685,2.5376 3.02848,3.74249c3.5853,4.07547 7.54104,7.46336 9.47455,12.79499c1.14167,3.14814 0.90167,5.1454 0.90369,8.36439c0.00476,7.60678 -1.22002,15.76049 -4.2182,22.81169c-2.24602,5.28225 -5.96946,7.91931 -9.63237,12.0723c-0.63819,0.72357 -5.97674,7.6904 -6.47325,8.10623c-3.77078,3.15799 -9.64407,5.18304 -14.22613,6.72892c-1.63932,0.74464 -3.18194,1.75635 -4.91797,2.23391c-2.72294,0.74905 -5.64834,0.10464 -8.47205,0.05876c-7.90073,-0.12836 -16.2109,-1.01463 -23.50012,-4.35577c-0.24435,-0.112 -8.18812,-5.19182 -8.50162,-5.38417c-1.38355,-0.84886 -6.95286,-3.92902 -7.4889,-4.39335c-0.23363,-0.20237 -5.91184,-7.79333 -6.01421,-7.93705c-2.52524,-3.54528 -5.98736,-7.90572 -6.78431,-12.27363c-1.28026,-7.01684 3.2274,-13.09744 6.09129,-19.01888c0.69395,-1.43381 3.92441,-8.28798 4.83645,-9.40292c6.52727,-7.97937 16.97003,-8.86948 25.87854,-12.18851c7.27269,-2.70958 14.55627,-4.4701 22.10749,-6.12662c1.41776,-0.31101 2.86458,-0.75101 4.32324,-1.20701c-0.16346,-0.32195 -0.26593,-0.72562 -0.26593,-1.23178c0,-2.5 2.5,-2.5 2.5,-2.5l1.73575,0.07568c1.97705,0.49839 3.74851,1.01068 5.40298,1.61104c2.99287,-0.05191 5.99002,0.56602 8.9903,0.56384c0,0 2.5,0 2.5,2.5c0,1.75008 -1.22511,2.27505 -1.9601,2.43252z" fill="#330000" stroke-width="0.5"/><path d="M271.09373,162.76301c8.78943,-1.04756 17.84776,-1.81417 26.47408,-0.78146c7.47344,0.89468 15.51505,4.4394 22.01263,8.02684c0.00626,0.00346 7.52027,3.95774 7.90792,4.38146c0.95106,1.03956 1.08515,2.6136 1.8254,3.81245c1.88129,3.04679 3.84309,6.09003 5.17406,9.4143c0.05396,6.24991 0.67827,13.31002 -1.59289,19.30431c-0.60941,1.60843 -1.72804,2.98487 -2.39725,4.56935c-0.54384,1.28764 -2.64729,8.81524 -3.19208,9.7782c-2.30919,4.08168 -6.86638,7.71885 -10.52474,10.46135c-4.88006,3.65836 -11.49245,7.28478 -17.40687,9.02099c-2.86044,0.8397 -5.94162,0.59874 -8.86464,1.18454c-5.9322,1.18888 -11.49721,2.32665 -17.2795,-0.70024c-1.64607,-0.86168 -2.95967,-2.24689 -4.43951,-3.37033c-0.24375,-0.24183 -7.22185,-7.15162 -7.38809,-7.37068c-2.53033,-3.33432 -5.78301,-9.07879 -7.12824,-13.08486c-0.48794,-1.45308 -0.27748,-3.08056 -0.76146,-4.53496c-0.52058,-1.56439 -1.68217,-2.86166 -2.2187,-4.42065c-2.12924,-6.18683 -2.14804,-14.09903 -2.33347,-20.59323c-0.18375,-6.43553 -0.89857,-12.31836 2.53335,-17.92738c0.6612,-1.08064 1.01768,-2.4349 2.00502,-3.2287c3.47067,-2.79037 8.95124,-3.31867 12.77883,-5.53596l2.36563,-0.32939c0,0 2.09954,0 2.45052,1.92405z" fill="#330000" stroke-width="0.5"/><path d="M153.52363,643.66344l-366.0535,-366.0535l571.58354,-571.58354l366.0535,366.0535z" fill="url(#color-1)" stroke-width="0"/><g fill="#000000" stroke-width="0"><path d="M-47.39997,76.9v-98h572v98z"/><path d="M-56.39997,390.90002v-98h572v98z"/></g><text transform="translate(27.12661,335.3078) scale(0.5,0.5)" font-size="40" xml:space="preserve" fill="#ffffff" fill-rule="nonzero" stroke="none" stroke-width="1" stroke-linecap="butt" stroke-linejoin="miter" stroke-miterlimit="10" stroke-dasharray="" stroke-dashoffset="0" font-family="Archivo Black" font-weight="normal" text-anchor="start" style="mix-blend-mode: normal"><tspan x="0" dy="0">???: Lalalalalalalalalalalalalaalalalalalalala</tspan></text></g></g></svg>