<svg version="1.1" xmlns="http://www.w3.org/2000/svg" xmlns:xlink="http://www.w3.org/1999/xlink" width="552.40981" height="392" viewBox="0,0,552.40981,392"><g transform="translate(38.40981,16)"><g data-paper-data="{&quot;isPaintingLayer&quot;:true}" fill-rule="nonzero" stroke="none" stroke-width="0" stroke-linecap="butt" stroke-linejoin="miter" stroke-miterlimit="10" stroke-dasharray="" stroke-dashoffset="0" style="mix-blend-mode: normal"><path d="M-34,376v-392h548v392z" fill="#00bdff"/><path d="M-27.95037,122.6683c5.49758,-1.58509 12.17025,-1.56966 15.02911,-1.68561c1.16263,-1.5465 18.64217,-18.29316 41.19308,-18.10292c22.62555,0.23197 31.27692,8.49313 42.13947,13.06917c13.48561,-5.10336 23.03277,-7.06738 37.29499,-5.17297c13.39942,1.83412 20.18924,12.3609 20.72908,12.78616c0.26101,0.2079 7.61994,-2.72439 13.83584,-2.14257c7.98884,0.74776 10.56404,9.38318 8.81833,9.38318c-2.21815,0 -184.07879,-0.15156 -188.38077,0.11908c-4.18936,-2.02432 4.38261,-6.82304 9.34087,-8.25352z" fill="#ffffff"/><path d="M198.55351,126.58251c5.07468,-2.66069 11.23407,-2.63479 13.87303,-2.82941c1.07319,-2.59591 17.20815,-30.70637 38.02438,-30.38704c20.88513,0.38938 28.871,14.25633 38.89797,21.93754c12.44825,-8.56635 21.26101,-11.86311 34.42615,-8.6832c12.3687,3.0787 18.63622,20.74865 19.13454,21.46247c0.24093,0.34897 7.0338,-4.57308 12.77154,-3.59646c7.37432,1.25517 9.75142,15.75034 8.13999,15.75034c-2.04753,0 -169.91889,-0.25441 -173.88995,0.19988c-3.8671,-3.39796 4.04549,-11.45296 8.62235,-13.85412z" fill="#ffffff"/><path d="M76.20177,244.63825c9.35645,-1.30204 20.71282,-1.28937 25.57839,-1.3846c1.9787,-1.27034 31.72753,-15.02652 70.10745,-14.87025c38.50695,0.19055 53.23091,6.9765 71.71813,10.73539c22.95147,-4.19204 39.2,-5.80535 63.47321,-4.24923c22.80479,1.5066 34.36053,10.15359 35.2793,10.50291c0.44422,0.17077 12.96856,-2.23789 23.54753,-1.75997c13.5964,0.61423 17.97918,7.70761 15.00811,7.70761c-3.77513,0 -313.28795,-0.1245 -320.60959,0.09781c-7.12997,-1.66283 7.45887,-5.60464 15.89745,-6.77968z" fill="#ffffff"/><path d="M333.38587,48.87431c2.90737,-1.6417 6.43619,-1.62572 7.94809,-1.74581c0.61485,-1.60173 9.85884,-18.94648 21.7848,-18.74945c11.96544,0.24025 16.54068,8.79646 22.2853,13.53593c7.13181,-5.28562 12.18079,-7.31979 19.72331,-5.35772c7.08623,1.89962 10.677,12.80236 10.9625,13.2428c0.13803,0.21532 4.02978,-2.82169 7.31703,-2.21909c4.22487,0.77447 5.58675,9.71829 4.66354,9.71829c-1.17306,0 -97.34936,-0.15698 -99.62445,0.12333c-2.21553,-2.09661 2.31773,-7.06672 4.93989,-8.54829z" fill="#ffffff"/><path d="M267.35486,216.19617c6.29049,-0.90577 13.92557,-0.89695 17.19677,-0.9632c1.33031,-0.88372 21.33094,-10.45323 47.13439,-10.34452c25.88885,0.13255 35.78801,4.85322 48.21728,7.4681c15.43065,-2.9162 26.3548,-4.03851 42.67408,-2.95598c15.33203,1.04807 23.10115,7.06337 23.71885,7.30637c0.29865,0.1188 8.71898,-1.55679 15.83139,-1.22433c9.14108,0.42729 12.0877,5.36182 10.0902,5.36182c-2.53808,0 -210.62862,-0.08661 -215.55108,0.06804c-4.79359,-1.15675 5.01472,-3.89888 10.68812,-4.7163z" fill="#ffffff"/><path d="M-6.05792,313.41721c10.41368,-1.1039 23.05326,-1.09316 28.46861,-1.1739c2.20228,-1.07703 35.31257,-12.73988 78.0292,-12.60739c42.85802,0.16155 59.2457,5.91486 79.82188,9.10175c25.54485,-3.55412 43.62937,-4.92193 70.64532,-3.60261c25.3816,1.27733 38.24308,8.60848 39.26567,8.90464c0.49441,0.14479 14.43393,-1.89734 26.20827,-1.49215c15.13271,0.52076 20.01073,6.53472 16.70395,6.53472c-4.20169,0 -348.68771,-0.10555 -356.83666,0.08293c-7.93561,-1.40979 8.30168,-4.75176 17.69377,-5.74799z" fill="#ffffff"/></g></g></svg>