<svg version="1.1" xmlns="http://www.w3.org/2000/svg" xmlns:xlink="http://www.w3.org/1999/xlink" width="937.63704" height="937.63704" viewBox="0,0,937.63704,937.63704"><defs><linearGradient x1="73.2619" y1="-8.18183" x2="439.3154" y2="357.87167" gradientUnits="userSpaceOnUse" id="color-1"><stop offset="0" stop-color="#000000"/><stop offset="1" stop-color="#000000" stop-opacity="0"/></linearGradient></defs><g transform="translate(212.52987,293.9736)"><g data-paper-data="{&quot;isPaintingLayer&quot;:true}" fill-rule="nonzero" stroke-linecap="butt" stroke-linejoin="miter" stroke-miterlimit="10" stroke-dasharray="" stroke-dashoffset="0" style="mix-blend-mode: normal"><path d="M-78.81288,361.61176v-318.31832h614.11412v318.31832z" fill="#130c1f" stroke="none" stroke-width="0"/><path d="M15.78172,310.78294c0,-50.53325 30.25103,-91.49855 67.56757,-91.49855c37.31654,0 67.56757,40.9653 67.56757,91.49855c0,50.53325 -30.25103,91.49855 -67.56757,91.49855c-37.31654,0 -67.56757,-40.9653 -67.56757,-91.49855z" fill="none" stroke="#8a5f15" stroke-width="10"/><path d="M133.60656,242.29458c-0.18273,-0.33184 -0.29925,-0.75504 -0.29925,-1.29477c0,-2.5 2.5,-2.5 2.5,-2.5c4.24658,0.04852 8.09052,1.45417 12.22965,2.0519c3.11362,0.44964 7.45927,-0.71152 10.15278,1.70856c3.2407,2.91173 2.33338,7.39902 2.33338,11.14577c0,8.17644 1.15729,16.21411 1.1515,24.41066c0.444,4.88401 0.5587,9.87769 1.41003,14.69859c0.2134,1.20848 0.7931,2.35037 0.88195,3.57433c0.03485,0.48022 -0.89587,1.03889 -0.52483,1.34573c0.53382,0.44144 1.38451,-0.05484 2.07717,-0.06201c1.43033,-0.0148 2.87098,-0.17417 4.29121,-0.00389c4.5111,0.54088 6.11141,0.76517 8.76516,4.57381c2.41043,3.45943 2.09614,8.48514 -0.00539,11.99314c-0.98949,1.65172 -2.70666,2.79595 -3.6599,4.46886c-1.27138,2.23124 -2.87271,4.28171 -4.61166,6.17138c-0.86554,0.94057 -1.36488,2.32184 -2.5017,2.9062c-1.86644,0.9594 -4.20851,0.43357 -6.1994,1.0972c-10.81847,0.03788 -23.43,-5.2819 -30.31482,-13.85976c-2.79176,-3.47829 -3.08534,-5.78782 -2.87992,-10.24673c0.06393,-1.38763 -0.39882,-2.98001 0.34532,-4.15299c2.28805,-3.60665 8.92888,-3.97673 12.01784,-2.31691c0.33131,0.17802 -0.67335,-0.43491 -0.81032,-0.78519c-0.33407,-0.85431 -0.39313,-1.79257 -0.55101,-2.69619c-0.39422,-2.25637 -0.79416,-4.51853 -1.39955,-6.72763c-2.47221,-10.09301 0.61757,-20.70017 -0.92028,-30.85188c-0.37587,-2.48121 -1.62284,-4.77403 -2.02492,-7.25112c-0.27095,-1.66918 -0.20159,-3.41937 -0.75845,-5.01609l-0.57703,-1.73111c0,0 -0.08872,-0.26615 -0.11756,-0.64986z" fill="#ffca89" stroke="none" stroke-width="0.5"/><path d="M39.70002,309.9l-8.17792,-63.45455l13,-8.25206l8.17792,71.70661z" fill="#8a5f15" stroke="none" stroke-width="0"/><path d="M62.20566,309.90001l-8.17793,-78.72322l13,-10.23771l8.17793,88.96092z" fill="#8a5f15" stroke="none" stroke-width="0"/><path d="M90.33769,309.90001l-8.17793,-88.01719l13,-1.69392l8.17793,89.71111z" fill="#8a5f15" stroke="none" stroke-width="0"/><path d="M112.84331,309.90001l-8.17792,-83.97453l13,6.26642l8.17793,77.70811z" fill="#8a5f15" stroke="none" stroke-width="0"/><path d="M141.68371,207.35639c2.49508,0.31611 4.89002,1.28192 7.39638,1.49062c1.84847,0.15392 3.98483,-0.66848 5.55548,0.3182c3.05166,1.91704 4.2463,7.42188 5.18324,10.52315c2.37761,7.86984 1.33632,16.59184 1.33632,24.78063v2.50563c0,1.38071 -1.11929,2.5 -2.5,2.5c-0.99801,0 -1.85943,-0.58479 -2.26029,-1.43041l-1.21596,-2.43193c-2.03075,-1.25382 -5.92957,-0.48724 -7.94584,-0.64453c-4.02728,-0.31418 -7.92975,-1.22483 -11.94234,-1.44591c0.08867,0.54689 0.20564,1.08571 0.40011,1.60329c0.91504,2.43526 3.242,4.26678 3.82733,6.80157c0.28647,1.24058 -0.30966,2.58899 0.01687,3.81963c0.78678,2.96518 2.96556,4.53951 3.75234,7.50469c0.26007,0.98014 -0.13759,2.04398 0.04272,3.04189c0.29063,1.60845 0.9055,3.14109 1.35825,4.71164c0.61779,7.71368 0.54208,15.41589 0.54208,23.14918c0,6.25299 0.15214,13.13629 -4.37731,18.22955c-1.05212,1.18309 -2.48271,2.0586 -3.96483,2.61534c-1.7491,0.65703 -4.22664,-0.89535 -5.59244,0.37966c-0.78688,0.73457 -0.26761,2.42881 -1.17494,3.00806c-2.0648,1.31819 -4.53178,0.06572 -6.68983,0.43962c-0.97432,0.16881 -1.83307,0.81543 -2.81426,0.93809c-1.55141,0.19392 -3.14809,-0.25622 -4.69043,0c-3.30845,0.54961 -6.38198,2.18418 -9.70012,2.67184c-1.57829,0.23196 -6.00825,0.17445 -7.58589,0.1747c-2.92986,0 -5.89765,0.44604 -8.78953,-0.02417c-1.68221,-0.27352 -3.24507,-1.07577 -4.9198,-1.39192c-2.77608,-0.52406 -5.72689,0.18899 -8.45866,-0.53118c-1.34653,-0.35498 -2.37548,-1.56928 -3.73472,-1.87195c-1.46955,-0.32723 -3.02226,0.21876 -4.5165,0.0346c-0.9814,-0.12095 -1.84576,-0.73863 -2.81426,-0.93809c-1.27342,-0.26225 -2.80177,0.29341 -3.87557,-0.43961c-0.88906,-0.6069 -0.34733,-2.3197 -1.17494,-3.00806c-0.77392,-0.64371 -2.05237,-0.07581 -2.98581,-0.45265c-1.65109,-0.66657 -3.12377,-1.71188 -4.64947,-2.62983c-1.02987,-0.61964 -2.41246,-0.93944 -3.01315,-1.98048c-0.95327,-1.6521 -0.85709,-3.71782 -1.3396,-5.56318c-1.06505,-4.07333 -3.14664,-8.248 -3.79246,-12.39633c-0.88267,-5.66974 -0.03026,-12.15902 -0.03026,-17.89251c0,-9.90307 0,-19.80613 0,-29.70919c0,-2.50156 -0.07653,-5.0043 0,-7.50469c0.03704,-1.21021 -0.40527,-2.6137 0.26393,-3.62273c1.11248,-1.67739 2.99517,-2.71267 4.67408,-3.82285c0.95065,-0.62861 2.45505,-0.43743 3.1429,-1.34614c0.83687,-1.10557 0.49694,-2.7386 0.9429,-4.05152c0.50709,-1.49291 1.53278,-2.79755 1.904,-4.32991c0.26666,-1.10076 0.27499,-8.51562 0.31043,-9.43524c0.06331,-1.64269 -0.37847,-3.43034 0.19952,-4.94831c-0.87076,-1.84471 0.93251,-3.04689 0.93251,-3.04689c1.68863,-1.12525 6.40018,-4.34835 7.7642,-4.76131c2.57157,-0.77855 5.47829,0.47767 8.05559,-0.28166c1.24572,-0.36701 2.24265,-1.33953 3.46133,-1.78823c1.39075,-0.51206 2.83895,-0.93353 4.31425,-1.07464c0.55136,-0.05274 1.2413,0.94809 1.58119,0.51075c0.79116,-1.01799 -0.17301,-3.09837 0.93809,-3.75234c1.82184,-1.0723 4.22256,-0.26076 6.32059,-0.51997c1.64514,-0.20325 3.24998,-0.67846 4.897,-0.86592c4.78875,-0.54506 9.89276,-0.08168 14.71119,-0.08168c1.96666,0 4.06515,0.80044 5.89927,0.09071c1.52614,-0.59055 2.79839,-1.69718 4.19759,-2.54576c1.75714,0.00118 3.83752,-1.01205 5.27144,0.00356c1.79486,1.27125 2.17063,3.83803 3.01807,5.86767c1.87799,4.49783 1.74935,5.76727 1.90228,10.55877c0.04501,1.41012 -0.08104,2.83417 -0.179,4.2541c4.14732,-0.09214 8.5784,-0.4768 12.61475,0.03457z" fill="#fff000" stroke="none" stroke-width="0.5"/><path d="M88.85885,124.79974c3.31817,-1.18622 6.6857,-1.91719 10.69778,-2.29329c2.8332,-0.26559 8.22987,-1.22982 11.13222,0.12898c2.08006,0.97382 3.60882,2.84203 5.39742,4.28283c6.11014,4.92197 13.42853,12.01622 16.52343,19.39994c3.22423,7.6923 3.59529,16.23677 5.67603,24.21524c-0.99084,6.71101 -2.01557,13.29797 -6.11573,18.98127c-7.89731,10.9466 -20.6353,17.1721 -32.3226,23.028c-6.00589,3.00924 -13.84727,8.18096 -20.94528,7.23829c-4.23608,-0.56259 -5.46809,-2.00608 -8.90332,-4.0149c-1.79569,-1.05006 -3.89688,-1.66051 -5.44359,-3.05149c-6.11292,-5.49746 -8.89315,-15.31641 -12.00603,-22.62735c-0.72481,-3.24987 -2.07235,-6.42998 -2.13107,-9.75917c-0.13973,-7.92217 2.07832,-15.03104 5.13088,-22.20573c1.33075,-3.12777 2.07428,-6.55683 3.90875,-9.4184c0.84696,-1.32117 2.31217,-2.182 3.11409,-3.53098c2.24369,-3.77434 2.90335,-9.03998 4.90134,-12.97969c0.68104,-1.3429 1.40838,-2.77332 2.59983,-3.694c1.29724,-1.00243 3.2356,-0.87507 4.56124,-1.83962c1.19349,-0.8684 1.39297,-2.88039 2.74366,-3.47551c1.80343,-0.7946 3.93515,-0.22276 5.90273,-0.33413h2.71395c0,0 2.25458,0 2.86429,1.94972zM79.65238,128.9785c0.07565,-0.03108 0.1512,-0.06228 0.22656,-0.09365c-0.03066,-0.02402 -0.06076,-0.04875 -0.09025,-0.07416c-0.0489,0.05229 -0.09413,0.10844 -0.13631,0.16781z" fill="#ffca89" stroke="none" stroke-width="0.5"/><path d="M124.04872,137.53801c0.39132,0.53317 0.63064,1.31112 0.17874,2.36554c-0.9848,2.29787 -3.28266,1.31306 -3.28266,1.31306l-2.14352,-0.9742c-2.03536,0 -4.00945,-0.70764 -6.0015,-1.12528c-2.03839,-0.42736 -4.16519,0.05006 -6.24789,0.05105c-4.75366,0.00227 -9.46425,-0.10301 -14.17074,0.70768c-2.38092,0.41011 -7.574,1.34155 -9.32856,3.18632c-0.97332,1.02336 -1.45801,2.43526 -2.37886,3.50608c-2.5829,3.00358 -5.35684,6.10929 -8.18187,8.91856c-2.13286,3.37483 -3.44315,6.79998 -5.40793,10.18219c-0.66724,1.1486 -1.87671,1.93219 -2.49302,3.10889c-0.93908,1.79294 -0.73303,3.98556 -0.9366,5.99927c-0.42595,4.21343 0.06017,8.67081 0.0101,12.90377c-0.04922,4.16146 0.75212,6.32757 -2.77191,9.41985c-1.14223,1.00228 -2.83614,1.10602 -4.19062,1.79496c-2.19762,1.11781 -3.49328,3.07704 -5.967,3.89894c-5.71212,1.89786 -16.24049,0.81012 -19.57319,-5.01311c-0.38048,-0.66481 -0.22373,-7.83833 -0.21629,-8.65892c1.55797,-4.33271 1.70885,-8.32273 3.08955,-12.73014c1.09572,-3.49771 3.22019,-6.86016 4.09583,-10.40475c1.11741,-4.52327 1.76004,-8.92675 3.4494,-13.34665c2.16155,-5.6553 6.04807,-11.96276 10.31461,-16.24031c0.76226,-0.76423 1.88397,-1.10737 2.63392,-1.88369c2.89135,-2.99302 5.84964,-7.13508 8.31649,-10.5033c1.19988,-1.6383 1.99849,-3.74524 3.71745,-4.8264c1.13616,-0.7146 2.50411,-0.96717 3.75616,-1.45076c11.00263,-1.415 22.65732,-0.58418 33.71959,-0.07001c1.72532,0.08019 8.24475,-0.13319 9.38826,0.0478c4.21264,0.66673 10.10841,3.51214 12.24912,7.35275c0.95852,1.71968 0.71962,6.47858 0,8.19826c-0.32266,0.77106 -1.50759,0.95518 -1.81156,1.7338c-0.29416,0.75349 0.12687,1.61276 0.1903,2.41914c0,0 0,0.04373 -0.00579,0.11963z" fill="#000000" stroke="none" stroke-width="0.5"/><path d="M85.67116,164.80023c0,-1.38071 1.11929,-2.5 2.5,-2.5c1.38071,0 2.5,1.11929 2.5,2.5c0,1.38071 -1.11929,2.5 -2.5,2.5c-1.38071,0 -2.5,-1.11929 -2.5,-2.5z" fill="#000000" stroke="none" stroke-width="0.5"/><path d="M115.67866,165.92551c0,-1.38071 1.11929,-2.5 2.5,-2.5c1.38071,0 2.5,1.11929 2.5,2.5c0,1.38071 -1.11929,2.5 -2.5,2.5c-1.38071,0 -2.5,-1.11929 -2.5,-2.5z" fill="#000000" stroke="none" stroke-width="0.5"/><path d="M113.17669,189.20326c-0.02193,2.49991 -2.52183,2.47797 -2.52183,2.47797l-1.04292,-0.0103c-3.40368,-0.13748 -6.78239,-0.66493 -10.15577,-1.13852c-7.74417,-1.08719 -15.56932,-1.07896 -23.29306,-2.256c0,0 -2.47093,-0.38014 -2.09078,-2.85107c0.38014,-2.47093 2.85107,-2.09079 2.85107,-2.09079c6.06144,0.94206 12.22422,1.37312 18.34835,1.80402c4.9277,0.34672 9.59377,1.34982 14.53555,1.53618l0.89143,0.00667c0,0 2.4999,0.02193 2.47797,2.52184z" fill="#000000" stroke="none" stroke-width="0.5"/><path d="M39.44808,246.84683c0.07641,-0.31811 0.23241,-0.6576 0.49886,-1.01286c1.5,-2 3.5,-0.5 3.5,-0.5c0.72749,0.54595 5.52262,4.18625 6.04574,4.38217c3.5547,1.33129 8.07308,-2.09413 11.44082,1.48989c0.99992,1.06413 0.01124,2.97199 0.48289,4.35394c0.5312,1.55642 1.99289,2.69922 2.46225,4.27539c1.02665,3.44769 -0.31059,6.94534 0.32585,10.34422c0.30466,1.62705 1.09839,3.14107 1.36426,4.7749c0.6209,3.81563 -0.35085,7.88895 0.01565,11.73673c0.22319,2.34317 0.76109,4.67476 0.69065,7.02748c-0.03135,1.04681 -0.53996,2.14888 -0.1903,3.13606c0.30062,0.84873 1.30641,1.23942 1.95961,1.85914c0.79694,4.21697 1.29986,5.18953 0.95921,9.3295c-0.12453,1.51339 0.29148,3.37473 -0.73224,4.49628c-0.9104,0.99741 -2.70377,0.28123 -3.99362,0.68117c-1.51,0.46821 -2.8417,1.41109 -4.3438,1.90405c-4.18004,1.37182 -9.55115,1.24577 -13.8942,0.87552c-1.96158,-0.16723 -4.31804,0.49107 -5.86053,-0.73224c-1.18977,-0.94356 -0.57912,-2.98552 -0.73223,-4.49628c-0.2522,-2.48839 0,-5.00227 0,-7.50341c0,-3.0387 0.5925,-6.12837 0.03792,-9.11604c-0.48571,-2.61667 -2.24887,-4.88562 -2.72852,-7.50341c-0.36646,-2.00009 0.42087,-4.10928 0.00719,-6.10014c-0.24911,-1.19885 -1.16366,-2.20272 -1.36426,-3.41064c-0.2552,-1.53673 0.01451,-3.11553 0.02177,-4.67329c-1.94912,-3.89823 -1.03164,-7.04649 -1.41896,-11.24209c-0.30776,-3.33364 -1.08202,-6.37555 -0.69429,-9.79614c0.17836,-1.57353 -0.33554,-3.69033 0.91503,-4.66187c1.29971,-1.00972 3.29422,0.22968 4.93614,0.11619c0.09718,-0.00672 0.19351,-0.01845 0.28913,-0.03423zM37.82852,250.91668c-0.13748,-0.11248 -0.28066,-0.21269 -0.43576,-0.2851c-0.21642,-0.10104 0.11268,0.05723 0.43576,0.2851z" fill="#ffca89" stroke="none" stroke-width="0.5"/><path d="M153.52363,643.66344l-366.0535,-366.0535l571.58354,-571.58354l366.0535,366.0535z" fill="url(#color-1)" stroke="none" stroke-width="0"/><g fill="#000000" stroke="none" stroke-width="0"><path d="M-47.39997,76.9v-98h572v98z"/><path d="M-56.39997,390.90002v-98h572v98z"/></g><text transform="translate(27.12661,335.3078) scale(0.5,0.5)" font-size="40" xml:space="preserve" fill="#ffffff" fill-rule="nonzero" stroke="none" stroke-width="1" stroke-linecap="butt" stroke-linejoin="miter" stroke-miterlimit="10" stroke-dasharray="" stroke-dashoffset="0" font-family="Archivo Black" font-weight="normal" text-anchor="start" style="mix-blend-mode: normal"><tspan x="0" dy="0">joe: Huh? Where am I?</tspan></text><text transform="translate(54.2827,237.87585) scale(0.3108,0.27379)" font-size="40" xml:space="preserve" fill="#000000" fill-rule="nonzero" stroke="none" stroke-width="1" stroke-linecap="butt" stroke-linejoin="miter" stroke-miterlimit="10" stroke-dasharray="" stroke-dashoffset="0" font-family="Archivo Black" font-weight="normal" text-anchor="start" style="mix-blend-mode: normal"><tspan x="0" dy="0">yes, i'm a MAN.</tspan></text><text transform="translate(66.26793,260.85886) scale(0.32649,0.40974)" font-size="40" xml:space="preserve" fill="#000000" fill-rule="nonzero" stroke="none" stroke-width="1" stroke-linecap="butt" stroke-linejoin="miter" stroke-miterlimit="10" stroke-dasharray="" stroke-dashoffset="0" font-family="Archivo Black" font-weight="normal" text-anchor="start" style="mix-blend-mode: normal"><tspan x="0" dy="0">Masculine </tspan><tspan x="0" dy="46.15px">Ass</tspan><tspan x="0" dy="46.15px">Nice guy</tspan></text></g></g></svg>