<svg version="1.1" xmlns="http://www.w3.org/2000/svg" xmlns:xlink="http://www.w3.org/1999/xlink" width="492.37093" height="145.94721" viewBox="0,0,492.37093,145.94721"><defs><linearGradient x1="143.22382" y1="308.54247" x2="143.22382" y2="372.17884" gradientUnits="userSpaceOnUse" id="color-1"><stop offset="0" stop-color="#8f1313" stop-opacity="0"/><stop offset="1" stop-color="#8f1313" stop-opacity="0.64706"/></linearGradient><linearGradient x1="245.5704" y1="307.04097" x2="245.5704" y2="370.67734" gradientUnits="userSpaceOnUse" id="color-2"><stop offset="0" stop-color="#8f1313" stop-opacity="0"/><stop offset="1" stop-color="#8f1313" stop-opacity="0.64706"/></linearGradient></defs><g transform="translate(3.45624,-264.77474)"><g data-paper-data="{&quot;isPaintingLayer&quot;:true}" fill-rule="nonzero" stroke="none" stroke-width="0" stroke-linecap="butt" stroke-linejoin="miter" stroke-miterlimit="10" stroke-dasharray="" stroke-dashoffset="0" style="mix-blend-mode: normal"><path d="M151.90641,277.99053v90.14286h-155.36264v-90.14286z" fill="#965400"/><path d="M474.13984,319.05253v-37.2968h14.77485v37.2968z" fill="#f3ff00"/><path d="M-3.45622,282.27624v-16h163v16z" fill="#16ff00"/><path d="M131.86019,372.17884v-83.18182h23.63636v83.18182z" fill="#808080"/><path d="M131.40563,372.17884v-63.63636h23.63636v63.63636z" fill="url(#color-1)"/><path d="M326.21044,276.48903v90.14286h-92.3921v-90.14286z" data-paper-data="{&quot;index&quot;:null}" fill="#965400"/><path d="M229.2765,280.77474v-16h101.00595v16z" data-paper-data="{&quot;index&quot;:null}" fill="#16ff00"/><path d="M231.68333,370.67734v-83.18182h26.74546v83.18182z" data-paper-data="{&quot;index&quot;:null}" fill="#808080"/><path d="M232.19768,370.67734v-63.63636h26.74546v63.63636z" data-paper-data="{&quot;index&quot;:null}" fill="url(#color-2)"/><path d="M445.3474,320.57909v90.14286h-92.3921v-90.14286z" data-paper-data="{&quot;index&quot;:null}" fill="#965400"/><path d="M348.41346,324.8648v-16h101.00595v16z" data-paper-data="{&quot;index&quot;:null}" fill="#16ff00"/></g></g></svg>