<svg version="1.1" xmlns="http://www.w3.org/2000/svg" xmlns:xlink="http://www.w3.org/1999/xlink" width="146.16895" height="40.06236" viewBox="0,0,146.16895,40.06236"><g transform="translate(-106.91553,-159.96882)"><g data-paper-data="{&quot;isPaintingLayer&quot;:true}" fill="#ffffff" fill-rule="nonzero" stroke="none" stroke-width="0" stroke-linecap="butt" stroke-linejoin="miter" stroke-miterlimit="10" stroke-dasharray="" stroke-dashoffset="0" style="mix-blend-mode: normal"><path d="M114.96125,188.24044c4.2289,-2.26442 9.36173,-2.24238 11.56086,-2.40801c0.89433,-2.20929 14.34013,-26.13308 31.68698,-25.86131c17.40427,0.33138 24.05917,12.13305 32.41498,18.67025c10.37354,-7.29051 17.71751,-10.09626 28.68846,-7.38996c10.30725,2.62017 15.53018,17.65842 15.94545,18.26594c0.20078,0.297 5.8615,-3.89198 10.64295,-3.06082c6.14526,1.06823 8.12618,13.40454 6.78333,13.40454c-1.70627,0 -141.59907,-0.21652 -144.90829,0.17011c-3.22258,-2.89188 3.37124,-9.7472 7.18529,-11.79074z"/></g></g></svg>