<svg version="1.1" xmlns="http://www.w3.org/2000/svg" xmlns:xlink="http://www.w3.org/1999/xlink" width="66.55073" height="105.19373" viewBox="0,0,66.55073,105.19373"><g transform="translate(-146.72463,-127.40314)"><g data-paper-data="{&quot;isPaintingLayer&quot;:true}" fill-rule="nonzero" stroke="none" stroke-linecap="butt" stroke-linejoin="miter" stroke-miterlimit="10" stroke-dasharray="" stroke-dashoffset="0" style="mix-blend-mode: normal"><path d="M166.41773,232.59686v-44.6h30.4v44.6z" fill="#feff00" stroke-width="0"/><path d="M150.27537,161.86022c0,-17.39697 14.10303,-31.5 31.5,-31.5c17.39697,0 31.5,14.10303 31.5,31.5c0,17.39697 -14.10303,31.5 -31.5,31.5c-17.39697,0 -31.5,-14.10303 -31.5,-31.5z" fill="#ffd082" stroke-width="0"/><path d="M148.90764,164.47756c-2.48069,-0.31009 -2.17061,-2.79078 -2.17061,-2.79078l0.18069,-1.28991c0.00192,-3.01839 0.23572,-5.96161 0.46622,-8.9716c2.72491,-6.7358 7.19391,-11.84007 12.55673,-16.68245c3.18228,-2.87345 6.49716,-5.80313 10.74252,-6.78814c6.39775,-1.4844 14.3034,0.39046 20.71467,1.37126c0,0 2.47093,0.38014 2.09079,2.85107c-0.38014,2.47093 -2.85107,2.09079 -2.85107,2.09079c-3.82977,-0.59279 -7.70314,-0.87626 -11.55027,-1.39286c-2.90429,-0.38999 -6.7522,-0.94015 -9.51068,0.53709c-7.08375,3.79353 -14.16445,11.88512 -17.32513,19.15644c-0.14097,2.62181 -0.33557,5.20169 -0.33378,7.8284l-0.21931,1.91009c0,0 -0.31009,2.48069 -2.79078,2.17061z" fill="#000000" stroke-width="0.5"/><path d="M175.51773,160.79686c0,-1.38071 1.11929,-2.5 2.5,-2.5c1.38071,0 2.5,1.11929 2.5,2.5c0,1.38071 -1.11929,2.5 -2.5,2.5c-1.38071,0 -2.5,-1.11929 -2.5,-2.5z" fill="#000000" stroke-width="0.5"/><path d="M204.71773,152.19686c0,-1.38071 1.11929,-2.5 2.5,-2.5c1.38071,0 2.5,1.11929 2.5,2.5c0,1.38071 -1.11929,2.5 -2.5,2.5c-1.38071,0 -2.5,-1.11929 -2.5,-2.5z" fill="#000000" stroke-width="0.5"/><path d="M166.41773,232.59686v-12.2h30.4v12.2z" fill="#0019ff" stroke-width="0"/></g></g></svg>