<svg version="1.1" xmlns="http://www.w3.org/2000/svg" xmlns:xlink="http://www.w3.org/1999/xlink" width="654.65465" height="581.08107" viewBox="0,0,654.65465,581.08107"><g transform="translate(51.89188,170)"><g data-paper-data="{&quot;isPaintingLayer&quot;:true}" fill-rule="nonzero" stroke="none" stroke-width="0" stroke-linecap="butt" stroke-linejoin="miter" stroke-miterlimit="10" stroke-dasharray="" stroke-dashoffset="0" style="mix-blend-mode: normal"><path d="M258.01978,4.32516v-41.14623h190.93116v41.14623z" fill="#f3ff00"/><path d="M438.4979,14.70497v-22.51407h48.78049v22.51407z" fill="#16ff00"/><path d="M239.70895,21.50967v-22.51407h48.78049v22.51407z" fill="#16ff00"/><path d="M-25.10509,17.68769v-187.68769h309.54954v187.68769z" data-paper-data="{&quot;index&quot;:null}" fill="#4c4c4c"/><path d="M-51.89188,411.08107v-121.62162h654.65465v121.62162z" data-paper-data="{&quot;index&quot;:null}" fill="#4c4c4c"/><path d="M-40.1201,122.79278v-229.72973h121.86185v229.72973z" data-paper-data="{&quot;index&quot;:null}" fill="#4c4c4c"/><path d="M446.60662,411.08107v-477.47748h156.15615v477.47748z" data-paper-data="{&quot;index&quot;:null}" fill="#4c4c4c"/><path d="M430.73818,43.62069v-27.02703l30.88345,1.09401v27.02703z" data-paper-data="{&quot;index&quot;:null}" fill="#4c4c4c"/><path d="M406.79127,78.24273v-27.02703l54.83036,1.09401v27.02703z" data-paper-data="{&quot;index&quot;:null}" fill="#4c4c4c"/><path d="M394.38504,112.86478v-27.02703l67.23659,1.09401v27.02703z" data-paper-data="{&quot;index&quot;:null}" fill="#4c4c4c"/><path d="M379.18671,147.48682v-27.02703l82.43492,1.09401v27.02703z" data-paper-data="{&quot;index&quot;:null}" fill="#4c4c4c"/><path d="M315.26696,182.10886v-27.02703l146.35467,1.09401v27.02703z" data-paper-data="{&quot;index&quot;:null}" fill="#4c4c4c"/><path d="M282.15192,216.73091v-27.02703l179.46971,1.09401v27.02703z" data-paper-data="{&quot;index&quot;:null}" fill="#4c4c4c"/><path d="M227.83977,254.69011v-27.02703l233.78186,1.09401v27.02703z" data-paper-data="{&quot;index&quot;:null}" fill="#4c4c4c"/><path d="M171.33161,289.31215v-27.02702l291.22811,1.09401v27.02703z" data-paper-data="{&quot;index&quot;:null}" fill="#4c4c4c"/></g></g></svg>