<svg version="1.1" xmlns="http://www.w3.org/2000/svg" xmlns:xlink="http://www.w3.org/1999/xlink" width="824.42268" height="824.42268" viewBox="0,0,824.42268,824.42268"><g transform="translate(251.21134,150.21134)"><g data-paper-data="{&quot;isPaintingLayer&quot;:true}" fill-rule="nonzero" stroke-linecap="butt" stroke-linejoin="miter" stroke-miterlimit="10" stroke-dasharray="" stroke-dashoffset="0" style="mix-blend-mode: normal"><path d="M-230.89189,574.31231v-624.62462h783.78378v624.62462z" fill="#00b0ff" stroke="none" stroke-width="0"/><path d="M-251.21134,242.78307l412.12186,19.21693l-412.12186,19.21693z" fill="#66e5ff" stroke="#000000" stroke-width="0"/><path d="M573.21134,281.21693l-412.12186,-19.21693l412.12186,-19.21693z" data-paper-data="{&quot;index&quot;:null}" fill="#66e5ff" stroke="#000000" stroke-width="0"/><path d="M-144.06585,539.88901l305.00259,-277.82574l-277.82574,305.00259z" fill="#66e5ff" stroke="#000000" stroke-width="0"/><path d="M466.06585,-15.88901l-305.00259,277.82574l277.82574,-305.00259z" data-paper-data="{&quot;index&quot;:null}" fill="#66e5ff" stroke="#000000" stroke-width="0"/><path d="M141.78307,674.21134l19.21693,-412.12186l19.21693,412.12186z" fill="#66e5ff" stroke="#000000" stroke-width="0"/><path d="M180.21693,-150.21134l-19.21693,412.12186l-19.21693,-412.12186z" data-paper-data="{&quot;index&quot;:null}" fill="#66e5ff" stroke="#000000" stroke-width="0"/><path d="M438.88901,567.06585l-277.82574,-305.00259l305.00259,277.82574z" fill="#66e5ff" stroke="#000000" stroke-width="0"/><path d="M-116.88901,-43.06585l277.82574,305.00259l-305.00259,-277.82574z" data-paper-data="{&quot;index&quot;:null}" fill="#66e5ff" stroke="#000000" stroke-width="0"/><path d="M6.27666,644.55478l154.6937,-382.47036l-118.43124,395.20597z" fill="#66e5ff" stroke="#000000" stroke-width="0"/><path d="M315.72335,-120.55478l-154.6937,382.47036l118.43123,-395.20597z" data-paper-data="{&quot;index&quot;:null}" fill="#66e5ff" stroke="#000000" stroke-width="0"/><path d="M322.10116,641.91301l-161.06243,-379.83235l195.70929,363.19635z" fill="#66e5ff" stroke="#000000" stroke-width="0"/><path d="M-0.10116,-117.91301l161.06243,379.83235l-195.70929,-363.19635z" data-paper-data="{&quot;index&quot;:null}" fill="#66e5ff" stroke="#000000" stroke-width="0"/><path d="M543.55478,416.72335l-382.47036,-154.6937l395.20597,118.43123z" fill="#66e5ff" stroke="#000000" stroke-width="0"/><path d="M-221.55478,107.27665l382.47036,154.6937l-395.20597,-118.43123z" data-paper-data="{&quot;index&quot;:null}" fill="#66e5ff" stroke="#000000" stroke-width="0"/><path d="M540.91301,100.89885l-379.83235,161.06242l363.19635,-195.70929z" fill="#66e5ff" stroke="#000000" stroke-width="0"/><path d="M-218.91301,423.10115l379.83235,-161.06242l-363.19635,195.70929z" data-paper-data="{&quot;index&quot;:null}" fill="#66e5ff" stroke="#000000" stroke-width="0"/><path d="M186.38288,353.9602c2.6805,10.91558 3.54904,21.94703 5.314,33.03874c0.47025,2.95518 1.70734,5.71542 1.97789,8.70673c0.36792,4.06792 -1.60825,7.98313 -1.90482,12.05952c-0.29299,4.02727 -0.17052,11.96517 0.4524,16.10108c0.82736,5.49338 4.20851,11.67376 1.06507,17.53764c-1.3826,2.57915 -4.45771,2.97573 -6.68655,4.46361c-3.67781,0.00773 -7.39187,0.64394 -11.03344,0.02322c-5.37386,-0.91603 -11.182,-4.73491 -16.64487,-6.20342c-2.32118,-0.62398 -5.62083,0.52001 -6.96926,-1.84075c-3.26059,-5.70844 -1.32012,-18.49707 -1.08059,-25.35674c0.40176,-11.50576 -1.33033,-23.88176 0.03442,-35.27939c0.27865,-2.32717 1.12376,-4.51913 1.41966,-6.8432c1.43806,-11.29468 0.40084,-23.65279 0.45925,-35.08101c-0.35545,-2.11174 -0.82291,-4.19652 -1.36137,-6.25494c-14.21884,-0.93196 -27.81519,-2.71384 -41.79931,-5.14766c-2.7541,-0.47933 -6.03267,-1.13062 -9.2926,-1.99164c-1.44751,5.85281 0.52445,12.45951 -0.40522,18.35186c-0.37268,2.36213 -1.47941,4.49093 -1.89288,6.8432c-0.49018,2.78867 0.26497,5.71207 0.05534,8.55139c-0.65794,8.91165 -1.90893,17.62869 -1.91936,26.56133c-1.8957,9.13789 -1.80612,16.97449 -2.84997,26.33029c-0.52539,4.70906 -2.12086,9.16436 -2.85751,13.83212c-0.89444,5.66753 2.79476,10.17097 -1.49053,16.05465c-1.80725,2.48134 -5.33795,1.69668 -8.07477,1.84783c-1.60695,0.08876 -3.13047,-0.9608 -4.73219,-1.14054c-3.83876,-0.43074 -10.65888,-0.92862 -14.42113,0.29843c-2.52307,0.82289 -4.684,4.30283 -7.23834,3.63452c-2.84117,-0.74334 -4.85555,-4.19452 -6.36031,-7.19235c-1.05611,-2.10401 -0.92103,-4.83578 -0.91143,-7.29474c0.00881,-2.25726 0.78931,-4.42383 0.9659,-6.67107c0.4302,-5.47495 -0.84476,-7.43084 0.69725,-13.32538c0.61,-2.33178 1.70572,-4.506 3.02119,-6.36735c0.608,-0.86031 2.23064,-0.4141 2.5287,-1.48552c0.54024,-1.94196 -0.27446,-4.08299 -0.41169,-6.12451c0.63096,-1.33063 1.52032,-2.52656 1.89288,-3.99186c0.70158,-2.75942 -0.88676,-5.68155 -1.09888,-8.55624c-0.47196,-6.39645 -0.23939,-13.14752 1.09276,-19.35882c1.06868,-4.98287 2.95517,-11.27187 4.53052,-15.77264c1.67316,-4.78018 4.56104,-9.92258 5.32026,-15.11802c1.63732,-11.20452 3.74728,-22.00026 4.42608,-33.32841c-0.6798,-1.23282 -1.27222,-2.43758 -1.76156,-3.56688c-2.89175,-6.67352 -1.8103,-14.12169 -1.75641,-21.08356c1.84491,-5.60458 5.23113,-10.00761 7.95484,-15.29139l1.55125,-2.59171c0,0 2.38083,-3.95155 7.1425,-1.97577c0.62205,0.25811 1.1222,0.54994 1.52169,0.86226c7.28323,-0.98604 14.72674,-0.54326 22.12448,-0.54326c11.67456,0 23.08427,-0.19818 34.57603,1.64594c2.92071,0.46869 6.00578,-0.08082 8.90681,0.46559c1.24019,0.23359 2.08374,1.29891 3.31253,1.57084c1.2193,0.26983 2.56805,-0.27479 3.78574,0c4.51988,1.01996 4.90623,2.25307 9.69641,2.21501c3.38403,-0.31203 13.6997,-1.52254 16.12132,0.31374c2.80213,2.12481 1.80046,10.03508 1.80046,13.12975c0,10.3413 0,20.68262 0,31.02392c0,1.63089 0.03677,7.95166 -0.19317,8.64075c-0.58549,1.75461 -2.20519,3.14919 -3.22982,4.75907c-0.7418,1.16552 -0.93175,2.64094 -2.06685,3.56294c-0.11582,0.09408 -0.23228,0.18667 -0.34935,0.27778c1.04658,10.89558 4.49718,21.69353 7.04652,32.07503z" fill="#004eff" stroke="none" stroke-width="0.5"/><path d="M208.79445,293.048c-0.03143,-0.22085 -0.0827,-0.43627 -0.16851,-0.64232c-0.35992,-0.86418 -1.38156,-1.33172 -1.76154,-2.18727c-0.43755,-0.98515 -0.35023,-2.1302 -0.61967,-3.17393c-1.24402,-4.81905 -3.44278,-9.61777 -0.77739,-14.49921c1.37694,-2.52172 5.02947,-4.126 7.21712,-5.82383c2.82843,-0.87006 6.43965,-2.64147 9.44364,-2.98319c1.37434,-0.15632 2.76939,0.07516 4.14954,-0.01665c6.04877,-0.40233 12.40716,-1.77903 18.18738,1.2748c1.07402,0.56744 1.78536,1.64808 2.65412,2.49706c2.99297,2.92483 8.87834,2.72345 10.42191,6.74332c0.59618,1.5526 3.98866,6.15438 4.51126,7.73324c0.43232,1.30609 -4.14118,3.97709 -3.87763,5.32738c0.2507,1.2843 -0.1778,2.61343 -0.16987,3.92195c0.00231,0.383 0.47716,6.72556 0.08289,7.76511c-1.02629,2.70599 -3.03934,4.40762 -4.97497,6.35735c-4.04932,3.94674 -9.83826,6.20601 -15.11005,8.04014c-1.06393,0.37015 -2.01751,1.10157 -3.13109,1.27169c-0.79682,0.12172 -1.57648,-0.49757 -2.3797,-0.4298c-0.7636,0.06441 -1.40362,0.64167 -2.15076,0.81196c-2.96185,0.67512 -7.39356,0.87129 -10.35974,-0.01841c-4.69317,-1.40773 -6.33851,-4.20082 -9.15794,-7.70484c-2.569,-3.19278 -5.0369,-4.01081 -5.97902,-8.65351c-0.21356,-1.0524 0.32101,-2.12358 0.48152,-3.18537c0,0 0.58246,-2.91221 3.46849,-2.42569z" fill="#ffca89" stroke="none" stroke-width="0.5"/><path d="M-0.49328,253.12936c-0.03141,-0.22085 -0.08268,-0.43627 -0.1685,-0.64232c-0.35992,-0.86419 -1.38156,-1.33172 -1.76156,-2.18727c-0.43755,-0.98515 -0.35023,-2.13018 -0.61967,-3.17393c-1.24402,-4.81903 -3.44279,-9.61775 -0.77739,-14.49921c1.37694,-2.52172 5.02947,-4.12602 7.21712,-5.82383c2.82843,-0.87006 6.43963,-2.64149 9.44364,-2.98319c1.37434,-0.15633 2.76939,0.07514 4.14954,-0.01665c6.04877,-0.40233 12.40716,-1.77903 18.18738,1.2748c1.07402,0.56744 1.78537,1.64808 2.65413,2.49706c2.99299,2.92485 8.87834,2.72345 10.42191,6.74332c0.59616,1.55258 3.98866,6.15436 4.51126,7.73324c0.4323,1.30609 -4.14119,3.97709 -3.87763,5.32738c0.25068,1.2843 -0.1778,2.61343 -0.16988,3.92194c0.00233,0.383 0.47716,6.72554 0.08289,7.76511c-1.02629,2.70599 -3.03934,4.40762 -4.97497,6.35735c-4.04932,3.94674 -9.83826,6.20601 -15.11005,8.04014c-1.06395,0.37017 -2.01751,1.10157 -3.13109,1.27169c-0.79682,0.12172 -1.57648,-0.49755 -2.3797,-0.4298c-0.7636,0.06441 -1.40361,0.64167 -2.15076,0.81198c-2.96184,0.67512 -7.39356,0.87129 -10.35973,-0.01841c-4.69317,-1.40773 -6.33851,-4.20082 -9.15794,-7.70482c-2.569,-3.19278 -5.0369,-4.01081 -5.97902,-8.65351c-0.21356,-1.05242 0.32101,-2.12358 0.48154,-3.18537c0,0 0.58244,-2.91221 3.46847,-2.42569z" fill="#ffca89" stroke="none" stroke-width="0.5"/><path d="M173.18999,110.62439c0.37386,0.28074 0.76912,0.52405 1.2017,0.70225c1.81423,0.74736 4.02132,-0.07386 5.85249,0.63094c2.10858,0.81157 3.6762,2.63807 5.62242,3.78564c8.98597,5.29848 19.35683,9.15183 22.64121,20.3369c1.69668,5.77814 -1.33901,13.56922 -2.06499,19.3278c-2.90246,5.48147 -5.6292,13.45899 -9.57495,18.4176c-1.80518,2.26855 -4.21585,3.99311 -6.12528,6.17465c-8.36849,9.56109 -15.7518,21.02514 -28.84462,25.06587c-2.43279,0.75082 -5.08865,0.20347 -7.63451,0.23279c-8.77074,0.10101 -17.19486,9.12208 -25.44035,5.45197c-3.18463,-1.4175 -15.03282,-3.20977 -18.14738,-4.77525c-2.57645,-1.29502 0.24321,-12.032 -2.14866,-13.64261c-2.27499,-1.5319 -3.6098,-4.13683 -5.56088,-6.06442c-0.57106,-0.56419 -10.67504,-9.26062 -11.63141,-11.38569c-2.48943,-5.53156 -2.02793,-11.03703 -2.04878,-16.79546c0.15202,-11.85087 5.3833,-23.77894 10.47822,-34.31055c1.02824,-2.12546 1.3575,-4.62275 2.75579,-6.52529c1.00054,-1.36139 3.07391,-1.59907 4.16393,-2.88993c1.03625,-1.22719 1.12928,-3.0313 1.9842,-4.39104c3.38913,-5.39028 9.66654,-12.24922 15.3813,-15.32672c9.04203,-4.86931 15.62016,-3.16825 24.99207,-2.15364c8.53945,0.9245 13.4095,-1.52075 21.68663,3.96382c1.87627,1.24325 2.67155,3.62313 4.00732,5.43468c0,0 3.45291,5.17936 -1.54548,8.73566z" fill="#ffca89" stroke="none" stroke-width="0.5"/><path d="M212.73834,137.69332c-0.90445,1.32087 -2.46932,2.46357 -5.17689,2.46357c-3.99388,0 -5.50142,-2.48632 -6.07046,-4.36332c-1.05437,-0.81034 -2.09108,-1.63747 -2.90673,-2.67497c-0.90794,-1.15487 -1.04046,-2.8032 -1.73389,-4.08255c-0.25669,-0.3206 -0.50843,-0.64482 -0.75323,-0.97406c-1.11577,-0.97363 -2.9145,-1.04964 -4.0231,-2.06271c-1.38352,-1.26431 -1.8473,-3.34997 -3.26124,-4.58017c-4.45386,-3.87508 -11.5903,-7.17731 -17.32642,-7.85748c-6.56321,-3.23456 -9.46101,-4.35667 -16.56488,-4.33072c-4.80853,0.01757 -11.53017,-1.3608 -16.11933,-0.21493c-1.24259,0.31025 -2.10507,1.4673 -3.22545,2.08781c-3.06715,1.69872 -6.55272,2.59205 -9.54491,4.41961c-7.56021,4.6176 -13.11057,14.2514 -17.62229,21.57028c-2.79074,4.52713 -4.41964,10.98093 -7.6904,15.12149c-1.42477,1.80368 -3.89741,2.52153 -5.47202,4.19599c-2.4318,2.58601 -3.65061,6.09679 -5.69595,8.9981c-2.44566,1.38089 -4.63091,3.3907 -7.33695,4.14267c-2.48155,0.68959 -5.25107,0.75412 -7.72663,0.0433c-14.86185,-4.26737 -10.24201,-26.66511 -5.80924,-37.55188c3.13057,-7.68864 6.96961,-16.06656 12.13259,-22.69393c2.08208,-2.67263 5.20493,-4.36967 7.48666,-6.87402c1.22861,-1.34849 1.75063,-3.3091 3.15817,-4.46956c1.89218,-1.56003 4.33479,-2.29519 6.48259,-3.47882c8.5084,-4.68891 16.53424,-8.49449 25.57608,-12.11477c12.47359,-5.03885 27.26141,-2.5047 39.98306,0.31072c1.83446,0.40599 3.82187,0.22044 5.55772,0.93943c6.30434,2.61133 8.65866,8.2887 13.67775,12.26414c1.35509,1.07332 9.52573,6.46357 11.20934,7.91568c5.625,4.85153 8.04505,10.36366 12.12157,16.10652c0.32435,0.39472 0.626,0.81011 0.91444,1.2373c2.19838,2.85633 4.75378,5.45315 6.68149,8.49711c0,0 2.88985,4.62376 -0.92144,8.01013z" fill="#000000" stroke="none" stroke-width="0.5"/><path d="M134.02999,130.4514c0,-3.54318 2.87231,-6.4155 6.4155,-6.4155c3.54318,0 6.4155,2.87231 6.4155,6.4155c0,3.54318 -2.87231,6.4155 -6.4155,6.4155c-3.54318,0 -6.4155,-2.87231 -6.4155,-6.4155z" fill="#000000" stroke="none" stroke-width="0.5"/><path d="M193.24994,146.24339c0,-3.54318 2.87231,-6.4155 6.4155,-6.4155c3.54318,0 6.4155,2.87231 6.4155,6.4155c0,3.54318 -2.87231,6.4155 -6.4155,6.4155c-3.54318,0 -6.4155,-2.87231 -6.4155,-6.4155z" fill="#000000" stroke="none" stroke-width="0.5"/><path d="M188.09014,170.51535c5.33802,3.55868 1.77933,8.89668 1.77933,8.89668l-2.11758,2.95176c-1.13609,1.13609 -7.04705,7.11887 -7.86297,7.57289c-5.7852,3.21926 -12.76328,2.2114 -19.04547,2.20216c-4.64937,-0.00683 -12.61772,0.32295 -16.90262,-0.9066c-2.26924,-0.65116 -3.96606,-2.58989 -6.10225,-3.59492c-1.84484,-0.86796 -4.13943,-0.78777 -5.78159,-1.99614c-1.70122,-1.25184 -2.4163,-3.47616 -3.81089,-5.06248c-5.09945,-5.8005 -11.09474,-9.86755 -12.55891,-18.18381c-0.47731,-2.71109 0.40575,-5.49059 0.60863,-8.23589c0,0 0.63837,-6.38366 7.02203,-5.74529c6.38366,0.63837 5.74529,7.02203 5.74529,7.02203c-0.23578,1.64137 -0.90893,3.27818 -0.70736,4.92411c0.55993,4.57226 7.4305,9.2158 9.81307,12.08418c0.67823,0.81651 0.58778,2.21877 1.45312,2.83353c0.94806,0.67352 2.37425,0.14908 3.43041,0.63587c1.61605,0.74485 2.72356,2.46642 4.42573,2.98507c3.27313,0.99733 9.79754,0.41511 13.36534,0.40939c2.55758,-0.00411 10.0091,1.23027 12.53851,-0.42984c2.14551,-1.40814 3.48237,-3.77245 5.29703,-5.58711l0.51442,-0.99623c0,0 3.55868,-5.33802 8.89668,-1.77933z" fill="#000000" stroke="none" stroke-width="0.5"/><path d="M192.60377,231.01512c0.76524,1.34638 1.18387,2.96115 2.29574,4.03916c1.17441,1.13866 3.1104,1.23956 4.30322,2.35892c2.4275,2.278 4.09979,5.25901 6.38959,7.67538c4.31807,4.55676 9.6798,8.67293 14.26633,12.95301c3.21969,3.00456 9.30042,4.58214 9.7018,8.96763c0.40657,4.44202 -2.88341,8.52445 -5.2325,12.31637c-0.94125,1.51938 -3.42488,1.61008 -4.34437,3.14272c-0.59206,0.98684 0.69778,2.31692 0.40171,3.42899c-0.60843,2.28527 -1.78669,4.40243 -3.02341,6.41816c-2.18099,3.55485 -3.15807,9.18719 -7.19452,10.23633c-3.67336,0.95475 -6.87431,-3.38683 -9.78445,-5.82327c-1.18218,-0.98975 -1.19978,-2.86867 -2.09595,-4.12326c-4.07432,-5.70399 -7.24188,-9.45541 -9.76621,-16.14553c-0.24446,-0.52234 -0.51822,-1.03101 -0.81706,-1.52614c-0.64808,3.20169 -1.35145,6.3841 -2.05907,9.53178c-0.51019,3.36114 0.61527,7.44658 -1.53058,10.0834c-1.98608,2.44051 -5.91488,2.22453 -8.99783,2.8539c-5.67005,1.15753 -11.96047,-0.71282 -17.48093,-1.32578c-13.99343,-1.55373 -27.94891,-3.37043 -41.76766,-5.30009c-9.10963,-1.27206 -19.47548,0.06202 -28.72014,0.06202c-1.82931,0 -10.89755,0.05425 -11.63863,-0.24861c-3.42509,-1.39969 -6.97515,-3.32242 -9.10662,-6.34686c-1.48968,-2.11376 -0.53615,-5.14401 -0.80423,-7.71603c0,-10.40559 -0.47148,-20.70985 -0.85003,-31.05794c-0.46946,0.11209 -0.93757,0.22788 -1.40337,0.35018c-9.87403,2.59263 -9.74882,11.10274 -23.20486,3.78966c-2.95855,-1.60791 -3.88651,-5.56439 -5.1759,-8.675c-2.91621,-7.03523 -1.88513,-19.39601 2.06218,-25.80961c1.35384,-2.19973 8.836,-7.92042 11.64178,-9.07425c1.43437,-0.58987 3.1561,-0.10744 4.606,-0.65801c1.26555,-0.48056 2.10387,-1.74 3.31286,-2.349c4.93629,-2.48656 9.8697,-4.50802 15.1451,-5.92751c0.39793,-0.69368 0.82952,-1.35423 1.44304,-1.84871c1.62401,-1.30881 3.82512,-1.67814 5.65296,-2.68282c7.29599,-4.0103 12.6736,-8.87561 20.76696,-11.63124c0,0 6.08627,-2.02875 8.11504,4.05752c0.34231,1.02696 0.4536,1.9384 0.40205,2.74407c1.28751,1.25444 2.7163,2.40141 3.647,3.92721c0.8315,1.36318 0.5504,3.20474 1.316,4.606c1.43264,2.62216 4.86238,4.94098 7.65266,5.53305c8.02912,1.14969 15.05556,0.85138 22.96595,-0.10277c3.02083,-0.36437 6.11154,0.40739 9.12817,0.00977c6.77155,-0.89259 7.09479,-3.45226 14.35232,1.1253c1.86773,1.17804 2.47996,3.69069 4.05425,5.23915c1.13474,1.11611 2.88607,1.48768 3.96989,2.65329c1.87555,2.0171 2.88246,4.74141 4.77051,6.74679c3.41871,3.63114 7.73132,6.90673 10.17624,11.18012c1.57968,0.93574 2.45895,2.34256 2.45895,2.34256z" fill="#fff000" stroke="none" stroke-width="0.5"/><text transform="translate(61.80689,224.72054) scale(0.33932,0.29891)" font-size="40" xml:space="preserve" fill="#000000" fill-rule="nonzero" stroke="none" stroke-width="1" stroke-linecap="butt" stroke-linejoin="miter" stroke-miterlimit="10" stroke-dasharray="" stroke-dashoffset="0" font-family="Archivo Black" font-weight="normal" text-anchor="start" style="mix-blend-mode: normal"><tspan x="0" dy="0">yes, i'm a MAN.</tspan></text><text transform="translate(77.60085,246.48818) scale(0.35116,0.35116)" font-size="40" xml:space="preserve" fill="#000000" fill-rule="nonzero" stroke="none" stroke-width="1" stroke-linecap="butt" stroke-linejoin="miter" stroke-miterlimit="10" stroke-dasharray="" stroke-dashoffset="0" font-family="Archivo Black" font-weight="normal" text-anchor="start" style="mix-blend-mode: normal"><tspan x="0" dy="0">Masculine </tspan><tspan x="0" dy="46.150000000000006px">Ass</tspan><tspan x="0" dy="46.150000000000006px">Nice guy</tspan></text><path d="M48.22914,432.25797c3.75849,0 5.31508,2.20188 5.95976,4.02573c14.79128,-1.85812 31.58829,-3.22817 46.0191,-0.23267c1.95888,0.40662 3.61873,1.76028 5.54817,2.28927c2.31664,0.63515 4.87569,0.29624 7.10897,1.18093c1.86102,0.73722 3.13769,2.50203 4.84132,3.55302c5.1178,3.15723 10.07524,7.35009 12.35647,13.46c1.11941,2.99819 2.90047,6.5047 1.66269,9.456c-1.44645,3.44883 -5.20381,5.67431 -8.63367,7.16515c-2.60899,1.13404 -5.68693,0.1772 -8.52929,0.29498c-4.70143,0.19481 -9.40368,0.4502 -14.10913,0.45203c-15.47681,0 -30.02452,0.70037 -44.78876,-4.3778c-5.21516,-1.79376 -8.15413,-1.69862 -11.55947,-7.24676c-3.6867,-6.00653 -2.29165,-14.27426 -2.29165,-20.90314v-2.70127c0,0 0,-6.4155 6.4155,-6.4155z" fill="#000000" stroke="none" stroke-width="0.5"/><path d="M141.34366,436.80991c0.15979,-1.52124 1.08018,-5.90256 6.38193,-5.90256c1.6179,0 2.82778,0.40801 3.73255,1.01823c1.27277,-0.19748 2.27446,-0.03054 2.27446,-0.03054c7.62847,1.33275 13.53808,5.2974 20.86384,7.33431c4.42117,1.22929 9.19382,1.24367 13.43874,2.98676c3.75207,1.54073 6.94629,4.25394 10.69331,5.80686c3.56915,1.47921 7.42926,2.6656 10.37723,5.1629c3.93556,3.33392 14.70994,14.25527 11.96204,19.72163c-1.95024,3.87961 -8.12487,3.14257 -12.35031,4.1428c-3.57408,0.84604 -7.34569,0.00356 -11.01854,0.00356c-6.30294,0 -12.60588,0 -18.90883,0c-9.7184,0 -19.04126,0.308 -28.58892,-1.38633c-2.47392,-0.43903 -5.5843,0.58227 -7.45828,-1.09142c-6.98449,-6.23802 -5.4787,-18.9712 -5.0345,-27.34868c0.13065,-2.46396 -0.42616,-5.16427 0.67731,-7.3712c0.63938,-1.27875 1.76674,-2.18681 2.95795,-3.04635z" fill="#000000" stroke="none" stroke-width="0.5"/><path d="M292.54974,67.11182c0.37406,1.8472 0.56917,3.67773 0.66824,5.51725c1.43992,1.14866 2.55718,2.59443 3.42041,4.24868c4.06126,-2.41289 9.17575,-3.4421 13.51884,-2.63988c2.44758,0.4521 5.11598,0.7932 7.35661,1.85236c1.63372,-2.30926 4.32553,-3.81688 7.36947,-3.81688c2.87993,0 5.44466,1.34953 7.0963,3.45071l2.5263,3.15787l-0.49249,0.39399c0.46856,0.29119 0.9267,0.60025 1.37252,0.93038c1.38233,1.02361 2.89706,9.53487 2.99979,11.30202c0.04723,0.81264 -0.6671,1.62411 -0.43219,2.40349c0.44136,1.46429 1.47436,2.04531 2.12129,2.77728c-0.01275,-0.42677 -0.36036,-0.87095 -0.332,-1.31323c0.17258,-2.69104 0.01281,-5.46622 0.77663,-8.05236c0.81673,-2.76527 1.8624,-4.79542 3.13568,-6.44385c-0.07918,-0.95217 -0.10213,-1.93828 -0.07283,-2.95917c-0.3001,-1.26411 -0.51455,-2.46899 -0.60337,-3.47226c-0.13048,-1.47394 -0.22963,-2.96489 -0.17281,-4.44465c-0.22891,-0.22174 -0.44369,-0.44442 -0.62357,-0.67171c-1.69528,-2.14196 -3.37029,-4.30092 -4.99072,-6.50007c-3.59354,-7.09458 -5.24374,-12.72667 -4.55279,-20.77331c0.31832,-3.70717 0.61897,-7.42619 2.36518,-10.62768c-1.66395,0.57146 -4.05835,0.43956 -6.06586,0.31956c-0.51097,1.06076 -1.02332,2.11437 -1.44224,3.1636c-2.679,6.70982 -4.12416,12.79444 -8.55045,19.01286c-1.45461,2.04355 -2.22047,4.68748 -4.17309,6.26204c-1.53662,1.2391 -3.86083,0.911 -5.67808,1.68181c-2.50824,1.06389 -4.6219,2.9049 -7.06709,4.10663c-3.08194,0.63785 -6.22633,1.11685 -9.37354,1.13287c-0.03462,0.00018 -0.06932,0.00072 -0.10411,0.00161zM324.73157,13.60771c0.69505,0.00526 1.39021,0.00807 2.0855,0.00807c4.00983,0 10.78598,-0.76641 14.4553,0.46293c2.12699,0.71261 3.88126,2.27979 5.63625,3.6769c2.18181,1.73687 4.22625,4.12898 5.79047,6.78191c1.46154,-0.05917 2.95607,0.06858 4.41366,0.03629c4.97624,-0.11026 10.68965,-0.26699 14.9875,3.02387c1.77116,1.35618 3.11497,2.92136 4.1264,4.63009c1.77848,-1.19921 3.88635,-2.16674 6.78961,-2.95762c1.62098,-0.44156 3.35704,-0.15182 5.03676,-0.18423c5.30724,-0.10239 10.10821,-0.42659 14.96662,2.22875c2.23101,1.21934 4.16741,2.91368 6.25111,4.37052c2.41892,5.96152 4.5803,11.31727 3.91801,17.89189c-0.25913,2.57247 0.10995,5.42167 -1.17093,7.66759c-1.29215,2.2657 -4.0085,3.33861 -6.03941,4.9752c-0.64642,0.52091 -1.25872,1.10227 -1.86733,1.69059c1.24322,1.54605 1.98719,3.51057 1.98719,5.64888c0,4.84509 -3.81966,8.79806 -8.612,9.01192l0.17716,1.59448l-0.23349,0.02594c0.0925,0.15657 0.18413,0.31369 0.27486,0.47139c0.4899,0.85152 -0.30608,1.95914 -0.22752,2.93839c0.26612,3.31704 2.94855,7.03737 1.25778,9.90354c-0.25379,0.43023 -0.51966,0.82829 -0.79654,1.19654c0.78829,0 1.57659,0 2.36488,0v-0.00322c0.08044,-1.98004 -0.25206,-4.02086 0.24132,-5.94014c1.16126,-4.51733 7.17927,-14.23965 11.76877,-14.55399c4.63466,-0.31743 8.99895,3.39613 12.17006,6.79097c0.29771,0.31872 0.50928,0.67808 0.65779,1.0672c0.3451,-0.25154 0.7057,-0.46591 1.11274,-0.56985c3.49892,-0.89355 14.76856,-0.653 17.40035,0.62505c1.94059,0.94238 3.53107,2.72858 4.85781,4.75166c1.81594,0.68162 3.28662,2.10151 4.90014,3.19065c0.99706,0.67303 1.86363,1.52816 2.80132,2.28207c0.78893,-1.71383 1.59572,-2.21019 3.18256,-3.2652l0.28125,-1.96876c0.56237,-4.44182 4.35463,-7.87656 8.94912,-7.87656c4.98218,0 9.02102,4.03884 9.02102,9.02102v5.15672c1.70251,4.20286 -2.5328,11.68859 -4.57597,14.11389c-1.2332,1.46385 -3.39629,1.78607 -4.97168,2.87317c-1.55893,1.07576 -2.62174,2.94461 -4.40084,3.59446c-2.47554,0.90423 -13.4849,1.39876 -16.37977,0.29961c-0.33065,-0.12555 -0.64908,-0.25155 -0.95622,-0.37852c-6.02245,2.4461 -14.57045,2.21846 -18.92132,-1.2899c-1.07001,-0.86282 -1.75802,-2.04627 -2.31904,-3.3319c-0.54565,0.00902 -1.20902,0.01583 -1.91042,0.03386c-5.13026,7.51968 -16.11796,9.84629 -24.67561,7.60455c-1.49329,-0.39118 -2.63078,-1.6497 -4.06788,-2.21336c-1.08549,-0.42574 -2.37418,-0.21326 -3.42219,-0.72435c-0.48496,-0.23651 -0.9697,-0.48898 -1.45183,-0.75655c-1.77821,-0.07681 -3.48136,-0.26183 -5.03712,-0.61949c-0.4779,0.40223 -0.97695,0.77403 -1.49468,1.11036c-2.22478,1.44529 -5.25749,0.73839 -7.90186,0.95238c-3.13096,0.25336 -12.24631,0.58639 -14.41021,-0.68668c-2.73154,-1.60703 -5.20514,-3.92348 -6.88493,-6.64308c-4.47288,6.11109 -12.18908,8.5256 -19.48077,6.37738c-1.55426,-0.45791 -2.07348,-2.53788 -3.38682,-3.48687c-0.51755,-0.37396 -1.19542,-0.47943 -1.83698,-0.6359c-2.65475,2.12149 -5.79062,3.4193 -9.28951,3.14019c-3.65231,-0.29135 -7.86346,-0.78076 -10.46553,-3.3602c-5.74229,-5.69233 -2.13721,-13.93468 -3.12587,-20.52315c-0.02107,-0.14044 -0.05591,-0.27975 -0.10065,-0.41811c-0.00529,-0.00352 -0.01054,-0.00706 -0.01573,-0.01063c-0.3091,1.19001 -0.55707,2.40622 -1.0865,3.51141c-1.54139,3.21763 -3.4799,6.21037 -5.60319,9.09487l-0.41289,4.12891c-0.40411,4.60821 -4.27304,8.22264 -8.98618,8.22264c-4.98218,0 -9.02102,-4.03884 -9.02102,-9.02102v-1.79043c-0.06624,0.09972 -0.13261,0.19915 -0.19909,0.29826c-1.34793,2.00979 -2.08546,4.53145 -3.91817,6.11175c-5.66488,4.8847 -15.61834,5.7886 -23.09343,2.49631c-5.56334,2.77625 -12.57094,3.2325 -18.08055,0.95274c-0.09993,-0.04135 -0.19673,-0.08724 -0.29069,-0.13722c-1.10271,0.26498 -2.21475,0.40822 -3.31058,0.41427c-3.26255,0.01801 -6.85511,0.13091 -9.66903,-1.52027c-2.28705,-1.34202 -2.89886,-4.4413 -4.31319,-6.68435c-5.213,-8.26749 -6.15865,-17.03513 4.30357,-19.97456c-1.27736,-5.23436 -1.4119,-11.46414 1.30276,-15.91652c2.25494,-3.6984 6.77286,-4.99905 9.63268,-8.01496c0,0 6.37882,-6.37882 12.75765,0c2.18327,2.18327 2.87202,4.36655 2.83352,6.29405l0.21227,-0.63681c1.13367,-3.68622 4.56586,-6.36567 8.62387,-6.36567c4.98218,0 9.02102,4.03884 9.02102,9.02102c0,0.9327 -0.14155,1.83234 -0.40433,2.67861l-0.92656,3.24295c0.96844,3.49557 -0.27684,7.60814 -0.64678,11.08207c-0.14649,1.37563 0.18189,2.80249 -0.14033,4.14785c-0.27123,1.13248 -0.94036,2.13289 -1.44275,3.1888c0.0147,0.65301 0.02042,1.30751 0.01236,1.95923c0.35942,0.0442 0.71916,0.08711 1.07272,0.16258c0.17088,0.03648 0.08586,0.66683 0.14703,0.50317c0.67999,-1.81918 1.96918,-3.34876 2.90177,-5.0523c1.1095,-2.02671 2.30343,-4.07563 2.84048,-6.32288c0.34145,-1.4288 -0.24659,-3.04158 0.3243,-4.39515c0.43566,-1.03292 3.08798,-4.60427 4.83651,-6.93465c0.11133,-1.93648 0.18156,-3.91085 -0.10113,-5.5874c-1.34566,-7.98049 -3.41393,-14.30759 4.61242,-21.02954c3.82592,-3.20415 11.55307,-0.8573 16.21929,-1.64622c2.02646,-1.0611 3.67987,-2.83329 5.82468,-3.62844c0.65451,-0.24264 1.46289,0.75911 2.05699,0.39263c0.42679,-0.26327 -0.52401,-1.02165 -0.30555,-1.47302c0.57381,-1.18558 3.0463,-3.20171 3.50016,-4.91835c0.4562,-1.72549 0.30835,-3.59819 0.92094,-5.27454c0.38313,-1.04845 1.48361,-1.70697 1.98234,-2.70182c-4.96242,-0.15159 -9.93035,-0.2951 -14.91944,-0.2951h-3.22295c-4.98218,0 -9.02102,-4.03884 -9.02102,-9.02102c0,-2.87993 1.34953,-5.44466 3.45071,-7.0963l3.15787,-2.5263l0.32499,0.40623c0.36575,-0.47784 0.75494,-0.93841 1.17255,-1.37805c2.3373,-2.46059 8.58771,-2.25694 11.87292,-2.29415c7.54159,-0.08544 15.73693,-0.51435 21.76429,4.50405zM245.64659,77.88129c-2.00692,1.99756 -3.35432,3.55563 -5.9273,4.78823c-0.0002,0.03459 0.00208,0.06834 0.00748,0.10102c0.48822,2.95183 0.77869,3.31506 2.51038,5.90532c0.69373,1.03768 1.58136,2.20752 2.47864,3.45405c0.05404,-2.36445 0.17424,-4.72348 0.24173,-6.96797c0.06202,-2.06251 -0.25213,-4.19535 0.3022,-6.18294c0.10472,-0.37547 0.23603,-0.74045 0.38687,-1.0977zM361.49205,48.65728c0.1509,-0.30382 -0.46902,-0.54459 -0.50853,-0.88151c-0.20248,-1.72694 -0.41137,-3.50472 -0.18618,-5.22559c-1.22325,0.1133 -2.45804,0.12904 -3.68458,0.06565c-1.1783,-0.06089 -3.1925,-0.16754 -3.52692,0.60556c-0.34908,0.80701 0.30075,1.74133 0.30075,2.62061c0,1.08736 -0.24856,2.18558 -0.08719,3.2609c0.09488,0.63228 0.94497,4.98662 1.85671,5.73156c0.14846,0.14875 0.30425,0.29273 0.4651,0.43338c0.54084,-0.2863 1.1143,-0.51921 1.71334,-0.69172c-0.7332,-2.63288 2.50929,-3.60721 3.6575,-5.91884z" fill="#000000" stroke="none" stroke-width="0.5"/><path d="M283.97505,50.74096c2.82596,-1.02763 3.85359,1.79835 3.85359,1.79835l0.64373,2.12417c0.96115,0.76605 1.75034,1.82201 2.88344,2.29816c1.77769,0.74701 8.83141,-4.00507 9.23973,-4.27316c3.86219,-2.53589 8.92192,-6.7907 10.9682,-11.1145c2.34498,-4.95498 2.34274,-10.37715 2.33358,-15.72003c-2.78436,-0.00094 -5.56927,0.02708 -8.35508,0.1235c-5.11084,0.17692 -10.26236,0.96331 -15.37146,1.30419c0,0 -3.00034,0.20003 -3.20037,-2.80033c-0.20003,-3.00034 2.80032,-3.20037 2.80032,-3.20037c5.14809,-0.34292 10.3328,-1.12823 15.48307,-1.3106c11.08296,-0.39244 22.16351,0.35145 33.23935,-0.38178l3.51424,-0.62219c0,0 2.96159,-0.52063 3.48222,2.44096c0.52062,2.96159 -2.44097,3.48222 -2.44097,3.48222l-3.8338,0.66955c-6.43628,0.43184 -12.86987,0.37816 -19.30508,0.32707c-0.0066,6.18727 -0.14245,12.51687 -2.8969,18.23244c-3.63321,7.539 -11.49599,12.77015 -18.54904,16.53697c-2.73869,1.46266 -5.34226,3.36942 -8.83219,2.06762c-2.34411,-0.8744 -4.00455,-3.00019 -6.00683,-4.50029l-1.4481,-3.62836c0,0 -1.02763,-2.82596 1.79835,-3.85359z" fill="#ffffff" stroke="none" stroke-width="0.5"/><path d="M359.59096,66.45309c-2.70771,1.57892 -5.75568,3.197 -9.02908,2.02433c-6.05216,-2.16814 -7.02224,-6.25664 -8.67008,-11.52938c-2.69012,-8.60779 3.06505,-19.54315 12.10982,-21.50234c1.58013,-0.34227 9.5848,-0.06123 10.99137,0.89965c4.42232,3.02104 4.53143,6.59818 5.56832,11.05999c1.48367,6.3843 2.90609,15.43301 -4.20131,19.31029c-1.36109,0.7425 -3.05347,0.54013 -4.58021,0.8102zM362.8152,61.53084c0.2941,-0.02724 0.58131,-0.08308 0.85524,-0.1943c4.05359,-1.64581 1.6281,-9.9117 1.02826,-12.59014c-0.44886,-2.00431 -0.67899,-5.82504 -2.79902,-7.24353c-0.78282,-0.52377 -1.88221,-0.08024 -2.82387,-0.10052c-1.32156,-0.02847 -2.66002,-0.25431 -3.96533,-0.04574c-5.65418,0.90344 -9.02662,8.83851 -7.45915,13.86062c0.91418,2.92897 1.24847,6.1915 4.62339,7.49528c1.63984,0.63349 5.61011,-2.21493 6.29814,-2.61464c0,0 2.62084,-1.47423 4.09505,1.14661c0.05458,0.09704 0.10355,0.1925 0.14725,0.28638z" fill="#ffffff" stroke="none" stroke-width="0.5"/><path d="M398.55928,66.08054c1.34477,2.68955 -1.34478,4.03432 -1.34478,4.03432l-1.23415,0.60911c-8.22684,3.37689 -17.58467,4.64387 -21.95778,-5.24103c-0.68949,-1.55851 -0.68682,-3.33851 -1.03024,-5.00776c0.69457,-5.95476 1.18661,-13.2068 4.74742,-18.33864c5.06238,-7.29593 16.12049,-9.2823 22.9718,-3.65776c6.15388,5.05199 6.19104,17.9131 -1.94798,21.30005c-1.76392,0.73403 -3.83472,0.12934 -5.73069,-0.10628c-4.81287,-0.59808 -9.26194,-2.71204 -13.2634,-5.3397c-0.3166,2.03871 -0.51651,4.07465 -0.76711,5.92275c0.17954,0.94554 0.1377,1.96166 0.53863,2.83661c2.93009,6.39427 8.97372,4.26659 14.12631,2.08038l0.85768,-0.43681c0,0 2.68955,-1.34478 4.03433,1.34477zM381.34234,48.12609c3.91777,2.82002 7.78911,4.52982 12.65762,5.6107c0.86863,0.19286 1.79311,0.6999 2.63662,0.41669c3.98499,-1.33796 2.6364,-9.22935 0.14386,-11.12334c-4.20656,-3.19641 -11.15821,-1.95561 -14.15821,2.61773c-0.50478,0.76951 -0.9254,1.60223 -1.2799,2.47822z" fill="#ffffff" stroke="none" stroke-width="0.5"/><path d="M225.34205,94.52481c3.00701,0 3.00701,3.00701 3.00701,3.00701v0.26149c-0.03495,0.86132 -0.5731,3.44006 0.72006,4.19307c1.20049,0.69906 6.25993,2.13546 7.42109,-0.2661c1.1257,-2.32825 -6.04647,-8.93673 -6.64614,-9.92898c-2.28468,-3.78041 -4.73993,-10.38803 -1.75815,-14.77808c0.93031,-1.36968 2.71052,-1.90843 4.13563,-2.75135c2.95631,-1.7486 6.42124,-2.93388 9.85514,-3.00866c0,0 3.00701,0 3.00701,3.00701c0,3.00701 -3.00701,3.00701 -3.00701,3.00701c-0.96881,-0.03205 -1.98396,-0.39393 -2.90642,-0.09614c-1.45898,0.47101 -2.61723,1.60144 -3.97309,2.31706c-0.68541,0.36177 -1.67262,0.29101 -2.13985,0.90934c-1.50364,1.98995 1.09988,6.96884 1.90256,8.23206c2.86652,4.51122 10.0374,9.18925 6.95077,15.69595c-2.90902,6.13227 -12.10075,5.45298 -16.59172,2.36245c-3.51937,-2.42189 -2.89832,-5.50736 -2.9839,-8.89462v-0.26149c0,0 0,-3.00701 3.00701,-3.00701z" fill="#ffffff" stroke="none" stroke-width="0.5"/><path d="M255.05562,83.17405c2.8527,0.9509 1.9018,3.8036 1.9018,3.8036l-0.63014,1.40241c0,5.88906 -0.41426,11.60984 0.96598,17.35333c0,0 0.68872,2.92707 -2.23834,3.61579c-2.92708,0.68872 -3.61579,-2.23834 -3.61579,-2.23834c-1.4438,-6.25044 -1.12586,-12.34308 -1.12586,-18.73077l0.93875,-3.30421c0,0 0.9509,-2.8527 3.8036,-1.9018z" fill="#ffffff" stroke="none" stroke-width="0.5"/><path d="M254.49694,75.04463c0,-1.66072 1.34629,-3.00701 3.00701,-3.00701c1.66072,0 3.00701,1.34629 3.00701,3.00701c0,1.66072 -1.34629,3.00701 -3.00701,3.00701c-1.66072,0 -3.00701,-1.34629 -3.00701,-3.00701z" fill="#ffffff" stroke="none" stroke-width="0.5"/><path d="M317.81055,112.67402c-2.8527,0.9509 -3.80359,-1.9018 -3.80359,-1.9018l-0.86603,-2.64688c-1.25114,-5.60576 -1.91751,-11.25158 -2.93331,-16.90582c-0.31914,-1.77643 -0.63169,-3.55437 -0.90605,-5.33827c-0.1597,-1.03839 0.2269,-2.28068 -0.39582,-3.12684c-0.55775,-0.75787 0.39148,1.90374 0.16848,2.81793c-0.6022,2.46877 -3.67824,5.86807 -4.77958,7.71626c-1.89162,3.17443 -3.46903,5.94086 -5.23676,8.66966l0.50094,0.26137l-2.75259,5.27579c-0.49173,0.99101 -1.51394,1.67221 -2.69525,1.67221c-1.43103,0 -2.62859,-0.99964 -2.93248,-2.33872l-0.76918,-3.07672l0.08178,-0.02045l-0.13113,-0.21741c-0.50001,-5.8929 -1.18932,-11.80525 -2.3217,-17.61772c-0.23159,-1.18877 -0.60631,-2.34521 -0.92696,-3.5131c-0.15972,-0.58176 -0.02051,-2.08229 -0.51403,-1.73532c-0.65116,0.45781 -0.01399,1.64813 -0.37266,2.35873c-0.89381,1.77079 -2.23155,3.28037 -3.31301,4.94321c-4.97603,7.65099 -9.96764,15.36171 -13.78714,23.65428c0,0 -1.2601,2.73024 -3.99035,1.47014c-2.73024,-1.2601 -1.47013,-3.99035 -1.47013,-3.99035c3.95621,-8.55521 9.06832,-16.51433 14.20619,-24.41311c0.82444,-1.26745 6.27891,-9.93334 8.06579,-10.00042c2.58247,-0.09693 4.66528,2.52598 6.28442,4.54017c1.17701,1.46418 1.26814,3.54604 1.68782,5.37718c0.89057,3.88557 1.4371,7.93049 1.84731,11.95712c0.51373,-0.76042 1.05126,-1.51141 1.47733,-2.31417c2.02872,-3.82226 4.01028,-7.87425 6.49392,-11.41051c1.49187,-2.12417 2.28617,-6.26012 4.87509,-6.07236c3.09633,0.22455 4.75496,4.17484 6.27613,6.88109c1.08029,1.92189 0.8321,4.33015 1.24327,6.49617c1.05842,5.57582 1.6437,11.15145 2.88824,16.68535l0.70286,2.05974c0,0 0.9509,2.85269 -1.9018,3.80359z" fill="#ffffff" stroke="none" stroke-width="0.5"/><path d="M351.89783,86.15748c3.00701,0 3.00701,3.00701 3.00701,3.00701v0.78443c-0.02655,1.79805 0.35011,3.64802 -0.07965,5.39415c-0.46901,1.90558 -1.79158,3.49625 -2.55357,5.3047c-1.86587,4.42823 -3.6969,12.38965 -10.09681,12.95742c-4.499,0.39914 -6.92255,-4.30204 -8.77374,-7.15286c-4.09894,-6.31237 -6.71109,-13.53155 -7.25224,-21.01c0,0 -0.20003,-3.00034 2.80033,-3.20037c3.00034,-0.20003 3.20037,2.80032 3.20037,2.80032c0.39217,6.56355 2.91924,12.62775 6.34467,18.21183c0.73239,1.19395 1.46482,2.39257 2.3036,3.51433c0.25296,0.33829 0.54166,0.94333 0.95068,0.83787c2.73796,-0.70599 4.44289,-8.04012 4.99581,-9.32854c0.63765,-1.48587 1.82267,-2.744 2.22621,-4.30975c0.33442,-1.29756 -0.0531,-2.6794 -0.07966,-4.01909v-0.78443c0,0 0,-3.00701 3.00701,-3.00701z" fill="#ffffff" stroke="none" stroke-width="0.5"/><path d="M363.14143,109.69059c-3.00701,0 -3.00701,-3.00701 -3.00701,-3.00701c0,-6.79845 0,-17.2576 0,-24.05606c0,0 0,-3.00701 3.00701,-3.00701c3.00701,0 3.00701,3.00701 3.00701,3.00701c0,6.79846 0,13.59691 0,20.39536v3.66071c0,0 0,3.00701 -3.00701,3.00701z" fill="#ffffff" stroke="none" stroke-width="0.5"/><path d="M397.97042,111.10257c-1.8042,2.40561 -4.20981,0.6014 -4.20981,0.6014l-3.49026,-2.66352c-1.37252,-1.92019 -2.80266,-3.75611 -4.26813,-5.5541c0.01405,0.83835 0.01538,1.64875 0.01861,2.41279v1.56888c0,0 0,3.00701 -3.00701,3.00701c-1.04516,0 -1.72706,-0.36328 -2.17194,-0.8373c-0.05918,0.56175 -0.31878,1.17432 -0.93137,1.78691c-2.12627,2.12627 -4.25255,0 -4.25255,0c-4.59478,-4.76815 -6.2787,-9.83847 -6.3662,-16.58591c-0.03122,-2.40739 -0.86158,-5.2729 0.58261,-7.19923c4.27965,-5.70844 9.37801,-0.74473 12.21173,2.396c0.69853,0.3358 1.13138,0.84735 1.13138,0.84735c3.91671,4.63011 7.89432,8.97734 11.36627,13.96682l2.78525,2.04311c0,0 2.40561,1.8042 0.6014,4.20981zM380.00682,107.27814v-1.379c0.01882,-3.845 0.12433,-8.37565 -2.24957,-11.72014c-0.82024,-1.15562 -3.15533,-4.37941 -3.04526,-2.96657c0.45393,5.82671 0.86862,11.85003 5.19853,15.95966c0,0 0.03697,0.03697 0.0963,0.10605z" fill="#ffffff" stroke="none" stroke-width="0.5"/><path d="M428.30197,94.94318c1.8042,2.40561 -0.6014,4.20981 -0.6014,4.20981l-2.00164,1.26365c-2.64577,0.77786 -4.98819,1.37171 -7.33888,1.78254c0.17686,2.08173 0.21249,4.23043 0.07831,6.50233c0,0 -0.18757,3.00116 -3.18871,2.81358c-3.00115,-0.18758 -2.81358,-3.18873 -2.81358,-3.18873c0.12723,-1.91661 0.10865,-3.73051 -0.02963,-5.486c-0.79212,0.03453 -1.60918,0.05178 -2.46029,0.05178c0,0 -3.00701,0 -3.00701,-3.00701c0,-3.00701 3.00701,-3.00701 3.00701,-3.00701c0.52607,0 1.03413,-0.00676 1.5275,-0.02038c-0.69285,-3.04402 -1.6787,-6.06602 -2.80203,-9.32971l-0.16361,-1.76277c0,0 0,-3.00701 3.00701,-3.00701c3.00701,0 3.00701,3.00701 3.00701,3.00701l-0.16359,-0.1939c1.28143,3.72561 2.36903,7.18914 3.11064,10.6901c2.05267,-0.36665 4.10822,-0.90106 6.5329,-1.61447l0.09019,-0.30522c0,0 2.40561,-1.8042 4.20981,0.6014z" fill="#ffffff" stroke="none" stroke-width="0.5"/><path d="M443.92881,112.21999c-0.25279,0.06103 -0.42052,0.07501 -0.42052,0.07501c-1.43091,0.04412 -2.95108,0.63175 -4.29274,0.13236c-5.95377,-2.21608 -15.08632,-14.55552 -7.03353,-19.75393c6.956,-4.4904 12.14726,2.68315 15.53473,7.18605c0.76125,1.01192 1.94294,1.74758 2.43863,2.9128c1.68793,3.96777 0.77385,4.80053 -0.41013,8.33815l-3.61039,1.97939c0,0 -1.31523,-0.00001 -2.20602,-0.86983zM444.53587,106.55047c-0.14502,-2.7734 -2.31137,-5.28522 -4.53401,-7.51349c-0.72435,-0.72618 -3.13303,-1.87637 -4.49321,-1.35338c-1.05612,0.40607 -0.25924,2.40769 0.32063,3.3793c1.61965,2.71384 4.02565,5.86016 7.17958,5.23884c0,0 0.74755,-0.06229 1.52703,0.24872z" fill="#ffffff" stroke="none" stroke-width="0.5"/><path d="M470.80744,100.84848c-1.74779,2.4469 -4.19469,0.69912 -4.19469,0.69912l-1.96103,-1.40622c-2.81725,-3.38909 -1.76256,1.92498 -2.67716,4.06154c-0.48339,1.12923 -1.73065,1.81636 -2.21453,2.9454c-0.71123,1.65956 -0.86746,3.50534 -1.30119,5.25801c0,0 -0.75465,2.91077 -3.66542,2.15613c-2.91077,-0.75465 -2.15613,-3.66542 -2.15613,-3.66542c0.57246,-2.12836 0.86336,-4.35327 1.71739,-6.38509c0.43772,-1.04141 1.6384,-1.63291 2.08831,-2.66912c1.79532,-4.13494 0.70108,-9.80677 7.96034,-9.10851c1.60476,0.15436 2.67021,1.80727 4.00532,2.71091l1.69968,1.20856c0,0 2.4469,1.74779 0.69912,4.19469z" fill="#ffffff" stroke="none" stroke-width="0.5"/></g></g></svg>