<svg version="1.1" xmlns="http://www.w3.org/2000/svg" xmlns:xlink="http://www.w3.org/1999/xlink" width="166.86683" height="92.62083" viewBox="0,0,166.86683,92.62083"><g transform="translate(-156.56658,-133.68958)"><g data-paper-data="{&quot;isPaintingLayer&quot;:true}" fill-rule="nonzero" stroke="none" stroke-width="0.5" stroke-linecap="butt" stroke-linejoin="miter" stroke-miterlimit="10" stroke-dasharray="" stroke-dashoffset="0" style="mix-blend-mode: normal"><path d="M179.73346,149.38557c0,-1.17133 0.32258,-2.27994 0.89781,-3.26764l-0.00933,-0.11256l0.17887,-0.16378c0.72398,-1.12194 1.78101,-2.0728 3.06099,-2.76092l3.35876,-1.86394l0.34139,-0.10149l0.15145,-0.22063l1.96892,-0.40974l1.91127,-0.56822l0.27304,0.11364l0.35168,-0.07319h5.80996l8.71015,-0.90632l0.5652,0.05702l0.55233,-0.11494h11.11054l10.53397,-0.92302l0.47643,0.05593l0.46677,-0.09714h9.76132l14.98104,-1.8475l0.66861,0.05466l0.65177,-0.13564h12.96201l10.08627,-1.76759l0.9418,0.0294l0.91432,-0.19027h10.5549l5.34458,-0.4449l0.45267,0.05514l0.44384,-0.09237h15.63764l4.50491,0.9375l0.5206,0.75839l1.02894,0.1713l2.49301,3.2611l0.57918,1.44635l0.11108,1.20208l0.35127,1.16963v54.96134l-0.26901,0.89572v0.92329l-0.88933,2.96121v16.43292l-1.12623,3.75l-2.15007,1.02272l-1.22862,1.78978l-4.50491,0.9375h-8.68758l-0.29752,-0.06191l-0.30181,0.0453l-8.68758,-0.48211l-0.37666,-0.10097l-0.39402,0.03037l-14.98223,-1.9187l-12.66536,-1.43768l-0.12725,-0.04237l-0.13662,0.0091l-13.44323,-1.86507l-8.80446,-0.45807l-0.58836,-0.15548l-0.61659,0.02445l-11.48306,-1.91176l-8.96822,-1.31742h-16.00709l-0.44384,-0.09237l-0.45267,0.05515l-5.79172,-0.48212l-0.62483,-0.18671h-0.66387l-6.42225,-1.33651l-3.53692,-0.36803h-3.49327l-0.04968,-0.01034l-0.14347,0.06699l-2.14081,-0.54236l-2.17095,-0.45179l-0.08161,-0.11889l-0.04899,-0.01242l-0.75592,-0.37754h-7.45906l-0.01445,0.00908l-0.06768,-0.00908h-0.96749l-1.75907,-0.36607l-1.79007,-0.24034l-0.88926,-0.31724l-0.06651,-0.01384l-0.00899,-0.01309l-1.54619,-0.5516l-4.23655,-0.88165l-0.99339,-1.44711l-1.70955,-0.61539l-0.3604,-2.4l-1.44157,-2.1l0.92408,-1.34616l-0.24835,-1.65384l2.20354,-2.25759l0.10713,-0.62425l0.4945,-1.01037l0.24421,-1.0719l3.47503,-6.26753l0.19327,-0.20002l0.0776,-0.24844l2.81867,-4.30161l1.4687,-6.11292l0.51517,-0.90533l0.26106,-0.9779l1.73752,-2.8927l0.37052,-0.35983l0.19149,-0.44632l0.98621,-1.23142l1.54608,-2.25224l0.00872,-0.02901v-1.96941l0.91587,-3.04958l-0.02739,-0.33063l0.17475,-0.16001l0.06301,-0.20979l0.34567,-0.16443l2.54017,-2.32595l0.04213,-0.02338v-2.41434l1.12623,-3.75l0.03212,-0.01528v-0.09166l0.41385,-1.37802l0.23056,-1.40741l0.35303,-0.73467c-0.27171,-0.71472 -0.41826,-1.47577 -0.41826,-2.2653z" fill="#16ff00"/><path d="M191.36682,169.98286c0.22059,-0.14706 0.43598,-0.26813 0.64581,-0.36614c0.05654,-0.92634 0.09544,-1.85316 0.09491,-2.78119c-0.00149,-2.57129 -0.15368,-5.14718 0,-7.71387c0.10562,-1.76414 -0.52656,-3.85096 0.51798,-5.27655c4.62507,-6.31227 18.25471,-7.38308 23.98857,-2.39556c6.81102,5.92446 4.50426,16.53376 -2.30844,20.93261c-1.89691,1.3537 -5.32676,3.99145 -7.52167,4.7263c-2.51431,0.84178 -4.94808,1.10147 -7.41591,1.17496c-0.11869,7.50744 -0.0397,15.03101 -1.2579,22.43467c0,0 -0.6165,3.69898 -4.31547,3.08248c-3.69898,-0.6165 -3.08248,-4.31547 -3.08248,-4.31547c1.32066,-7.81311 0.64292,-15.45444 0.88854,-23.32994l-1.27398,-0.97199c0,0 -2.08013,-3.12019 1.04006,-5.20031zM199.60634,170.81519c1.55915,-0.06382 3.10603,-0.25544 4.60942,-0.75332c1.21337,-0.40183 5.2907,-3.46071 5.9776,-3.95181c2.82838,-1.47764 4.55452,-6.59469 1.5485,-8.95864c-2.81763,-2.2158 -7.18702,-0.99151 -10.28242,-0.28421c-0.81089,0.18529 -1.84191,0.13861 -2.36989,0.78135c-0.33039,0.4022 0.46268,0.95553 0.51798,1.47309c0.11952,1.11857 0,2.24988 0,3.37482c0,2.77287 0.14628,5.54989 -0.00119,8.31872z" fill="#ffffff"/><path d="M224.78454,204.33371c-3.75,0 -3.75,-3.75 -3.75,-3.75v-0.48212c0.03684,-2.65768 0.99665,-5.2216 1.49477,-7.83244c0.85795,-4.49683 -0.91001,-9.52916 0.01175,-14.0498c0.4436,-2.17556 1.73292,-4.17447 1.88107,-6.38985c0.36471,-5.45383 -0.01278,-11.0992 -0.01278,-16.56479c0,0 0,-3.75 3.75,-3.75c3.75,0 3.75,3.75 3.75,3.75c0,5.64573 0.46148,11.55597 -0.01278,17.18339c-0.20656,2.45094 -1.42874,4.71142 -1.97586,7.10943c-0.99862,4.37685 0.79661,9.43496 0.01175,13.91298c-0.38998,2.22502 -1.44564,4.37263 -1.39793,6.63107v0.48212c0,0 0,3.75 -3.75,3.75z" fill="#ffffff"/><path d="M258.30203,197.18818c-1.07891,-0.54723 -2.22493,-0.97853 -3.23673,-1.64169c-0.62697,-0.41094 -0.92278,-1.30226 -1.63078,-1.54862c-1.03252,-0.35928 -2.31965,0.37119 -3.27588,-0.15872c-0.6137,-0.34009 -1.10819,-0.83321 -1.56311,-1.37712c-2.84391,4.26038 -5.8545,8.43629 -8.63787,12.6124c0,0 -2.08013,3.12019 -5.20031,1.04006c-3.12019,-2.08013 -1.04006,-5.20031 -1.04006,-5.20031c4.76265,-7.14211 10.11304,-14.25449 14.23956,-21.79408c0.98009,-1.79073 1.02852,-3.98224 1.94037,-5.80866c0.38532,-0.7718 1.38697,-1.13689 1.7221,-1.93177c0.71814,-1.70335 -0.52536,-3.7522 -0.07532,-5.54513c0.20756,-0.82691 0.8356,-1.47942 1.31028,-2.19554l0,-2.10675c0,-2.07107 1.67893,-3.75 3.75,-3.75c1.19717,0 2.26332,0.561 2.9499,1.43444l1.90683,2.38353l-0.16422,0.13138c0.25086,0.2403 0.48568,0.49762 0.70051,0.77617c1.02113,1.32396 0.28613,3.34477 0.68026,4.96965c1.44239,5.94654 3.41368,11.17451 3.93332,17.39262c0.469,5.61217 0.01092,11.52397 0.01092,17.16003l-5.19635,3.75c0,0 -3.75,0 -3.75,-3.75c0,-1.59924 0.68202,-2.51646 1.46434,-3.04252c0.00576,-0.56827 0.01232,-1.13675 0.01879,-1.70532zM253.40755,187.07937c0.78154,0.30287 1.72526,-0.45449 2.50952,-0.15872c1.17567,0.44338 2.19735,1.1917 3.22209,1.9389c-0.12943,-4.47113 -0.5411,-8.91748 -1.6762,-13.28972c-0.34532,0.36732 -0.68096,0.7418 -0.90128,1.18177c-0.90633,1.80993 -0.96648,3.97479 -1.91656,5.76214c-0.58368,1.09806 -1.19597,2.18699 -1.83091,3.26808c0.17278,0.45899 0.14953,1.12555 0.59335,1.29754z" fill="#ffffff"/><path d="M272.96068,159.18964c2.34261,-2.92826 5.27086,-0.58565 5.27086,-0.58565l3.18988,2.77918c1.80575,5.55905 4.73104,10.58403 7.43348,15.76864c0.51168,0.98166 0.97715,2.08748 1.46487,3.2103c0.16135,-0.49371 0.35894,-0.97007 0.63582,-1.40943c1.21687,-1.93103 2.66491,-3.83136 4.55205,-5.11526c1.60194,-1.08987 3.92006,-0.69266 5.54217,-1.75227c1.68221,-1.09887 1.92744,-3.52748 2.96113,-5.25051l1.44635,-2.41058c0,0 1.92936,-3.2156 5.14496,-1.28624c3.2156,1.92936 1.28624,5.14496 1.28624,5.14496l-1.44635,2.41058c-1.00138,1.66876 -3.95033,6.68604 -4.75274,7.28453c-1.70617,1.27257 -4.18085,1.04821 -6.02864,2.10467c-0.98482,0.56306 -1.66942,1.59465 -2.19759,2.59861c-0.65245,1.24018 -0.71128,2.72326 -1.27673,4.00544c-0.27009,0.61244 -0.7327,1.13064 -1.12587,1.67963c0.20202,0.8805 0.10088,1.96217 -0.86576,3.05756c-0.00385,1.58632 0.38976,3.22811 0.38976,4.82087c0,3.85694 0,7.71387 0,11.57081c0,0 0,3.75 -3.75,3.75c-3.75,0 -3.75,-3.75 -3.75,-3.75c0,-3.85694 0,-7.71387 0,-11.57081c0,-0.41957 -0.01933,-3.9905 0.02081,-6.42965c-2.07211,-2.79729 -3.10109,-5.74968 -4.89774,-9.18991c-2.49205,-4.7718 -5.82372,-9.81764 -7.03002,-15.08684l-1.63129,-1.07776c0,0 -2.92826,-2.34261 -0.58565,-5.27086z" fill="#ffffff"/></g></g></svg>