<svg version="1.1" xmlns="http://www.w3.org/2000/svg" xmlns:xlink="http://www.w3.org/1999/xlink" width="548" height="394.9" viewBox="0,0,548,394.9"><g transform="translate(34,16)"><g data-paper-data="{&quot;isPaintingLayer&quot;:true}" fill-rule="nonzero" stroke="none" stroke-width="0" stroke-linecap="butt" stroke-linejoin="miter" stroke-miterlimit="10" stroke-dasharray="" stroke-dashoffset="0" style="mix-blend-mode: normal"><path d="M-34,376v-392h548v392z" fill="#00bbff"/><g><path d="M-7.39999,378.9v-309h79v309z" fill="#9c9c9c"/><path d="M2.87816,87.80196v-7.05883h15.29412v7.05883z" fill="#cebc2d"/><path d="M24.93698,87.80196v-7.05883h15.29412v7.05883z" fill="#cebc2d"/><path d="M46.9958,87.80196v-7.05883h15.29412v7.05883z" fill="#cebc2d"/><path d="M2.87816,96.62548v-7.05882h15.29412v7.05882z" fill="#cebc2d"/><path d="M24.93698,96.62548v-7.05882h15.29412v7.05882z" fill="#cebc2d"/><path d="M46.9958,96.62548v-7.05882h15.29412v7.05882z" fill="#cebc2d"/><path d="M2.87816,105.44901v-7.05882h15.29412v7.05882z" fill="#cebc2d"/><path d="M24.93698,105.44901v-7.05882h15.29412v7.05882z" fill="#cebc2d"/><path d="M46.9958,105.44901v-7.05882h15.29412v7.05882z" fill="#cebc2d"/><path d="M2.87816,114.27254v-7.05882h15.29412v7.05882z" fill="#cebc2d"/><path d="M24.93698,114.27254v-7.05882h15.29412v7.05882z" fill="#cebc2d"/><path d="M46.9958,114.27254v-7.05882h15.29412v7.05882z" fill="#cebc2d"/><path d="M2.87816,123.09607v-7.05883h15.29412v7.05883z" fill="#cebc2d"/><path d="M24.93698,123.09607v-7.05883h15.29412v7.05883z" fill="#cebc2d"/><path d="M46.9958,123.09607v-7.05883h15.29412v7.05883z" fill="#cebc2d"/><path d="M2.87816,131.9196v-7.05882h15.29412v7.05882z" fill="#cebc2d"/><path d="M24.93698,131.9196v-7.05882h15.29412v7.05882z" fill="#cebc2d"/><path d="M46.9958,131.9196v-7.05882h15.29412v7.05882z" fill="#cebc2d"/><path d="M2.87816,140.74313v-7.05882h15.29412v7.05882z" fill="#cebc2d"/><path d="M24.93698,140.74313v-7.05882h15.29412v7.05882z" fill="#cebc2d"/><path d="M46.9958,140.74313v-7.05882h15.29412v7.05882z" fill="#cebc2d"/><path d="M2.87816,149.56666v-7.05883h15.29412v7.05883z" fill="#cebc2d"/><path d="M24.93698,149.56666v-7.05883h15.29412v7.05883z" fill="#cebc2d"/><path d="M46.9958,149.56666v-7.05883h15.29412v7.05883z" fill="#cebc2d"/><path d="M2.87816,158.39019v-7.05883h15.29412v7.05883z" fill="#cebc2d"/><path d="M24.93698,158.39019v-7.05883h15.29412v7.05883z" fill="#cebc2d"/><path d="M46.9958,158.39019v-7.05883h15.29412v7.05883z" fill="#cebc2d"/><path d="M2.87816,167.21372v-7.05882h15.29412v7.05882z" fill="#cebc2d"/><path d="M24.93698,167.21372v-7.05882h15.29412v7.05882z" fill="#cebc2d"/><path d="M46.9958,167.21372v-7.05882h15.29412v7.05882z" fill="#cebc2d"/><path d="M2.87816,176.03725v-7.05882h15.29412v7.05882z" fill="#cebc2d"/><path d="M24.93698,176.03725v-7.05882h15.29412v7.05882z" fill="#cebc2d"/><path d="M46.9958,176.03725v-7.05882h15.29412v7.05882z" fill="#cebc2d"/><path d="M2.87816,184.86078v-7.05883h15.29412v7.05883z" fill="#cebc2d"/><path d="M24.93698,184.86078v-7.05883h15.29412v7.05883z" fill="#cebc2d"/><path d="M46.9958,184.86078v-7.05883h15.29412v7.05883z" fill="#cebc2d"/><path d="M2.87816,193.68431v-7.05883h15.29412v7.05883z" fill="#cebc2d"/><path d="M24.93698,193.68431v-7.05883h15.29412v7.05883z" fill="#cebc2d"/><path d="M46.9958,193.68431v-7.05883h15.29412v7.05883z" fill="#cebc2d"/><path d="M2.87816,202.50784v-7.05883h15.29412v7.05883z" fill="#cebc2d"/><path d="M24.93698,202.50784v-7.05883h15.29412v7.05883z" fill="#cebc2d"/><path d="M46.9958,202.50784v-7.05883h15.29412v7.05883z" fill="#cebc2d"/><path d="M2.87816,211.33137v-7.05882h15.29412v7.05882z" fill="#cebc2d"/><path d="M24.93698,211.33137v-7.05882h15.29412v7.05882z" fill="#cebc2d"/><path d="M46.9958,211.33137v-7.05882h15.29412v7.05882z" fill="#cebc2d"/><path d="M2.87816,220.1549v-7.05882h15.29412v7.05882z" fill="#cebc2d"/><path d="M24.93698,220.1549v-7.05882h15.29412v7.05882z" fill="#cebc2d"/><path d="M46.9958,220.1549v-7.05882h15.29412v7.05882z" fill="#cebc2d"/><path d="M2.87816,228.97843v-7.05882h15.29412v7.05882z" fill="#cebc2d"/><path d="M24.93698,228.97843v-7.05882h15.29412v7.05882z" fill="#cebc2d"/><path d="M46.9958,228.97843v-7.05882h15.29412v7.05882z" fill="#cebc2d"/><path d="M2.87816,237.80196v-7.05883h15.29412v7.05883z" fill="#cebc2d"/><path d="M24.93698,237.80196v-7.05883h15.29412v7.05883z" fill="#cebc2d"/><path d="M46.9958,237.80196v-7.05883h15.29412v7.05883z" fill="#cebc2d"/><path d="M2.87816,246.62549v-7.05883h15.29412v7.05883z" fill="#cebc2d"/><path d="M24.93698,246.62549v-7.05883h15.29412v7.05883z" fill="#cebc2d"/><path d="M46.9958,246.62549v-7.05883h15.29412v7.05883z" fill="#cebc2d"/><path d="M2.87816,255.44902v-7.05883h15.29412v7.05883z" fill="#cebc2d"/><path d="M24.93698,255.44902v-7.05883h15.29412v7.05883z" fill="#cebc2d"/><path d="M46.9958,255.44902v-7.05883h15.29412v7.05883z" fill="#cebc2d"/><path d="M2.87816,264.27255v-7.05883h15.29412v7.05883z" fill="#cebc2d"/><path d="M24.93698,264.27255v-7.05883h15.29412v7.05883z" fill="#cebc2d"/><path d="M46.9958,264.27255v-7.05883h15.29412v7.05883z" fill="#cebc2d"/><path d="M2.87816,273.09608v-7.05883h15.29412v7.05883z" fill="#cebc2d"/><path d="M24.93698,273.09608v-7.05883h15.29412v7.05883z" fill="#cebc2d"/><path d="M46.9958,273.09608v-7.05883h15.29412v7.05883z" fill="#cebc2d"/><path d="M2.87816,281.91961v-7.05883h15.29412v7.05883z" fill="#cebc2d"/><path d="M24.93698,281.91961v-7.05883h15.29412v7.05883z" fill="#cebc2d"/><path d="M46.9958,281.91961v-7.05883h15.29412v7.05883z" fill="#cebc2d"/><path d="M2.87816,290.74314v-7.05883h15.29412v7.05883z" fill="#cebc2d"/><path d="M24.93698,290.74314v-7.05883h15.29412v7.05883z" fill="#cebc2d"/><path d="M46.9958,290.74314v-7.05883h15.29412v7.05883z" fill="#cebc2d"/><path d="M2.87816,299.56667v-7.05883h15.29412v7.05883z" fill="#cebc2d"/><path d="M24.93698,299.56667v-7.05883h15.29412v7.05883z" fill="#cebc2d"/><path d="M46.9958,299.56667v-7.05883h15.29412v7.05883z" fill="#cebc2d"/><path d="M2.87816,308.3902v-7.05883h15.29412v7.05883z" fill="#cebc2d"/><path d="M24.93698,308.3902v-7.05883h15.29412v7.05883z" fill="#cebc2d"/><path d="M46.9958,308.3902v-7.05883h15.29412v7.05883z" fill="#cebc2d"/><path d="M2.87816,317.21373v-7.05883h15.29412v7.05883z" fill="#cebc2d"/><path d="M24.93698,317.21373v-7.05883h15.29412v7.05883z" fill="#cebc2d"/><path d="M46.9958,317.21373v-7.05883h15.29412v7.05883z" fill="#cebc2d"/><path d="M2.87816,326.03726v-7.05883h15.29412v7.05883z" fill="#cebc2d"/><path d="M24.93698,326.03726v-7.05883h15.29412v7.05883z" fill="#cebc2d"/><path d="M46.9958,326.03726v-7.05883h15.29412v7.05883z" fill="#cebc2d"/><path d="M2.87816,334.86079v-7.05882h15.29412v7.05882z" fill="#cebc2d"/><path d="M24.93698,334.86079v-7.05882h15.29412v7.05882z" fill="#cebc2d"/><path d="M46.9958,334.86079v-7.05882h15.29412v7.05882z" fill="#cebc2d"/><path d="M2.87816,343.68432v-7.05882h15.29412v7.05882z" fill="#cebc2d"/><path d="M24.93698,343.68432v-7.05882h15.29412v7.05882z" fill="#cebc2d"/><path d="M46.9958,343.68432v-7.05882h15.29412v7.05882z" fill="#cebc2d"/><path d="M2.87816,352.50785v-7.05883h15.29412v7.05883z" fill="#cebc2d"/><path d="M24.93698,352.50785v-7.05883h15.29412v7.05883z" fill="#cebc2d"/><path d="M46.9958,352.50785v-7.05883h15.29412v7.05883z" fill="#cebc2d"/><path d="M2.87816,361.33138v-7.05883h15.29412v7.05883z" fill="#cebc2d"/><path d="M24.93698,361.33138v-7.05883h15.29412v7.05883z" fill="#cebc2d"/><path d="M46.9958,361.33138v-7.05883h15.29412v7.05883z" fill="#cebc2d"/><path d="M62.95648,378.9v-185.17261h79v185.17261z" fill="#9c9c9c"/><path d="M73.23463,204.45539v-4.2301h15.29412v4.2301z" fill="#cebc2d"/><path d="M95.29345,204.45539v-4.2301h15.29412v4.2301z" fill="#cebc2d"/><path d="M117.35227,204.45539v-4.2301h15.29412v4.2301z" fill="#cebc2d"/><path d="M73.23463,209.74301v-4.2301h15.29412v4.2301z" fill="#cebc2d"/><path d="M95.29345,209.74301v-4.2301h15.29412v4.2301z" fill="#cebc2d"/><path d="M117.35227,209.74301v-4.2301h15.29412v4.2301z" fill="#cebc2d"/><path d="M73.23463,215.03064v-4.2301h15.29412v4.2301z" fill="#cebc2d"/><path d="M95.29345,215.03064v-4.2301h15.29412v4.2301z" fill="#cebc2d"/><path d="M117.35227,215.03064v-4.2301h15.29412v4.2301z" fill="#cebc2d"/><path d="M73.23463,220.31826v-4.2301h15.29412v4.2301z" fill="#cebc2d"/><path d="M95.29345,220.31826v-4.2301h15.29412v4.2301z" fill="#cebc2d"/><path d="M117.35227,220.31826v-4.2301h15.29412v4.2301z" fill="#cebc2d"/><path d="M73.23463,225.60589v-4.2301h15.29412v4.2301z" fill="#cebc2d"/><path d="M95.29345,225.60589v-4.2301h15.29412v4.2301z" fill="#cebc2d"/><path d="M117.35227,225.60589v-4.2301h15.29412v4.2301z" fill="#cebc2d"/><path d="M73.23463,230.89351v-4.2301h15.29412v4.2301z" fill="#cebc2d"/><path d="M95.29345,230.89351v-4.2301h15.29412v4.2301z" fill="#cebc2d"/><path d="M117.35227,230.89351v-4.2301h15.29412v4.2301z" fill="#cebc2d"/><path d="M73.23463,236.18114v-4.2301h15.29412v4.2301z" fill="#cebc2d"/><path d="M95.29345,236.18114v-4.2301h15.29412v4.2301z" fill="#cebc2d"/><path d="M117.35227,236.18114v-4.2301h15.29412v4.2301z" fill="#cebc2d"/><path d="M73.23463,241.46876v-4.2301h15.29412v4.2301z" fill="#cebc2d"/><path d="M95.29345,241.46876v-4.2301h15.29412v4.2301z" fill="#cebc2d"/><path d="M117.35227,241.46876v-4.2301h15.29412v4.2301z" fill="#cebc2d"/><path d="M73.23463,246.75639v-4.2301h15.29412v4.2301z" fill="#cebc2d"/><path d="M95.29345,246.75639v-4.2301h15.29412v4.2301z" fill="#cebc2d"/><path d="M117.35227,246.75639v-4.2301h15.29412v4.2301z" fill="#cebc2d"/><path d="M73.23463,252.04401v-4.2301h15.29412v4.2301z" fill="#cebc2d"/><path d="M95.29345,252.04401v-4.2301h15.29412v4.2301z" fill="#cebc2d"/><path d="M117.35227,252.04401v-4.2301h15.29412v4.2301z" fill="#cebc2d"/><path d="M73.23463,257.33164v-4.2301h15.29412v4.2301z" fill="#cebc2d"/><path d="M95.29345,257.33164v-4.2301h15.29412v4.2301z" fill="#cebc2d"/><path d="M117.35227,257.33164v-4.2301h15.29412v4.2301z" fill="#cebc2d"/><path d="M73.23463,262.61926v-4.2301h15.29412v4.2301z" fill="#cebc2d"/><path d="M95.29345,262.61926v-4.2301h15.29412v4.2301z" fill="#cebc2d"/><path d="M117.35227,262.61926v-4.2301h15.29412v4.2301z" fill="#cebc2d"/><path d="M73.23463,267.90689v-4.2301h15.29412v4.2301z" fill="#cebc2d"/><path d="M95.29345,267.90689v-4.2301h15.29412v4.2301z" fill="#cebc2d"/><path d="M117.35227,267.90689v-4.2301h15.29412v4.2301z" fill="#cebc2d"/><path d="M73.23463,273.19451v-4.2301h15.29412v4.2301z" fill="#cebc2d"/><path d="M95.29345,273.19451v-4.2301h15.29412v4.2301z" fill="#cebc2d"/><path d="M117.35227,273.19451v-4.2301h15.29412v4.2301z" fill="#cebc2d"/><path d="M73.23463,278.48214v-4.2301h15.29412v4.2301z" fill="#cebc2d"/><path d="M95.29345,278.48214v-4.2301h15.29412v4.2301z" fill="#cebc2d"/><path d="M117.35227,278.48214v-4.2301h15.29412v4.2301z" fill="#cebc2d"/><path d="M73.23463,283.76976v-4.2301h15.29412v4.2301z" fill="#cebc2d"/><path d="M95.29345,283.76976v-4.2301h15.29412v4.2301z" fill="#cebc2d"/><path d="M117.35227,283.76976v-4.2301h15.29412v4.2301z" fill="#cebc2d"/><path d="M73.23463,289.05739v-4.2301h15.29412v4.2301z" fill="#cebc2d"/><path d="M95.29345,289.05739v-4.2301h15.29412v4.2301z" fill="#cebc2d"/><path d="M117.35227,289.05739v-4.2301h15.29412v4.2301z" fill="#cebc2d"/><path d="M73.23463,294.34501v-4.2301h15.29412v4.2301z" fill="#cebc2d"/><path d="M95.29345,294.34501v-4.2301h15.29412v4.2301z" fill="#cebc2d"/><path d="M117.35227,294.34501v-4.2301h15.29412v4.2301z" fill="#cebc2d"/><path d="M73.23463,299.63264v-4.2301h15.29412v4.2301z" fill="#cebc2d"/><path d="M95.29345,299.63264v-4.2301h15.29412v4.2301z" fill="#cebc2d"/><path d="M117.35227,299.63264v-4.2301h15.29412v4.2301z" fill="#cebc2d"/><path d="M73.23463,304.92026v-4.2301h15.29412v4.2301z" fill="#cebc2d"/><path d="M95.29345,304.92026v-4.2301h15.29412v4.2301z" fill="#cebc2d"/><path d="M117.35227,304.92026v-4.2301h15.29412v4.2301z" fill="#cebc2d"/><path d="M73.23463,310.20788v-4.2301h15.29412v4.2301z" fill="#cebc2d"/><path d="M95.29345,310.20788v-4.2301h15.29412v4.2301z" fill="#cebc2d"/><path d="M117.35227,310.20788v-4.2301h15.29412v4.2301z" fill="#cebc2d"/><path d="M73.23463,315.49551v-4.2301h15.29412v4.2301z" fill="#cebc2d"/><path d="M95.29345,315.49551v-4.2301h15.29412v4.2301z" fill="#cebc2d"/><path d="M117.35227,315.49551v-4.2301h15.29412v4.2301z" fill="#cebc2d"/><path d="M73.23463,320.78313v-4.2301h15.29412v4.2301z" fill="#cebc2d"/><path d="M95.29345,320.78313v-4.2301h15.29412v4.2301z" fill="#cebc2d"/><path d="M117.35227,320.78313v-4.2301h15.29412v4.2301z" fill="#cebc2d"/><path d="M73.23463,326.07076v-4.2301h15.29412v4.2301z" fill="#cebc2d"/><path d="M95.29345,326.07076v-4.2301h15.29412v4.2301z" fill="#cebc2d"/><path d="M117.35227,326.07076v-4.2301h15.29412v4.2301z" fill="#cebc2d"/><path d="M73.23463,331.35838v-4.2301h15.29412v4.2301z" fill="#cebc2d"/><path d="M95.29345,331.35838v-4.2301h15.29412v4.2301z" fill="#cebc2d"/><path d="M117.35227,331.35838v-4.2301h15.29412v4.2301z" fill="#cebc2d"/><path d="M73.23463,336.64601v-4.2301h15.29412v4.2301z" fill="#cebc2d"/><path d="M95.29345,336.64601v-4.2301h15.29412v4.2301z" fill="#cebc2d"/><path d="M117.35227,336.64601v-4.2301h15.29412v4.2301z" fill="#cebc2d"/><path d="M73.23463,341.93363v-4.2301h15.29412v4.2301z" fill="#cebc2d"/><path d="M95.29345,341.93363v-4.2301h15.29412v4.2301z" fill="#cebc2d"/><path d="M117.35227,341.93363v-4.2301h15.29412v4.2301z" fill="#cebc2d"/><path d="M73.23463,347.22126v-4.2301h15.29412v4.2301z" fill="#cebc2d"/><path d="M95.29345,347.22126v-4.2301h15.29412v4.2301z" fill="#cebc2d"/><path d="M117.35227,347.22126v-4.2301h15.29412v4.2301z" fill="#cebc2d"/><path d="M73.23463,352.50888v-4.2301h15.29412v4.2301z" fill="#cebc2d"/><path d="M95.29345,352.50888v-4.2301h15.29412v4.2301z" fill="#cebc2d"/><path d="M117.35227,352.50888v-4.2301h15.29412v4.2301z" fill="#cebc2d"/><path d="M73.23463,357.79651v-4.2301h15.29412v4.2301z" fill="#cebc2d"/><path d="M95.29345,357.79651v-4.2301h15.29412v4.2301z" fill="#cebc2d"/><path d="M117.35227,357.79651v-4.2301h15.29412v4.2301z" fill="#cebc2d"/><path d="M73.23463,363.08413v-4.2301h15.29412v4.2301z" fill="#cebc2d"/><path d="M95.29345,363.08413v-4.2301h15.29412v4.2301z" fill="#cebc2d"/><path d="M117.35227,363.08413v-4.2301h15.29412v4.2301z" fill="#cebc2d"/><path d="M73.23463,368.37176v-4.2301h15.29412v4.2301z" fill="#cebc2d"/><path d="M95.29345,368.37176v-4.2301h15.29412v4.2301z" fill="#cebc2d"/><path d="M117.35227,368.37176v-4.2301h15.29412v4.2301z" fill="#cebc2d"/><path d="M133.31295,378.9v-375.05727h79v375.05727z" fill="#9c9c9c"/><path d="M143.5911,25.57173v-8.56784h15.29412v8.56784z" fill="#cebc2d"/><path d="M165.64993,25.57173v-8.56784h15.29412v8.56784z" fill="#cebc2d"/><path d="M187.70875,25.57173v-8.56784h15.29412v8.56784z" fill="#cebc2d"/><path d="M143.5911,36.28153v-8.56784h15.29412v8.56784z" fill="#cebc2d"/><path d="M165.64993,36.28153v-8.56784h15.29412v8.56784z" fill="#cebc2d"/><path d="M187.70875,36.28153v-8.56784h15.29412v8.56784z" fill="#cebc2d"/><path d="M143.5911,46.99133v-8.56784h15.29412v8.56784z" fill="#cebc2d"/><path d="M165.64993,46.99133v-8.56784h15.29412v8.56784z" fill="#cebc2d"/><path d="M187.70875,46.99133v-8.56784h15.29412v8.56784z" fill="#cebc2d"/><path d="M143.5911,57.70114v-8.56784h15.29412v8.56784z" fill="#cebc2d"/><path d="M165.64993,57.70114v-8.56784h15.29412v8.56784z" fill="#cebc2d"/><path d="M187.70875,57.70114v-8.56784h15.29412v8.56784z" fill="#cebc2d"/><path d="M143.5911,68.41094v-8.56784h15.29412v8.56784z" fill="#cebc2d"/><path d="M165.64993,68.41094v-8.56784h15.29412v8.56784z" fill="#cebc2d"/><path d="M187.70875,68.41094v-8.56784h15.29412v8.56784z" fill="#cebc2d"/><path d="M143.5911,79.12074v-8.56784h15.29412v8.56784z" fill="#cebc2d"/><path d="M165.64993,79.12074v-8.56784h15.29412v8.56784z" fill="#cebc2d"/><path d="M187.70875,79.12074v-8.56784h15.29412v8.56784z" fill="#cebc2d"/><path d="M143.5911,89.83055v-8.56785h15.29412v8.56785z" fill="#cebc2d"/><path d="M165.64993,89.83055v-8.56785h15.29412v8.56785z" fill="#cebc2d"/><path d="M187.70875,89.83055v-8.56785h15.29412v8.56785z" fill="#cebc2d"/><path d="M143.5911,100.54035v-8.56785h15.29412v8.56785z" fill="#cebc2d"/><path d="M165.64993,100.54035v-8.56785h15.29412v8.56785z" fill="#cebc2d"/><path d="M187.70875,100.54035v-8.56785h15.29412v8.56785z" fill="#cebc2d"/><path d="M143.5911,111.25014v-8.56784h15.29412v8.56784z" fill="#cebc2d"/><path d="M165.64993,111.25014v-8.56784h15.29412v8.56784z" fill="#cebc2d"/><path d="M187.70875,111.25014v-8.56784h15.29412v8.56784z" fill="#cebc2d"/><path d="M143.5911,121.95995v-8.56784h15.29412v8.56784z" fill="#cebc2d"/><path d="M165.64993,121.95995v-8.56784h15.29412v8.56784z" fill="#cebc2d"/><path d="M187.70875,121.95995v-8.56784h15.29412v8.56784z" fill="#cebc2d"/><path d="M143.5911,132.66975v-8.56784h15.29412v8.56784z" fill="#cebc2d"/><path d="M165.64993,132.66975v-8.56784h15.29412v8.56784z" fill="#cebc2d"/><path d="M187.70875,132.66975v-8.56784h15.29412v8.56784z" fill="#cebc2d"/><path d="M143.5911,143.37955v-8.56784h15.29412v8.56784z" fill="#cebc2d"/><path d="M165.64993,143.37955v-8.56784h15.29412v8.56784z" fill="#cebc2d"/><path d="M187.70875,143.37955v-8.56784h15.29412v8.56784z" fill="#cebc2d"/><path d="M143.5911,154.08936v-8.56784h15.29412v8.56784z" fill="#cebc2d"/><path d="M165.64993,154.08936v-8.56784h15.29412v8.56784z" fill="#cebc2d"/><path d="M187.70875,154.08936v-8.56784h15.29412v8.56784z" fill="#cebc2d"/><path d="M143.5911,164.79916v-8.56784h15.29412v8.56784z" fill="#cebc2d"/><path d="M165.64993,164.79916v-8.56784h15.29412v8.56784z" fill="#cebc2d"/><path d="M187.70875,164.79916v-8.56784h15.29412v8.56784z" fill="#cebc2d"/><path d="M143.5911,175.50896v-8.56784h15.29412v8.56784z" fill="#cebc2d"/><path d="M165.64993,175.50896v-8.56784h15.29412v8.56784z" fill="#cebc2d"/><path d="M187.70875,175.50896v-8.56784h15.29412v8.56784z" fill="#cebc2d"/><path d="M143.5911,186.21876v-8.56784h15.29412v8.56784z" fill="#cebc2d"/><path d="M165.64993,186.21876v-8.56784h15.29412v8.56784z" fill="#cebc2d"/><path d="M187.70875,186.21876v-8.56784h15.29412v8.56784z" fill="#cebc2d"/><path d="M143.5911,196.92857v-8.56784h15.29412v8.56784z" fill="#cebc2d"/><path d="M165.64993,196.92857v-8.56784h15.29412v8.56784z" fill="#cebc2d"/><path d="M187.70875,196.92857v-8.56784h15.29412v8.56784z" fill="#cebc2d"/><path d="M143.5911,207.63837v-8.56784h15.29412v8.56784z" fill="#cebc2d"/><path d="M165.64993,207.63837v-8.56784h15.29412v8.56784z" fill="#cebc2d"/><path d="M187.70875,207.63837v-8.56784h15.29412v8.56784z" fill="#cebc2d"/><path d="M143.5911,218.34817v-8.56784h15.29412v8.56784z" fill="#cebc2d"/><path d="M165.64993,218.34817v-8.56784h15.29412v8.56784z" fill="#cebc2d"/><path d="M187.70875,218.34817v-8.56784h15.29412v8.56784z" fill="#cebc2d"/><path d="M143.5911,229.05798v-8.56784h15.29412v8.56784z" fill="#cebc2d"/><path d="M165.64993,229.05798v-8.56784h15.29412v8.56784z" fill="#cebc2d"/><path d="M187.70875,229.05798v-8.56784h15.29412v8.56784z" fill="#cebc2d"/><path d="M143.5911,239.76778v-8.56784h15.29412v8.56784z" fill="#cebc2d"/><path d="M165.64993,239.76778v-8.56784h15.29412v8.56784z" fill="#cebc2d"/><path d="M187.70875,239.76778v-8.56784h15.29412v8.56784z" fill="#cebc2d"/><path d="M143.5911,250.47758v-8.56784h15.29412v8.56784z" fill="#cebc2d"/><path d="M165.64993,250.47758v-8.56784h15.29412v8.56784z" fill="#cebc2d"/><path d="M187.70875,250.47758v-8.56784h15.29412v8.56784z" fill="#cebc2d"/><path d="M143.5911,261.18739v-8.56784h15.29412v8.56784z" fill="#cebc2d"/><path d="M165.64993,261.18739v-8.56784h15.29412v8.56784z" fill="#cebc2d"/><path d="M187.70875,261.18739v-8.56784h15.29412v8.56784z" fill="#cebc2d"/><path d="M143.5911,271.89719v-8.56784h15.29412v8.56784z" fill="#cebc2d"/><path d="M165.64993,271.89719v-8.56784h15.29412v8.56784z" fill="#cebc2d"/><path d="M187.70875,271.89719v-8.56784h15.29412v8.56784z" fill="#cebc2d"/><path d="M143.5911,282.60699v-8.56784h15.29412v8.56784z" fill="#cebc2d"/><path d="M165.64993,282.60699v-8.56784h15.29412v8.56784z" fill="#cebc2d"/><path d="M187.70875,282.60699v-8.56784h15.29412v8.56784z" fill="#cebc2d"/><path d="M143.5911,293.3168v-8.56784h15.29412v8.56784z" fill="#cebc2d"/><path d="M165.64993,293.3168v-8.56784h15.29412v8.56784z" fill="#cebc2d"/><path d="M187.70875,293.3168v-8.56784h15.29412v8.56784z" fill="#cebc2d"/><path d="M143.5911,304.0266v-8.56784h15.29412v8.56784z" fill="#cebc2d"/><path d="M165.64993,304.0266v-8.56784h15.29412v8.56784z" fill="#cebc2d"/><path d="M187.70875,304.0266v-8.56784h15.29412v8.56784z" fill="#cebc2d"/><path d="M143.5911,314.7364v-8.56784h15.29412v8.56784z" fill="#cebc2d"/><path d="M165.64993,314.7364v-8.56784h15.29412v8.56784z" fill="#cebc2d"/><path d="M187.70875,314.7364v-8.56784h15.29412v8.56784z" fill="#cebc2d"/><path d="M143.5911,325.44621v-8.56784h15.29412v8.56784z" fill="#cebc2d"/><path d="M165.64993,325.44621v-8.56784h15.29412v8.56784z" fill="#cebc2d"/><path d="M187.70875,325.44621v-8.56784h15.29412v8.56784z" fill="#cebc2d"/><path d="M143.5911,336.15601v-8.56784h15.29412v8.56784z" fill="#cebc2d"/><path d="M165.64993,336.15601v-8.56784h15.29412v8.56784z" fill="#cebc2d"/><path d="M187.70875,336.15601v-8.56784h15.29412v8.56784z" fill="#cebc2d"/><path d="M143.5911,346.86581v-8.56785h15.29412v8.56785z" fill="#cebc2d"/><path d="M165.64993,346.86581v-8.56785h15.29412v8.56785z" fill="#cebc2d"/><path d="M187.70875,346.86581v-8.56785h15.29412v8.56785z" fill="#cebc2d"/><path d="M143.5911,357.57562v-8.56785h15.29412v8.56785z" fill="#cebc2d"/><path d="M165.64993,357.57562v-8.56785h15.29412v8.56785z" fill="#cebc2d"/><path d="M187.70875,357.57562v-8.56785h15.29412v8.56785z" fill="#cebc2d"/><path d="M203.66943,378.9v-256.8584h79v256.8584z" fill="#9c9c9c"/><path d="M213.94758,136.92273v-5.8677h15.29412v5.8677z" fill="#cebc2d"/><path d="M236.0064,136.92273v-5.8677h15.29412v5.8677z" fill="#cebc2d"/><path d="M258.06522,136.92273v-5.8677h15.29412v5.8677z" fill="#cebc2d"/><path d="M213.94758,144.25735v-5.86769h15.29412v5.86769z" fill="#cebc2d"/><path d="M236.0064,144.25735v-5.86769h15.29412v5.86769z" fill="#cebc2d"/><path d="M258.06522,144.25735v-5.86769h15.29412v5.86769z" fill="#cebc2d"/><path d="M213.94758,151.59197v-5.8677h15.29412v5.8677z" fill="#cebc2d"/><path d="M236.0064,151.59197v-5.8677h15.29412v5.8677z" fill="#cebc2d"/><path d="M258.06522,151.59197v-5.8677h15.29412v5.8677z" fill="#cebc2d"/><path d="M213.94758,158.92659v-5.86769h15.29412v5.86769z" fill="#cebc2d"/><path d="M236.0064,158.92659v-5.86769h15.29412v5.86769z" fill="#cebc2d"/><path d="M258.06522,158.92659v-5.86769h15.29412v5.86769z" fill="#cebc2d"/><path d="M213.94758,166.26121v-5.86769h15.29412v5.86769z" fill="#cebc2d"/><path d="M236.0064,166.26121v-5.86769h15.29412v5.86769z" fill="#cebc2d"/><path d="M258.06522,166.26121v-5.86769h15.29412v5.86769z" fill="#cebc2d"/><path d="M213.94758,173.59584v-5.8677h15.29412v5.8677z" fill="#cebc2d"/><path d="M236.0064,173.59584v-5.8677h15.29412v5.8677z" fill="#cebc2d"/><path d="M258.06522,173.59584v-5.8677h15.29412v5.8677z" fill="#cebc2d"/><path d="M213.94758,180.93046v-5.8677h15.29412v5.8677z" fill="#cebc2d"/><path d="M236.0064,180.93046v-5.8677h15.29412v5.8677z" fill="#cebc2d"/><path d="M258.06522,180.93046v-5.8677h15.29412v5.8677z" fill="#cebc2d"/><path d="M213.94758,188.26508v-5.86771h15.29412v5.86771z" fill="#cebc2d"/><path d="M236.0064,188.26508v-5.86771h15.29412v5.86771z" fill="#cebc2d"/><path d="M258.06522,188.26508v-5.86771h15.29412v5.86771z" fill="#cebc2d"/><path d="M213.94758,195.59969v-5.8677h15.29412v5.8677z" fill="#cebc2d"/><path d="M236.0064,195.59969v-5.8677h15.29412v5.8677z" fill="#cebc2d"/><path d="M258.06522,195.59969v-5.8677h15.29412v5.8677z" fill="#cebc2d"/><path d="M213.94758,202.93431v-5.86769h15.29412v5.86769z" fill="#cebc2d"/><path d="M236.0064,202.93431v-5.86769h15.29412v5.86769z" fill="#cebc2d"/><path d="M258.06522,202.93431v-5.86769h15.29412v5.86769z" fill="#cebc2d"/><path d="M213.94758,210.26893v-5.8677h15.29412v5.8677z" fill="#cebc2d"/><path d="M236.0064,210.26893v-5.8677h15.29412v5.8677z" fill="#cebc2d"/><path d="M258.06522,210.26893v-5.8677h15.29412v5.8677z" fill="#cebc2d"/><path d="M213.94758,217.60355v-5.86769h15.29412v5.86769z" fill="#cebc2d"/><path d="M236.0064,217.60355v-5.86769h15.29412v5.86769z" fill="#cebc2d"/><path d="M258.06522,217.60355v-5.86769h15.29412v5.86769z" fill="#cebc2d"/><path d="M213.94758,224.93817v-5.86769h15.29412v5.86769z" fill="#cebc2d"/><path d="M236.0064,224.93817v-5.86769h15.29412v5.86769z" fill="#cebc2d"/><path d="M258.06522,224.93817v-5.86769h15.29412v5.86769z" fill="#cebc2d"/><path d="M213.94758,232.2728v-5.8677h15.29412v5.8677z" fill="#cebc2d"/><path d="M236.0064,232.2728v-5.8677h15.29412v5.8677z" fill="#cebc2d"/><path d="M258.06522,232.2728v-5.8677h15.29412v5.8677z" fill="#cebc2d"/><path d="M213.94758,239.60741v-5.86769h15.29412v5.86769z" fill="#cebc2d"/><path d="M236.0064,239.60741v-5.86769h15.29412v5.86769z" fill="#cebc2d"/><path d="M258.06522,239.60741v-5.86769h15.29412v5.86769z" fill="#cebc2d"/><path d="M213.94758,246.94204v-5.8677h15.29412v5.8677z" fill="#cebc2d"/><path d="M236.0064,246.94204v-5.8677h15.29412v5.8677z" fill="#cebc2d"/><path d="M258.06522,246.94204v-5.8677h15.29412v5.8677z" fill="#cebc2d"/><path d="M213.94758,254.27666v-5.8677h15.29412v5.8677z" fill="#cebc2d"/><path d="M236.0064,254.27666v-5.8677h15.29412v5.8677z" fill="#cebc2d"/><path d="M258.06522,254.27666v-5.8677h15.29412v5.8677z" fill="#cebc2d"/><path d="M213.94758,261.61128v-5.86769h15.29412v5.86769z" fill="#cebc2d"/><path d="M236.0064,261.61128v-5.86769h15.29412v5.86769z" fill="#cebc2d"/><path d="M258.06522,261.61128v-5.86769h15.29412v5.86769z" fill="#cebc2d"/><path d="M213.94758,268.9459v-5.8677h15.29412v5.8677z" fill="#cebc2d"/><path d="M236.0064,268.9459v-5.8677h15.29412v5.8677z" fill="#cebc2d"/><path d="M258.06522,268.9459v-5.8677h15.29412v5.8677z" fill="#cebc2d"/><path d="M213.94758,276.28052v-5.86769h15.29412v5.86769z" fill="#cebc2d"/><path d="M236.0064,276.28052v-5.86769h15.29412v5.86769z" fill="#cebc2d"/><path d="M258.06522,276.28052v-5.86769h15.29412v5.86769z" fill="#cebc2d"/><path d="M213.94758,283.61514v-5.86769h15.29412v5.86769z" fill="#cebc2d"/><path d="M236.0064,283.61514v-5.86769h15.29412v5.86769z" fill="#cebc2d"/><path d="M258.06522,283.61514v-5.86769h15.29412v5.86769z" fill="#cebc2d"/><path d="M213.94758,290.94976v-5.8677h15.29412v5.8677z" fill="#cebc2d"/><path d="M236.0064,290.94976v-5.8677h15.29412v5.8677z" fill="#cebc2d"/><path d="M258.06522,290.94976v-5.8677h15.29412v5.8677z" fill="#cebc2d"/><path d="M213.94758,298.28438v-5.86769h15.29412v5.86769z" fill="#cebc2d"/><path d="M236.0064,298.28438v-5.86769h15.29412v5.86769z" fill="#cebc2d"/><path d="M258.06522,298.28438v-5.86769h15.29412v5.86769z" fill="#cebc2d"/><path d="M213.94758,305.619v-5.86769h15.29412v5.86769z" fill="#cebc2d"/><path d="M236.0064,305.619v-5.86769h15.29412v5.86769z" fill="#cebc2d"/><path d="M258.06522,305.619v-5.86769h15.29412v5.86769z" fill="#cebc2d"/><path d="M213.94758,312.95363v-5.8677h15.29412v5.8677z" fill="#cebc2d"/><path d="M236.0064,312.95363v-5.8677h15.29412v5.8677z" fill="#cebc2d"/><path d="M258.06522,312.95363v-5.8677h15.29412v5.8677z" fill="#cebc2d"/><path d="M213.94758,320.28824v-5.86769h15.29412v5.86769z" fill="#cebc2d"/><path d="M236.0064,320.28824v-5.86769h15.29412v5.86769z" fill="#cebc2d"/><path d="M258.06522,320.28824v-5.86769h15.29412v5.86769z" fill="#cebc2d"/><path d="M213.94758,327.62287v-5.8677h15.29412v5.8677z" fill="#cebc2d"/><path d="M236.0064,327.62287v-5.8677h15.29412v5.8677z" fill="#cebc2d"/><path d="M258.06522,327.62287v-5.8677h15.29412v5.8677z" fill="#cebc2d"/><path d="M213.94758,334.95749v-5.8677h15.29412v5.8677z" fill="#cebc2d"/><path d="M236.0064,334.95749v-5.8677h15.29412v5.8677z" fill="#cebc2d"/><path d="M258.06522,334.95749v-5.8677h15.29412v5.8677z" fill="#cebc2d"/><path d="M213.94758,342.29211v-5.86769h15.29412v5.86769z" fill="#cebc2d"/><path d="M236.0064,342.29211v-5.86769h15.29412v5.86769z" fill="#cebc2d"/><path d="M258.06522,342.29211v-5.86769h15.29412v5.86769z" fill="#cebc2d"/><path d="M213.94758,349.62673v-5.8677h15.29412v5.8677z" fill="#cebc2d"/><path d="M236.0064,349.62673v-5.8677h15.29412v5.8677z" fill="#cebc2d"/><path d="M258.06522,349.62673v-5.8677h15.29412v5.8677z" fill="#cebc2d"/><path d="M213.94758,356.96135v-5.8677h15.29412v5.8677z" fill="#cebc2d"/><path d="M236.0064,356.96135v-5.8677h15.29412v5.8677z" fill="#cebc2d"/><path d="M258.06522,356.96135v-5.8677h15.29412v5.8677z" fill="#cebc2d"/><path d="M213.94758,364.29597v-5.86771h15.29412v5.86771z" fill="#cebc2d"/><path d="M236.0064,364.29597v-5.86771h15.29412v5.86771z" fill="#cebc2d"/><path d="M258.06522,364.29597v-5.86771h15.29412v5.86771z" fill="#cebc2d"/></g><path d="M262.87028,378.9v-309h79v309z" fill="#9c9c9c"/><path d="M273.14843,87.80196v-7.05883h15.29412v7.05883z" fill="#cebc2d"/><path d="M295.20725,87.80196v-7.05883h15.29412v7.05883z" fill="#cebc2d"/><path d="M317.26607,87.80196v-7.05883h15.29412v7.05883z" fill="#cebc2d"/><path d="M273.14843,96.62549v-7.05882h15.29412v7.05882z" fill="#cebc2d"/><path d="M295.20725,96.62549v-7.05882h15.29412v7.05882z" fill="#cebc2d"/><path d="M317.26607,96.62549v-7.05882h15.29412v7.05882z" fill="#cebc2d"/><path d="M273.14843,105.44902v-7.05882h15.29412v7.05882z" fill="#cebc2d"/><path d="M295.20725,105.44902v-7.05882h15.29412v7.05882z" fill="#cebc2d"/><path d="M317.26607,105.44902v-7.05882h15.29412v7.05882z" fill="#cebc2d"/><path d="M273.14843,114.27255v-7.05882h15.29412v7.05882z" fill="#cebc2d"/><path d="M295.20725,114.27255v-7.05882h15.29412v7.05882z" fill="#cebc2d"/><path d="M317.26607,114.27255v-7.05882h15.29412v7.05882z" fill="#cebc2d"/><path d="M273.14843,123.09608v-7.05882h15.29412v7.05882z" fill="#cebc2d"/><path d="M295.20725,123.09608v-7.05882h15.29412v7.05882z" fill="#cebc2d"/><path d="M317.26607,123.09608v-7.05882h15.29412v7.05882z" fill="#cebc2d"/><path d="M273.14843,131.9196v-7.05882h15.29412v7.05882z" fill="#cebc2d"/><path d="M295.20725,131.9196v-7.05882h15.29412v7.05882z" fill="#cebc2d"/><path d="M317.26607,131.9196v-7.05882h15.29412v7.05882z" fill="#cebc2d"/><path d="M273.14843,140.74314v-7.05882h15.29412v7.05882z" fill="#cebc2d"/><path d="M295.20725,140.74314v-7.05882h15.29412v7.05882z" fill="#cebc2d"/><path d="M317.26607,140.74314v-7.05882h15.29412v7.05882z" fill="#cebc2d"/><path d="M273.14843,149.56667v-7.05883h15.29412v7.05883z" fill="#cebc2d"/><path d="M295.20725,149.56667v-7.05883h15.29412v7.05883z" fill="#cebc2d"/><path d="M317.26607,149.56667v-7.05883h15.29412v7.05883z" fill="#cebc2d"/><path d="M273.14843,158.3902v-7.05883h15.29412v7.05883z" fill="#cebc2d"/><path d="M295.20725,158.3902v-7.05883h15.29412v7.05883z" fill="#cebc2d"/><path d="M317.26607,158.3902v-7.05883h15.29412v7.05883z" fill="#cebc2d"/><path d="M273.14843,167.21373v-7.05883h15.29412v7.05883z" fill="#cebc2d"/><path d="M295.20725,167.21373v-7.05883h15.29412v7.05883z" fill="#cebc2d"/><path d="M317.26607,167.21373v-7.05883h15.29412v7.05883z" fill="#cebc2d"/><path d="M273.14843,176.03726v-7.05882h15.29412v7.05882z" fill="#cebc2d"/><path d="M295.20725,176.03726v-7.05882h15.29412v7.05882z" fill="#cebc2d"/><path d="M317.26607,176.03726v-7.05882h15.29412v7.05882z" fill="#cebc2d"/><path d="M273.14843,184.86079v-7.05882h15.29412v7.05882z" fill="#cebc2d"/><path d="M295.20725,184.86079v-7.05882h15.29412v7.05882z" fill="#cebc2d"/><path d="M317.26607,184.86079v-7.05882h15.29412v7.05882z" fill="#cebc2d"/><path d="M273.14843,193.68432v-7.05882h15.29412v7.05882z" fill="#cebc2d"/><path d="M295.20725,193.68432v-7.05882h15.29412v7.05882z" fill="#cebc2d"/><path d="M317.26607,193.68432v-7.05882h15.29412v7.05882z" fill="#cebc2d"/><path d="M273.14843,202.50785v-7.05883h15.29412v7.05883z" fill="#cebc2d"/><path d="M295.20725,202.50785v-7.05883h15.29412v7.05883z" fill="#cebc2d"/><path d="M317.26607,202.50785v-7.05883h15.29412v7.05883z" fill="#cebc2d"/><path d="M273.14843,211.33138v-7.05883h15.29412v7.05883z" fill="#cebc2d"/><path d="M295.20725,211.33138v-7.05883h15.29412v7.05883z" fill="#cebc2d"/><path d="M317.26607,211.33138v-7.05883h15.29412v7.05883z" fill="#cebc2d"/><path d="M273.14843,220.15491v-7.05883h15.29412v7.05883z" fill="#cebc2d"/><path d="M295.20725,220.15491v-7.05883h15.29412v7.05883z" fill="#cebc2d"/><path d="M317.26607,220.15491v-7.05883h15.29412v7.05883z" fill="#cebc2d"/><path d="M273.14843,228.97844v-7.05882h15.29412v7.05882z" fill="#cebc2d"/><path d="M295.20725,228.97844v-7.05882h15.29412v7.05882z" fill="#cebc2d"/><path d="M317.26607,228.97844v-7.05882h15.29412v7.05882z" fill="#cebc2d"/><path d="M273.14843,237.80197v-7.05882h15.29412v7.05882z" fill="#cebc2d"/><path d="M295.20725,237.80197v-7.05882h15.29412v7.05882z" fill="#cebc2d"/><path d="M317.26607,237.80197v-7.05882h15.29412v7.05882z" fill="#cebc2d"/><path d="M273.14843,246.6255v-7.05883h15.29412v7.05883z" fill="#cebc2d"/><path d="M295.20725,246.6255v-7.05883h15.29412v7.05883z" fill="#cebc2d"/><path d="M317.26607,246.6255v-7.05883h15.29412v7.05883z" fill="#cebc2d"/><path d="M273.14843,255.44903v-7.05883h15.29412v7.05883z" fill="#cebc2d"/><path d="M295.20725,255.44903v-7.05883h15.29412v7.05883z" fill="#cebc2d"/><path d="M317.26607,255.44903v-7.05883h15.29412v7.05883z" fill="#cebc2d"/><path d="M273.14843,264.27256v-7.05883h15.29412v7.05883z" fill="#cebc2d"/><path d="M295.20725,264.27256v-7.05883h15.29412v7.05883z" fill="#cebc2d"/><path d="M317.26607,264.27256v-7.05883h15.29412v7.05883z" fill="#cebc2d"/><path d="M273.14843,273.09609v-7.05883h15.29412v7.05883z" fill="#cebc2d"/><path d="M295.20725,273.09609v-7.05883h15.29412v7.05883z" fill="#cebc2d"/><path d="M317.26607,273.09609v-7.05883h15.29412v7.05883z" fill="#cebc2d"/><path d="M273.14843,281.91962v-7.05883h15.29412v7.05883z" fill="#cebc2d"/><path d="M295.20725,281.91962v-7.05883h15.29412v7.05883z" fill="#cebc2d"/><path d="M317.26607,281.91962v-7.05883h15.29412v7.05883z" fill="#cebc2d"/><path d="M273.14843,290.74315v-7.05883h15.29412v7.05883z" fill="#cebc2d"/><path d="M295.20725,290.74315v-7.05883h15.29412v7.05883z" fill="#cebc2d"/><path d="M317.26607,290.74315v-7.05883h15.29412v7.05883z" fill="#cebc2d"/><path d="M273.14843,299.56667v-7.05882h15.29412v7.05882z" fill="#cebc2d"/><path d="M295.20725,299.56667v-7.05882h15.29412v7.05882z" fill="#cebc2d"/><path d="M317.26607,299.56667v-7.05882h15.29412v7.05882z" fill="#cebc2d"/><path d="M273.14843,308.3902v-7.05882h15.29412v7.05882z" fill="#cebc2d"/><path d="M295.20725,308.3902v-7.05882h15.29412v7.05882z" fill="#cebc2d"/><path d="M317.26607,308.3902v-7.05882h15.29412v7.05882z" fill="#cebc2d"/><path d="M273.14843,317.21374v-7.05883h15.29412v7.05883z" fill="#cebc2d"/><path d="M295.20725,317.21374v-7.05883h15.29412v7.05883z" fill="#cebc2d"/><path d="M317.26607,317.21374v-7.05883h15.29412v7.05883z" fill="#cebc2d"/><path d="M273.14843,326.03727v-7.05883h15.29412v7.05883z" fill="#cebc2d"/><path d="M295.20725,326.03727v-7.05883h15.29412v7.05883z" fill="#cebc2d"/><path d="M317.26607,326.03727v-7.05883h15.29412v7.05883z" fill="#cebc2d"/><path d="M273.14843,334.8608v-7.05883h15.29412v7.05883z" fill="#cebc2d"/><path d="M295.20725,334.8608v-7.05883h15.29412v7.05883z" fill="#cebc2d"/><path d="M317.26607,334.8608v-7.05883h15.29412v7.05883z" fill="#cebc2d"/><path d="M273.14843,343.68433v-7.05883h15.29412v7.05883z" fill="#cebc2d"/><path d="M295.20725,343.68433v-7.05883h15.29412v7.05883z" fill="#cebc2d"/><path d="M317.26607,343.68433v-7.05883h15.29412v7.05883z" fill="#cebc2d"/><path d="M273.14843,352.50786v-7.05883h15.29412v7.05883z" fill="#cebc2d"/><path d="M295.20725,352.50786v-7.05883h15.29412v7.05883z" fill="#cebc2d"/><path d="M317.26607,352.50786v-7.05883h15.29412v7.05883z" fill="#cebc2d"/><path d="M273.14843,361.33139v-7.05883h15.29412v7.05883z" fill="#cebc2d"/><path d="M295.20725,361.33139v-7.05883h15.29412v7.05883z" fill="#cebc2d"/><path d="M317.26607,361.33139v-7.05883h15.29412v7.05883z" fill="#cebc2d"/><path d="M333.22675,378.9v-185.17261h79v185.17261z" fill="#9c9c9c"/><path d="M343.5049,204.45539v-4.2301h15.29412v4.2301z" fill="#cebc2d"/><path d="M365.56373,204.45539v-4.2301h15.29412v4.2301z" fill="#cebc2d"/><path d="M387.62255,204.45539v-4.2301h15.29412v4.2301z" fill="#cebc2d"/><path d="M343.5049,209.74302v-4.2301h15.29412v4.2301z" fill="#cebc2d"/><path d="M365.56373,209.74302v-4.2301h15.29412v4.2301z" fill="#cebc2d"/><path d="M387.62255,209.74302v-4.2301h15.29412v4.2301z" fill="#cebc2d"/><path d="M343.5049,215.03064v-4.2301h15.29412v4.2301z" fill="#cebc2d"/><path d="M365.56373,215.03064v-4.2301h15.29412v4.2301z" fill="#cebc2d"/><path d="M387.62255,215.03064v-4.2301h15.29412v4.2301z" fill="#cebc2d"/><path d="M343.5049,220.31827v-4.2301h15.29412v4.2301z" fill="#cebc2d"/><path d="M365.56373,220.31827v-4.2301h15.29412v4.2301z" fill="#cebc2d"/><path d="M387.62255,220.31827v-4.2301h15.29412v4.2301z" fill="#cebc2d"/><path d="M343.5049,225.60589v-4.2301h15.29412v4.2301z" fill="#cebc2d"/><path d="M365.56373,225.60589v-4.2301h15.29412v4.2301z" fill="#cebc2d"/><path d="M387.62255,225.60589v-4.2301h15.29412v4.2301z" fill="#cebc2d"/><path d="M343.5049,230.89352v-4.2301h15.29412v4.2301z" fill="#cebc2d"/><path d="M365.56373,230.89352v-4.2301h15.29412v4.2301z" fill="#cebc2d"/><path d="M387.62255,230.89352v-4.2301h15.29412v4.2301z" fill="#cebc2d"/><path d="M343.5049,236.18114v-4.23011h15.29412v4.23011z" fill="#cebc2d"/><path d="M365.56373,236.18114v-4.23011h15.29412v4.23011z" fill="#cebc2d"/><path d="M387.62255,236.18114v-4.23011h15.29412v4.23011z" fill="#cebc2d"/><path d="M343.5049,241.46877v-4.2301h15.29412v4.2301z" fill="#cebc2d"/><path d="M365.56373,241.46877v-4.2301h15.29412v4.2301z" fill="#cebc2d"/><path d="M387.62255,241.46877v-4.2301h15.29412v4.2301z" fill="#cebc2d"/><path d="M343.5049,246.75639v-4.2301h15.29412v4.2301z" fill="#cebc2d"/><path d="M365.56373,246.75639v-4.2301h15.29412v4.2301z" fill="#cebc2d"/><path d="M387.62255,246.75639v-4.2301h15.29412v4.2301z" fill="#cebc2d"/><path d="M343.5049,252.04401v-4.2301h15.29412v4.2301z" fill="#cebc2d"/><path d="M365.56373,252.04401v-4.2301h15.29412v4.2301z" fill="#cebc2d"/><path d="M387.62255,252.04401v-4.2301h15.29412v4.2301z" fill="#cebc2d"/><path d="M343.5049,257.33164v-4.2301h15.29412v4.2301z" fill="#cebc2d"/><path d="M365.56373,257.33164v-4.2301h15.29412v4.2301z" fill="#cebc2d"/><path d="M387.62255,257.33164v-4.2301h15.29412v4.2301z" fill="#cebc2d"/><path d="M343.5049,262.61926v-4.2301h15.29412v4.2301z" fill="#cebc2d"/><path d="M365.56373,262.61926v-4.2301h15.29412v4.2301z" fill="#cebc2d"/><path d="M387.62255,262.61926v-4.2301h15.29412v4.2301z" fill="#cebc2d"/><path d="M343.5049,267.90689v-4.2301h15.29412v4.2301z" fill="#cebc2d"/><path d="M365.56373,267.90689v-4.2301h15.29412v4.2301z" fill="#cebc2d"/><path d="M387.62255,267.90689v-4.2301h15.29412v4.2301z" fill="#cebc2d"/><path d="M343.5049,273.19451v-4.2301h15.29412v4.2301z" fill="#cebc2d"/><path d="M365.56373,273.19451v-4.2301h15.29412v4.2301z" fill="#cebc2d"/><path d="M387.62255,273.19451v-4.2301h15.29412v4.2301z" fill="#cebc2d"/><path d="M343.5049,278.48214v-4.2301h15.29412v4.2301z" fill="#cebc2d"/><path d="M365.56373,278.48214v-4.2301h15.29412v4.2301z" fill="#cebc2d"/><path d="M387.62255,278.48214v-4.2301h15.29412v4.2301z" fill="#cebc2d"/><path d="M343.5049,283.76976v-4.2301h15.29412v4.2301z" fill="#cebc2d"/><path d="M365.56373,283.76976v-4.2301h15.29412v4.2301z" fill="#cebc2d"/><path d="M387.62255,283.76976v-4.2301h15.29412v4.2301z" fill="#cebc2d"/><path d="M343.5049,289.05739v-4.2301h15.29412v4.2301z" fill="#cebc2d"/><path d="M365.56373,289.05739v-4.2301h15.29412v4.2301z" fill="#cebc2d"/><path d="M387.62255,289.05739v-4.2301h15.29412v4.2301z" fill="#cebc2d"/><path d="M343.5049,294.34501v-4.2301h15.29412v4.2301z" fill="#cebc2d"/><path d="M365.56373,294.34501v-4.2301h15.29412v4.2301z" fill="#cebc2d"/><path d="M387.62255,294.34501v-4.2301h15.29412v4.2301z" fill="#cebc2d"/><path d="M343.5049,299.63264v-4.2301h15.29412v4.2301z" fill="#cebc2d"/><path d="M365.56373,299.63264v-4.2301h15.29412v4.2301z" fill="#cebc2d"/><path d="M387.62255,299.63264v-4.2301h15.29412v4.2301z" fill="#cebc2d"/><path d="M343.5049,304.92026v-4.2301h15.29412v4.2301z" fill="#cebc2d"/><path d="M365.56373,304.92026v-4.2301h15.29412v4.2301z" fill="#cebc2d"/><path d="M387.62255,304.92026v-4.2301h15.29412v4.2301z" fill="#cebc2d"/><path d="M343.5049,310.20788v-4.2301h15.29412v4.2301z" fill="#cebc2d"/><path d="M365.56373,310.20788v-4.2301h15.29412v4.2301z" fill="#cebc2d"/><path d="M387.62255,310.20788v-4.2301h15.29412v4.2301z" fill="#cebc2d"/><path d="M343.5049,315.49551v-4.2301h15.29412v4.2301z" fill="#cebc2d"/><path d="M365.56373,315.49551v-4.2301h15.29412v4.2301z" fill="#cebc2d"/><path d="M387.62255,315.49551v-4.2301h15.29412v4.2301z" fill="#cebc2d"/><path d="M343.5049,320.78314v-4.2301h15.29412v4.2301z" fill="#cebc2d"/><path d="M365.56373,320.78314v-4.2301h15.29412v4.2301z" fill="#cebc2d"/><path d="M387.62255,320.78314v-4.2301h15.29412v4.2301z" fill="#cebc2d"/><path d="M343.5049,326.07076v-4.2301h15.29412v4.2301z" fill="#cebc2d"/><path d="M365.56373,326.07076v-4.2301h15.29412v4.2301z" fill="#cebc2d"/><path d="M387.62255,326.07076v-4.2301h15.29412v4.2301z" fill="#cebc2d"/><path d="M343.5049,331.35839v-4.2301h15.29412v4.2301z" fill="#cebc2d"/><path d="M365.56373,331.35839v-4.2301h15.29412v4.2301z" fill="#cebc2d"/><path d="M387.62255,331.35839v-4.2301h15.29412v4.2301z" fill="#cebc2d"/><path d="M343.5049,336.64601v-4.2301h15.29412v4.2301z" fill="#cebc2d"/><path d="M365.56373,336.64601v-4.2301h15.29412v4.2301z" fill="#cebc2d"/><path d="M387.62255,336.64601v-4.2301h15.29412v4.2301z" fill="#cebc2d"/><path d="M343.5049,341.93364v-4.2301h15.29412v4.2301z" fill="#cebc2d"/><path d="M365.56373,341.93364v-4.2301h15.29412v4.2301z" fill="#cebc2d"/><path d="M387.62255,341.93364v-4.2301h15.29412v4.2301z" fill="#cebc2d"/><path d="M343.5049,347.22126v-4.2301h15.29412v4.2301z" fill="#cebc2d"/><path d="M365.56373,347.22126v-4.2301h15.29412v4.2301z" fill="#cebc2d"/><path d="M387.62255,347.22126v-4.2301h15.29412v4.2301z" fill="#cebc2d"/><path d="M343.5049,352.50889v-4.2301h15.29412v4.2301z" fill="#cebc2d"/><path d="M365.56373,352.50889v-4.2301h15.29412v4.2301z" fill="#cebc2d"/><path d="M387.62255,352.50889v-4.2301h15.29412v4.2301z" fill="#cebc2d"/><path d="M343.5049,357.79651v-4.2301h15.29412v4.2301z" fill="#cebc2d"/><path d="M365.56373,357.79651v-4.2301h15.29412v4.2301z" fill="#cebc2d"/><path d="M387.62255,357.79651v-4.2301h15.29412v4.2301z" fill="#cebc2d"/><path d="M343.5049,363.08414v-4.2301h15.29412v4.2301z" fill="#cebc2d"/><path d="M365.56373,363.08414v-4.2301h15.29412v4.2301z" fill="#cebc2d"/><path d="M387.62255,363.08414v-4.2301h15.29412v4.2301z" fill="#cebc2d"/><path d="M343.5049,368.37176v-4.2301h15.29412v4.2301z" fill="#cebc2d"/><path d="M365.56373,368.37176v-4.2301h15.29412v4.2301z" fill="#cebc2d"/><path d="M387.62255,368.37176v-4.2301h15.29412v4.2301z" fill="#cebc2d"/><path d="M403.58323,378.9v-375.05727h79v375.05727z" fill="#9c9c9c"/><path d="M413.86138,25.57173v-8.56784h15.29412v8.56784z" fill="#cebc2d"/><path d="M435.9202,25.57173v-8.56784h15.29412v8.56784z" fill="#cebc2d"/><path d="M457.97902,25.57173v-8.56784h15.29412v8.56784z" fill="#cebc2d"/><path d="M413.86138,36.28153v-8.56784h15.29412v8.56784z" fill="#cebc2d"/><path d="M435.9202,36.28153v-8.56784h15.29412v8.56784z" fill="#cebc2d"/><path d="M457.97902,36.28153v-8.56784h15.29412v8.56784z" fill="#cebc2d"/><path d="M413.86138,46.99134v-8.56784h15.29412v8.56784z" fill="#cebc2d"/><path d="M435.9202,46.99134v-8.56784h15.29412v8.56784z" fill="#cebc2d"/><path d="M457.97902,46.99134v-8.56784h15.29412v8.56784z" fill="#cebc2d"/><path d="M413.86138,57.70114v-8.56784h15.29412v8.56784z" fill="#cebc2d"/><path d="M435.9202,57.70114v-8.56784h15.29412v8.56784z" fill="#cebc2d"/><path d="M457.97902,57.70114v-8.56784h15.29412v8.56784z" fill="#cebc2d"/><path d="M413.86138,68.41094v-8.56784h15.29412v8.56784z" fill="#cebc2d"/><path d="M435.9202,68.41094v-8.56784h15.29412v8.56784z" fill="#cebc2d"/><path d="M457.97902,68.41094v-8.56784h15.29412v8.56784z" fill="#cebc2d"/><path d="M413.86138,79.12075v-8.56785h15.29412v8.56785z" fill="#cebc2d"/><path d="M435.9202,79.12075v-8.56785h15.29412v8.56785z" fill="#cebc2d"/><path d="M457.97902,79.12075v-8.56785h15.29412v8.56785z" fill="#cebc2d"/><path d="M413.86138,89.83055v-8.56785h15.29412v8.56785z" fill="#cebc2d"/><path d="M435.9202,89.83055v-8.56785h15.29412v8.56785z" fill="#cebc2d"/><path d="M457.97902,89.83055v-8.56785h15.29412v8.56785z" fill="#cebc2d"/><path d="M413.86138,100.54035v-8.56786h15.29412v8.56786z" fill="#cebc2d"/><path d="M435.9202,100.54035v-8.56786h15.29412v8.56786z" fill="#cebc2d"/><path d="M457.97902,100.54035v-8.56786h15.29412v8.56786z" fill="#cebc2d"/><path d="M413.86138,111.25015v-8.56785h15.29412v8.56785z" fill="#cebc2d"/><path d="M435.9202,111.25015v-8.56785h15.29412v8.56785z" fill="#cebc2d"/><path d="M457.97902,111.25015v-8.56785h15.29412v8.56785z" fill="#cebc2d"/><path d="M413.86138,121.95995v-8.56784h15.29412v8.56784z" fill="#cebc2d"/><path d="M435.9202,121.95995v-8.56784h15.29412v8.56784z" fill="#cebc2d"/><path d="M457.97902,121.95995v-8.56784h15.29412v8.56784z" fill="#cebc2d"/><path d="M413.86138,132.66975v-8.56784h15.29412v8.56784z" fill="#cebc2d"/><path d="M435.9202,132.66975v-8.56784h15.29412v8.56784z" fill="#cebc2d"/><path d="M457.97902,132.66975v-8.56784h15.29412v8.56784z" fill="#cebc2d"/><path d="M413.86138,143.37955v-8.56784h15.29412v8.56784z" fill="#cebc2d"/><path d="M435.9202,143.37955v-8.56784h15.29412v8.56784z" fill="#cebc2d"/><path d="M457.97902,143.37955v-8.56784h15.29412v8.56784z" fill="#cebc2d"/><path d="M413.86138,154.08936v-8.56784h15.29412v8.56784z" fill="#cebc2d"/><path d="M435.9202,154.08936v-8.56784h15.29412v8.56784z" fill="#cebc2d"/><path d="M457.97902,154.08936v-8.56784h15.29412v8.56784z" fill="#cebc2d"/><path d="M413.86138,164.79916v-8.56785h15.29412v8.56785z" fill="#cebc2d"/><path d="M435.9202,164.79916v-8.56785h15.29412v8.56785z" fill="#cebc2d"/><path d="M457.97902,164.79916v-8.56785h15.29412v8.56785z" fill="#cebc2d"/><path d="M413.86138,175.50896v-8.56784h15.29412v8.56784z" fill="#cebc2d"/><path d="M435.9202,175.50896v-8.56784h15.29412v8.56784z" fill="#cebc2d"/><path d="M457.97902,175.50896v-8.56784h15.29412v8.56784z" fill="#cebc2d"/><path d="M413.86138,186.21877v-8.56784h15.29412v8.56784z" fill="#cebc2d"/><path d="M435.9202,186.21877v-8.56784h15.29412v8.56784z" fill="#cebc2d"/><path d="M457.97902,186.21877v-8.56784h15.29412v8.56784z" fill="#cebc2d"/><path d="M413.86138,196.92857v-8.56785h15.29412v8.56785z" fill="#cebc2d"/><path d="M435.9202,196.92857v-8.56785h15.29412v8.56785z" fill="#cebc2d"/><path d="M457.97902,196.92857v-8.56785h15.29412v8.56785z" fill="#cebc2d"/><path d="M413.86138,207.63837v-8.56784h15.29412v8.56784z" fill="#cebc2d"/><path d="M435.9202,207.63837v-8.56784h15.29412v8.56784z" fill="#cebc2d"/><path d="M457.97902,207.63837v-8.56784h15.29412v8.56784z" fill="#cebc2d"/><path d="M413.86138,218.34818v-8.56785h15.29412v8.56785z" fill="#cebc2d"/><path d="M435.9202,218.34818v-8.56785h15.29412v8.56785z" fill="#cebc2d"/><path d="M457.97902,218.34818v-8.56785h15.29412v8.56785z" fill="#cebc2d"/><path d="M413.86138,229.05798v-8.56784h15.29412v8.56784z" fill="#cebc2d"/><path d="M435.9202,229.05798v-8.56784h15.29412v8.56784z" fill="#cebc2d"/><path d="M457.97902,229.05798v-8.56784h15.29412v8.56784z" fill="#cebc2d"/><path d="M413.86138,239.76778v-8.56784h15.29412v8.56784z" fill="#cebc2d"/><path d="M435.9202,239.76778v-8.56784h15.29412v8.56784z" fill="#cebc2d"/><path d="M457.97902,239.76778v-8.56784h15.29412v8.56784z" fill="#cebc2d"/><path d="M413.86138,250.47759v-8.56785h15.29412v8.56785z" fill="#cebc2d"/><path d="M435.9202,250.47759v-8.56785h15.29412v8.56785z" fill="#cebc2d"/><path d="M457.97902,250.47759v-8.56785h15.29412v8.56785z" fill="#cebc2d"/><path d="M413.86138,261.18739v-8.56784h15.29412v8.56784z" fill="#cebc2d"/><path d="M435.9202,261.18739v-8.56784h15.29412v8.56784z" fill="#cebc2d"/><path d="M457.97902,261.18739v-8.56784h15.29412v8.56784z" fill="#cebc2d"/><path d="M413.86138,271.89719v-8.56784h15.29412v8.56784z" fill="#cebc2d"/><path d="M435.9202,271.89719v-8.56784h15.29412v8.56784z" fill="#cebc2d"/><path d="M457.97902,271.89719v-8.56784h15.29412v8.56784z" fill="#cebc2d"/><path d="M413.86138,282.607v-8.56784h15.29412v8.56784z" fill="#cebc2d"/><path d="M435.9202,282.607v-8.56784h15.29412v8.56784z" fill="#cebc2d"/><path d="M457.97902,282.607v-8.56784h15.29412v8.56784z" fill="#cebc2d"/><path d="M413.86138,293.3168v-8.56784h15.29412v8.56784z" fill="#cebc2d"/><path d="M435.9202,293.3168v-8.56784h15.29412v8.56784z" fill="#cebc2d"/><path d="M457.97902,293.3168v-8.56784h15.29412v8.56784z" fill="#cebc2d"/><path d="M413.86138,304.0266v-8.56784h15.29412v8.56784z" fill="#cebc2d"/><path d="M435.9202,304.0266v-8.56784h15.29412v8.56784z" fill="#cebc2d"/><path d="M457.97902,304.0266v-8.56784h15.29412v8.56784z" fill="#cebc2d"/><path d="M413.86138,314.73641v-8.56784h15.29412v8.56784z" fill="#cebc2d"/><path d="M435.9202,314.73641v-8.56784h15.29412v8.56784z" fill="#cebc2d"/><path d="M457.97902,314.73641v-8.56784h15.29412v8.56784z" fill="#cebc2d"/><path d="M413.86138,325.44621v-8.56784h15.29412v8.56784z" fill="#cebc2d"/><path d="M435.9202,325.44621v-8.56784h15.29412v8.56784z" fill="#cebc2d"/><path d="M457.97902,325.44621v-8.56784h15.29412v8.56784z" fill="#cebc2d"/><path d="M413.86138,336.15601v-8.56784h15.29412v8.56784z" fill="#cebc2d"/><path d="M435.9202,336.15601v-8.56784h15.29412v8.56784z" fill="#cebc2d"/><path d="M457.97902,336.15601v-8.56784h15.29412v8.56784z" fill="#cebc2d"/><path d="M413.86138,346.86581v-8.56785h15.29412v8.56785z" fill="#cebc2d"/><path d="M435.9202,346.86581v-8.56785h15.29412v8.56785z" fill="#cebc2d"/><path d="M457.97902,346.86581v-8.56785h15.29412v8.56785z" fill="#cebc2d"/><path d="M413.86138,357.57562v-8.56786h15.29412v8.56786z" fill="#cebc2d"/><path d="M435.9202,357.57562v-8.56786h15.29412v8.56786z" fill="#cebc2d"/><path d="M457.97902,357.57562v-8.56786h15.29412v8.56786z" fill="#cebc2d"/></g></g></svg>