<svg version="1.1" xmlns="http://www.w3.org/2000/svg" xmlns:xlink="http://www.w3.org/1999/xlink" width="529.08068" height="371.13295" viewBox="0,0,529.08068,371.13295"><g transform="translate(14.09511,4.88046)"><g data-paper-data="{&quot;isPaintingLayer&quot;:true}" fill-rule="nonzero" stroke="none" stroke-linecap="butt" stroke-linejoin="miter" stroke-miterlimit="10" stroke-dasharray="" stroke-dashoffset="0" style="mix-blend-mode: normal"><path d="M-14.09511,366.2525v-58.76656h529.08068v58.76656z" fill="#636663" stroke-width="0"/><path d="M425.11951,279.0566c0.66072,-2.69059 1.55502,-5.48912 1.82626,-8.31294c-0.03034,-0.02361 -0.06052,-0.04761 -0.09054,-0.07199c-0.29419,-0.23896 -0.34342,-0.62135 -0.53567,-0.92341c-0.26556,-0.41724 -0.68534,-0.77867 -0.83708,-1.23342c-0.05959,-0.17859 -0.05006,-1.81676 -0.05006,-2.23944c0,-2.68017 0,-5.36035 0,-8.04052c0,-0.80205 -0.25961,-2.85217 0.46663,-3.40286c0.62762,-0.47591 3.30115,-0.16218 4.17819,-0.08131c1.24148,0.00987 1.34161,-0.30972 2.51304,-0.57407c0.31559,-0.07122 0.66515,0.06993 0.98116,0c0.31847,-0.07048 0.53709,-0.34658 0.85852,-0.40712c0.75187,-0.14161 1.55143,0.0008 2.30839,-0.12067c2.97834,-0.47794 5.93542,-0.42658 8.96113,-0.42658c1.91728,0 3.84643,-0.11475 5.73404,0.1408c0.10354,-0.08095 0.23316,-0.15658 0.39438,-0.22347c1.23409,-0.51207 1.85113,0.51206 1.85113,0.51206l0.40204,0.6717c0.70591,1.36941 1.58352,2.51055 2.06167,3.9631c0.01397,1.80432 0.29425,3.73468 -0.45521,5.46426c-0.12682,0.29268 -0.28036,0.60492 -0.45655,0.92443c0.17592,2.93594 0.72277,5.73389 1.14711,8.63778c0.19677,1.34651 0.94522,2.67928 1.37886,3.91816c0.40829,1.16647 0.89721,2.7964 1.17418,4.08782c0.34526,1.60979 0.40553,3.35948 0.28321,5.01726c-0.05498,0.74504 -0.46663,1.50237 -0.2848,2.21753c0.09656,0.37976 0.32705,0.68972 0.49058,1.03458c-0.03556,0.5291 -0.24671,1.084 -0.1067,1.5873c0.07725,0.27768 0.49779,0.16204 0.65537,0.38501c0.34093,0.48241 0.62491,1.04591 0.78301,1.65024c0.39965,1.5277 0.06921,2.03461 0.18071,3.45356c0.04577,0.58242 0.24805,1.14393 0.25033,1.72895c0.00249,0.63729 0.0375,1.34529 -0.23622,1.89059c-0.38999,0.77695 -0.91206,1.6714 -1.64841,1.86405c-0.66201,0.17321 -1.22206,-0.7287 -1.87597,-0.94197c-0.97507,-0.31802 -2.74265,-0.18898 -3.73755,-0.07735c-0.41512,0.04658 -0.80997,0.3186 -1.22645,0.2956c-0.70931,-0.03917 -1.62436,0.16419 -2.09275,-0.47891c-1.11063,-1.52488 -0.15449,-2.69205 -0.3863,-4.16091c-0.19092,-1.20975 -0.60442,-2.36444 -0.74059,-3.58489c-0.27053,-2.42476 -0.24732,-4.45578 -0.73863,-6.82407c-0.0027,-2.31509 -0.32693,-4.5743 -0.49744,-6.88395c-0.05433,-0.73587 0.14138,-1.49354 0.01434,-2.21628c-0.10716,-0.60964 -0.39399,-1.16136 -0.49058,-1.77356c-0.24094,-1.52713 0.27013,-3.2394 -0.10502,-4.75628c-0.84488,0.22315 -1.6946,0.39195 -2.40838,0.51618c-3.62429,0.63078 -7.14808,1.09259 -10.8332,1.33413c-0.13955,0.53348 -0.2607,1.0738 -0.35283,1.6211c0.01514,2.96187 -0.25368,6.16475 0.11902,9.09201c0.07669,0.60233 0.29572,1.17043 0.36793,1.77356c0.35371,2.95394 -0.0952,6.16146 0.00892,9.14342c0.06208,1.77783 0.565,5.09229 -0.28006,6.57175c-0.34948,0.61184 -1.20465,0.31535 -1.80624,0.47707c-1.41582,0.3806 -2.92113,1.37034 -4.31388,1.60775c-0.94379,0.16088 -1.90637,-0.00401 -2.85956,-0.00602c-0.57765,-0.38562 -1.37464,-0.4884 -1.73297,-1.15684c-0.81469,-1.51975 0.06161,-3.12153 0.27604,-4.54526c0.16144,-1.07191 0.19319,-3.12919 0.11725,-4.17295c-0.07686,-1.05648 -0.58903,-2.0712 -0.49368,-3.12549c0.07012,-0.77526 0.39074,-1.49064 0.51261,-2.25654c0.45743,-2.87466 0.68253,-5.7337 1.37724,-8.56271z" data-paper-data="{&quot;index&quot;:null}" fill="#004eff" stroke-width="0.5"/><path d="M419.31106,263.26987c0.74798,-0.12609 0.89893,0.62867 0.89893,0.62867c0.0416,0.27519 0.18015,0.55281 0.1248,0.82556c-0.24417,1.20326 -0.88378,1.41527 -1.54959,2.24275c-0.73072,0.90814 -1.15714,1.63203 -2.37348,1.99688c-0.76875,0.23059 -1.91732,0.17974 -2.68495,0.00477c-0.19364,-0.04414 -0.35951,-0.19374 -0.55742,-0.21044c-0.20817,-0.01756 -0.41024,0.14294 -0.61675,0.11139c-0.28861,-0.04409 -0.53575,-0.23365 -0.81149,-0.32959c-1.3663,-0.47535 -2.86663,-1.06089 -3.9161,-2.08378c-0.50166,-0.50531 -1.02339,-0.94633 -1.28937,-1.64764c-0.10218,-0.26942 0.02088,-1.91324 0.02148,-2.0125c0.00206,-0.33913 -0.109,-0.68361 -0.04402,-1.01646c0.0683,-0.34996 -1.11702,-1.0422 -1.00497,-1.38071c0.13544,-0.4092 1.01468,-1.60185 1.16919,-2.00424c0.40005,-1.04184 1.92537,-0.98964 2.70107,-1.74768c0.22516,-0.22003 0.40952,-0.5001 0.68787,-0.64717c1.49807,-0.79147 3.14599,-0.43466 4.71366,-0.33039c0.3577,0.02379 0.71926,-0.0362 1.07544,0.00431c0.77855,0.08856 1.71448,0.54766 2.44753,0.77316c0.56698,0.44003 1.51361,0.85582 1.87048,1.50937c0.69079,1.26513 0.12094,2.50882 -0.20148,3.75779c-0.06983,0.2705 -0.0472,0.56727 -0.1606,0.82259c-0.09848,0.22174 -0.36326,0.34291 -0.45654,0.56688c-0.02224,0.0534 -0.03553,0.10923 -0.04367,0.16647z" data-paper-data="{&quot;index&quot;:null}" fill="#ffca89" stroke-width="0.5"/><path d="M473.55253,252.92409c0.74798,-0.12609 0.89893,0.62867 0.89893,0.62867c0.0416,0.27519 0.18015,0.5528 0.1248,0.82556c-0.24417,1.20326 -0.88378,1.41527 -1.54959,2.24275c-0.73072,0.90814 -1.15714,1.63203 -2.37348,1.99687c-0.76875,0.23059 -1.91732,0.17974 -2.68495,0.00477c-0.19364,-0.04414 -0.35951,-0.19375 -0.55742,-0.21044c-0.20817,-0.01756 -0.41024,0.14294 -0.61675,0.11139c-0.28861,-0.04409 -0.53574,-0.23365 -0.81149,-0.32959c-1.3663,-0.47535 -2.86663,-1.06089 -3.9161,-2.08378c-0.50166,-0.50531 -1.02339,-0.94633 -1.28937,-1.64764c-0.10218,-0.26943 0.02088,-1.91324 0.02148,-2.0125c0.00205,-0.33913 -0.109,-0.6836 -0.04403,-1.01646c0.06831,-0.34996 -1.11701,-1.0422 -1.00497,-1.38071c0.13544,-0.4092 1.01468,-1.60185 1.16919,-2.00424c0.40005,-1.04184 1.92537,-0.98964 2.70107,-1.74768c0.22516,-0.22003 0.40952,-0.5001 0.68788,-0.64717c1.49807,-0.79147 3.14599,-0.43466 4.71366,-0.33039c0.3577,0.02379 0.71926,-0.0362 1.07544,0.00431c0.77855,0.08856 1.71448,0.54766 2.44753,0.77316c0.56698,0.44003 1.51361,0.85582 1.87048,1.50937c0.6908,1.26514 0.12094,2.50883 -0.20148,3.75779c-0.06983,0.27051 -0.0472,0.56727 -0.1606,0.82259c-0.09849,0.22174 -0.36327,0.34291 -0.45655,0.56688c-0.02224,0.0534 -0.03553,0.10923 -0.04367,0.16647z" data-paper-data="{&quot;index&quot;:null}" fill="#ffca89" stroke-width="0.5"/><path d="M428.53873,215.99081c-1.29544,-0.92169 -0.40055,-2.26404 -0.40055,-2.26404c0.3462,-0.4695 0.55231,-1.0863 1.03859,-1.40852c2.1452,-1.42144 3.40738,-0.78771 5.62056,-1.02731c2.42893,-0.26296 4.1338,-0.70383 6.47724,0.55816c1.4811,0.7976 3.10803,2.57524 3.9864,3.97225c0.22157,0.35241 0.24568,0.81998 0.51425,1.13803c0.2825,0.33456 0.81986,0.39616 1.07917,0.74899c0.3624,0.49309 0.44773,1.14031 0.71422,1.69117c1.32046,2.7295 2.67626,5.82091 2.71566,8.89233c-0.0054,1.49242 0.1142,2.91928 -0.53099,4.35291c-0.24786,0.55076 -2.86653,2.80463 -3.01453,2.95085c-0.50567,0.49958 -0.85161,1.1747 -1.44122,1.57173c-0.6199,0.41743 0.11087,3.20015 -0.55687,3.53578c-0.80721,0.40573 -3.87792,0.87023 -4.70329,1.23761c-2.137,0.95119 -4.32029,-1.38682 -6.59342,-1.413c-0.65981,-0.0076 -1.34814,0.13426 -1.97865,-0.06033c-3.39329,-1.04724 -5.30683,-4.0184 -7.47571,-6.49637c-0.49487,-0.56539 -1.11965,-1.01235 -1.5875,-1.60029c-1.02263,-1.28513 -1.72932,-3.35268 -2.48156,-4.77332c-0.18815,-1.49246 -0.97492,-3.51169 -0.53519,-5.00922c0.85122,-2.89885 3.53905,-3.89753 5.86796,-5.27075c0.50441,-0.29742 0.91069,-0.77079 1.45717,-0.98113c0.47459,-0.18266 1.0466,0.03017 1.5168,-0.16352c0.11211,-0.04618 0.21455,-0.10924 0.31145,-0.182z" data-paper-data="{&quot;index&quot;:null}" fill="#ffca89" stroke-width="0.5"/><path d="M418.28891,223.00631c-0.98778,-0.87765 -0.23881,-2.076 -0.23881,-2.076c0.49961,-0.78891 1.1619,-1.46193 1.73165,-2.20221c0.07476,-0.11071 0.15293,-0.21837 0.237,-0.32067c1.05652,-1.48839 1.68373,-2.91697 3.14157,-4.17436c0.43635,-0.37635 2.55394,-1.77335 2.90515,-2.05152c1.30081,-1.03032 1.91098,-2.50173 3.54489,-3.17852c0.44988,-0.18634 0.96496,-0.13825 1.4404,-0.24347c3.29709,-0.72967 7.12968,-1.38646 10.36248,-0.08053c2.34339,0.93827 4.42346,1.92457 6.6286,3.13981c0.55665,0.30676 1.18971,0.4973 1.68011,0.90161c0.3648,0.30076 0.50009,0.8089 0.81851,1.15839c0.59136,0.64906 1.40072,1.08888 1.94033,1.78155c1.3381,1.71763 2.33307,3.88895 3.14443,5.88163c1.14885,2.82154 2.34618,8.62641 -1.50559,9.73239c-0.6416,0.18422 -1.35938,0.1675 -2.00253,-0.01122c-0.70133,-0.19489 -1.26769,-0.71577 -1.90153,-1.07366c-0.5301,-0.75194 -0.84598,-1.66183 -1.47623,-2.33205c-0.4081,-0.43397 -1.04893,-0.62002 -1.41819,-1.08748c-0.84769,-1.07312 -1.26985,-2.74576 -1.99313,-3.91906c-1.16931,-1.89685 -2.60781,-4.39366 -4.5672,-5.59041c-0.77549,-0.47365 -1.67885,-0.70518 -2.47377,-1.14544c-0.29037,-0.16082 -0.5139,-0.46069 -0.83595,-0.5411c-1.18938,-0.29698 -2.93144,0.06026 -4.17768,0.0557c-1.84112,-0.00673 -2.59215,0.28409 -4.29315,1.1224c-1.48664,0.17628 -3.33621,1.03213 -4.49052,2.03644c-0.36645,0.31883 -0.48665,0.85938 -0.84522,1.18705c-0.28732,0.26256 -0.7535,0.28226 -1.04267,0.5346c-0.06344,0.08533 -0.12869,0.16936 -0.19522,0.25245c-0.17972,0.33157 -0.21406,0.75877 -0.44938,1.05808c-0.2114,0.26889 -0.48008,0.48326 -0.75334,0.69328c-0.14748,0.48647 -0.53819,1.13085 -1.57329,1.13085c-0.70173,0 -1.1073,-0.29615 -1.3417,-0.63849z" data-paper-data="{&quot;index&quot;:null}" fill="#000000" stroke-width="0.5"/><path d="M437.02518,222.79214c-0.91829,0 -1.66272,-0.74442 -1.66272,-1.66272c0,-0.91829 0.74442,-1.66272 1.66272,-1.66272c0.91829,0 1.66272,0.74442 1.66272,1.66272c0,0.91829 -0.74442,1.66272 -1.66272,1.66272z" data-paper-data="{&quot;index&quot;:null}" fill="#000000" stroke-width="0.5"/><path d="M421.67704,226.88498c-0.91829,0 -1.66272,-0.74442 -1.66272,-1.66272c0,-0.91829 0.74442,-1.66272 1.66272,-1.66272c0.91829,0 1.66272,0.74442 1.66272,1.66272c0,0.91829 -0.74442,1.66272 -1.66272,1.66272z" data-paper-data="{&quot;index&quot;:null}" fill="#000000" stroke-width="0.5"/><path d="M424.67704,231.51287c1.38346,-0.92231 2.30577,0.46115 2.30577,0.46115l0.13332,0.2582c0.47031,0.47031 0.81678,1.08307 1.37284,1.44802c0.65555,0.43025 2.58678,0.11034 3.24963,0.1114c0.92467,0.00148 2.61562,0.15238 3.46392,-0.1061c0.44116,-0.13442 0.72819,-0.5806 1.14703,-0.77365c0.27373,-0.12616 0.64336,0.00976 0.88907,-0.1648c0.22427,-0.15933 0.20083,-0.52275 0.37661,-0.73437c0.6175,-0.7434 2.39815,-1.94688 2.54327,-3.13188c0.05224,-0.42658 -0.12222,-0.85079 -0.18333,-1.27619c0,0 -0.16545,-1.65446 1.48902,-1.81991c1.65446,-0.16545 1.81991,1.48902 1.81991,1.48902c0.05258,0.7115 0.28145,1.43187 0.15774,2.13451c-0.37947,2.15534 -1.93328,3.2094 -3.25491,4.71273c-0.36144,0.41113 -0.54677,0.98761 -0.98768,1.31205c-0.4256,0.31318 -1.0203,0.29239 -1.49843,0.51734c-0.55364,0.26047 -0.99341,0.76294 -1.58153,0.9317c-1.11053,0.31866 -3.1757,0.2332 -4.38068,0.23497c-1.62817,0.00239 -3.43669,0.2636 -4.93605,-0.57074c-0.21146,-0.11767 -1.74342,-1.66824 -2.03786,-1.96268l-0.54882,-0.76501c0,0 -0.92231,-1.38346 0.46115,-2.30577z" data-paper-data="{&quot;index&quot;:null}" fill="#000000" stroke-width="0.5"/><path d="M423.50722,247.19271c0,0 0.22788,-0.36461 0.63729,-0.60713c0.63365,-1.10754 1.75136,-1.95648 2.63739,-2.89757c0.48933,-0.51974 0.75029,-1.2258 1.23638,-1.74858c0.2809,-0.3021 0.73479,-0.3984 1.02888,-0.68766c0.40801,-0.40132 0.56668,-1.05253 1.05075,-1.35784c1.88095,-1.18637 1.96472,-0.52298 3.71972,-0.29164c0.78183,0.10305 1.58285,-0.09697 2.36576,-0.00253c2.05015,0.24729 3.8712,0.3246 5.95213,0.02663c0.72316,-0.15345 1.61205,-0.75442 1.98335,-1.43401c0.19842,-0.36317 0.12557,-0.84045 0.34107,-1.19375c0.24121,-0.39544 0.61151,-0.6927 0.9452,-1.01782c-0.01336,-0.20881 0.01548,-0.44503 0.1042,-0.71119c0.5258,-1.57739 2.10319,-1.05159 2.10319,-1.05159c2.09757,0.71418 3.49129,1.97513 5.38221,3.01449c0.47372,0.26039 1.04419,0.3561 1.46509,0.69531c0.15901,0.12815 0.27086,0.29935 0.374,0.47913c1.36724,0.36789 2.64584,0.8918 3.92518,1.53624c0.31334,0.15783 0.53061,0.48424 0.8586,0.60879c0.37577,0.14269 0.822,0.01766 1.19375,0.17054c0.72718,0.29904 2.66634,1.78168 3.01722,2.35179c1.02303,1.66222 1.29026,4.86579 0.53446,6.68912c-0.33417,0.80618 -0.57467,1.83159 -1.34145,2.24831c-3.48743,1.89534 -3.45498,-0.31024 -6.01405,-0.98217c-0.12072,-0.0317 -0.24204,-0.06171 -0.36371,-0.09076c-0.09811,2.68193 -0.2203,5.35251 -0.2203,8.04934c-0.06948,0.66659 0.17765,1.45195 -0.20843,1.99978c-0.55242,0.78385 -1.47249,1.28217 -2.36018,1.64493c-0.19207,0.07849 -2.5423,0.06443 -3.01641,0.06443c-2.39596,0 -5.08249,-0.34576 -7.44345,-0.01607c-3.58143,0.50011 -7.1983,0.97095 -10.825,1.37363c-1.43075,0.15886 -3.06105,0.6436 -4.53056,0.34361c-0.79901,-0.16311 -1.81725,-0.10714 -2.33198,-0.73965c-0.55615,-0.68339 -0.26446,-1.74222 -0.39668,-2.61333c-0.1834,-0.81579 -0.36569,-1.64058 -0.53365,-2.47037c-0.07745,0.12832 -0.1484,0.26016 -0.21176,0.39553c-0.65424,1.73389 -1.47518,2.70615 -2.53113,4.18446c-0.23226,0.32516 -0.23682,0.81212 -0.54321,1.06863c-0.75423,0.63145 -1.58382,1.75667 -2.53585,1.50923c-1.04614,-0.2719 -1.29937,-1.73165 -1.86462,-2.65297c-0.32052,-0.52242 -0.62589,-1.07113 -0.78358,-1.66341c-0.07673,-0.28822 0.25756,-0.63294 0.10411,-0.8887c-0.2383,-0.39722 -0.88199,-0.42072 -1.12594,-0.8145c-0.60882,-0.98276 -1.46149,-2.04081 -1.35612,-3.19205c0.10403,-1.1366 1.67998,-1.54546 2.51443,-2.32416c1.1887,-1.10928 2.57831,-2.17607 3.69743,-3.35705c0.59345,-0.62625 1.02686,-1.39885 1.656,-1.98924c0.30915,-0.29011 0.8109,-0.31626 1.11527,-0.61136c0.28816,-0.27939 0.39666,-0.69789 0.59499,-1.04684z" data-paper-data="{&quot;index&quot;:null}" fill="#fff000" stroke-width="0.5"/><text transform="translate(457.40609,245.56132) rotate(-180) scale(0.08794,-0.07747)" font-size="40" xml:space="preserve" data-paper-data="{&quot;index&quot;:null}" fill="#000000" fill-rule="nonzero" stroke="none" stroke-width="1" stroke-linecap="butt" stroke-linejoin="miter" stroke-miterlimit="10" stroke-dasharray="" stroke-dashoffset="0" font-family="Archivo Black" font-weight="normal" text-anchor="start" style="mix-blend-mode: normal"><tspan x="0" dy="0">yes, i'm a MAN.</tspan></text><text transform="translate(453.31274,251.20288) rotate(-180) scale(0.09101,-0.09101)" font-size="40" xml:space="preserve" data-paper-data="{&quot;index&quot;:null}" fill="#000000" fill-rule="nonzero" stroke="none" stroke-width="1" stroke-linecap="butt" stroke-linejoin="miter" stroke-miterlimit="10" stroke-dasharray="" stroke-dashoffset="0" font-family="Archivo Black" font-weight="normal" text-anchor="start" style="mix-blend-mode: normal"><tspan x="0" dy="0">Masculine </tspan><tspan x="0" dy="46.150000000000006px">Ass</tspan><tspan x="0" dy="46.150000000000006px">Nice guy</tspan></text><path d="M460.92506,299.34917c1.66272,0 1.66272,1.66272 1.66272,1.66272v0.70009c0,1.71802 0.36156,3.86078 -0.59393,5.4175c-0.88257,1.43792 -1.64427,1.41326 -2.99589,1.87815c-3.82648,1.31612 -7.59683,1.1346 -11.60798,1.1346c-1.21952,-0.00047 -2.43821,-0.06666 -3.65669,-0.11715c-0.73666,-0.03052 -1.53438,0.21746 -2.21055,-0.07645c-0.88892,-0.38638 -1.86272,-0.96316 -2.2376,-1.857c-0.3208,-0.76489 0.1408,-1.67368 0.43092,-2.45073c0.59123,-1.58352 1.87606,-2.67019 3.20245,-3.48845c0.44153,-0.27239 0.77241,-0.72978 1.25473,-0.92084c0.5788,-0.22929 1.24204,-0.14145 1.84244,-0.30606c0.50006,-0.1371 0.93024,-0.48793 1.43793,-0.59331c3.74006,-0.77635 8.09337,-0.42127 11.92685,0.0603c0.16708,-0.47269 0.57051,-1.04336 1.5446,-1.04336z" data-paper-data="{&quot;index&quot;:null}" fill="#000000" stroke-width="0.5"/><path d="M436.7924,300.5289c0.30873,0.22277 0.60091,0.45811 0.76662,0.78953c0.28599,0.57197 0.14168,1.27182 0.17554,1.91041c0.11512,2.1712 0.50538,5.47129 -1.3048,7.08801c-0.48568,0.43377 -1.29181,0.16908 -1.93298,0.28287c-2.47448,0.43912 -4.89071,0.3593 -7.40944,0.3593c-1.63354,0 -3.26709,0 -4.90063,0c-0.9519,0 -1.92939,0.21835 -2.85569,-0.00092c-1.09511,-0.25923 -2.6954,-0.06821 -3.20085,-1.0737c-0.71218,-1.41673 2.08024,-4.24723 3.10022,-5.11129c0.76403,-0.64723 1.76446,-0.95471 2.68948,-1.33808c0.97112,-0.40247 1.79897,-1.10566 2.77141,-1.50497c1.10016,-0.45176 2.3371,-0.45549 3.48294,-0.77408c1.89863,-0.52791 3.43024,-1.55544 5.40732,-1.90085c0,0 0.25961,-0.04327 0.58947,0.00791c0.23449,-0.15815 0.54806,-0.2639 0.96737,-0.2639c1.37406,0 1.6126,1.13551 1.65402,1.52978z" data-paper-data="{&quot;index&quot;:null}" fill="#000000" stroke-width="0.5"/><path d="M416.92308,187.87992c0,15.80177 -14.69984,28.61163 -32.83302,28.61163c-18.13318,0 -32.83302,-12.80986 -32.83302,-28.61163c0,-15.80177 14.69984,-28.61163 32.83302,-28.61163c18.13318,0 32.83302,12.80986 32.83302,28.61163z" fill="#ffffff" stroke-width="0"/><text transform="translate(364.39025,194.91557) scale(0.5,0.5)" font-size="40" xml:space="preserve" fill="#000000" fill-rule="nonzero" stroke="none" stroke-width="1" stroke-linecap="butt" stroke-linejoin="miter" stroke-miterlimit="10" stroke-dasharray="" stroke-dashoffset="0" font-family="Archivo Black" font-weight="normal" text-anchor="start" style="mix-blend-mode: normal"><tspan x="0" dy="0">Joe</tspan></text><path d="M410.71685,199.49397l5.98919,16.78099l-16.78099,-5.98919z" fill="#ffffff" stroke-width="0"/><path d="M475.35946,321.94881v-326.82927h14.77485v326.82927z" fill="#f3ff00" stroke-width="0"/></g></g></svg>