<svg version="1.1" xmlns="http://www.w3.org/2000/svg" xmlns:xlink="http://www.w3.org/1999/xlink" width="544.27489" height="376.89069" viewBox="0,0,544.27489,376.89069"><g transform="translate(29.28932,10.63819)"><g data-paper-data="{&quot;isPaintingLayer&quot;:true}" fill-rule="nonzero" stroke="none" stroke-linecap="butt" stroke-linejoin="miter" stroke-miterlimit="10" stroke-dasharray="" stroke-dashoffset="0" style="mix-blend-mode: normal"><path d="M-14.09511,366.25251v-58.76656h529.08068v58.76656z" fill="#636663" stroke-width="0"/><text transform="translate(13.74189,203.61074) scale(3.31627,1.14674)" font-size="40" xml:space="preserve" fill="#9966ff" fill-rule="nonzero" stroke="none" stroke-width="1" stroke-linecap="butt" stroke-linejoin="miter" stroke-miterlimit="10" stroke-dasharray="" stroke-dashoffset="0" font-family="Archivo Black" font-weight="normal" text-anchor="start" style="mix-blend-mode: normal"><tspan x="0" dy="0">de end</tspan></text><path d="M166.71584,83.74771c0,-30.85401 46.13885,-55.8661 103.05397,-55.8661c56.91517,0 103.05397,25.01211 103.05397,55.8661c0,30.85401 -46.13885,55.86613 -103.05397,55.86613c-56.91517,0 -103.05397,-25.01211 -103.05397,-55.86613zM269.27369,127.11769c70.85904,0.19014 78.17265,-35.9364 78.17265,-35.9364h-151.96768c0,0 5.44088,35.75298 73.79502,35.9364zM307.3592,73.90247c7.69755,0 13.9376,-3.38279 13.9376,-7.55565c0,-4.17288 -6.2401,-7.55565 -13.9376,-7.55565c-7.69755,0 -13.9376,3.38279 -13.9376,7.55565c0,4.17288 6.2401,7.55565 13.9376,7.55565zM232.18048,73.90247c7.69755,0 13.9376,-3.38279 13.9376,-7.55565c0,-4.17288 -6.2401,-7.55565 -13.9376,-7.55565c-7.69755,0 -13.9376,3.38279 -13.9376,7.55565c0,4.17288 6.2401,7.55565 13.9376,7.55565z" fill="#9966ff" stroke-width="0"/><path d="M-29.28932,68.9072c0,-3.48157 1.88158,-6.30394 4.20263,-6.30394h8.40525c2.10131,0 3.15197,1.57598 4.20263,3.15197l4.20263,6.30394c1.05066,1.57598 2.10131,3.15197 4.20263,3.15197h12.60788c2.10131,0 3.15197,-1.57598 4.20263,-3.15197l4.20263,-6.30394c1.05066,-1.57598 2.10131,-3.15197 4.20263,-3.15197h48.17456c2.32105,0 4.20263,2.82237 4.20263,6.30394v63.0394c0,3.48157 -1.88158,6.30394 -4.20263,6.30394h-48.17456c-2.10131,0 -3.15197,1.57598 -4.20263,3.15197l-4.20263,6.30394c-1.05066,1.57598 -2.10131,3.15197 -4.20263,3.15197h-12.60788c-2.10131,0 -3.15197,-1.57598 -4.20263,-3.15197l-4.20263,-6.30394c-1.05066,-1.57598 -2.10131,-3.15197 -4.20263,-3.15197h-8.40525c-2.32105,0 -4.20263,-2.82237 -4.20263,-6.30394z" fill="#9966ff" stroke-width="0"/><path d="M404.00118,55.60514c0,-7.48884 12.1418,-13.55973 27.11947,-13.55973c14.97768,0 27.11948,6.0709 27.11948,13.55973c0,7.48884 -12.1418,13.55973 -27.11948,13.55973c-14.97766,0 -27.11947,-6.0709 -27.11947,-13.55973zM441.01259,53.21551c2.02567,0 3.6678,-0.82107 3.6678,-1.8339c0,-1.01284 -1.64212,-1.8339 -3.6678,-1.8339c-2.02567,0 -3.66779,0.82107 -3.66779,1.8339c0,1.01284 1.64212,1.8339 3.66779,1.8339zM421.22872,53.21551c2.02567,0 3.66779,-0.82107 3.66779,-1.8339c0,-1.01284 -1.64213,-1.8339 -3.66779,-1.8339c-2.02567,0 -3.66779,0.82107 -3.66779,1.8339c0,1.01284 1.64213,1.8339 3.66779,1.8339zM413.70982,64.15711h35.71257c0,0 -1.7187,-6.94872 -18.37066,-6.91214c-16.0633,0.03528 -17.34191,6.91214 -17.34191,6.91214z" fill="#9966ff" stroke-width="0"/><path d="M75.01965,76.67389c4.21502,-1.40729 9.33099,-1.3936 11.5229,-1.49653c0.89139,-1.37303 14.29305,-16.24124 31.58295,-16.07234c17.34713,0.20595 23.98017,7.54047 32.30855,11.60323c10.33948,-4.53092 17.65934,-6.27465 28.59426,-4.59273c10.27341,1.62839 15.47919,10.9744 15.89309,11.35195c0.20012,0.18458 5.84225,-2.4188 10.60801,-1.90224c6.12509,0.66389 8.0995,8.33069 6.76106,8.33069c-1.70067,0 -141.13416,-0.13456 -144.43251,0.10572c-3.212,-1.79725 3.36017,-6.05771 7.1617,-7.32774z" fill="#9966ff" stroke-width="0"/><path d="M7.767,119.53671l60.09642,-6.00482l80.97262,6.37775l189.63759,-22.03902l64.78117,5.82705l-250.56838,28.77896z" fill="#9966ff" stroke-width="0"/><path d="M287.22904,79.99538c0,-1.30408 0.71968,-2.4123 1.72149,-2.81477c0.32802,-1.20272 1.29416,-2.0741 2.43495,-2.0741c0.91839,0 1.72358,0.56474 2.17377,1.41244c0.13805,-0.02724 0.27967,-0.04139 0.42401,-0.04139c0.62388,0 1.19724,0.26449 1.64916,0.70677c0.0839,-0.01403 0.16929,-0.02125 0.25588,-0.02125c1.18364,0 2.14317,1.34883 2.14317,3.0127c0,0.98155 -0.33392,1.85347 -0.85079,2.40352c0.18377,0.31603 0.28794,0.67695 0.28794,1.06019c0,1.24541 -1.10007,2.25502 -2.45706,2.25502c-0.50222,0 -0.96925,-0.13829 -1.35835,-0.37564c-0.46573,0.50321 -1.07778,0.8086 -1.74816,0.8086c-0.18555,0 -0.36663,-0.02339 -0.54137,-0.0679c0.00011,0.00659 0.00017,0.01319 0.00017,0.0198c0,0.65758 -0.55246,1.19065 -1.23394,1.19065c-0.68149,0 -1.23394,-0.53307 -1.23394,-1.19065c0,-0.26782 0.09164,-0.51499 0.24632,-0.7139c-1.06807,-0.06986 -1.91322,-0.97814 -1.91322,-2.08833c0,-0.59676 0.24419,-1.13517 0.63593,-1.51639c-0.39585,-0.52428 -0.63593,-1.21215 -0.63593,-1.96535zM289.00419,88.20965c0,0.42842 -0.3053,0.77573 -0.68192,0.77573c-0.37661,0 -0.68192,-0.3473 -0.68192,-0.77573c0,-0.42842 0.3053,-0.77573 0.68192,-0.77573c0.37661,0 0.68192,0.3473 0.68192,0.77573zM287.38058,88.97936c0,0.32879 -0.189,0.59532 -0.42214,0.59532c-0.23314,0 -0.42214,-0.26653 -0.42214,-0.59532c0,-0.32879 0.189,-0.59532 0.42214,-0.59532c0.23314,0 0.42214,0.26653 0.42214,0.59532z" fill="#9966ff" stroke-width="0"/><path d="M223.28223,38.25054c0,-13.04083 15.23331,-24.12296 36.43826,-28.14773c6.94317,-12.0272 27.39301,-20.741 51.5398,-20.741c19.43917,0 36.4824,5.64735 46.0115,14.12443c2.92197,-0.27238 5.91977,-0.41394 8.97479,-0.41394c13.20554,0 25.34166,2.64494 34.90726,7.06774c1.77589,-0.14031 3.58325,-0.2125 5.41602,-0.2125c25.05368,0 45.36369,13.48832 45.36369,30.127c0,9.81551 -7.06803,18.53469 -18.00839,24.03516c3.88979,3.16034 6.0947,6.76946 6.0947,10.60188c0,12.45411 -23.28471,22.55015 -52.00787,22.55015c-10.63037,0 -20.51582,-1.38288 -28.75167,-3.75637c-9.85789,5.03208 -22.81291,8.086 -37.00277,8.086c-3.92743,0 -7.76025,-0.23394 -11.45901,-0.67903c0.00235,0.06585 0.00354,0.13185 0.00354,0.19797c0,6.57577 -11.69364,11.90648 -26.11849,11.90648c-14.42485,0 -26.11849,-5.33071 -26.11849,-11.90648c0,-2.67821 1.93973,-5.14988 5.21371,-7.13898c-22.60754,-0.69859 -40.49658,-9.78135 -40.49658,-20.88333c0,-5.96757 5.16869,-11.35171 13.46059,-15.16393c-8.3789,-5.24285 -13.46059,-12.12147 -13.46059,-19.6535zM260.85619,120.39323c0,4.28421 -6.46228,7.75725 -14.4339,7.75725c-7.97162,0 -14.4339,-3.47304 -14.4339,-7.75725c0,-4.28421 6.46228,-7.75725 14.4339,-7.75725c7.97162,0 14.4339,3.47304 14.4339,7.75725zM226.48976,128.09035c0,3.28789 -4.00045,5.95324 -8.93527,5.95324c-4.93482,0 -8.93527,-2.66535 -8.93527,-5.95324c0,-3.28789 4.00045,-5.95324 8.93527,-5.95324c4.93482,0 8.93527,2.66535 8.93527,5.95324z" fill="#9966ff" stroke-width="0"/><path d="M34.23817,13.13086c-0.06718,-2.7326 0.41818,-3.7854 2.48691,-5.39609c0.23791,-0.18525 0.48372,-0.36727 0.73733,-0.54603c0.04462,-0.03297 0.08967,-0.06554 0.13517,-0.09768c0.87185,-0.61582 1.85497,-1.18905 2.93315,-1.7196c3.13207,-1.56662 7.03888,-2.78994 11.64839,-3.64206c4.56616,-0.84405 6.91303,-1.23805 14.15221,-1.28262c0.80171,-0.01122 1.60317,-0.0121 2.40247,-0.00264c5.99883,0.02328 8.25211,0.28732 11.5864,0.91853c6.51367,1.00913 12.09499,2.84496 15.38632,5.51252l1.45542,1.17957l1.45542,-1.17957c3.29132,-2.66756 8.87264,-4.50338 15.3863,-5.51251c3.3343,-0.63121 5.58758,-0.89526 11.58643,-0.91854c0.79929,-0.00946 1.60075,-0.00858 2.40244,0.00264c7.23918,0.04456 9.58606,0.43857 14.15222,1.28262c4.60943,0.8521 8.51621,2.07539 11.64824,3.64199c1.07823,0.53058 2.06142,1.10382 2.9333,1.71967c0.04552,0.03215 0.09058,0.06472 0.13521,0.0977c0.2536,0.17876 0.4994,0.36077 0.7373,0.54601c2.06873,1.6107 2.55409,2.66349 2.48691,5.39609c-0.00138,0.05636 -0.0033,0.11257 -0.00575,0.16864c0.1124,2.12786 -0.58671,4.28192 -2.1571,5.85939c-4.34532,4.36477 -12.64168,7.69234 -31.89252,12.79148c-12.62501,3.34416 -26.87817,8.4039 -27.86033,9.11455c-0.53321,0.38577 -1.48292,0.38577 -2.01613,0c-0.98216,-0.71065 -15.23531,-5.77039 -27.86033,-9.11455c-19.25084,-5.09914 -27.5472,-8.42671 -31.89252,-12.79148c-1.57039,-1.57747 -2.26951,-3.73153 -2.1571,-5.8594c-0.00245,-0.05606 -0.00435,-0.11227 -0.00575,-0.16863z" fill="#9966ff" stroke-width="0"/><path d="M173.46916,23.34044c-0.00116,-0.13012 0.00721,-0.18026 0.04288,-0.25696c0.0041,-0.00882 0.00834,-0.01749 0.01271,-0.026c0.00077,-0.00157 0.00155,-0.00312 0.00233,-0.00465c0.01503,-0.02932 0.03198,-0.05662 0.05057,-0.08189c0.054,-0.0746 0.12136,-0.13285 0.20083,-0.17343c0.07873,-0.04019 0.11919,-0.05895 0.244,-0.06108c0.01382,-0.00053 0.02764,-0.00058 0.04142,-0.00013c0.10343,0.00111 0.14228,0.01368 0.19977,0.04374c0.1123,0.04805 0.20853,0.13547 0.26528,0.2625l0.02509,0.05617l0.02509,-0.05617c0.05675,-0.12703 0.15298,-0.21445 0.26528,-0.2625c0.05749,-0.03006 0.09634,-0.04263 0.19977,-0.04374c0.01378,-0.00045 0.0276,-0.00041 0.04142,0.00013c0.12481,0.00212 0.16528,0.02088 0.244,0.06108c0.07947,0.04058 0.14683,0.09883 0.20083,0.17343c0.01859,0.02527 0.03554,0.05256 0.05057,0.08189c0.00078,0.00153 0.00156,0.00308 0.00233,0.00465c0.00437,0.00851 0.00861,0.01718 0.01271,0.026c0.03567,0.0767 0.04404,0.12683 0.04288,0.25696c-0.00002,0.00268 -0.00006,0.00536 -0.0001,0.00803c0.00194,0.10133 -0.01012,0.2039 -0.03719,0.27902c-0.07492,0.20785 -0.21796,0.3663 -0.54987,0.60912c-0.21767,0.15925 -0.46342,0.40019 -0.48035,0.43403c-0.00919,0.01837 -0.02557,0.01837 -0.03476,0c-0.01693,-0.03384 -0.26268,-0.27478 -0.48035,-0.43403c-0.33191,-0.24282 -0.47495,-0.40127 -0.54987,-0.60912c-0.02708,-0.07512 -0.03913,-0.17769 -0.03719,-0.27902c-0.00004,-0.00267 -0.00008,-0.00535 -0.0001,-0.00803z" fill="#9966ff" stroke-width="0"/><path d="M378.55142,128.71706l-33.34069,-12.74694l15.94057,-6.73529l33.33655,12.6949l33.5889,-12.93634l16.74871,6.50388l-32.93335,13.13702l33.84392,12.87624l-16.4742,6.5555l-33.6266,-12.76172l-32.30515,13.25404l-17.40104,-6.44657z" fill="#9966ff" stroke-width="0"/></g></g></svg>