<svg version="1.1" xmlns="http://www.w3.org/2000/svg" xmlns:xlink="http://www.w3.org/1999/xlink" width="544.27489" height="371.13295" viewBox="0,0,544.27489,371.13295"><g transform="translate(29.28932,4.88045)"><g stroke="none" stroke-miterlimit="10"><path d="M-14.09511,366.25251v-58.76656h529.08068v58.76656z" fill="#636663" stroke-width="0"/><text transform="translate(11.86621,245.9301) scale(1.36804,0.77541)" font-size="40" xml:space="preserve" fill="#9966ff" stroke-width="1" font-family="Archivo Black" font-weight="normal" text-anchor="start"><tspan x="0" dy="0">you are insaned</tspan></text><path d="M166.71584,140.37288c0,-30.85401 46.13885,-55.8661 103.05397,-55.8661c56.91517,0 103.05397,25.01211 103.05397,55.8661c0,30.85401 -46.13885,55.86613 -103.05397,55.86613c-56.91517,0 -103.05397,-25.01211 -103.05397,-55.86613zM269.27369,183.74285c70.85904,0.19014 78.17265,-35.9364 78.17265,-35.9364h-151.96768c0,0 5.44088,35.75298 73.79502,35.9364zM307.3592,130.52764c7.69755,0 13.9376,-3.38279 13.9376,-7.55565c0,-4.17288 -6.2401,-7.55565 -13.9376,-7.55565c-7.69755,0 -13.9376,3.38279 -13.9376,7.55565c0,4.17288 6.2401,7.55565 13.9376,7.55565zM232.18048,130.52764c7.69755,0 13.9376,-3.38279 13.9376,-7.55565c0,-4.17288 -6.2401,-7.55565 -13.9376,-7.55565c-7.69755,0 -13.9376,3.38279 -13.9376,7.55565c0,4.17288 6.2401,7.55565 13.9376,7.55565z" fill="#9966ff" stroke-width="0"/><path d="M-29.28932,125.53237c0,-3.48157 1.88158,-6.30394 4.20263,-6.30394h8.40525c2.10131,0 3.15197,1.57598 4.20263,3.15197l4.20263,6.30394c1.05066,1.57598 2.10131,3.15197 4.20263,3.15197h12.60788c2.10131,0 3.15197,-1.57598 4.20263,-3.15197l4.20263,-6.30394c1.05066,-1.57598 2.10131,-3.15197 4.20263,-3.15197h48.17456c2.32105,0 4.20263,2.82237 4.20263,6.30394v63.0394c0,3.48157 -1.88158,6.30394 -4.20263,6.30394h-48.17456c-2.10131,0 -3.15197,1.57598 -4.20263,3.15197l-4.20263,6.30394c-1.05066,1.57598 -2.10131,3.15197 -4.20263,3.15197h-12.60788c-2.10131,0 -3.15197,-1.57598 -4.20263,-3.15197l-4.20263,-6.30394c-1.05066,-1.57598 -2.10131,-3.15197 -4.20263,-3.15197h-8.40525c-2.32105,0 -4.20263,-2.82237 -4.20263,-6.30394z" fill="#9966ff" stroke-width="0"/><path d="M404.00118,112.23031c0,-7.48884 12.1418,-13.55973 27.11947,-13.55973c14.97768,0 27.11948,6.0709 27.11948,13.55973c0,7.48884 -12.1418,13.55973 -27.11948,13.55973c-14.97766,0 -27.11947,-6.0709 -27.11947,-13.55973zM441.01259,109.84068c2.02567,0 3.6678,-0.82107 3.6678,-1.8339c0,-1.01284 -1.64212,-1.8339 -3.6678,-1.8339c-2.02567,0 -3.66779,0.82107 -3.66779,1.8339c0,1.01284 1.64212,1.8339 3.66779,1.8339zM421.22872,109.84068c2.02567,0 3.66779,-0.82107 3.66779,-1.8339c0,-1.01284 -1.64213,-1.8339 -3.66779,-1.8339c-2.02567,0 -3.66779,0.82107 -3.66779,1.8339c0,1.01284 1.64213,1.8339 3.66779,1.8339zM413.70982,120.78228h35.71257c0,0 -1.7187,-6.94872 -18.37066,-6.91214c-16.0633,0.03528 -17.34191,6.91214 -17.34191,6.91214z" fill="#9966ff" stroke-width="0"/><path d="M75.01965,133.29906c4.21502,-1.40729 9.33099,-1.3936 11.5229,-1.49653c0.89139,-1.37303 14.29305,-16.24124 31.58295,-16.07234c17.34713,0.20595 23.98017,7.54047 32.30855,11.60323c10.33948,-4.53092 17.65934,-6.27465 28.59426,-4.59273c10.27341,1.62839 15.47919,10.9744 15.89309,11.35195c0.20012,0.18458 5.84225,-2.4188 10.60801,-1.90224c6.12509,0.66389 8.0995,8.33069 6.76106,8.33069c-1.70067,0 -141.13416,-0.13456 -144.43251,0.10572c-3.212,-1.79725 3.36017,-6.05771 7.1617,-7.32774z" fill="#9966ff" stroke-width="0"/><path d="M475.35946,321.94881v-326.82926h14.77485v326.82926z" fill="#f3ff00" stroke-width="0"/></g></g></svg>