<svg version="1.1" xmlns="http://www.w3.org/2000/svg" xmlns:xlink="http://www.w3.org/1999/xlink" width="824.42268" height="824.42268" viewBox="0,0,824.42268,824.42268"><g transform="translate(172.21134,232.21134)"><g data-paper-data="{&quot;isPaintingLayer&quot;:true}" fill-rule="nonzero" stroke-width="0" stroke-linecap="butt" stroke-linejoin="miter" stroke-miterlimit="10" stroke-dasharray="" stroke-dashoffset="0" style="mix-blend-mode: normal"><path d="M-151.89189,492.31231v-624.62462h783.78378v624.62462z" fill="#00b0ff" stroke="none"/><path d="M-172.21134,160.78307l412.12186,19.21693l-412.12186,19.21693z" fill="#66e5ff" stroke="#000000"/><path d="M652.21134,199.21693l-412.12186,-19.21693l412.12186,-19.21693z" data-paper-data="{&quot;index&quot;:null}" fill="#66e5ff" stroke="#000000"/><path d="M-65.06585,457.88901l305.00259,-277.82574l-277.82574,305.00259z" fill="#66e5ff" stroke="#000000"/><path d="M545.06585,-97.88901l-305.00259,277.82574l277.82574,-305.00259z" data-paper-data="{&quot;index&quot;:null}" fill="#66e5ff" stroke="#000000"/><path d="M220.78307,592.21134l19.21693,-412.12186l19.21693,412.12186z" fill="#66e5ff" stroke="#000000"/><path d="M259.21693,-232.21134l-19.21693,412.12186l-19.21693,-412.12186z" data-paper-data="{&quot;index&quot;:null}" fill="#66e5ff" stroke="#000000"/><path d="M517.88901,485.06585l-277.82574,-305.00259l305.00259,277.82574z" fill="#66e5ff" stroke="#000000"/><path d="M-37.88901,-125.06585l277.82574,305.00259l-305.00259,-277.82574z" data-paper-data="{&quot;index&quot;:null}" fill="#66e5ff" stroke="#000000"/><path d="M85.27666,562.55478l154.6937,-382.47036l-118.43124,395.20597z" fill="#66e5ff" stroke="#000000"/><path d="M394.72335,-202.55478l-154.6937,382.47036l118.43123,-395.20597z" data-paper-data="{&quot;index&quot;:null}" fill="#66e5ff" stroke="#000000"/><path d="M401.10116,559.91301l-161.06243,-379.83235l195.70929,363.19635z" fill="#66e5ff" stroke="#000000"/><path d="M78.89884,-199.91301l161.06243,379.83235l-195.70929,-363.19635z" data-paper-data="{&quot;index&quot;:null}" fill="#66e5ff" stroke="#000000"/><path d="M622.55478,334.72335l-382.47036,-154.6937l395.20597,118.43123z" fill="#66e5ff" stroke="#000000"/><path d="M-142.55478,25.27665l382.47036,154.6937l-395.20597,-118.43123z" data-paper-data="{&quot;index&quot;:null}" fill="#66e5ff" stroke="#000000"/><path d="M619.91301,18.89885l-379.83235,161.06242l363.19635,-195.70929z" fill="#66e5ff" stroke="#000000"/><path d="M-139.91301,341.10115l379.83235,-161.06242l-363.19635,195.70929z" data-paper-data="{&quot;index&quot;:null}" fill="#66e5ff" stroke="#000000"/></g></g></svg>