<svg version="1.1" xmlns="http://www.w3.org/2000/svg" xmlns:xlink="http://www.w3.org/1999/xlink" width="219.2025" height="93.68696" viewBox="0,0,219.2025,93.68696"><g transform="translate(-129.83966,-133.05743)"><g data-paper-data="{&quot;isPaintingLayer&quot;:true}" fill-rule="nonzero" stroke="none" stroke-width="0.5" stroke-linecap="butt" stroke-linejoin="miter" stroke-miterlimit="10" stroke-dasharray="" stroke-dashoffset="0" style="mix-blend-mode: normal"><path d="M194.82536,181.32335c0.31099,1.53575 0.4732,3.05763 0.55557,4.58699c1.19714,0.95499 2.12602,2.15699 2.8437,3.53232c3.3765,-2.00606 7.62864,-2.86173 11.23945,-2.19477c2.0349,0.37587 4.25338,0.65946 6.11622,1.54004c1.35826,-1.9199 3.59621,-3.17332 6.12691,-3.17332c2.39435,0 4.52664,1.12199 5.8998,2.86889l2.10034,2.62543l-0.40945,0.32756c0.38956,0.24209 0.77045,0.49904 1.1411,0.77351c1.14926,0.85102 2.40859,7.92721 2.494,9.3964c0.03927,0.67562 -0.55462,1.35027 -0.35932,1.99824c0.36694,1.2174 1.22577,1.70045 1.76362,2.30901c-0.0106,-0.35481 -0.2996,-0.7241 -0.27602,-1.09181c0.14348,-2.23731 0.01065,-4.54457 0.64568,-6.69466c0.67902,-2.29902 1.54838,-3.98687 2.60698,-5.35736c-0.06583,-0.79163 -0.08491,-1.61147 -0.06055,-2.46023c-0.2495,-1.05097 -0.42779,-2.0527 -0.50164,-2.88681c-0.10848,-1.22542 -0.19091,-2.46498 -0.14367,-3.69524c-0.19031,-0.18435 -0.36888,-0.36949 -0.51843,-0.55845c-1.40944,-1.78081 -2.80203,-3.57575 -4.14924,-5.4041c-2.98764,-5.89837 -4.3596,-10.58084 -3.78515,-17.27075c0.26465,-3.08211 0.51461,-6.17407 1.96639,-8.83576c-1.38339,0.47511 -3.37408,0.36545 -5.0431,0.26568c-0.42482,0.88191 -0.85078,1.75787 -1.19907,2.63019c-2.2273,5.57849 -3.42879,10.63719 -7.10877,15.80713c-1.20935,1.69899 -1.84608,3.89713 -3.46947,5.20621c-1.27753,1.03018 -3.20986,0.7574 -4.72071,1.39824c-2.08533,0.88451 -3.84261,2.41511 -5.87552,3.41422c-2.5623,0.5303 -5.17652,0.92854 -7.79308,0.94186c-0.02878,0.00015 -0.05763,0.0006 -0.08656,0.00134zM221.58105,136.84049c0.57786,0.00437 1.15581,0.00671 1.73387,0.00671c3.33374,0 8.96737,-0.63719 12.01801,0.38488c1.76836,0.59246 3.22685,1.8954 4.68593,3.05694c1.81394,1.44402 3.51367,3.4328 4.81415,5.63842c1.21511,-0.04919 2.45765,0.05702 3.66948,0.03017c4.1372,-0.09167 8.88728,-0.22197 12.46048,2.51402c1.47253,1.12752 2.58976,2.42879 3.43065,3.84942c1.47861,-0.99701 3.23108,-1.80141 5.64482,-2.45894c1.34767,-0.36711 2.79101,-0.12622 4.18752,-0.15317c4.41239,-0.08513 8.40388,-0.35466 12.44312,1.85296c1.85484,1.01375 3.46475,2.42241 5.19712,3.63361c2.01107,4.95636 3.80802,9.40908 3.2574,14.87516c-0.21544,2.13873 0.09141,4.50753 -0.9735,6.37477c-1.07428,1.88368 -3.33263,2.77569 -5.02111,4.13634c-0.53743,0.43308 -1.04649,0.91642 -1.55248,1.40554c1.0336,1.28537 1.65213,2.91866 1.65213,4.69643c0,4.02817 -3.17563,7.31463 -7.15994,7.49243l0.14729,1.32564l-0.19412,0.02157c0.0769,0.13017 0.15308,0.2608 0.22852,0.39191c0.4073,0.70795 -0.25447,1.62881 -0.18916,2.44295c0.22125,2.75776 2.4514,5.85081 1.04571,8.23372c-0.211,0.35769 -0.43204,0.68863 -0.66224,0.99479c0.65538,0 1.31076,0 1.96614,0v-0.00268c0.06688,-1.64619 -0.20956,-3.34291 0.20063,-4.93858c0.96546,-3.75567 5.96878,-11.83872 9.78445,-12.10006c3.85322,-0.26391 7.48165,2.82351 10.11808,5.64595c0.24751,0.26498 0.42341,0.56375 0.54688,0.88726c0.28691,-0.20913 0.58671,-0.38735 0.92512,-0.47377c2.90897,-0.74289 12.27845,-0.5429 14.4665,0.51966c1.61339,0.78349 2.9357,2.26852 4.03874,3.95049c1.50976,0.56669 2.73247,1.74718 4.07393,2.65268c0.82895,0.55955 1.54941,1.2705 2.32899,1.89729c0.65591,-1.42486 1.32667,-1.83753 2.64595,-2.71466l0.23383,-1.63681c0.46755,-3.69289 3.6204,-6.5485 7.44022,-6.5485c4.14214,0 7.5,3.35786 7.5,7.5v4.28725c1.41545,3.49422 -2.10575,9.71779 -3.80442,11.73417c-1.02527,1.21703 -2.82365,1.48492 -4.13341,2.38873c-1.29608,0.89438 -2.17969,2.44812 -3.65882,2.9884c-2.05814,0.75177 -11.21123,1.16292 -13.618,0.24909c-0.2749,-0.10438 -0.53964,-0.20914 -0.79499,-0.3147c-5.00701,2.03367 -12.11375,1.84441 -15.73102,-1.07241c-0.8896,-0.71734 -1.4616,-1.70125 -1.92803,-2.77011c-0.45365,0.0075 -1.00517,0.01316 -1.58831,0.02815c-4.26525,6.2518 -13.40033,8.18612 -20.51509,6.32236c-1.24151,-0.32522 -2.18721,-1.37155 -3.382,-1.84017c-0.90247,-0.35396 -1.97387,-0.1773 -2.84518,-0.60222c-0.40319,-0.19663 -0.8062,-0.40653 -1.20704,-0.62899c-1.47839,-0.06386 -2.89437,-0.21768 -4.18782,-0.51504c-0.39732,0.33441 -0.81223,0.64352 -1.24266,0.92314c-1.84966,1.2016 -4.37103,0.61389 -6.56954,0.7918c-2.60305,0.21064 -10.18148,0.48752 -11.98052,-0.5709c-2.27098,-1.33607 -4.32751,-3.26195 -5.72407,-5.523c-3.71871,5.08071 -10.1339,7.08811 -16.19614,5.3021c-1.2922,-0.3807 -1.72387,-2.10997 -2.81577,-2.89895c-0.43029,-0.31091 -0.99386,-0.39859 -1.52725,-0.52868c-2.20714,1.76379 -4.81427,2.84278 -7.72322,2.61073c-3.0365,-0.24223 -6.53761,-0.64912 -8.70095,-2.79364c-4.77409,-4.73255 -1.77686,-11.58517 -2.59882,-17.06277c-0.01752,-0.11676 -0.04648,-0.23258 -0.08368,-0.34761c-0.0044,-0.00293 -0.00876,-0.00587 -0.01308,-0.00884c-0.25698,0.98936 -0.46314,2.00051 -0.90331,2.91936c-1.2815,2.67511 -2.89316,5.16325 -4.65844,7.5614l-0.34327,3.43274c-0.33597,3.83123 -3.55257,6.83623 -7.47103,6.83623c-4.14214,0 -7.5,-3.35786 -7.5,-7.5v-1.48855c-0.05507,0.08291 -0.11025,0.16557 -0.16552,0.24797c-1.12066,1.67092 -1.73383,3.76741 -3.25753,5.08126c-4.70973,4.0611 -12.98495,4.81259 -19.19968,2.07541c-4.62531,2.30815 -10.45137,2.68747 -15.03201,0.7921c-0.08308,-0.03438 -0.16356,-0.07253 -0.24168,-0.11408c-0.91678,0.2203 -1.84132,0.33939 -2.75239,0.34442c-2.71246,0.01497 -5.69928,0.10884 -8.03875,-1.26394c-1.90143,-1.11574 -2.41009,-3.69246 -3.58595,-5.55731c-4.33404,-6.87352 -5.12025,-14.16286 3.57795,-16.60668c-1.06199,-4.3518 -1.17384,-9.53119 1.0831,-13.23286c1.87474,-3.07482 5.6309,-4.15617 8.00853,-6.66357c0,0 5.3033,-5.3033 10.6066,0c1.81515,1.81515 2.38777,3.63031 2.35576,5.23282l0.17648,-0.52944c0.94252,-3.06469 3.79602,-5.29236 7.16981,-5.29236c4.14214,0 7.5,3.35786 7.5,7.5c0,0.77544 -0.11768,1.52339 -0.33616,2.22697l-0.77033,2.69616c0.80515,2.90619 -0.23016,6.32534 -0.53773,9.21354c-0.12179,1.14369 0.15122,2.32997 -0.11667,3.44849c-0.2255,0.94153 -0.78181,1.77327 -1.19949,2.65114c0.01222,0.54291 0.01698,1.08705 0.01028,1.62889c0.29882,0.03675 0.5979,0.07242 0.89185,0.13517c0.14207,0.03033 0.07138,0.5544 0.12224,0.41833c0.56534,-1.51245 1.63716,-2.78413 2.41251,-4.20044c0.92243,-1.68499 1.91505,-3.38844 2.36155,-5.25679c0.28388,-1.18789 -0.20501,-2.52874 0.26962,-3.65409c0.3622,-0.85876 2.56732,-3.82795 4.02103,-5.76541c0.09256,-1.60997 0.15095,-3.25145 -0.08408,-4.64532c-1.11877,-6.63491 -2.83831,-11.89521 3.83473,-17.48378c3.18084,-2.6639 9.60512,-0.71275 13.48458,-1.36865c1.68478,-0.88219 3.05941,-2.35557 4.84259,-3.01665c0.54415,-0.20173 1.21623,0.63112 1.71016,0.32643c0.35483,-0.21888 -0.43566,-0.84939 -0.25403,-1.22466c0.47706,-0.98568 2.53267,-2.66187 2.91,-4.08907c0.37928,-1.43456 0.25636,-2.9915 0.76566,-4.38521c0.31853,-0.87167 1.23346,-1.41916 1.6481,-2.24627c-4.12571,-0.12603 -8.25601,-0.24534 -12.40389,-0.24534h-2.67953c-4.14214,0 -7.5,-3.35786 -7.5,-7.5c0,-2.39435 1.12199,-4.52664 2.86889,-5.8998l2.62543,-2.10034l0.27019,0.33774c0.30408,-0.39727 0.62765,-0.78019 0.97485,-1.1457c1.94321,-2.04571 7.13975,-1.8764 9.87104,-1.90734c6.27001,-0.07103 13.08355,-0.42763 18.09464,3.74463zM155.83048,190.27699c-1.66854,1.66075 -2.78875,2.95612 -4.92791,3.98089c-0.00017,0.02876 0.00173,0.05682 0.00622,0.08399c0.4059,2.45413 0.6474,2.75611 2.08711,4.90963c0.57676,0.86272 1.31473,1.83531 2.06072,2.87167c0.04493,-1.96578 0.14486,-3.92706 0.20097,-5.79311c0.05156,-1.71475 -0.20962,-3.48798 0.25125,-5.14044c0.08706,-0.31216 0.19623,-0.6156 0.32164,-0.91262zM252.1434,165.9804c0.12546,-0.25259 -0.38994,-0.45277 -0.42279,-0.73288c-0.16834,-1.43576 -0.34201,-2.91379 -0.15479,-4.34451c-1.017,0.0942 -2.04359,0.10728 -3.06333,0.05458c-0.97963,-0.05062 -2.65422,-0.13929 -2.93225,0.50346c-0.29022,0.67094 0.25004,1.44773 0.25004,2.17875c0,0.90402 -0.20665,1.81707 -0.07249,2.71108c0.07888,0.52567 0.78564,4.14583 1.54365,4.76517c0.12343,0.12367 0.25295,0.24337 0.38668,0.36031c0.44965,-0.23803 0.92642,-0.43167 1.42446,-0.57509c-0.60958,-2.18895 2.0862,-2.999 3.04081,-4.92087z" fill="#000000"/><path d="M187.69643,167.71276c2.34948,-0.85436 3.20384,1.49513 3.20384,1.49513l0.53519,1.76602c0.79909,0.63689 1.45522,1.5148 2.39727,1.91067c1.47796,0.62106 7.34236,-3.32978 7.68183,-3.55267c3.21099,-2.10832 7.41761,-5.64573 9.11887,-9.2405c1.9496,-4.11953 1.94773,-8.62747 1.94012,-13.0695c-2.31489,-0.00078 -4.63024,0.02251 -6.94634,0.10268c-4.24911,0.14709 -8.53204,0.80089 -12.7797,1.08429c0,0 -2.49446,0.1663 -2.66076,-2.32817c-0.1663,-2.49446 2.32816,-2.66076 2.32816,-2.66076c4.28008,-0.2851 8.5906,-0.938 12.87249,-1.08962c9.21428,-0.32627 18.42655,0.29219 27.63491,-0.31741l2.92171,-0.51728c0,0 2.46224,-0.43285 2.89509,2.02939c0.43284,2.46224 -2.0294,2.89509 -2.0294,2.89509l-3.18739,0.55666c-5.35107,0.35903 -10.6999,0.3144 -16.05008,0.27192c-0.00549,5.14404 -0.11843,10.40642 -2.40846,15.15829c-3.02062,6.26786 -9.55767,10.61699 -15.42151,13.74869c-2.27692,1.21604 -4.44151,2.80131 -7.34301,1.719c-1.94887,-0.72697 -3.32935,-2.49433 -4.99403,-3.7415l-1.20394,-3.01659c0,0 -0.85436,-2.34948 1.49513,-3.20384z" fill="#ffffff"/><path d="M250.56285,180.77569c-2.25117,1.3127 -4.78522,2.65796 -7.5067,1.68301c-5.03171,-1.80257 -5.83823,-5.20172 -7.20823,-9.58543c-2.23654,-7.15644 2.54826,-16.24801 10.068,-17.87686c1.31371,-0.28456 7.96872,-0.05091 9.13813,0.74796c3.67668,2.51167 3.76739,5.48567 4.62945,9.19518c1.23351,5.30785 2.4161,12.83087 -3.49293,16.05441c-1.1316,0.61731 -2.53863,0.44906 -3.80795,0.67359zM253.24345,176.68337c0.24451,-0.02265 0.4833,-0.06907 0.71104,-0.16154c3.37012,-1.36831 1.35359,-8.2405 0.85489,-10.46733c-0.37318,-1.66637 -0.56451,-4.84289 -2.32708,-6.02221c-0.65083,-0.43546 -1.56485,-0.06671 -2.34774,-0.08357c-1.09873,-0.02367 -2.21152,-0.21143 -3.29674,-0.03803c-4.70084,0.75111 -7.50465,7.34826 -6.20147,11.5236c0.76004,2.43512 1.03797,5.14756 3.84385,6.23151c1.36335,0.52668 4.6642,-1.84147 5.23622,-2.17379c0,0 2.17894,-1.22566 3.40459,0.95328c0.04538,0.08068 0.08609,0.16004 0.12242,0.23809z" fill="#ffffff"/><path d="M282.96077,180.46595c1.11803,2.23607 -1.11804,3.3541 -1.11804,3.3541l-1.02606,0.50641c-6.83972,2.80752 -14.61974,3.86087 -18.25551,-4.35735c-0.57324,-1.29573 -0.57102,-2.77561 -0.85653,-4.16341c0.57746,-4.95074 0.98654,-10.98002 3.94696,-15.24659c4.20882,-6.06577 13.40244,-7.71722 19.09856,-3.04103c5.11628,4.20018 5.14718,14.8928 -1.61953,17.70868c-1.46651,0.61027 -3.18815,0.10753 -4.76445,-0.08836c-4.00138,-0.49724 -7.7003,-2.25477 -11.02708,-4.43938c-0.26322,1.69497 -0.42942,3.38763 -0.63777,4.92412c0.14927,0.78611 0.11448,1.63091 0.44781,2.35833c2.43605,5.31614 7.46067,3.54721 11.74449,1.72961l0.71307,-0.36316c0,0 2.23607,-1.11804 3.35411,1.11803zM268.64676,165.53878c3.2572,2.34454 6.4758,3.76605 10.52344,4.66469c0.72217,0.16034 1.49078,0.58189 2.19206,0.34643c3.31309,-1.11237 2.19188,-7.6732 0.1196,-9.24785c-3.4973,-2.65747 -9.27684,-1.62588 -11.77101,2.17636c-0.41967,0.63976 -0.76937,1.33208 -1.0641,2.06037z" fill="#ffffff"/><path d="M138.94946,204.11427c2.5,0 2.5,2.5 2.5,2.5v0.2174c-0.02906,0.71609 -0.47647,2.86004 0.59865,3.48608c0.99808,0.58119 5.20445,1.7754 6.16983,-0.22123c0.9359,-1.93569 -5.02698,-7.42992 -5.52554,-8.25487c-1.89946,-3.143 -3.94074,-8.63652 -1.46171,-12.28637c0.77345,-1.13874 2.2535,-1.58665 3.43833,-2.28745c2.45785,-1.45377 5.33856,-2.4392 8.19348,-2.50137c0,0 2.5,0 2.5,2.5c0,2.5 -2.5,2.5 -2.5,2.5c-0.80546,-0.02665 -1.64945,-0.32751 -2.41637,-0.07993c-1.21298,0.39159 -2.17594,1.33142 -3.30319,1.92638c-0.56984,0.30077 -1.3906,0.24194 -1.77905,0.75602c-1.25011,1.65443 0.91443,5.79383 1.58177,6.84406c2.3832,3.75059 8.34501,7.63986 5.77881,13.04948c-2.41853,5.09832 -10.06046,4.53356 -13.79421,1.96412c-2.92597,-2.01354 -2.40964,-4.57877 -2.48079,-7.39491v-0.2174c0,0 0,-2.5 2.5,-2.5z" fill="#ffffff"/><path d="M163.65307,194.67735c2.37171,0.79057 1.58114,3.16228 1.58114,3.16228l-0.52389,1.16595c0,4.89611 -0.34441,9.65232 0.80311,14.42741c0,0 0.5726,2.43354 -1.86094,3.00614c-2.43355,0.5726 -3.00614,-1.86094 -3.00614,-1.86094c-1.20036,-5.19656 -0.93603,-10.26193 -0.93603,-15.5726l0.78047,-2.74709c0,0 0.79057,-2.37171 3.16228,-1.58114z" fill="#ffffff"/><path d="M163.18859,187.91862c0,-1.38071 1.11929,-2.5 2.5,-2.5c1.38071,0 2.5,1.11929 2.5,2.5c0,1.38071 -1.11929,2.5 -2.5,2.5c-1.38071,0 -2.5,-1.11929 -2.5,-2.5z" fill="#ffffff"/><path d="M215.82698,219.20337c-2.37171,0.79057 -3.16227,-1.58114 -3.16227,-1.58114l-0.72001,-2.20059c-1.04019,-4.66058 -1.5942,-9.35447 -2.43873,-14.05535c-0.26533,-1.47691 -0.52518,-2.95507 -0.75328,-4.43819c-0.13277,-0.86331 0.18864,-1.89614 -0.32908,-2.59963c-0.46371,-0.63009 0.32547,1.58275 0.14007,2.3428c-0.50066,2.05251 -3.05806,4.87866 -3.9737,6.41523c-1.57268,2.63919 -2.88412,4.93918 -4.3538,7.20788l0.41648,0.2173l-2.28848,4.38625c-0.40882,0.82392 -1.25868,1.39026 -2.24081,1.39026c-1.18975,0 -2.18539,-0.83109 -2.43804,-1.94439l-0.63949,-2.55796l0.06799,-0.017l-0.10902,-0.18075c-0.4157,-4.89931 -0.98879,-9.81478 -1.93024,-14.64722c-0.19254,-0.98833 -0.50408,-1.94979 -0.77067,-2.92076c-0.13279,-0.48367 -0.01705,-1.7312 -0.42736,-1.44273c-0.54137,0.38062 -0.01163,1.37024 -0.30983,1.96103c-0.74311,1.47222 -1.85529,2.72727 -2.75441,4.10974c-4.13703,6.36097 -8.28701,12.77159 -11.46251,19.66596c0,0 -1.04764,2.2699 -3.31754,1.22226c-2.2699,-1.04764 -1.22225,-3.31754 -1.22225,-3.31754c3.28916,-7.11273 7.53932,-13.72987 11.8109,-20.29685c0.68543,-1.05375 5.22023,-8.25849 6.70583,-8.31426c2.14704,-0.08059 3.87867,2.10008 5.22481,3.77466c0.97856,1.21731 1.05432,2.94815 1.40324,4.47054c0.74041,3.23043 1.19479,6.59334 1.53584,9.94105c0.42711,-0.63221 0.87401,-1.25657 1.22824,-1.92398c1.68666,-3.17779 3.33411,-6.54658 5.39899,-9.4866c1.24033,-1.76602 1.9007,-5.20461 4.05311,-5.04851c2.57426,0.18669 3.95323,3.47093 5.21792,5.72088c0.89814,1.59784 0.6918,3.60005 1.03364,5.40086c0.87996,4.63569 1.36656,9.27122 2.40126,13.87206l0.58435,1.71245c0,0 0.79057,2.3717 -1.58114,3.16227z" fill="#ffffff"/><path d="M244.16685,197.15775c2.5,0 2.5,2.5 2.5,2.5v0.65217c-0.02207,1.49488 0.29108,3.03293 -0.06622,4.48465c-0.38993,1.58428 -1.4895,2.90675 -2.12302,4.41028c-1.55127,3.68159 -3.07357,10.30065 -8.3944,10.77269c-3.74043,0.33184 -5.75535,-3.57668 -7.29441,-5.94683c-3.40782,-5.24805 -5.57954,-11.25001 -6.02945,-17.46753c0,0 -0.1663,-2.49446 2.32817,-2.66076c2.49446,-0.1663 2.66076,2.32816 2.66076,2.32816c0.32605,5.45688 2.42703,10.4986 5.2749,15.14116c0.6089,0.99264 1.21784,1.98916 1.91519,2.92178c0.21031,0.28125 0.45033,0.78428 0.79039,0.6966c2.27632,-0.58695 3.69378,-6.68449 4.15347,-7.75567c0.53014,-1.23534 1.51535,-2.28134 1.85085,-3.58309c0.27803,-1.07878 -0.04415,-2.22763 -0.06623,-3.34144v-0.65217c0,0 0,-2.5 2.5,-2.5z" fill="#ffffff"/><path d="M253.51468,216.72297c-2.5,0 -2.5,-2.5 -2.5,-2.5c0,-5.65217 0,-14.34782 0,-20c0,0 0,-2.5 2.5,-2.5c2.5,0 2.5,2.5 2.5,2.5c0,5.65218 0,11.30435 0,16.95653v3.04348c0,0 0,2.5 -2.5,2.5z" fill="#ffffff"/><path d="M282.4712,217.89688c-1.5,2 -3.5,0.5 -3.5,0.5l-2.90177,-2.21443c-1.1411,-1.59643 -2.33011,-3.1228 -3.54849,-4.61763c0.01168,0.697 0.01279,1.37076 0.01547,2.00597v1.30435c0,0 0,2.5 -2.5,2.5c-0.86894,0 -1.43586,-0.30203 -1.80573,-0.69612c-0.0492,0.46703 -0.26503,0.97632 -0.77433,1.48562c-1.76776,1.76776 -3.53553,0 -3.53553,0c-3.82006,-3.9642 -5.22006,-8.17962 -5.2928,-13.78938c-0.02596,-2.00148 -0.71631,-4.38384 0.48438,-5.98538c3.55806,-4.74595 7.7968,-0.61916 10.15273,1.99201c0.58075,0.27918 0.94062,0.70448 0.94062,0.70448c3.25632,3.84943 6.56327,7.46368 9.44982,11.61189l2.31563,1.69862c0,0 2,1.5 0.5,3.5zM267.53642,214.71728v-1.14649c0.01565,-3.1967 0.10337,-6.96344 -1.87027,-9.74402c-0.68194,-0.96077 -2.62331,-3.641 -2.5318,-2.46638c0.37739,4.84428 0.72216,9.85201 4.32201,13.26872c0,0 0.03074,0.03074 0.08006,0.08817z" fill="#ffffff"/><path d="M307.68859,204.4621c1.5,2 -0.5,3.5 -0.5,3.5l-1.66415,1.05059c-2.19967,0.64671 -4.14714,1.14043 -6.10148,1.48199c0.14704,1.73073 0.17666,3.51714 0.06511,5.40598c0,0 -0.15594,2.49514 -2.65107,2.33919c-2.49513,-0.15595 -2.33919,-2.65108 -2.33919,-2.65108c0.10578,-1.59345 0.09033,-3.10151 -0.02463,-4.56101c-0.65856,0.02871 -1.33786,0.04305 -2.04546,0.04305c0,0 -2.5,0 -2.5,-2.5c0,-2.5 2.5,-2.5 2.5,-2.5c0.43737,0 0.85977,-0.00562 1.26995,-0.01694c-0.57603,-2.53077 -1.39566,-5.04324 -2.32958,-7.75664l-0.13602,-1.46555c0,0 0,-2.5 2.5,-2.5c2.5,0 2.5,2.5 2.5,2.5l-0.13601,-0.16121c1.06537,3.09744 1.96959,5.97699 2.58616,8.88766c1.70657,-0.30483 3.41554,-0.74913 5.4314,-1.34226l0.07498,-0.25376c0,0 2,-1.5 3.5,0.5z" fill="#ffffff"/><path d="M320.68061,218.82589c-0.21017,0.05074 -0.34962,0.06236 -0.34962,0.06236c-1.18965,0.03668 -2.4535,0.52523 -3.56895,0.11004c-4.94991,-1.84243 -12.54264,-12.10133 -5.84762,-16.42325c5.78316,-3.73328 10.09913,2.23075 12.91544,5.97442c0.6329,0.8413 1.61534,1.45292 2.02746,2.42168c1.40333,3.29877 0.64337,3.99112 -0.34098,6.93227l-3.00165,1.64565c0,0 -1.09347,-0.00001 -1.83407,-0.72317zM321.18531,214.1123c-0.12057,-2.30578 -1.92165,-4.39409 -3.76954,-6.24665c-0.60222,-0.60374 -2.60477,-1.56 -3.73562,-1.12519c-0.87805,0.3376 -0.21553,2.00173 0.26657,2.80952c1.34656,2.25626 3.34689,4.87209 5.96904,4.35553c0,0 0.62151,-0.05179 1.26956,0.20678z" fill="#ffffff"/><path d="M343.02727,209.37172c-1.4531,2.03433 -3.48743,0.58124 -3.48743,0.58124l-1.63038,-1.16912c-2.34224,-2.81766 -1.46538,1.60041 -2.22577,3.37673c-0.40189,0.93883 -1.43885,1.51011 -1.84114,2.44878c-0.59131,1.37974 -0.7212,2.91431 -1.0818,4.37146c0,0 -0.62741,2.41999 -3.0474,1.79259c-2.41999,-0.62741 -1.79259,-3.0474 -1.79259,-3.0474c0.47594,-1.7695 0.71779,-3.61927 1.42782,-5.30851c0.36392,-0.86582 1.36215,-1.35759 1.7362,-2.21908c1.49261,-3.43775 0.58287,-8.15326 6.61816,-7.57274c1.33418,0.12833 2.21999,1.50255 3.32999,2.25383l1.4131,1.00479c0,0 2.03433,1.4531 0.58124,3.48743z" fill="#ffffff"/></g></g></svg>