<svg version="1.1" xmlns="http://www.w3.org/2000/svg" xmlns:xlink="http://www.w3.org/1999/xlink" width="539.52591" height="315.37213" viewBox="0,0,539.52591,315.37213"><g transform="translate(24.54034,-50.88037)"><g data-paper-data="{&quot;isPaintingLayer&quot;:true}" fill-rule="nonzero" stroke="none" stroke-width="0" stroke-linecap="butt" stroke-linejoin="miter" stroke-miterlimit="10" stroke-dasharray="" stroke-dashoffset="0" style="mix-blend-mode: normal"><path d="M-8.69308,314.44412v-108.81801h14.77485v108.81801z" fill="#f3ff00"/><path d="M361.33095,308.91719v-21h131.14286v21z" fill="#bfc5bf"/><path d="M-14.09511,366.2525v-58.76656h529.08068v58.76656z" fill="#636663"/><path d="M-24.54034,209.38328v-58.76656h355.22354v58.76656z" fill="#636663"/><path d="M385.28053,291.27013v-21h105.76471v21z" fill="#bfc5bf"/><path d="M411.13614,274.82628v-21h79.90909v21z" fill="#bfc5bf"/><path d="M436.16497,257.17922v-21h54.88027v21z" fill="#bfc5bf"/><path d="M453.58997,241.05571v-21h38.36563v21z" fill="#bfc5bf"/><path d="M472.04805,221.03609v-21h19.90755v21z" fill="#bfc5bf"/><path d="M-3.58462,159.76146v-21h131.14286v21z" data-paper-data="{&quot;index&quot;:null}" fill="#bfc5bf"/><path d="M-2.15605,142.1144v-21h105.76471v21z" data-paper-data="{&quot;index&quot;:null}" fill="#bfc5bf"/><path d="M-2.15605,125.67055v-21h79.90909v21z" data-paper-data="{&quot;index&quot;:null}" fill="#bfc5bf"/><path d="M-2.15605,108.02349v-21h54.88027v21z" data-paper-data="{&quot;index&quot;:null}" fill="#bfc5bf"/><path d="M-3.06642,91.89998v-21h38.36563v21z" data-paper-data="{&quot;index&quot;:null}" fill="#bfc5bf"/><path d="M-3.06642,71.88037v-21h19.90755v21z" data-paper-data="{&quot;index&quot;:null}" fill="#bfc5bf"/></g></g></svg>