<svg version="1.1" xmlns="http://www.w3.org/2000/svg" xmlns:xlink="http://www.w3.org/1999/xlink" width="34.84422" height="264.73001" viewBox="0,0,34.84422,264.73001"><g transform="translate(-260.02245,-22.90428)"><g data-paper-data="{&quot;isPaintingLayer&quot;:true}" fill="#926e00" fill-rule="nonzero" stroke="none" stroke-width="0" stroke-linecap="butt" stroke-linejoin="miter" stroke-miterlimit="10" stroke-dasharray="" stroke-dashoffset="0" style="mix-blend-mode: normal"><path d="M294.86668,179.38874v108.24555h-9.42508v-108.24555z"/><path d="M269.44754,179.38874v108.24555h-9.42508v-108.24555z"/><g><path d="M287.15526,276.20996v7.1402h-25.13353v-7.1402z"/><path d="M287.15526,263.35759v7.14021h-25.13353v-7.14021z"/><path d="M287.15526,250.50521v7.14021h-25.13353v-7.14021z"/><path d="M287.15526,237.65283v7.14021h-25.13353v-7.14021z"/></g><g><path d="M287.15526,224.80047v7.14021h-25.13353v-7.14021z"/><path d="M287.15526,211.94808v7.14021h-25.13353v-7.14021z"/><path d="M287.15526,199.09571v7.14021h-25.13353v-7.14021z"/><path d="M287.15526,186.24333v7.14021h-25.13353v-7.14021z"/></g><path d="M294.86668,74.88713v108.24555h-9.42508v-108.24555z"/><path d="M269.44754,74.88713v108.24555h-9.42508v-108.24555z"/><g><path d="M287.15526,171.70835v7.1402h-25.13353v-7.1402z"/><path d="M287.15526,158.85598v7.14021h-25.13353v-7.14021z"/><path d="M287.15526,146.0036v7.14021h-25.13353v-7.14021z"/><path d="M287.15526,133.15122v7.14021h-25.13353v-7.14021z"/></g><g><path d="M287.15526,120.29886v7.14021h-25.13353v-7.14021z"/><path d="M287.15526,107.44647v7.14021h-25.13353v-7.14021z"/><path d="M287.15526,94.5941v7.14021h-25.13353v-7.14021z"/><path d="M287.15526,81.74172v7.14021h-25.13353v-7.14021z"/></g><path d="M294.86668,22.90428v75.5553h-9.42508v-75.5553z"/><path d="M269.44754,22.90428v68.58853h-9.42508v-68.58853z"/><g><path d="M287.15526,68.31601v7.14021h-25.13353v-7.14021z"/><path d="M287.15526,55.46362v7.14021h-25.13353v-7.14021z"/><path d="M287.15526,42.61125v7.14021h-25.13353v-7.14021z"/><path d="M287.15526,29.75887v7.14021h-25.13353v-7.14021z"/></g></g></g></svg>