<svg version="1.1" xmlns="http://www.w3.org/2000/svg" xmlns:xlink="http://www.w3.org/1999/xlink" width="53.4053" height="90.5629" viewBox="0,0,53.4053,90.5629"><g transform="translate(-208.58531,-136.033)"><g data-paper-data="{&quot;isPaintingLayer&quot;:true}" fill-rule="nonzero" stroke="none" stroke-linecap="butt" stroke-linejoin="miter" stroke-miterlimit="10" stroke-dasharray="" stroke-dashoffset="0" style="mix-blend-mode: normal"><path d="M241.29741,193.52382c0,-3.79808 3.07895,-6.87703 6.87703,-6.87703c3.79808,0 6.87702,3.07895 6.87702,6.87703c0,3.79808 -3.07893,6.87703 -6.87702,6.87703c-3.79808,0 -6.87703,-3.07895 -6.87703,-6.87703z" fill="#ffdea1" stroke-width="NaN"/><path d="M229.73279,202.58183v-36.22561h22.52087v36.22561z" fill="#fffc00" stroke-width="0"/><path d="M229.73279,202.58181v-7.28003h22.52087v7.28003z" fill="#0061ff" stroke-width="0"/><path d="M228.10623,153.59776c0,-9.35691 7.58528,-16.94219 16.94219,-16.94219c9.35691,0 16.94219,7.58528 16.94219,16.94219c0,9.35691 -7.58528,16.94219 -16.94219,16.94219c-9.35691,0 -16.94219,-7.58528 -16.94219,-16.94219z" fill="#ffdea1" stroke-width="NaN"/><path d="M210.40488,214.07178c2.329,-3.00019 2.78327,-3.7138 5.78346,-1.3848c3.00019,2.329 7.82872,10.14165 5.49972,13.14184c-2.329,3.00019 -7.92517,-3.60902 -10.92536,-5.93802c-3.00019,-2.329 -2.68682,-2.81883 -0.35782,-5.81902z" fill="#000000" stroke-width="NaN"/><path d="M227.71068,211.44429c1.51055,-3.48477 1.77326,-4.28885 5.25802,-2.77831c3.48477,1.51055 10.10302,7.87852 8.59247,11.36329c-1.51055,3.48477 -8.57335,-1.52679 -12.05812,-3.03734c-3.48477,-1.51055 -3.30292,-2.06288 -1.79237,-5.54765z" fill="#000000" stroke-width="NaN"/><path d="M254.78466,151.62421c0,-2.10726 1.23702,-3.81555 2.76298,-3.81555c1.52596,0 2.76298,1.70829 2.76298,3.81555c0,2.10726 -1.23702,3.81555 -2.76298,3.81555c-1.52596,0 -2.76298,-1.70829 -2.76298,-3.81555z" fill="#ff6666" stroke-width="0"/><path d="M248.86398,151.62421c0,-2.10726 1.23704,-3.81557 2.76298,-3.81557c1.52596,0 2.763,1.70829 2.763,3.81557c0,2.10726 -1.23704,3.81555 -2.763,3.81555c-1.52596,0 -2.76298,-1.70829 -2.76298,-3.81555z" fill="#ff6666" stroke-width="0"/><path d="M225.40425,159.38663c0.16417,-3.86142 3.45079,-15.87625 8.2191,-19.76155c4.7039,-3.83281 12.11071,-3.84193 20.20018,-3.39492c8.08948,0.44703 6.85303,2.81004 4.07869,4.73655c-2.77434,1.92651 -15.0117,2.18873 -19.06629,5.67091c-3.1936,2.74275 -1.56506,8.27227 -3.30074,13.53843c-1.7357,5.26616 0.23018,5.65755 -3.02614,5.65755c-3.27824,0 -7.26899,-2.58554 -7.10483,-6.44696z" fill="#969696" stroke-width="0"/><text transform="translate(229.68519,176.08828) scale(0.06653,0.06653)" font-size="40" xml:space="preserve" fill="#000000" fill-rule="nonzero" stroke="none" stroke-width="1" stroke-linecap="butt" stroke-linejoin="miter" stroke-miterlimit="10" stroke-dasharray="" stroke-dashoffset="0" font-family="Archivo Black" font-weight="normal" text-anchor="start" style="mix-blend-mode: normal"><tspan x="0" dy="0">Yes, I'm  a MAN.</tspan><tspan x="0" dy="46.150000000000006px"> </tspan><tspan x="0" dy="46.150000000000006px">Masculine </tspan><tspan x="0" dy="46.150000000000006px">Ass</tspan><tspan x="0" dy="46.150000000000006px">Nice guy</tspan></text><path d="M211.82204,190.66467c0,-3.79808 3.07895,-6.87703 6.87703,-6.87703c3.79808,0 6.87703,3.07895 6.87703,6.87703c0,3.79808 -3.07895,6.87703 -6.87703,6.87703c-3.79808,0 -6.87703,-3.07895 -6.87703,-6.87703z" fill="#ffdea1" stroke-width="NaN"/></g></g></svg>