<svg version="1.1" xmlns="http://www.w3.org/2000/svg" xmlns:xlink="http://www.w3.org/1999/xlink" width="28.1873" height="46.26161" viewBox="0,0,28.1873,46.26161"><g transform="translate(-225.84868,-155.58892)"><g data-paper-data="{&quot;isPaintingLayer&quot;:true}" fill-rule="nonzero" stroke="none" stroke-linecap="butt" stroke-linejoin="miter" stroke-miterlimit="10" stroke-dasharray="" stroke-dashoffset="0" style="mix-blend-mode: normal"><path d="M246.27293,183.38306c0,-2.14371 1.73782,-3.88153 3.88153,-3.88153c2.14371,0 3.88152,1.73782 3.88152,3.88153c0,2.14371 -1.73781,3.88153 -3.88152,3.88153c-2.14371,0 -3.88153,-1.73782 -3.88153,-3.88153z" fill="#ffdea1" stroke-width="NaN"/><path d="M234.20502,191.70707v-20.44643h12.71121v20.44643z" fill="#fffc00" stroke-width="0"/><path d="M234.20502,191.70706v-4.10899h12.71121v4.10899z" fill="#0061ff" stroke-width="0"/><path d="M230.4004,165.5028c0,-5.28122 4.28128,-9.5625 9.5625,-9.5625c5.28122,0 9.5625,4.28128 9.5625,9.5625c0,5.28122 -4.28128,9.5625 -9.5625,9.5625c-5.28122,0 -9.5625,-4.28128 -9.5625,-9.5625z" fill="#ffdea1" stroke-width="NaN"/><path d="M228.24041,196.57848c0.73023,-2.0155 0.85037,-2.4776 2.86588,-1.74737c2.0155,0.73023 5.96456,4.08834 5.23433,6.10385c-0.73023,2.0155 -4.88273,-0.56306 -6.89824,-1.29329c-2.0155,-0.73023 -1.93219,-1.04769 -1.20196,-3.06319z" fill="#000000" stroke-width="NaN"/><path d="M243.64723,200.11381c-1.00426,-1.89392 -1.26623,-2.29308 0.62768,-3.29734c1.89392,-1.00426 7.0337,-1.6786 8.03796,0.21532c1.00426,1.89392 -3.69408,3.24221 -5.588,4.24647c-1.89392,1.00426 -2.07338,0.72946 -3.07764,-1.16446z" fill="#000000" stroke-width="NaN"/><path d="M245.45822,164.38889c0,-1.18938 0.6982,-2.15357 1.55948,-2.15357c0.86128,0 1.55948,0.96419 1.55948,2.15357c0,1.18938 -0.6982,2.15357 -1.55948,2.15357c-0.86128,0 -1.55948,-0.96419 -1.55948,-2.15357z" fill="#000000" stroke-width="0"/><path d="M242.11647,164.38889c0,-1.18938 0.69821,-2.15358 1.55948,-2.15358c0.86128,0 1.55949,0.96419 1.55949,2.15358c0,1.18938 -0.69821,2.15357 -1.55949,2.15357c-0.86128,0 -1.55948,-0.96419 -1.55948,-2.15357z" fill="#000000" stroke-width="0"/><path d="M228.87535,168.77015c0.09266,-2.17946 1.94769,-8.96086 4.63902,-11.1538c2.65497,-2.16331 6.83552,-2.16846 11.40137,-1.91616c4.56586,0.25231 3.86798,1.58604 2.30209,2.6734c-1.56589,1.08736 -8.47289,1.23536 -10.76138,3.20077c-1.80253,1.54806 -0.88335,4.66903 -1.863,7.64135c-0.97966,2.97232 0.12992,3.19323 -1.70801,3.19323c-1.8503,0 -4.10276,-1.45933 -4.0101,-3.63879z" fill="#000000" stroke-width="0"/><text transform="translate(234.17813,176.7536) scale(0.03756,0.03756)" font-size="40" xml:space="preserve" fill="#000000" fill-rule="nonzero" stroke="none" stroke-width="1" stroke-linecap="butt" stroke-linejoin="miter" stroke-miterlimit="10" stroke-dasharray="" stroke-dashoffset="0" font-family="Archivo Black" font-weight="normal" text-anchor="start" style="mix-blend-mode: normal"><tspan x="0" dy="0">Yes, I'm  a MAN.</tspan><tspan x="0" dy="46.150000000000006px"> </tspan><tspan x="0" dy="46.150000000000006px">Masculine </tspan><tspan x="0" dy="46.150000000000006px">Ass</tspan><tspan x="0" dy="46.150000000000006px">Nice guy</tspan></text><path d="M225.84868,185.0397c0,-2.14371 1.73782,-3.88153 3.88153,-3.88153c2.14371,0 3.88153,1.73782 3.88153,3.88153c0,2.14371 -1.73782,3.88153 -3.88153,3.88153c-2.14371,0 -3.88153,-1.73782 -3.88153,-3.88153z" fill="#ffdea1" stroke-width="NaN"/></g></g></svg>