<svg version="1.1" xmlns="http://www.w3.org/2000/svg" xmlns:xlink="http://www.w3.org/1999/xlink" width="32.57224" height="46.59457" viewBox="0,0,32.57224,46.59457"><g transform="translate(-224.00239,-154.89656)"><g data-paper-data="{&quot;isPaintingLayer&quot;:true}" fill-rule="nonzero" stroke="none" stroke-linecap="butt" stroke-linejoin="miter" stroke-miterlimit="10" stroke-dasharray="" stroke-dashoffset="0" style="mix-blend-mode: normal"><path d="M248.81158,179.92126c0,-2.14371 1.73782,-3.88153 3.88153,-3.88153c2.14371,0 3.88152,1.73782 3.88152,3.88153c0,2.14371 -1.73781,3.88153 -3.88152,3.88153c-2.14371,0 -3.88153,-1.73782 -3.88153,-3.88153z" fill="#ffdea1" stroke-width="NaN"/><path d="M234.20502,191.01471v-20.44643h12.71121v20.44643z" fill="#fffc00" stroke-width="0"/><path d="M234.20502,191.0147v-4.10899h12.71121v4.10899z" fill="#0061ff" stroke-width="0"/><path d="M230.4004,164.81044c0,-5.28122 4.28128,-9.5625 9.5625,-9.5625c5.28122,0 9.5625,4.28128 9.5625,9.5625c0,5.28122 -4.28128,9.5625 -9.5625,9.5625c-5.28122,0 -9.5625,-4.28128 -9.5625,-9.5625z" fill="#ffdea1" stroke-width="NaN"/><path d="M227.61379,193.74087c1.52853,-1.50302 1.83633,-1.86802 3.33935,-0.33949c1.50302,1.52853 3.61619,6.26208 2.08766,7.7651c-1.52853,1.50302 -4.16165,-2.6151 -5.66468,-4.14364c-1.50302,-1.52853 -1.29087,-1.77895 0.23766,-3.28198z" fill="#000000" stroke-width="NaN"/><path d="M248.39105,200.16453c-1.67514,-1.33768 -2.07434,-1.59958 -0.73666,-3.27471c1.33768,-1.67514 5.78433,-4.3396 7.45947,-3.00192c1.67514,1.33768 -2.09829,4.4447 -3.43597,6.11984c-1.33768,1.67514 -1.61169,1.49448 -3.28683,0.1568z" fill="#000000" stroke-width="NaN"/><path d="M245.45822,163.69653c0,-1.18938 0.6982,-2.15357 1.55948,-2.15357c0.86128,0 1.55948,0.96419 1.55948,2.15357c0,1.18938 -0.6982,2.15357 -1.55948,2.15357c-0.86128,0 -1.55948,-0.96419 -1.55948,-2.15357z" fill="#000000" stroke-width="0"/><path d="M242.11647,163.69653c0,-1.18938 0.69821,-2.15358 1.55948,-2.15358c0.86128,0 1.55949,0.96419 1.55949,2.15358c0,1.18938 -0.69821,2.15357 -1.55949,2.15357c-0.86128,0 -1.55948,-0.96419 -1.55948,-2.15357z" fill="#000000" stroke-width="0"/><path d="M228.87535,168.07779c0.09266,-2.17946 1.94769,-8.96086 4.63902,-11.1538c2.65497,-2.16331 6.83552,-2.16846 11.40137,-1.91616c4.56586,0.25231 3.86798,1.58604 2.30209,2.6734c-1.56589,1.08736 -8.47289,1.23536 -10.76138,3.20077c-1.80253,1.54806 -0.88335,4.66903 -1.863,7.64135c-0.97966,2.97232 0.12992,3.19323 -1.70801,3.19323c-1.8503,0 -4.10276,-1.45933 -4.0101,-3.63879z" fill="#000000" stroke-width="0"/><text transform="translate(234.17813,176.06124) scale(0.03756,0.03756)" font-size="40" xml:space="preserve" fill="#000000" fill-rule="nonzero" stroke="none" stroke-width="1" stroke-linecap="butt" stroke-linejoin="miter" stroke-miterlimit="10" stroke-dasharray="" stroke-dashoffset="0" font-family="Archivo Black" font-weight="normal" text-anchor="start" style="mix-blend-mode: normal"><tspan x="0" dy="0">Yes, I'm  a MAN.</tspan><tspan x="0" dy="46.150000000000006px"> </tspan><tspan x="0" dy="46.150000000000006px">Masculine </tspan><tspan x="0" dy="46.150000000000006px">Ass</tspan><tspan x="0" dy="46.150000000000006px">Nice guy</tspan></text><path d="M224.00239,180.65475c0,-2.14371 1.73782,-3.88153 3.88153,-3.88153c2.14371,0 3.88153,1.73782 3.88153,3.88153c0,2.14371 -1.73782,3.88153 -3.88153,3.88153c-2.14371,0 -3.88153,-1.73782 -3.88153,-3.88153z" fill="#ffdea1" stroke-width="NaN"/></g></g></svg>