<svg version="1.1" xmlns="http://www.w3.org/2000/svg" xmlns:xlink="http://www.w3.org/1999/xlink" width="34.84422" height="211.06454" viewBox="0,0,34.84422,211.06454"><g transform="translate(-229.63031,-165.24033)"><g data-paper-data="{&quot;isPaintingLayer&quot;:true}" fill="#926e00" fill-rule="nonzero" stroke="none" stroke-width="0" stroke-linecap="butt" stroke-linejoin="miter" stroke-miterlimit="10" stroke-dasharray="" stroke-dashoffset="0" style="mix-blend-mode: normal"><path d="M229.63031,273.48589v-108.24555h9.42507v108.24555z"/><path d="M255.04944,273.48589v-108.24555h9.42508v108.24555z"/><g><path d="M237.34173,176.66467v-7.14021h25.13353v7.14021z"/><path d="M237.34173,189.51705v-7.14021h25.13353v7.14021z"/><path d="M237.34173,202.36942v-7.14021h25.13353v7.14021z"/><path d="M237.34173,215.2218v-7.14021h25.13353v7.14021z"/></g><g><path d="M237.34173,228.07417v-7.14021h25.13353v7.14021z"/><path d="M237.34173,240.92654v-7.14021h25.13353v7.14021z"/><path d="M237.34173,253.77892v-7.14021h25.13353v7.14021z"/><path d="M237.34173,266.63129v-7.14021h25.13353v7.14021z"/></g><path d="M229.63031,376.30488v-108.24555h9.42508v108.24555z"/><path d="M255.04945,376.30488v-108.24555h9.42508v108.24555z"/><g><path d="M237.34173,279.48366v-7.1402h25.13353v7.1402z"/><path d="M237.34173,292.33603v-7.14021h25.13353v7.14021z"/><path d="M237.34173,305.18841v-7.14021h25.13353v7.14021z"/><path d="M237.34173,318.04079v-7.14021h25.13353v7.14021z"/></g><g><path d="M237.34173,330.89315v-7.14021h25.13353v7.14021z"/><path d="M237.34173,343.74554v-7.14021h25.13353v7.14021z"/><path d="M237.34173,356.59791v-7.14021h25.13353v7.14021z"/><path d="M237.34173,369.45029v-7.14021h25.13353v7.14021z"/></g></g></g></svg>