<svg version="1.1" xmlns="http://www.w3.org/2000/svg" xmlns:xlink="http://www.w3.org/1999/xlink" width="32.98414" height="47.30893" viewBox="0,0,32.98414,47.30893"><g transform="translate(-220.86321,-156.53981)"><g data-paper-data="{&quot;isPaintingLayer&quot;:true}" fill-rule="nonzero" stroke="none" stroke-linecap="butt" stroke-linejoin="miter" stroke-miterlimit="10" stroke-dasharray="" stroke-dashoffset="0" style="mix-blend-mode: normal"><path d="M245.90718,178.96088c0,-2.14371 1.73782,-3.88153 3.88153,-3.88153c2.14371,0 3.88152,1.73782 3.88152,3.88153c0,2.14371 -1.73781,3.88153 -3.88152,3.88153c-2.14371,0 -3.88153,-1.73782 -3.88153,-3.88153z" fill="#ffdea1" stroke-width="NaN"/><path d="M234.205,192.74562v-20.44643h12.71121v20.44643z" fill="#fffc00" stroke-width="0"/><path d="M234.205,192.74561v-4.10899h12.71121v4.10899z" fill="#0061ff" stroke-width="0"/><path d="M233.01967,164.22031c1.23762,-5.13416 6.40297,-8.29293 11.53713,-7.05532c5.13416,1.23762 8.29293,6.40297 7.05532,11.53713c-1.23762,5.13416 -6.40297,8.29293 -11.53713,7.05532c-5.13416,-1.23762 -8.29293,-6.40297 -7.05532,-11.53713z" fill="#ffdea1" stroke-width="NaN"/><path d="M220.86321,178.75949c0,-2.14371 1.73782,-3.88153 3.88153,-3.88153c2.14371,0 3.88153,1.73782 3.88153,3.88153c0,2.14371 -1.73782,3.88153 -3.88153,3.88153c-2.14371,0 -3.88153,-1.73782 -3.88153,-3.88153z" fill="#ffdea1" stroke-width="NaN"/><path d="M226.16234,197.24999c1.01221,-1.88969 1.19749,-2.32973 3.08718,-1.31752c1.88969,1.01221 5.31534,4.90282 4.30313,6.79251c-1.01221,1.88969 -4.75119,-1.25869 -6.64088,-2.2709c-1.88969,-1.01221 -1.76164,-1.3144 -0.74943,-3.20409z" fill="#000000" stroke-width="NaN"/><path d="M244.81209,201.94971c-0.7939,-1.99128 -1.01124,-2.41639 0.98003,-3.21029c1.99128,-0.7939 7.17382,-0.90935 7.96772,1.08193c0.7939,1.99128 -4.02255,2.8244 -6.01383,3.61831c-1.99128,0.7939 -2.14002,0.50134 -2.93392,-1.48995z" fill="#000000" stroke-width="NaN"/><path d="M247.91922,166.66611c0.27872,-1.15626 1.18343,-1.92998 2.02073,-1.72815c0.8373,0.20183 1.2901,1.30279 1.01138,2.45905c-0.27872,1.15626 -1.18343,1.92998 -2.02073,1.72815c-0.8373,-0.20183 -1.2901,-1.30279 -1.01138,-2.45905z" fill="#000000" stroke-width="0"/><path d="M244.67053,165.883c0.27872,-1.15626 1.18344,-1.92999 2.02073,-1.72816c0.8373,0.20183 1.29011,1.3028 1.01139,2.45907c-0.27872,1.15626 -1.18344,1.92998 -2.02074,1.72815c-0.8373,-0.20183 -1.2901,-1.30279 -1.01138,-2.45905z" fill="#000000" stroke-width="0"/><path d="M230.7714,167.03929c0.60082,-2.09706 3.99337,-8.25491 7.12366,-9.75609c3.088,-1.4809 7.15334,-0.50622 11.53293,0.80903c4.37959,1.31526 3.38859,2.44831 1.61149,3.13844c-1.7771,0.69013 -8.52645,-0.7846 -11.2118,0.58979c-2.11511,1.08254 -1.95291,4.33201 -3.60182,6.99199c-1.64892,2.65998 -0.62201,3.13476 -2.40876,2.70405c-1.79878,-0.4336 -3.64653,-2.38015 -3.04571,-4.4772z" fill="#000000" stroke-width="0"/><text transform="translate(234.17812,177.79215) scale(0.03756,0.03756)" font-size="40" xml:space="preserve" fill="#000000" fill-rule="nonzero" stroke="none" stroke-width="1" stroke-linecap="butt" stroke-linejoin="miter" stroke-miterlimit="10" stroke-dasharray="" stroke-dashoffset="0" font-family="Archivo Black" font-weight="normal" text-anchor="start" style="mix-blend-mode: normal"><tspan x="0" dy="0">Yes, I'm  a MAN.</tspan><tspan x="0" dy="46.15px"> </tspan><tspan x="0" dy="46.15px">Masculine </tspan><tspan x="0" dy="46.15px">Ass</tspan><tspan x="0" dy="46.15px">Nice guy</tspan></text></g></g></svg>