<svg version="1.1" xmlns="http://www.w3.org/2000/svg" xmlns:xlink="http://www.w3.org/1999/xlink" width="28.312" height="28.312" viewBox="0,0,28.312,28.312"><defs><radialGradient cx="240" cy="180" r="14.156" gradientUnits="userSpaceOnUse" id="color-1"><stop offset="0" stop-color="#c93a3a"/><stop offset="1" stop-color="#c93a3a" stop-opacity="0"/></radialGradient></defs><g transform="translate(-225.844,-165.844)"><g data-paper-data="{&quot;isPaintingLayer&quot;:true}" fill-rule="nonzero" stroke-linecap="butt" stroke-linejoin="miter" stroke-miterlimit="10" stroke-dasharray="" stroke-dashoffset="0" style="mix-blend-mode: normal"><path d="M225.844,180c0,-7.81815 6.33786,-14.156 14.156,-14.156c7.81815,0 14.156,6.33786 14.156,14.156c0,7.81815 -6.33786,14.156 -14.156,14.156c-7.81815,0 -14.156,-6.33786 -14.156,-14.156z" fill="url(#color-1)" stroke="none" stroke-width="0"/><path d="M233.00003,173c0,0 11.1372,0 13.0115,0c0.51661,0 0.9885,0.47856 0.9885,1.00087c0,1.54698 0,9.33094 0,12.05556c0,0.59068 -0.50192,0.94357 -1.04406,0.94357c-1.90978,0 -12.95594,0 -12.95594,0z" fill="#4a0d0d" stroke="#ffffff" stroke-width="2"/><path d="M239.74578,183.00847v-6.01695h12.62015v6.01695z" fill="#4a0d0d" stroke="#ffffff" stroke-width="1.5"/></g></g></svg>