<svg version="1.1" xmlns="http://www.w3.org/2000/svg" xmlns:xlink="http://www.w3.org/1999/xlink" width="211.06454" height="415.99598" viewBox="0,0,211.06454,415.99598"><g transform="translate(-167.44103,-37.0544)"><g data-paper-data="{&quot;isPaintingLayer&quot;:true}" fill-rule="nonzero" stroke="none" stroke-width="0" stroke-linecap="butt" stroke-linejoin="miter" stroke-miterlimit="10" stroke-dasharray="" stroke-dashoffset="0" style="mix-blend-mode: normal"><path d="M168.23877,147.23072v-108.24555h9.42507v108.24555z" fill="#926e00"/><path d="M193.65791,147.23072v-108.24555h9.42508v108.24555z" fill="#926e00"/><g fill="#926e00"><path d="M175.95019,50.4095v-7.14021h25.13353v7.14021z"/><path d="M175.95019,63.26188v-7.14021h25.13353v7.14021z"/><path d="M175.95019,76.11425v-7.14021h25.13353v7.14021z"/><path d="M175.95019,88.96663v-7.14021h25.13353v7.14021z"/></g><g fill="#926e00"><path d="M175.95019,101.819v-7.14021h25.13353v7.14021z"/><path d="M175.95019,114.67137v-7.14021h25.13353v7.14021z"/><path d="M175.95019,127.52375v-7.14021h25.13353v7.14021z"/><path d="M175.95019,140.37612v-7.14021h25.13353v7.14021z"/></g><path d="M168.23877,250.04971v-108.24555h9.42508v108.24555z" fill="#926e00"/><path d="M193.65791,250.04971v-108.24555h9.42508v108.24555z" fill="#926e00"/><g fill="#926e00"><path d="M175.95019,153.22849v-7.1402h25.13353v7.1402z"/><path d="M175.95019,166.08086v-7.14021h25.13353v7.14021z"/><path d="M175.95019,178.93324v-7.14021h25.13353v7.14021z"/><path d="M175.95019,191.78562v-7.14021h25.13353v7.14021z"/></g><g fill="#926e00"><path d="M175.95019,204.63798v-7.14021h25.13353v7.14021z"/><path d="M175.95019,217.49037v-7.14021h25.13353v7.14021z"/><path d="M175.95019,230.34274v-7.14021h25.13353v7.14021z"/><path d="M175.95019,243.19512v-7.14021h25.13353v7.14021z"/></g><path d="M270.26003,37.0544h108.24555v9.42507h-108.24555z" fill="#926e00"/><path d="M270.26003,62.47353h108.24555v9.42508h-108.24555z" fill="#926e00"/><g fill="#926e00"><path d="M367.08125,44.76582h7.14021v25.13353h-7.14021z"/><path d="M354.22887,44.76582h7.14021v25.13353h-7.14021z"/><path d="M341.3765,44.76582h7.14021v25.13353h-7.14021z"/><path d="M328.52412,44.76582h7.14021v25.13353h-7.14021z"/></g><g fill="#926e00"><path d="M315.67175,44.76582h7.14021v25.13353h-7.14021z"/><path d="M302.81937,44.76582h7.14021v25.13353h-7.14021z"/><path d="M289.967,44.76582h7.14021v25.13353h-7.14021z"/><path d="M277.11463,44.76582h7.14021v25.13353h-7.14021z"/></g><path d="M167.44104,37.0544h108.24555v9.42508h-108.24555z" fill="#926e00"/><path d="M167.44104,62.47354h108.24555v9.42508h-108.24555z" fill="#926e00"/><g fill="#926e00"><path d="M264.26226,44.76582h7.1402v25.13353h-7.1402z"/><path d="M251.40988,44.76582h7.14021v25.13353h-7.14021z"/><path d="M238.55751,44.76582h7.14021v25.13353h-7.14021z"/><path d="M225.70512,44.76582h7.14021v25.13353h-7.14021z"/></g><g fill="#926e00"><path d="M212.85276,44.76582h7.14021v25.13353h-7.14021z"/><path d="M200.00038,44.76582h7.14021v25.13353h-7.14021z"/><path d="M187.14801,44.76582h7.14021v25.13353h-7.14021z"/><path d="M174.29563,44.76582h7.14021v25.13353h-7.14021z"/></g><path d="M179.56769,44.76582h10.20949v25.13353h-10.20949z" fill="#926e00"/><path d="M168.23878,354.55131v-108.24555h9.42508v108.24555z" fill="#926e00"/><path d="M193.65792,354.55131v-108.24555h9.42508v108.24555z" fill="#926e00"/><g fill="#926e00"><path d="M175.9502,257.73009v-7.1402h25.13353v7.1402z"/><path d="M175.9502,270.58246v-7.14021h25.13353v7.14021z"/><path d="M175.9502,283.43484v-7.14021h25.13353v7.14021z"/><path d="M175.9502,296.28722v-7.14021h25.13353v7.14021z"/></g><g fill="#926e00"><path d="M175.9502,309.13958v-7.14021h25.13353v7.14021z"/><path d="M175.9502,321.99197v-7.14021h25.13353v7.14021z"/><path d="M175.9502,334.84434v-7.14021h25.13353v7.14021z"/><path d="M175.9502,347.69672v-7.14021h25.13353v7.14021z"/></g><path d="M168.23878,453.05038v-108.24555h9.42508v108.24555z" fill="#926e00"/><path d="M193.65792,453.05038v-108.24555h9.42508v108.24555z" fill="#926e00"/><g fill="#926e00"><path d="M175.9502,356.22916v-7.1402h25.13353v7.1402z"/><path d="M175.9502,369.08153v-7.14021h25.13353v7.14021z"/><path d="M175.9502,381.93391v-7.14021h25.13353v7.14021z"/><path d="M175.9502,394.78629v-7.14021h25.13353v7.14021z"/></g><g fill="#926e00"><path d="M175.9502,407.63865v-7.14021h25.13353v7.14021z"/><path d="M175.9502,420.49104v-7.14021h25.13353v7.14021z"/><path d="M175.9502,433.34341v-7.14021h25.13353v7.14021z"/><path d="M175.9502,446.19579v-7.14021h25.13353v7.14021z"/></g></g></g></svg>