<svg version="1.1" xmlns="http://www.w3.org/2000/svg" xmlns:xlink="http://www.w3.org/1999/xlink" width="22.7638" height="46.74507" viewBox="0,0,22.7638,46.74507"><g transform="translate(-228.6181,-156.62747)"><g data-paper-data="{&quot;isPaintingLayer&quot;:true}" fill-rule="nonzero" stroke="none" stroke-linecap="butt" stroke-linejoin="miter" stroke-miterlimit="10" stroke-dasharray="" stroke-dashoffset="0" style="mix-blend-mode: normal"><path d="M243.61885,188.1142c0,-2.14371 1.73782,-3.88153 3.88153,-3.88153c2.14371,0 3.88152,1.73782 3.88152,3.88153c0,2.14371 -1.73781,3.88153 -3.88152,3.88153c-2.14371,0 -3.88153,-1.73782 -3.88153,-3.88153z" fill="#ffdea1" stroke-width="NaN"/><path d="M234.20499,192.74562v-20.44643h12.71121v20.44643z" fill="#fffc00" stroke-width="0"/><path d="M234.20499,192.74561v-4.10899h12.71121v4.10899z" fill="#0061ff" stroke-width="0"/><path d="M230.40037,166.54135c0,-5.28122 4.28128,-9.5625 9.5625,-9.5625c5.28122,0 9.5625,4.28128 9.5625,9.5625c0,5.28122 -4.28128,9.5625 -9.5625,9.5625c-5.28122,0 -9.5625,-4.28128 -9.5625,-9.5625z" fill="#ffdea1" stroke-width="NaN"/><path d="M231.06872,200.66433c0,-2.14371 -0.04445,-2.61909 2.09926,-2.61909c2.14371,0 7.00049,1.81208 7.00049,3.95579c0,2.14371 -4.78252,1.13386 -6.92623,1.13386c-2.14371,0 -2.17352,-0.32685 -2.17352,-2.47056z" fill="#000000" stroke-width="NaN"/><path d="M240.94545,200.51581c0,-2.14371 -0.04445,-2.61908 2.09925,-2.61908c2.14371,0 7.0005,1.81207 7.0005,3.95578c0,2.14371 -4.78252,1.13386 -6.92623,1.13386c-2.14371,0 -2.17352,-0.32685 -2.17352,-2.47056z" fill="#000000" stroke-width="NaN"/><path d="M245.45819,165.42744c0,-1.18938 0.6982,-2.15357 1.55948,-2.15357c0.86128,0 1.55948,0.96419 1.55948,2.15357c0,1.18938 -0.6982,2.15357 -1.55948,2.15357c-0.86128,0 -1.55948,-0.96419 -1.55948,-2.15357z" fill="#000000" stroke-width="0"/><path d="M242.11644,165.42744c0,-1.18938 0.69821,-2.15358 1.55948,-2.15358c0.86128,0 1.55949,0.96419 1.55949,2.15358c0,1.18938 -0.69821,2.15357 -1.55949,2.15357c-0.86128,0 -1.55948,-0.96419 -1.55948,-2.15357z" fill="#000000" stroke-width="0"/><path d="M228.87532,169.8087c0.09266,-2.17946 1.94769,-8.96086 4.63902,-11.1538c2.65497,-2.16331 6.83552,-2.16846 11.40137,-1.91616c4.56586,0.25231 3.86798,1.58604 2.30209,2.6734c-1.56589,1.08736 -8.47289,1.23536 -10.76138,3.20077c-1.80253,1.54806 -0.88335,4.66903 -1.863,7.64135c-0.97966,2.97232 0.12992,3.19323 -1.70801,3.19323c-1.8503,0 -4.10276,-1.45933 -4.0101,-3.63879z" fill="#000000" stroke-width="0"/><text transform="translate(234.17812,177.79215) scale(0.03755,0.03755)" font-size="40" xml:space="preserve" fill="#000000" fill-rule="nonzero" stroke="none" stroke-width="1" stroke-linecap="butt" stroke-linejoin="miter" stroke-miterlimit="10" stroke-dasharray="" stroke-dashoffset="0" font-family="Archivo Black" font-weight="normal" text-anchor="start" style="mix-blend-mode: normal"><tspan x="0" dy="0">Yes, I'm  a MAN.</tspan><tspan x="0" dy="46.150000000000006px"> </tspan><tspan x="0" dy="46.150000000000006px">Masculine </tspan><tspan x="0" dy="46.150000000000006px">Ass</tspan><tspan x="0" dy="46.150000000000006px">Nice guy</tspan></text><path d="M228.6181,188.03994c0,-2.14371 1.73782,-3.88153 3.88153,-3.88153c2.14371,0 3.88153,1.73782 3.88153,3.88153c0,2.14371 -1.73782,3.88153 -3.88153,3.88153c-2.14371,0 -3.88153,-1.73782 -3.88153,-3.88153z" fill="#ffdea1" stroke-width="NaN"/></g></g></svg>