<svg version="1.1" xmlns="http://www.w3.org/2000/svg" xmlns:xlink="http://www.w3.org/1999/xlink" width="62.06517" height="23.43257" viewBox="0,0,62.06517,23.43257"><g transform="translate(-216.29699,-183.75824)"><g data-paper-data="{&quot;isPaintingLayer&quot;:true}" fill-rule="nonzero" stroke="none" stroke-linecap="butt" stroke-linejoin="miter" stroke-miterlimit="10" stroke-dasharray="" stroke-dashoffset="0" style="mix-blend-mode: normal"><path d="M252.74563,203.10403h-20.44643v-12.71121h20.44643z" fill="#fffc00" stroke-width="0"/><path d="M252.74562,203.10403h-4.10899v-12.71121h4.10899z" fill="#0061ff" stroke-width="0"/><path d="M221.58284,203.69932c-4.548,-2.68458 -6.0586,-8.54775 -3.37402,-13.09575c2.68458,-4.548 8.54775,-6.0586 13.09575,-3.37402c4.548,2.68458 6.0586,8.54775 3.37402,13.09575c-2.68458,4.548 -8.54775,6.0586 -13.09575,3.37402z" fill="#ffdea1" stroke-width="NaN"/><path d="M256.45136,205.63494c-1.27729,-1.72163 -1.59623,-2.07693 0.1254,-3.35422c1.72163,-1.27729 6.70185,-2.71581 7.97914,-0.99418c1.27729,1.72163 -3.1653,3.76019 -4.88693,5.03748c-1.72163,1.27729 -1.94032,1.03256 -3.21761,-0.68908z" fill="#000000" stroke-width="NaN"/><path d="M275.24508,205.33797c-2.13955,-0.13342 -2.61677,-0.11864 -2.48335,-2.25819c0.13342,-2.13955 2.24426,-6.87415 4.38381,-6.74072c2.13955,0.13342 0.834,4.84382 0.70058,6.98337c-0.13342,2.13955 -0.46149,2.14896 -2.60105,2.01554z" fill="#000000" stroke-width="NaN"/><path d="M228.27786,190.16583c-1.02425,-0.60459 -1.49967,-1.69598 -1.06185,-2.43768c0.43781,-0.7417 1.62305,-0.85285 2.6473,-0.24825c1.02425,0.60459 1.49967,1.69598 1.06185,2.43768c-0.43781,0.7417 -1.62305,0.85285 -2.6473,0.24825z" fill="#000000" stroke-width="0"/><path d="M226.57916,193.04363c-1.02425,-0.60459 -1.49967,-1.69599 -1.06186,-2.43769c0.43781,-0.7417 1.62306,-0.85286 2.64732,-0.24826c1.02425,0.60459 1.49966,1.69599 1.06185,2.43769c-0.43781,0.7417 -1.62305,0.85285 -2.6473,0.24825z" fill="#000000" stroke-width="0"/><path d="M223.62135,206.67352c-1.82977,-1.18767 -6.72672,-6.23232 -7.24713,-9.66473c-0.51338,-3.38603 1.60727,-6.98879 4.14548,-10.79249c2.53823,-3.8037 3.33204,-2.52474 3.47245,-0.62352c0.14041,1.90122 -3.24314,7.92452 -2.7139,10.89436c0.41686,2.33919 3.57177,3.1341 5.63345,5.48865c2.06167,2.35456 2.81594,1.51132 1.88167,3.09408c-0.94056,1.59341 -3.34226,2.79134 -5.17204,1.60367z" fill="#000000" stroke-width="0"/><text transform="translate(237.79216,203.1309) rotate(-90) scale(0.03755,0.03755)" font-size="40" xml:space="preserve" fill="#000000" fill-rule="nonzero" stroke="none" stroke-width="1" stroke-linecap="butt" stroke-linejoin="miter" stroke-miterlimit="10" stroke-dasharray="" stroke-dashoffset="0" font-family="Archivo Black" font-weight="normal" text-anchor="start" style="mix-blend-mode: normal"><tspan x="0" dy="0">Yes, I'm  a MAN.</tspan><tspan x="0" dy="46.150000000000006px"> </tspan><tspan x="0" dy="46.150000000000006px">Masculine </tspan><tspan x="0" dy="46.150000000000006px">Ass</tspan><tspan x="0" dy="46.150000000000006px">Nice guy</tspan></text><path d="M239.9624,207.1908c-2.14371,0 -3.88153,-1.73782 -3.88153,-3.88153c0,-2.14371 1.73782,-3.88153 3.88153,-3.88153c2.14371,0 3.88153,1.73782 3.88153,3.88153c0,2.14371 -1.73782,3.88153 -3.88153,3.88153z" fill="#ffdea1" stroke-width="NaN"/><path d="M242.80611,191.72848c-2.14371,0 -3.88153,-1.73782 -3.88153,-3.88153c0,-2.14371 1.73782,-3.88152 3.88153,-3.88152c2.14371,0 3.88153,1.73781 3.88153,3.88152c0,2.14371 -1.73782,3.88153 -3.88153,3.88153z" fill="#ffdea1" stroke-width="NaN"/></g></g></svg>