<svg version="1.1" xmlns="http://www.w3.org/2000/svg" xmlns:xlink="http://www.w3.org/1999/xlink" width="388.13097" height="317.64955" viewBox="0,0,388.13097,317.64955"><g transform="translate(-120.81855,-126.33408)"><g data-paper-data="{&quot;isPaintingLayer&quot;:true}" fill-rule="nonzero" stroke="none" stroke-width="0" stroke-linecap="butt" stroke-linejoin="miter" stroke-miterlimit="10" stroke-dasharray="" stroke-dashoffset="0" style="mix-blend-mode: normal"><path d="M124.22919,443.98363v-149.38608h375.85266v149.38608z" fill="#734600"/><path d="M120.81855,303.46521v-18.41746h388.13097v18.41746z" fill="#16ff00"/><path d="M355.57408,178.31693v108.24555h-9.42508v-108.24555z" fill="#926e00"/><path d="M330.15494,178.31693v108.24555h-9.42508v-108.24555z" fill="#926e00"/><g fill="#926e00"><path d="M347.86266,275.13815v7.1402h-25.13353v-7.1402z"/><path d="M347.86266,262.28578v7.14021h-25.13353v-7.14021z"/><path d="M347.86266,249.4334v7.14021h-25.13353v-7.14021z"/><path d="M347.86266,236.58102v7.14021h-25.13353v-7.14021z"/></g><g fill="#926e00"><path d="M347.86266,223.72866v7.14021h-25.13353v-7.14021z"/><path d="M347.86266,210.87627v7.14021h-25.13353v-7.14021z"/><path d="M347.86266,198.0239v7.14021h-25.13353v-7.14021z"/><path d="M347.86266,185.17152v7.14021h-25.13353v-7.14021z"/></g><path d="M355.57408,126.33408v75.5553h-9.42508v-75.5553z" fill="#926e00"/><path d="M330.15494,126.33408v68.58853h-9.42508v-68.58853z" fill="#926e00"/><g fill="#926e00"><path d="M347.86266,171.74581v7.14021h-25.13353v-7.14021z"/><path d="M347.86266,158.89342v7.14021h-25.13353v-7.14021z"/><path d="M347.86266,146.04105v7.14021h-25.13353v-7.14021z"/><path d="M347.86266,133.18867v7.14021h-25.13353v-7.14021z"/></g></g></g></svg>