<svg version="1.1" xmlns="http://www.w3.org/2000/svg" xmlns:xlink="http://www.w3.org/1999/xlink" width="27.85572" height="50.38285" viewBox="0,0,27.85572,50.38285"><g transform="translate(-307.02954,-156.44716)"><g data-paper-data="{&quot;isPaintingLayer&quot;:true}" fill-rule="nonzero" stroke="none" stroke-linecap="butt" stroke-linejoin="miter" stroke-miterlimit="10" stroke-dasharray="" stroke-dashoffset="0" style="mix-blend-mode: normal"><path d="M324.53333,181.75622c0.09221,-2.14173 1.90317,-3.80319 4.04489,-3.71098c2.14173,0.09221 3.80318,1.90317 3.71097,4.04489c-0.09221,2.14173 -1.90316,3.80319 -4.04488,3.71098c-2.14173,-0.09221 -3.80319,-1.90317 -3.71098,-4.04489z" fill="#ffdea1" stroke-width="NaN"/><path d="M315.17897,193.35343l0.87947,-20.42751l12.69945,0.54675l-0.87947,20.42751z" fill="#fffc00" stroke-width="0"/><path d="M315.17897,193.35342l0.17674,-4.10519l12.69945,0.54675l-0.17674,4.10519z" fill="#0061ff" stroke-width="0"/><path d="M314.5223,165.41025c1.00893,-5.18395 6.02926,-8.56848 11.21321,-7.55954c5.18395,1.00893 8.56848,6.02926 7.55954,11.21321c-1.00893,5.18395 -6.02926,8.56848 -11.21321,7.55954c-5.18395,-1.00893 -8.56848,-6.02926 -7.55954,-11.21321z" fill="#ffdea1" stroke-width="NaN"/><path d="M307.36433,199.47384c0.56164,-2.06883 0.6433,-2.53925 2.71212,-1.9776c2.06883,0.56164 6.2812,3.58289 5.71955,5.65171c-0.56164,2.06883 -4.91253,-0.15875 -6.98136,-0.7204c-2.06883,-0.56164 -2.01196,-0.88489 -1.45032,-2.95372z" fill="#000000" stroke-width="NaN"/><path d="M325.69325,204.73622c-0.5155,-2.08081 -0.67296,-2.53154 1.40784,-3.04703c2.08081,-0.5155 7.23083,0.07548 7.74633,2.15629c0.5155,2.08081 -4.36952,2.25064 -6.45033,2.76614c-2.08081,0.5155 -2.18834,0.20541 -2.70384,-1.8754z" fill="#000000" stroke-width="NaN"/><path d="M329.51559,167.19353c0.22722,-1.16747 1.09676,-1.98052 1.94218,-1.81598c0.84542,0.16454 1.34656,1.24436 1.11934,2.41183c-0.22722,1.16747 -1.09676,1.98052 -1.94218,1.81598c-0.84542,-0.16454 -1.34656,-1.24436 -1.11934,-2.41183z" fill="#000000" stroke-width="0"/><path d="M326.23539,166.55511c0.22722,-1.16747 1.09677,-1.98053 1.94218,-1.81599c0.84542,0.16454 1.34657,1.24436 1.11934,2.41184c-0.22722,1.16747 -1.09677,1.98052 -1.94219,1.81598c-0.84542,-0.16454 -1.34656,-1.24436 -1.11934,-2.41183z" fill="#000000" stroke-width="0"/><path d="M312.40114,168.32607c0.50732,-2.12162 3.62371,-8.42373 6.68442,-10.06212c3.01935,-1.61626 7.12389,-0.82265 11.55745,0.29727c4.43356,1.11993 3.49374,2.29577 1.74896,3.06396c-1.74478,0.76818 -8.55284,-0.40607 -11.17466,1.08595c-2.06507,1.17519 -1.75906,4.41428 -3.2885,7.1447c-1.52945,2.73042 -0.48251,3.15924 -2.28659,2.80812c-1.81622,-0.35348 -3.7484,-2.21625 -3.24108,-4.33787z" fill="#000000" stroke-width="0"/><text transform="translate(315.79532,178.41265) rotate(2.46524) scale(0.03755,0.03755)" font-size="40" xml:space="preserve" fill="#000000" fill-rule="nonzero" stroke="none" stroke-width="1" stroke-linecap="butt" stroke-linejoin="miter" stroke-miterlimit="10" stroke-dasharray="" stroke-dashoffset="0" font-family="Archivo Black" font-weight="normal" text-anchor="start" style="mix-blend-mode: normal"><tspan x="0" dy="0">Yes, I'm  a MAN.</tspan><tspan x="0" dy="46.150000000000006px"> </tspan><tspan x="0" dy="46.150000000000006px">Masculine </tspan><tspan x="0" dy="46.150000000000006px">Ass</tspan><tspan x="0" dy="46.150000000000006px">Nice guy</tspan></text><path d="M312.04966,160.1618c0.09221,-2.14173 1.90317,-3.80319 4.04489,-3.71098c2.14173,0.09221 3.80319,1.90317 3.71098,4.04489c-0.09221,2.14173 -1.90317,3.80319 -4.04489,3.71098c-2.14173,-0.09221 -3.80319,-1.90317 -3.71098,-4.04489z" fill="#ffdea1" stroke-width="NaN"/></g></g></svg>