<svg version="1.1" xmlns="http://www.w3.org/2000/svg" xmlns:xlink="http://www.w3.org/1999/xlink" width="51.53189" height="76.56858" viewBox="0,0,51.53189,76.56858"><g transform="translate(-218.28968,-146.13749)"><g data-paper-data="{&quot;isPaintingLayer&quot;:true}" fill-rule="nonzero" stroke="none" stroke-linecap="butt" stroke-linejoin="miter" stroke-miterlimit="10" stroke-dasharray="" stroke-dashoffset="0" style="mix-blend-mode: normal"><path d="M256.35411,167.69838c1.08836,-3.6388 4.92048,-5.70634 8.55928,-4.61799c3.6388,1.08836 5.70633,4.92048 4.61798,8.55928c-1.08836,3.6388 -4.92046,5.70635 -8.55927,4.61799c-3.6388,-1.08836 -5.70634,-4.92048 -4.61799,-8.55928z" fill="#ffdea1" stroke-width="NaN"/><path d="M228.20303,206.52008l3.12642,-36.09045l22.43684,1.94365l-3.12642,36.09045z" fill="#fffc00" stroke-width="0"/><text transform="translate(230.44212,180.12128) rotate(4.95103) scale(0.06653,0.06653)" font-size="40" xml:space="preserve" fill="#000000" fill-rule="nonzero" stroke="none" stroke-width="1" stroke-linecap="butt" stroke-linejoin="miter" stroke-miterlimit="10" stroke-dasharray="" stroke-dashoffset="0" font-family="Archivo Black" font-weight="normal" text-anchor="start" style="mix-blend-mode: normal"><tspan x="0" dy="0">Yes, I'm  a MAN.</tspan><tspan x="0" dy="46.150000000000006px"> </tspan><tspan x="0" dy="46.150000000000006px">Masculine </tspan><tspan x="0" dy="46.150000000000006px">Ass</tspan><tspan x="0" dy="46.150000000000006px">Nice guy</tspan></text><path d="M228.20304,206.52006l0.6283,-7.25287l22.43684,1.94365l-0.6283,7.25287z" fill="#0061ff" stroke-width="0"/><path d="M230.22349,158.9395c2.68127,-8.96452 12.12205,-14.0581 21.08657,-11.37683c8.96452,2.68127 14.0581,12.12205 11.37683,21.08657c-2.68127,8.96452 -12.12205,14.0581 -21.08657,11.37683c-8.96452,-2.68127 -14.0581,-12.12205 -11.37683,-21.08657z" fill="#ffdea1" stroke-width="NaN"/><path d="M218.77612,215.13615c0.85681,-3.70017 0.97009,-4.53848 4.67026,-3.68167c3.70017,0.85681 11.35902,5.92575 10.50221,9.62592c-0.85681,3.70017 -8.70811,0.04562 -12.40829,-0.81119c-3.70017,-0.85681 -3.621,-1.43289 -2.76419,-5.13306z" fill="#000000" stroke-width="NaN"/><path d="M243.11875,218.24413c-0.57143,-3.75485 -0.776,-4.57564 2.97883,-5.14707c3.75485,-0.57143 12.74486,1.3079 13.31629,5.06275c0.57143,3.75485 -8.07466,3.26087 -11.82951,3.83229c-3.75485,0.57143 -3.89419,0.00688 -4.46562,-3.74797z" fill="#000000" stroke-width="NaN"/><path d="M256.34865,164.69355c0.60385,-2.01889 2.27851,-3.30107 3.74048,-2.86379c1.46197,0.43727 2.15759,2.4284 1.55375,4.44729c-0.60385,2.01889 -2.27851,3.30107 -3.74048,2.86379c-1.46197,-0.43727 -2.15759,-2.4284 -1.55375,-4.44729z" fill="#ff6666" stroke-width="0"/><path d="M250.67626,162.99695c0.60385,-2.01889 2.27853,-3.30108 3.74048,-2.86381c1.46197,0.43727 2.15761,2.4284 1.55376,4.44731c-0.60385,2.01889 -2.27853,3.30106 -3.7405,2.86379c-1.46197,-0.43727 -2.15759,-2.4284 -1.55375,-4.44729z" fill="#ff6666" stroke-width="0"/><path d="M225.97599,163.71134c1.26379,-3.65244 7.8555,-14.22162 13.5372,-16.5776c5.60495,-2.32415 12.70376,-0.21043 20.32589,2.53592c7.62214,2.74637 5.76041,4.65597 2.55036,5.70669c-3.21005,1.05072 -15.00936,-2.20474 -19.89175,-0.03045c-3.84562,1.71259 -3.86989,7.47689 -7.04183,12.02484c-3.17196,4.54794 -1.40067,5.48625 -4.52043,4.55314c-3.14076,-0.9394 -6.22326,-4.56008 -4.95947,-8.21252z" fill="#969696" stroke-width="0"/><path d="M233.12781,161.1082c1.08836,-3.6388 4.92048,-5.70634 8.55928,-4.61799c3.6388,1.08836 5.70634,4.92048 4.61799,8.55928c-1.08836,3.6388 -4.92048,5.70634 -8.55928,4.61799c-3.6388,-1.08836 -5.70634,-4.92048 -4.61799,-8.55928z" fill="#ffdea1" stroke-width="NaN"/></g></g></svg>