<svg version="1.1" xmlns="http://www.w3.org/2000/svg" xmlns:xlink="http://www.w3.org/1999/xlink" width="33.37999" height="46.35163" viewBox="0,0,33.37999,46.35163"><g transform="translate(-223.54081,-153.16565)"><g data-paper-data="{&quot;isPaintingLayer&quot;:true}" fill-rule="nonzero" stroke="none" stroke-linecap="butt" stroke-linejoin="miter" stroke-miterlimit="10" stroke-dasharray="" stroke-dashoffset="0" style="mix-blend-mode: normal"><path d="M249.15776,177.95957c0,-2.14371 1.73782,-3.88153 3.88153,-3.88153c2.14371,0 3.88152,1.73782 3.88152,3.88153c0,2.14371 -1.73781,3.88153 -3.88152,3.88153c-2.14371,0 -3.88153,-1.73782 -3.88153,-3.88153z" fill="#ffdea1" stroke-width="NaN"/><path d="M234.20502,189.2838v-20.44643h12.71121v20.44643z" fill="#fffc00" stroke-width="0"/><path d="M234.20502,189.28379v-4.10899h12.71121v4.10899z" fill="#0061ff" stroke-width="0"/><path d="M230.4004,163.07953c0,-5.28122 4.28128,-9.5625 9.5625,-9.5625c5.28122,0 9.5625,4.28128 9.5625,9.5625c0,5.28122 -4.28128,9.5625 -9.5625,9.5625c-5.28122,0 -9.5625,-4.28128 -9.5625,-9.5625z" fill="#ffdea1" stroke-width="NaN"/><path d="M227.36462,191.09167c1.75422,-1.23215 2.11768,-1.54177 3.34983,0.21245c1.23215,1.75422 2.54088,6.77011 0.78666,8.00227c-1.75422,1.23215 -3.67673,-3.26186 -4.90889,-5.01609c-1.23215,-1.75422 -0.98183,-1.96648 0.77239,-3.19864z" fill="#000000" stroke-width="NaN"/><path d="M249.64155,198.20666c-1.89148,-1.00885 -2.33184,-1.19335 -1.32298,-3.08482c1.00885,-1.89148 4.89338,-5.32404 6.78486,-4.31519c1.89148,1.00885 -1.25026,4.75342 -2.25911,6.6449c-1.00885,1.89148 -1.31127,1.76397 -3.20275,0.75512z" fill="#000000" stroke-width="NaN"/><path d="M245.45822,161.96562c0,-1.18938 0.6982,-2.15357 1.55948,-2.15357c0.86128,0 1.55948,0.96419 1.55948,2.15357c0,1.18938 -0.6982,2.15357 -1.55948,2.15357c-0.86128,0 -1.55948,-0.96419 -1.55948,-2.15357z" fill="#000000" stroke-width="0"/><path d="M242.11647,161.96562c0,-1.18938 0.69821,-2.15358 1.55948,-2.15358c0.86128,0 1.55949,0.96419 1.55949,2.15358c0,1.18938 -0.69821,2.15357 -1.55949,2.15357c-0.86128,0 -1.55948,-0.96419 -1.55948,-2.15357z" fill="#000000" stroke-width="0"/><path d="M228.87535,166.34688c0.09266,-2.17946 1.94769,-8.96086 4.63902,-11.1538c2.65497,-2.16331 6.83552,-2.16846 11.40137,-1.91616c4.56586,0.25231 3.86798,1.58604 2.30209,2.6734c-1.56589,1.08736 -8.47289,1.23536 -10.76138,3.20077c-1.80253,1.54806 -0.88335,4.66903 -1.863,7.64135c-0.97966,2.97232 0.12992,3.19323 -1.70801,3.19323c-1.8503,0 -4.10276,-1.45933 -4.0101,-3.63879z" fill="#000000" stroke-width="0"/><text transform="translate(234.17813,174.33033) scale(0.03756,0.03756)" font-size="40" xml:space="preserve" fill="#000000" fill-rule="nonzero" stroke="none" stroke-width="1" stroke-linecap="butt" stroke-linejoin="miter" stroke-miterlimit="10" stroke-dasharray="" stroke-dashoffset="0" font-family="Archivo Black" font-weight="normal" text-anchor="start" style="mix-blend-mode: normal"><tspan x="0" dy="0">Yes, I'm  a MAN.</tspan><tspan x="0" dy="46.150000000000006px"> </tspan><tspan x="0" dy="46.150000000000006px">Masculine </tspan><tspan x="0" dy="46.150000000000006px">Ass</tspan><tspan x="0" dy="46.150000000000006px">Nice guy</tspan></text><path d="M223.54081,178.34688c0,-2.14371 1.73782,-3.88153 3.88153,-3.88153c2.14371,0 3.88153,1.73782 3.88153,3.88153c0,2.14371 -1.73782,3.88153 -3.88153,3.88153c-2.14371,0 -3.88153,-1.73782 -3.88153,-3.88153z" fill="#ffdea1" stroke-width="NaN"/></g></g></svg>