<svg version="1.1" xmlns="http://www.w3.org/2000/svg" xmlns:xlink="http://www.w3.org/1999/xlink" width="399.51431" height="34.84423" viewBox="0,0,399.51431,34.84423"><g transform="translate(-38.51879,-215.15132)"><g data-paper-data="{&quot;isPaintingLayer&quot;:true}" fill="#926e00" fill-rule="nonzero" stroke="none" stroke-width="0" stroke-linecap="butt" stroke-linejoin="miter" stroke-miterlimit="10" stroke-dasharray="" stroke-dashoffset="0" style="mix-blend-mode: normal"><path d="M38.51879,215.15132h108.24555v9.42508h-108.24555z"/><path d="M38.51879,240.57046h108.24555v9.42508h-108.24555z"/><g><path d="M135.34001,222.86274h7.1402v25.13353h-7.1402z"/><path d="M122.48764,222.86274h7.14021v25.13353h-7.14021z"/><path d="M109.63526,222.86274h7.14021v25.13353h-7.14021z"/><path d="M96.78288,222.86274h7.14021v25.13353h-7.14021z"/></g><g><path d="M83.93052,222.86274h7.14021v25.13353h-7.14021z"/><path d="M71.07813,222.86274h7.14021v25.13353h-7.14021z"/><path d="M58.22576,222.86274h7.14021v25.13353h-7.14021z"/><path d="M45.37338,222.86274h7.14021v25.13353h-7.14021z"/></g><path d="M329.78755,215.15133h108.24555v9.42508h-108.24555z"/><path d="M329.78755,240.57047h108.24555v9.42508h-108.24555z"/><g><path d="M426.60877,222.86275h7.1402v25.13353h-7.1402z"/><path d="M413.7564,222.86275h7.14021v25.13353h-7.14021z"/><path d="M400.90402,222.86275h7.14021v25.13353h-7.14021z"/><path d="M388.05164,222.86275h7.14021v25.13353h-7.14021z"/></g><g><path d="M375.19928,222.86275h7.14021v25.13353h-7.14021z"/><path d="M362.34689,222.86275h7.14021v25.13353h-7.14021z"/><path d="M349.49452,222.86275h7.14021v25.13353h-7.14021z"/><path d="M336.64214,222.86275h7.14021v25.13353h-7.14021z"/></g></g></g></svg>